<svg xmlns="http://www.w3.org/2000/svg" xmlns:xlink="http://www.w3.org/1999/xlink" version="1.0" viewBox="0 0 337.5 450">
  <defs>
    <path id="reuse-0" d="M0 .332h337.5v450H0Zm0 0"/>
  </defs>
  <defs>
    <clipPath id="a">
      <path d="M0 .332h337v449.336H0Zm0 0"/>
    </clipPath>
    <clipPath id="b">
      <path d="M0 158.281h337v291.387H0Zm0 0"/>
    </clipPath>
    <clipPath id="c">
      <path d="M.004 158.281H337v291.387H.004Zm0 0"/>
    </clipPath>
    <clipPath id="d">
      <path d="M0 .332h337V103H0Zm0 0"/>
    </clipPath>
    <clipPath id="e">
      <path d="M.012.332H337v102.75H.012Zm0 0"/>
    </clipPath>
    <clipPath id="f">
      <path d="M0 103.113h337V158H0Zm0 0"/>
    </clipPath>
    <clipPath id="g">
      <path d="M.023 103.113H337v55.5H.023Zm0 0"/>
    </clipPath>
  </defs>
  <g fill="#fff" clip-path="url(#a)">
    <path d="M0 .332h337.5v456.75H0Zm0 0"/>
    <use xlink:href="#reuse-0"/>
    <use xlink:href="#reuse-0"/>
  </g>
  <g clip-path="url(#b)">
    <path fill="#fff" d="M0 158.281h337.5v292.5H0Zm0 0"/>
  </g>
  <g clip-path="url(#c)">
    <path d="M.004 157.531h.75v1.5h-.75Zm1.5 0h.75v1.5h-.75Zm1.5 0h.75v1.5h-.75Zm1.5 0h.75v1.5h-.75Zm1.5 0h.75v1.5h-.75Zm1.5 0h.75v1.5h-.75Zm1.5 0h.75v1.5h-.75Zm1.5 0h.75v1.5h-.75Zm1.5 0h.75v1.5h-.75Zm1.5 0h.75v1.5h-.75Zm1.5 0h.75v1.5h-.75Zm1.5 0h.75v1.5h-.75Zm1.5 0h.75v1.5h-.75Zm1.5 0h.75v1.5h-.75Zm1.5 0h.75v1.5h-.75Zm1.5 0h.75v1.5h-.75Zm1.5 0h.75v1.5h-.75Zm1.5 0h.75v1.5h-.75Zm1.5 0h.75v1.5h-.75Zm1.5 0h.75v1.5h-.75Zm1.5 0h.75v1.5h-.75Zm1.5 0h.75v1.5h-.75Zm1.5 0h.75v1.5h-.75Zm1.5 0h.75v1.5h-.75Zm1.5 0h.75v1.5h-.75Zm1.5 0h.75v1.5h-.75Zm1.5 0h.75v1.5h-.75Zm1.5 0h.75v1.5h-.75Zm1.5 0h.75v1.5h-.75Zm1.5 0h.75v1.5h-.75Zm1.5 0h.75v1.5h-.75Zm1.5 0h.75v1.5h-.75Zm1.5 0h.75v1.5h-.75Zm1.5 0h.75v1.5h-.75Zm1.5 0h.75v1.5h-.75Zm1.5 0h.75v1.5h-.75Zm1.5 0h.75v1.5h-.75Zm1.5 0h.75v1.5h-.75Zm1.5 0h.75v1.5h-.75Zm1.5 0h.75v1.5h-.75Zm1.5 0h.75v1.5h-.75Zm1.5 0h.75v1.5h-.75Zm1.5 0h.75v1.5h-.75Zm1.5 0h.75v1.5h-.75Zm1.5 0h.75v1.5h-.75Zm1.5 0h.75v1.5h-.75Zm1.5 0h.75v1.5h-.75Zm1.5 0h.75v1.5h-.75Zm1.5 0h.75v1.5h-.75Zm1.5 0h.75v1.5h-.75Zm1.5 0h.75v1.5h-.75Zm1.5 0h.75v1.5h-.75Zm1.5 0h.75v1.5h-.75Zm1.5 0h.75v1.5h-.75Zm1.5 0h.75v1.5h-.75Zm1.5 0h.75v1.5h-.75Zm1.5 0h.75v1.5h-.75Zm1.5 0h.75v1.5h-.75Zm1.5 0h.75v1.5h-.75Zm1.5 0h.75v1.5h-.75Zm1.5 0h.75v1.5h-.75Zm1.5 0h.75v1.5h-.75Zm1.5 0h.75v1.5h-.75Zm1.5 0h.75v1.5h-.75Zm1.5 0h.75v1.5h-.75Zm1.5 0h.75v1.5h-.75Zm1.5 0h.75v1.5h-.75Zm1.5 0h.75v1.5h-.75Zm1.5 0h.75v1.5h-.75Zm1.5 0h.75v1.5h-.75Zm1.5 0h.75v1.5h-.75Zm1.5 0h.75v1.5h-.75Zm1.5 0h.75v1.5h-.75Zm1.5 0h.75v1.5h-.75Zm1.5 0h.75v1.5h-.75Zm1.5 0h.75v1.5h-.75Zm1.5 0h.75v1.5h-.75Zm1.5 0h.75v1.5h-.75Zm1.5 0h.75v1.5h-.75Zm1.5 0h.75v1.5h-.75Zm1.5 0h.75v1.5h-.75Zm1.5 0h.75v1.5h-.75Zm1.5 0h.75v1.5h-.75Zm1.5 0h.75v1.5h-.75Zm1.5 0h.75v1.5h-.75Zm1.5 0h.75v1.5h-.75Zm1.5 0h.75v1.5h-.75Zm1.5 0h.75v1.5h-.75Zm1.5 0h.75v1.5h-.75Zm1.5 0h.75v1.5h-.75Zm1.5 0h.75v1.5h-.75Zm1.5 0h.75v1.5h-.75Zm1.5 0h.75v1.5h-.75Zm1.5 0h.75v1.5h-.75Zm1.5 0h.75v1.5h-.75Zm1.5 0h.75v1.5h-.75Zm1.5 0h.75v1.5h-.75Zm1.5 0h.75v1.5h-.75Zm1.5 0h.75v1.5h-.75Zm1.5 0h.75v1.5h-.75Zm1.5 0h.75v1.5h-.75Zm1.5 0h.75v1.5h-.75Zm1.5 0h.75v1.5h-.75Zm1.5 0h.75v1.5h-.75Zm1.5 0h.75v1.5h-.75Zm1.5 0h.75v1.5h-.75Zm1.5 0h.75v1.5h-.75Zm1.5 0h.75v1.5h-.75Zm1.5 0h.75v1.5h-.75Zm1.5 0h.75v1.5h-.75Zm1.5 0h.75v1.5h-.75Zm1.5 0h.75v1.5h-.75Zm1.5 0h.75v1.5h-.75Zm1.5 0h.75v1.5h-.75Zm1.5 0h.75v1.5h-.75Zm1.5 0h.75v1.5h-.75Zm1.5 0h.75v1.5h-.75Zm1.5 0h.75v1.5h-.75Zm1.5 0h.75v1.5h-.75Zm1.5 0h.75v1.5h-.75Zm1.5 0h.75v1.5h-.75Zm1.5 0h.75v1.5h-.75Zm1.5 0h.75v1.5h-.75Zm1.5 0h.75v1.5h-.75Zm1.5 0h.75v1.5h-.75Zm1.5 0h.75v1.5h-.75Zm1.5 0h.75v1.5h-.75Zm1.5 0h.75v1.5h-.75Zm1.5 0h.75v1.5h-.75Zm1.5 0h.75v1.5h-.75Zm1.5 0h.75v1.5h-.75Zm1.5 0h.75v1.5h-.75Zm1.5 0h.75v1.5h-.75Zm1.5 0h.75v1.5h-.75Zm1.5 0h.75v1.5h-.75Zm1.5 0h.75v1.5h-.75Zm1.5 0h.75v1.5h-.75Zm1.5 0h.75v1.5h-.75Zm1.5 0h.75v1.5h-.75Zm1.5 0h.75v1.5h-.75Zm1.5 0h.75v1.5h-.75Zm1.5 0h.75v1.5h-.75Zm1.5 0h.75v1.5h-.75Zm1.5 0h.75v1.5h-.75Zm1.5 0h.75v1.5h-.75Zm1.5 0h.75v1.5h-.75Zm1.5 0h.75v1.5h-.75Zm1.5 0h.75v1.5h-.75Zm1.5 0h.75v1.5h-.75Zm1.5 0h.75v1.5h-.75Zm1.5 0h.75v1.5h-.75Zm1.5 0h.75v1.5h-.75Zm1.5 0h.75v1.5h-.75Zm1.5 0h.75v1.5h-.75Zm1.5 0h.75v1.5h-.75Zm1.5 0h.75v1.5h-.75Zm1.5 0h.75v1.5h-.75Zm1.5 0h.75v1.5h-.75Zm1.5 0h.75v1.5h-.75Zm1.5 0h.75v1.5h-.75Zm1.5 0h.75v1.5h-.75Zm1.5 0h.75v1.5h-.75Zm1.5 0h.75v1.5h-.75Zm1.5 0h.75v1.5h-.75Zm1.5 0h.75v1.5h-.75Zm1.5 0h.75v1.5h-.75Zm1.5 0h.75v1.5h-.75Zm1.5 0h.75v1.5h-.75Zm1.5 0h.75v1.5h-.75Zm1.5 0h.75v1.5h-.75Zm1.5 0h.75v1.5h-.75Zm1.5 0h.75v1.5h-.75Zm1.5 0h.75v1.5h-.75Zm1.5 0h.75v1.5h-.75Zm1.5 0h.75v1.5h-.75Zm1.5 0h.75v1.5h-.75Zm1.5 0h.75v1.5h-.75Zm1.5 0h.75v1.5h-.75Zm1.5 0h.75v1.5h-.75Zm1.5 0h.75v1.5h-.75Zm1.5 0h.75v1.5h-.75Zm1.5 0h.75v1.5h-.75Zm1.5 0h.75v1.5h-.75Zm1.5 0h.75v1.5h-.75Zm1.5 0h.75v1.5h-.75Zm1.5 0h.75v1.5h-.75Zm1.5 0h.75v1.5h-.75Zm1.5 0h.75v1.5h-.75Zm1.5 0h.75v1.5h-.75Zm1.5 0h.75v1.5h-.75Zm1.5 0h.75v1.5h-.75Zm1.5 0h.75v1.5h-.75Zm1.5 0h.75v1.5h-.75Zm1.5 0h.75v1.5h-.75Zm1.5 0h.75v1.5h-.75Zm1.5 0h.75v1.5h-.75Zm1.5 0h.75v1.5h-.75Zm1.5 0h.75v1.5h-.75Zm1.5 0h.75v1.5h-.75Zm1.5 0h.75v1.5h-.75Zm1.5 0h.75v1.5h-.75Zm1.5 0h.75v1.5h-.75Zm1.5 0h.75v1.5h-.75Zm1.5 0h.75v1.5h-.75Zm1.5 0h.75v1.5h-.75Zm1.5 0h.75v1.5h-.75Zm1.5 0h.75v1.5h-.75Zm1.5 0h.75v1.5h-.75Zm1.5 0h.75v1.5h-.75Zm1.5 0h.75v1.5h-.75Zm1.5 0h.75v1.5h-.75Zm1.5 0h.75v1.5h-.75Zm1.5 0h.75v1.5h-.75Zm1.5 0h.75v1.5h-.75Zm1.5 0h.75v1.5h-.75Zm1.5 0h.75v1.5h-.75Zm1.5 0h.75v1.5h-.75Zm1.5 0h.75v1.5h-.75Zm1.5 0h.75v1.5h-.75Zm1.5 0h.75v1.5h-.75Zm1.5 0h.75v1.5h-.75Zm1.5 0h.75v1.5h-.75Zm1.5 0h.75v1.5h-.75Zm1.5 0h.75v1.5h-.75Zm1.5 0h.75v1.5h-.75Zm2.242.762v.746h-1.5v-.746Zm0 1.496v.75h-1.5v-.75Zm0 1.5v.75h-1.5v-.75Zm0 1.496v.75h-1.5v-.75Zm0 1.5v.75h-1.5v-.75Zm0 1.5v.746h-1.5v-.746Zm0 1.496v.75h-1.5v-.75Zm0 1.5v.75h-1.5v-.75Zm0 1.496v.75h-1.5v-.75Zm0 1.5v.75h-1.5v-.75Zm0 1.5v.746h-1.5v-.746Zm0 1.496v.75h-1.5v-.75Zm0 1.5v.75h-1.5v-.75Zm0 1.5v.747h-1.5v-.747Zm0 1.497v.75h-1.5v-.75Zm0 1.5v.75h-1.5v-.75Zm0 1.496v.75h-1.5v-.75Zm0 1.5v.75h-1.5v-.75Zm0 1.5v.746h-1.5v-.746Zm0 1.496v.75h-1.5v-.75Zm0 1.5v.75h-1.5v-.75Zm0 1.496v.75h-1.5v-.75Zm0 1.5v.75h-1.5v-.75Zm0 1.5v.746h-1.5v-.746Zm0 1.496v.75h-1.5v-.75Zm0 1.5v.75h-1.5v-.75Zm0 1.5V198h-1.5v-.746Zm0 1.496v.75h-1.5v-.75Zm0 1.5v.75h-1.5v-.75Zm0 1.496v.75h-1.5v-.75Zm0 1.5v.75h-1.5v-.75Zm0 1.5v.746h-1.5v-.746Zm0 1.496v.75h-1.5v-.75Zm0 1.5v.75h-1.5v-.75Zm0 1.496v.75h-1.5v-.75Zm0 1.5v.75h-1.5v-.75Zm0 1.5v.746h-1.5v-.746Zm0 1.496v.75h-1.5v-.75Zm0 1.5v.75h-1.5v-.75Zm0 1.496v.75h-1.5v-.75Zm0 1.5v.75h-1.5v-.75Zm0 1.5v.75h-1.5v-.75Zm0 1.497v.75h-1.5v-.75Zm0 1.5v.75h-1.5v-.75Zm0 1.5v.746h-1.5v-.746Zm0 1.496v.75h-1.5v-.75Zm0 1.5v.75h-1.5v-.75Zm0 1.496v.75h-1.5v-.75Zm0 1.5v.75h-1.5v-.75Zm0 1.5v.746h-1.5v-.746Zm0 1.496v.75h-1.5v-.75Zm0 1.5v.75h-1.5v-.75Zm0 1.496v.75h-1.5v-.75Zm0 1.5v.75h-1.5v-.75Zm0 1.5v.75h-1.5v-.75Zm0 1.496v.75h-1.5v-.75Zm0 1.5v.75h-1.5v-.75Zm0 1.5v.746h-1.5v-.746Zm0 1.496v.75h-1.5v-.75Zm0 1.5v.75h-1.5v-.75Zm0 1.496v.75h-1.5v-.75Zm0 1.5v.75h-1.5v-.75Zm0 1.5v.746h-1.5v-.746Zm0 1.496v.75h-1.5v-.75Zm0 1.5v.75h-1.5v-.75Zm0 1.496v.75h-1.5v-.75Zm0 1.5v.75h-1.5v-.75Zm0 1.5v.75h-1.5v-.75Zm0 1.497v.75h-1.5v-.75Zm0 1.5v.75h-1.5v-.75Zm0 1.5v.746h-1.5v-.747Zm0 1.496v.75h-1.5v-.75Zm0 1.5v.75h-1.5v-.75Zm0 1.496v.75h-1.5v-.75Zm0 1.5v.75h-1.5v-.75Zm0 1.5v.746h-1.5v-.746Zm0 1.496v.75h-1.5v-.75Zm0 1.5v.75h-1.5v-.75Zm0 1.496v.75h-1.5v-.75Zm0 1.5v.75h-1.5v-.75Zm0 1.5v.75h-1.5v-.75Zm0 1.496v.75h-1.5v-.75Zm0 1.5v.75h-1.5v-.75Zm0 1.5v.746h-1.5v-.746Zm0 1.496v.75h-1.5v-.75Zm0 1.5v.75h-1.5v-.75Zm0 1.496v.75h-1.5v-.75Zm0 1.5v.75h-1.5v-.75Zm0 1.5v.746h-1.5v-.746Zm0 1.496v.75h-1.5v-.75Zm0 1.5v.75h-1.5v-.75Zm0 1.496v.75h-1.5v-.75Zm0 1.5v.75h-1.5v-.75Zm0 1.5v.75h-1.5v-.75Zm0 1.496v.75h-1.5v-.75Zm0 1.5v.75h-1.5v-.75Zm0 1.5v.747h-1.5v-.747Zm0 1.497v.75h-1.5v-.75Zm0 1.5v.75h-1.5v-.75Zm0 1.496v.75h-1.5v-.75Zm0 1.5v.75h-1.5v-.75Zm0 1.5v.746h-1.5v-.746Zm0 1.496v.75h-1.5v-.75Zm0 1.5v.75h-1.5v-.75Zm0 1.496v.75h-1.5v-.75Zm0 1.5v.75h-1.5v-.75Zm0 1.5v.746h-1.5v-.746Zm0 1.496v.75h-1.5v-.75Zm0 1.5v.75h-1.5v-.75Zm0 1.5v.746h-1.5v-.746Zm0 1.496v.75h-1.5v-.75Zm0 1.5v.75h-1.5v-.75Zm0 1.496v.75h-1.5v-.75Zm0 1.5v.75h-1.5v-.75Zm0 1.5v.746h-1.5v-.746Zm0 1.496v.75h-1.5v-.75Zm0 1.5v.75h-1.5v-.75Zm0 1.496v.75h-1.5v-.75Zm0 1.5v.75h-1.5v-.75Zm0 1.5v.746h-1.5v-.746Zm0 1.496v.75h-1.5v-.75Zm0 1.5v.75h-1.5v-.75Zm0 1.5v.746h-1.5v-.746Zm0 1.496v.75h-1.5v-.75Zm0 1.5v.75h-1.5v-.75Zm0 1.497v.75h-1.5v-.75Zm0 1.5v.75h-1.5v-.75Zm0 1.5v.746h-1.5v-.746Zm0 1.496v.75h-1.5v-.75Zm0 1.5v.75h-1.5v-.75Zm0 1.496v.75h-1.5v-.75Zm0 1.5v.75h-1.5v-.75Zm0 1.5v.746h-1.5v-.746Zm0 1.496v.75h-1.5v-.75Zm0 1.5v.75h-1.5v-.75Zm0 1.5v.746h-1.5v-.746Zm0 1.496v.75h-1.5v-.75Zm0 1.5v.75h-1.5v-.75Zm0 1.496v.75h-1.5v-.75Zm0 1.5v.75h-1.5v-.75Zm0 1.5v.746h-1.5v-.746Zm0 1.496v.75h-1.5v-.75Zm0 1.5v.75h-1.5v-.75Zm0 1.496v.75h-1.5v-.75Zm0 1.5v.75h-1.5v-.75Zm0 1.5v.746h-1.5v-.746Zm0 1.496v.75h-1.5v-.75Zm0 1.5v.75h-1.5v-.75Zm0 1.5v.746h-1.5v-.746Zm0 1.496v.75h-1.5v-.75Zm0 1.5v.75h-1.5v-.75Zm0 1.497v.75h-1.5v-.75Zm0 1.5v.75h-1.5v-.75Zm0 1.5v.746h-1.5v-.747Zm0 1.496v.75h-1.5v-.75Zm0 1.5v.75h-1.5v-.75Zm0 1.496v.75h-1.5v-.75Zm0 1.5v.75h-1.5v-.75Zm0 1.5v.746h-1.5v-.746Zm0 1.496v.75h-1.5v-.75Zm0 1.5v.75h-1.5v-.75Zm0 1.496v.75h-1.5v-.75Zm0 1.5v.75h-1.5v-.75Zm0 1.5v.75h-1.5v-.75Zm0 1.496v.75h-1.5v-.75Zm0 1.5v.75h-1.5v-.75Zm0 1.5v.746h-1.5v-.746Zm0 1.496v.75h-1.5v-.75Zm0 1.5v.75h-1.5v-.75Zm0 1.496v.75h-1.5v-.75Zm0 1.5v.75h-1.5v-.75Zm0 1.5v.746h-1.5v-.746Zm0 1.496v.75h-1.5v-.75Zm0 1.5v.75h-1.5v-.75Zm0 1.496v.75h-1.5v-.75Zm0 1.5v.75h-1.5v-.75Zm0 1.5v.75h-1.5v-.75Zm0 1.496v.75h-1.5v-.75Zm0 1.5v.75h-1.5v-.75Zm0 1.5v.747h-1.5v-.747Zm0 1.497v.75h-1.5v-.75Zm0 1.5v.75h-1.5v-.75Zm0 1.496v.75h-1.5v-.75Zm0 1.5v.75h-1.5v-.75Zm0 1.5v.746h-1.5v-.746Zm0 1.496v.75h-1.5v-.75Zm0 1.5v.75h-1.5v-.75Zm0 1.496v.75h-1.5v-.75Zm0 1.5v.75h-1.5v-.75Zm0 1.5v.75h-1.5v-.75Zm0 1.496v.75h-1.5v-.75Zm0 1.5v.75h-1.5v-.75Zm0 1.5v.746h-1.5v-.746Zm0 1.496v.75h-1.5v-.75Zm0 1.5v.75h-1.5V449Zm-1.219 1.781h-.75v-1.5h.75Zm-1.5 0h-.75v-1.5h.75Zm-1.5 0h-.75v-1.5h.75Zm-1.5 0h-.75v-1.5h.75Zm-1.5 0h-.75v-1.5h.75Zm-1.5 0h-.75v-1.5h.75Zm-1.5 0h-.75v-1.5h.75Zm-1.5 0h-.75v-1.5h.75Zm-1.5 0h-.75v-1.5h.75Zm-1.5 0h-.75v-1.5h.75Zm-1.5 0h-.75v-1.5h.75Zm-1.5 0h-.75v-1.5h.75Zm-1.5 0h-.75v-1.5h.75Zm-1.5 0h-.75v-1.5h.75Zm-1.5 0h-.75v-1.5h.75Zm-1.5 0h-.75v-1.5h.75Zm-1.5 0h-.75v-1.5h.75Zm-1.5 0h-.75v-1.5h.75Zm-1.5 0h-.75v-1.5h.75Zm-1.5 0h-.75v-1.5h.75Zm-1.5 0h-.75v-1.5h.75Zm-1.5 0h-.75v-1.5h.75Zm-1.5 0h-.75v-1.5h.75Zm-1.5 0h-.75v-1.5h.75Zm-1.5 0h-.75v-1.5h.75Zm-1.5 0h-.75v-1.5h.75Zm-1.5 0h-.75v-1.5h.75Zm-1.5 0h-.75v-1.5h.75Zm-1.5 0h-.75v-1.5h.75Zm-1.5 0h-.75v-1.5h.75Zm-1.5 0h-.75v-1.5h.75Zm-1.5 0h-.75v-1.5h.75Zm-1.5 0h-.75v-1.5h.75Zm-1.5 0h-.75v-1.5h.75Zm-1.5 0h-.75v-1.5h.75Zm-1.5 0h-.75v-1.5h.75Zm-1.5 0h-.75v-1.5h.75Zm-1.5 0h-.75v-1.5h.75Zm-1.5 0h-.75v-1.5h.75Zm-1.5 0h-.75v-1.5h.75Zm-1.5 0h-.75v-1.5h.75Zm-1.5 0h-.75v-1.5h.75Zm-1.5 0h-.75v-1.5h.75Zm-1.5 0h-.75v-1.5h.75Zm-1.5 0h-.75v-1.5h.75Zm-1.5 0h-.75v-1.5h.75Zm-1.5 0h-.75v-1.5h.75Zm-1.5 0h-.75v-1.5h.75Zm-1.5 0h-.75v-1.5h.75Zm-1.5 0h-.75v-1.5h.75Zm-1.5 0h-.75v-1.5h.75Zm-1.5 0h-.75v-1.5h.75Zm-1.5 0h-.75v-1.5h.75Zm-1.5 0h-.75v-1.5h.75Zm-1.5 0h-.75v-1.5h.75Zm-1.5 0h-.75v-1.5h.75Zm-1.5 0h-.75v-1.5h.75Zm-1.5 0h-.75v-1.5h.75Zm-1.5 0h-.75v-1.5h.75Zm-1.5 0h-.75v-1.5h.75Zm-1.5 0h-.75v-1.5h.75Zm-1.5 0h-.75v-1.5h.75Zm-1.5 0h-.75v-1.5h.75Zm-1.5 0h-.75v-1.5h.75Zm-1.5 0h-.75v-1.5h.75Zm-1.5 0h-.75v-1.5h.75Zm-1.5 0h-.75v-1.5h.75Zm-1.5 0h-.75v-1.5h.75Zm-1.5 0h-.75v-1.5h.75Zm-1.5 0h-.75v-1.5h.75Zm-1.5 0h-.75v-1.5h.75Zm-1.5 0h-.75v-1.5h.75Zm-1.5 0h-.75v-1.5h.75Zm-1.5 0h-.75v-1.5h.75Zm-1.5 0h-.75v-1.5h.75Zm-1.5 0h-.75v-1.5h.75Zm-1.5 0h-.75v-1.5h.75Zm-1.5 0h-.75v-1.5h.75Zm-1.5 0h-.75v-1.5h.75Zm-1.5 0h-.75v-1.5h.75Zm-1.5 0h-.75v-1.5h.75Zm-1.5 0h-.75v-1.5h.75Zm-1.5 0h-.75v-1.5h.75Zm-1.5 0h-.75v-1.5h.75Zm-1.5 0h-.75v-1.5h.75Zm-1.5 0h-.75v-1.5h.75Zm-1.5 0h-.75v-1.5h.75Zm-1.5 0h-.75v-1.5h.75Zm-1.5 0h-.75v-1.5h.75Zm-1.5 0h-.75v-1.5h.75Zm-1.5 0h-.75v-1.5h.75Zm-1.5 0h-.75v-1.5h.75Zm-1.5 0h-.75v-1.5h.75Zm-1.5 0h-.75v-1.5h.75Zm-1.5 0h-.75v-1.5h.75Zm-1.5 0h-.75v-1.5h.75Zm-1.5 0h-.75v-1.5h.75Zm-1.5 0h-.75v-1.5h.75Zm-1.5 0h-.75v-1.5h.75Zm-1.5 0h-.75v-1.5h.75Zm-1.5 0h-.75v-1.5h.75Zm-1.5 0h-.75v-1.5h.75Zm-1.5 0h-.75v-1.5h.75Zm-1.5 0h-.75v-1.5h.75Zm-1.5 0h-.75v-1.5h.75Zm-1.5 0h-.75v-1.5h.75Zm-1.5 0h-.75v-1.5h.75Zm-1.5 0h-.75v-1.5h.75Zm-1.5 0h-.75v-1.5h.75Zm-1.5 0h-.75v-1.5h.75Zm-1.5 0h-.75v-1.5h.75Zm-1.5 0h-.75v-1.5h.75Zm-1.5 0h-.75v-1.5h.75Zm-1.5 0h-.75v-1.5h.75Zm-1.5 0h-.75v-1.5h.75Zm-1.5 0h-.75v-1.5h.75Zm-1.5 0h-.75v-1.5h.75Zm-1.5 0h-.75v-1.5h.75Zm-1.5 0h-.75v-1.5h.75Zm-1.5 0h-.75v-1.5h.75Zm-1.5 0h-.75v-1.5h.75Zm-1.5 0h-.75v-1.5h.75Zm-1.5 0h-.75v-1.5h.75Zm-1.5 0h-.75v-1.5h.75Zm-1.5 0h-.75v-1.5h.75Zm-1.5 0h-.75v-1.5h.75Zm-1.5 0h-.75v-1.5h.75Zm-1.5 0h-.75v-1.5h.75Zm-1.5 0h-.75v-1.5h.75Zm-1.5 0h-.75v-1.5h.75Zm-1.5 0h-.75v-1.5h.75Zm-1.5 0h-.75v-1.5h.75Zm-1.5 0h-.75v-1.5h.75Zm-1.5 0h-.75v-1.5h.75Zm-1.5 0h-.75v-1.5h.75Zm-1.5 0h-.75v-1.5h.75Zm-1.5 0h-.75v-1.5h.75Zm-1.5 0h-.75v-1.5h.75Zm-1.5 0h-.75v-1.5h.75Zm-1.5 0h-.75v-1.5h.75Zm-1.5 0h-.75v-1.5h.75Zm-1.5 0h-.75v-1.5h.75Zm-1.5 0h-.75v-1.5h.75Zm-1.5 0h-.75v-1.5h.75Zm-1.5 0h-.75v-1.5h.75Zm-1.5 0h-.75v-1.5h.75Zm-1.5 0h-.75v-1.5h.75Zm-1.5 0h-.75v-1.5h.75Zm-1.5 0h-.75v-1.5h.75Zm-1.5 0h-.75v-1.5h.75Zm-1.5 0h-.75v-1.5h.75Zm-1.5 0h-.75v-1.5h.75Zm-1.5 0h-.75v-1.5h.75Zm-1.5 0h-.75v-1.5h.75Zm-1.5 0h-.75v-1.5h.75Zm-1.5 0h-.75v-1.5h.75Zm-1.5 0h-.75v-1.5h.75Zm-1.5 0h-.75v-1.5h.75Zm-1.5 0h-.75v-1.5h.75Zm-1.5 0h-.75v-1.5h.75Zm-1.5 0h-.75v-1.5h.75Zm-1.5 0h-.75v-1.5h.75Zm-1.5 0h-.75v-1.5h.75Zm-1.5 0h-.75v-1.5h.75Zm-1.5 0h-.75v-1.5h.75Zm-1.5 0h-.75v-1.5h.75Zm-1.5 0h-.75v-1.5h.75Zm-1.5 0h-.75v-1.5h.75Zm-1.5 0h-.75v-1.5h.75Zm-1.5 0h-.75v-1.5h.75Zm-1.5 0h-.75v-1.5h.75Zm-1.5 0h-.75v-1.5h.75Zm-1.5 0h-.75v-1.5h.75Zm-1.5 0h-.75v-1.5h.75Zm-1.5 0h-.75v-1.5h.75Zm-1.5 0h-.75v-1.5h.75Zm-1.5 0h-.75v-1.5h.75Zm-1.5 0h-.75v-1.5h.75Zm-1.5 0h-.75v-1.5h.75Zm-1.5 0h-.75v-1.5h.75Zm-1.5 0h-.75v-1.5h.75Zm-1.5 0h-.75v-1.5h.75Zm-1.5 0h-.75v-1.5h.75Zm-1.5 0h-.75v-1.5h.75Zm-1.5 0h-.75v-1.5h.75Zm-1.5 0h-.75v-1.5h.75Zm-1.5 0h-.75v-1.5h.75Zm-1.5 0h-.75v-1.5h.75Zm-1.5 0h-.75v-1.5h.75Zm-1.5 0h-.75v-1.5h.75Zm-1.5 0h-.75v-1.5h.75Zm-1.5 0h-.75v-1.5h.75Zm-1.5 0h-.75v-1.5h.75Zm-1.5 0h-.75v-1.5h.75Zm-1.5 0h-.75v-1.5h.75Zm-1.5 0h-.75v-1.5h.75Zm-1.5 0h-.75v-1.5h.75Zm-1.5 0h-.75v-1.5h.75Zm-1.5 0h-.75v-1.5h.75Zm-1.5 0h-.75v-1.5h.75Zm-1.5 0h-.75v-1.5h.75Zm-1.5 0h-.75v-1.5h.75Zm-1.5 0h-.75v-1.5h.75Zm-1.5 0h-.75v-1.5h.75Zm-1.5 0h-.75v-1.5h.75Zm-1.5 0h-.75v-1.5h.75Zm-1.5 0h-.75v-1.5h.75Zm-1.5 0h-.75v-1.5h.75Zm-1.5 0h-.75v-1.5h.75Zm-1.5 0h-.75v-1.5h.75Zm-1.5 0h-.75v-1.5h.75Zm-1.5 0h-.75v-1.5h.75Zm-1.5 0h-.75v-1.5h.75Zm-1.5 0h-.75v-1.5h.75Zm-1.5 0h-.75v-1.5h.75Zm-1.5 0h-.75v-1.5h.75Zm-1.5 0h-.75v-1.5h.75Zm-1.5 0h-.75v-1.5h.75Zm-1.5 0h-.75v-1.5h.75Zm-1.5 0h-.75v-1.5h.75Zm-1.5 0h-.75v-1.5h.75Zm-1.5 0h-.75v-1.5h.75Zm-1.5 0h-.75v-1.5h.75Zm-1.5 0h-.75v-1.5h.75Zm-1.5 0h-.75v-1.5h.75Zm-1.773-1.226v-.746h1.5v.746Zm0-1.496v-.75h1.5v.75Zm0-1.5v-.75h1.5v.75Zm0-1.5v-.747h1.5v.747Zm0-1.497v-.75h1.5v.75Zm0-1.5v-.75h1.5v.75Zm0-1.496v-.75h1.5v.75Zm0-1.5v-.75h1.5v.75Zm0-1.5v-.746h1.5v.746Zm0-1.496v-.75h1.5v.75Zm0-1.5v-.75h1.5v.75Zm0-1.496v-.75h1.5v.75Zm0-1.5v-.75h1.5v.75Zm0-1.5v-.746h1.5v.746Zm0-1.496v-.75h1.5v.75Zm0-1.5v-.75h1.5v.75Zm0-1.5v-.746h1.5v.746Zm0-1.496v-.75h1.5v.75Zm0-1.5v-.75h1.5v.75Zm0-1.496v-.75h1.5v.75Zm0-1.5v-.75h1.5v.75Zm0-1.5v-.746h1.5v.746Zm0-1.496v-.75h1.5v.75Zm0-1.5v-.75h1.5v.75Zm0-1.496v-.75h1.5v.75Zm0-1.5v-.75h1.5v.75Zm0-1.5v-.746h1.5v.746Zm0-1.496v-.75h1.5v.75Zm0-1.5v-.75h1.5v.75Zm0-1.5v-.746h1.5v.746Zm0-1.496v-.75h1.5v.75Zm0-1.5v-.75h1.5v.75Zm0-1.497v-.75h1.5v.75Zm0-1.5v-.75h1.5v.75Zm0-1.5v-.746h1.5v.746Zm0-1.496v-.75h1.5v.75Zm0-1.5v-.75h1.5v.75Zm0-1.496v-.75h1.5v.75Zm0-1.5v-.75h1.5v.75Zm0-1.5v-.746h1.5v.746Zm0-1.496v-.75h1.5v.75Zm0-1.5v-.75h1.5v.75Zm0-1.496v-.75h1.5v.75Zm0-1.5v-.75h1.5v.75Zm0-1.5v-.75h1.5v.75Zm0-1.496v-.75h1.5v.75Zm0-1.5v-.75h1.5v.75Zm0-1.5v-.746h1.5v.746Zm0-1.496v-.75h1.5v.75Zm0-1.5v-.75h1.5v.75Zm0-1.496v-.75h1.5v.75Zm0-1.5v-.75h1.5v.75Zm0-1.5v-.746h1.5v.746Zm0-1.496v-.75h1.5v.75Zm0-1.5v-.75h1.5v.75Zm0-1.496v-.75h1.5v.75Zm0-1.5v-.75h1.5v.75Zm0-1.5v-.75h1.5v.75Zm0-1.496v-.75h1.5v.75Zm0-1.5v-.75h1.5v.75Zm0-1.5v-.747h1.5v.747Zm0-1.497v-.75h1.5v.75Zm0-1.5v-.75h1.5v.75Zm0-1.496v-.75h1.5v.75Zm0-1.5v-.75h1.5v.75Zm0-1.5v-.746h1.5v.746Zm0-1.496v-.75h1.5v.75Zm0-1.5v-.75h1.5v.75Zm0-1.496v-.75h1.5v.75Zm0-1.5v-.75h1.5v.75Zm0-1.5v-.75h1.5v.75Zm0-1.496v-.75h1.5v.75Zm0-1.5v-.75h1.5v.75Zm0-1.5v-.746h1.5v.746Zm0-1.496v-.75h1.5v.75Zm0-1.5v-.75h1.5v.75Zm0-1.496v-.75h1.5v.75Zm0-1.5v-.75h1.5v.75Zm0-1.5v-.746h1.5v.746Zm0-1.496v-.75h1.5v.75Zm0-1.5v-.75h1.5v.75Zm0-1.496v-.75h1.5v.75Zm0-1.5v-.75h1.5v.75Zm0-1.5v-.75h1.5v.75Zm0-1.496v-.75h1.5v.75Zm0-1.5v-.75h1.5v.75Zm0-1.5v-.747h1.5v.747Zm0-1.497v-.75h1.5v.75Zm0-1.5v-.75h1.5v.75Zm0-1.496v-.75h1.5v.75Zm0-1.5v-.75h1.5v.75Zm0-1.5v-.746h1.5v.746Zm0-1.496v-.75h1.5v.75Zm0-1.5v-.75h1.5v.75Zm0-1.496v-.75h1.5v.75Zm0-1.5v-.75h1.5v.75Zm0-1.5v-.746h1.5v.746Zm0-1.496v-.75h1.5v.75Zm0-1.5v-.75h1.5v.75Zm0-1.5v-.746h1.5v.746Zm0-1.496v-.75h1.5v.75Zm0-1.5v-.75h1.5v.75Zm0-1.496v-.75h1.5v.75Zm0-1.5v-.75h1.5v.75Zm0-1.5v-.746h1.5v.746Zm0-1.496v-.75h1.5v.75Zm0-1.5v-.75h1.5v.75Zm0-1.496v-.75h1.5v.75Zm0-1.5v-.75h1.5v.75Zm0-1.5v-.746h1.5v.746Zm0-1.496v-.75h1.5v.75Zm0-1.5v-.75h1.5v.75Zm0-1.5v-.746h1.5v.746Zm0-1.496v-.75h1.5v.75Zm0-1.5v-.75h1.5v.75Zm0-1.497v-.75h1.5v.75Zm0-1.5v-.75h1.5v.75Zm0-1.5v-.746h1.5v.746Zm0-1.496v-.75h1.5v.75Zm0-1.5v-.75h1.5v.75Zm0-1.496v-.75h1.5v.75Zm0-1.5v-.75h1.5v.75Zm0-1.5v-.746h1.5v.746Zm0-1.496v-.75h1.5v.75Zm0-1.5v-.75h1.5v.75Zm0-1.5v-.746h1.5v.746Zm0-1.496v-.75h1.5v.75Zm0-1.5v-.75h1.5v.75Zm0-1.496V257h1.5v.75Zm0-1.5v-.75h1.5v.75Zm0-1.5v-.746h1.5v.746Zm0-1.496v-.75h1.5v.75Zm0-1.5v-.75h1.5v.75Zm0-1.496v-.75h1.5v.75Zm0-1.5v-.75h1.5v.75Zm0-1.5v-.746h1.5v.746Zm0-1.496v-.75h1.5v.75Zm0-1.5v-.75h1.5v.75Zm0-1.5v-.746h1.5v.746Zm0-1.496v-.75h1.5v.75Zm0-1.5v-.75h1.5v.75Zm0-1.496v-.75h1.5v.75Zm0-1.5v-.75h1.5v.75Zm0-1.5v-.747h1.5v.747Zm0-1.497v-.75h1.5v.75Zm0-1.5v-.75h1.5v.75Zm0-1.496v-.75h1.5v.75Zm0-1.5v-.75h1.5v.75Zm0-1.5v-.746h1.5v.746Zm0-1.496v-.75h1.5v.75Zm0-1.5v-.75h1.5v.75Zm0-1.496v-.75h1.5v.75Zm0-1.5v-.75h1.5v.75Zm0-1.5v-.75h1.5v.75Zm0-1.496v-.75h1.5v.75Zm0-1.5v-.75h1.5v.75Zm0-1.5v-.746h1.5v.746Zm0-1.496v-.75h1.5v.75Zm0-1.5v-.75h1.5v.75Zm0-1.496v-.75h1.5v.75Zm0-1.5v-.75h1.5v.75Zm0-1.5v-.746h1.5v.746Zm0-1.496v-.75h1.5v.75Zm0-1.5v-.75h1.5v.75Zm0-1.496v-.75h1.5v.75Zm0-1.5v-.75h1.5v.75Zm0-1.5v-.75h1.5v.75Zm0-1.496v-.75h1.5v.75Zm0-1.5v-.75h1.5v.75Zm0-1.5v-.746h1.5v.746Zm0-1.496v-.75h1.5v.75Zm0-1.5v-.75h1.5v.75Zm0-1.497v-.75h1.5v.75Zm0-1.5v-.75h1.5v.75Zm0-1.5v-.746h1.5v.746Zm0-1.496v-.75h1.5v.75Zm0-1.5v-.75h1.5v.75Zm0-1.496v-.75h1.5v.75Zm0-1.5v-.75h1.5v.75Zm0-1.5v-.75h1.5v.75Zm0-1.496v-.75h1.5v.75Zm0-1.5v-.75h1.5v.75Zm0-1.5v-.746h1.5v.746Zm0-1.496v-.75h1.5v.75Zm0-1.5v-.75h1.5v.75Zm0-1.496v-.75h1.5v.75Zm0-1.5v-.75h1.5v.75Zm0-1.5v-.746h1.5v.746Zm0-1.496v-.75h1.5v.75Zm0-1.5v-.75h1.5v.75Zm0-1.496v-.75h1.5v.75Zm0-1.5v-.75h1.5v.75Zm0-1.5v-.75h1.5v.75Zm0-1.496v-.75h1.5v.75Zm0-1.5v-.567h1.5v.567Zm0 0"/>
  </g>
  <path d="M80.684 314.282h-2.22v-20.375h3.548l6.172 17.25h.296l6.172-17.25h3.422v20.375H95.81v-16.625l-.344-.047-6.016 16.672h-2.39l-6.032-16.672-.343.047ZM107.51 314.578c-1.523 0-2.71-.394-3.562-1.187-.844-.79-1.266-1.922-1.266-3.39 0-.907.188-1.673.563-2.298.375-.625.957-1.132 1.75-1.53.789-.395 1.82-.704 3.093-.923 1.114-.187 1.961-.394 2.547-.625.582-.226.973-.484 1.172-.765.195-.29.297-.657.297-1.094 0-.695-.242-1.234-.719-1.61-.48-.374-1.25-.562-2.312-.562-.993 0-1.84.195-2.547.578-.711.387-1.36.965-1.953 1.735h-.282l-1.125-1.579a6.94 6.94 0 0 1 2.485-1.968c1-.489 2.14-.735 3.422-.735 1.812 0 3.144.399 4 1.188.863.793 1.297 1.89 1.297 3.297v8.156c0 .855.363 1.281 1.093 1.281.239 0 .47-.039.688-.125l.203.047.266 1.578c-.168.117-.391.2-.672.25a3.775 3.775 0 0 1-.844.094c-.844 0-1.484-.18-1.922-.547-.43-.375-.7-.926-.812-1.656l-.297-.031c-.438.812-1.028 1.421-1.766 1.828-.742.394-1.672.593-2.797.593Zm.5-1.812c.852 0 1.594-.195 2.219-.594.625-.394 1.101-.945 1.437-1.656.332-.719.5-1.547.5-2.484v-1.954l-.265-.062a4.839 4.839 0 0 1-1.25.61c-.492.167-1.18.312-2.063.437-.886.125-1.593.312-2.125.562-.523.25-.898.57-1.125.953-.218.387-.328.86-.328 1.422 0 .907.266 1.594.797 2.063.531.469 1.266.703 2.203.703ZM120.87 295.953c-.48 0-.87-.148-1.172-.453-.304-.3-.453-.687-.453-1.156 0-.457.149-.836.453-1.14.301-.301.692-.454 1.172-.454.488 0 .883.153 1.188.453.3.305.453.684.453 1.141 0 .469-.153.856-.453 1.156-.305.305-.7.453-1.188.453Zm-1.14 18.329v-15.36h2.28v15.36ZM127.348 314.282v-15.36h2.156v2.406l.297.063c.508-.895 1.16-1.578 1.953-2.047.8-.476 1.77-.719 2.906-.719 1.852 0 3.192.477 4.016 1.422.832.938 1.25 2.387 1.25 4.344v9.89h-2.266v-9.828c0-.937-.12-1.687-.359-2.25-.23-.562-.594-.968-1.094-1.218-.5-.258-1.152-.39-1.953-.39-1.387 0-2.508.46-3.36 1.374-.843.918-1.265 2.39-1.265 4.422v7.89ZM160.605 314.578c-1.78 0-3.37-.406-4.765-1.218-1.387-.82-2.477-2.02-3.266-3.594-.793-1.57-1.187-3.461-1.187-5.672 0-2.195.394-4.082 1.187-5.656.79-1.57 1.88-2.766 3.266-3.578 1.394-.82 2.984-1.235 4.765-1.235 1.907 0 3.489.36 4.75 1.078 1.27.72 2.18 1.805 2.735 3.25l-1.531 1.016h-.344c-.563-1.156-1.293-1.976-2.188-2.469-.886-.488-2.027-.734-3.422-.734-1.28 0-2.418.289-3.406.86-.992.574-1.781 1.48-2.375 2.718-.586 1.242-.875 2.824-.875 4.75 0 1.938.29 3.527.875 4.766.594 1.23 1.383 2.133 2.375 2.703.988.574 2.125.86 3.406.86 1.477 0 2.688-.333 3.625-1 .938-.665 1.633-1.743 2.094-3.235h.344l1.61.797c-.493 1.804-1.387 3.187-2.688 4.156-1.305.96-2.965 1.437-4.985 1.437ZM178.14 314.578c-1.45 0-2.711-.304-3.781-.921-1.075-.614-1.903-1.516-2.485-2.704-.574-1.195-.86-2.644-.86-4.343 0-1.696.286-3.145.86-4.344.582-1.195 1.41-2.102 2.485-2.719 1.07-.613 2.332-.922 3.78-.922 1.446 0 2.708.309 3.782.922 1.07.617 1.899 1.524 2.485 2.719.582 1.2.875 2.648.875 4.344 0 1.699-.293 3.148-.875 4.343-.586 1.188-1.415 2.09-2.485 2.704-1.074.617-2.336.921-3.781.921Zm0-2.03c1.531 0 2.703-.485 3.516-1.454.82-.969 1.234-2.46 1.234-4.484 0-2.04-.414-3.54-1.234-4.5-.813-.969-1.985-1.453-3.516-1.453s-2.711.484-3.531 1.453c-.813.968-1.22 2.468-1.22 4.5 0 2.023.407 3.515 1.22 4.484.82.969 2 1.453 3.53 1.453ZM189.631 314.282v-15.36h2.157v2.406l.297.063c.507-.895 1.16-1.578 1.953-2.047.8-.476 1.77-.719 2.906-.719 1.852 0 3.191.477 4.016 1.422.832.938 1.25 2.387 1.25 4.344v9.89h-2.266v-9.828c0-.937-.121-1.687-.36-2.25-.23-.562-.593-.968-1.093-1.218-.5-.258-1.153-.39-1.953-.39-1.387 0-2.508.46-3.36 1.374-.843.918-1.265 2.39-1.265 4.422v7.89ZM215.038 311.844l.719 1.625c-.356.367-.828.64-1.422.828a6.302 6.302 0 0 1-1.906.281c-2.938 0-4.407-1.488-4.407-4.468v-9.344h-2.671v-1.86h2.671v-3.25l2.266-.374v3.625h4.953v1.859h-4.953v9.125c0 1.773.766 2.656 2.297 2.656.832 0 1.55-.234 2.156-.703ZM230.987 307.125h-10.562c.062 1.868.507 3.235 1.343 4.11.832.875 1.973 1.312 3.422 1.312 1.094 0 1.973-.191 2.64-.578.677-.394 1.204-1.016 1.579-1.86h.297l1.484.891c-.449 1.118-1.164 1.993-2.14 2.625-.98.637-2.266.953-3.86.953-1.48 0-2.758-.293-3.828-.875-1.074-.593-1.898-1.484-2.469-2.671-.574-1.188-.859-2.66-.859-4.422 0-1.75.3-3.223.906-4.422.614-1.195 1.446-2.086 2.5-2.672 1.051-.594 2.254-.89 3.61-.89 1.968 0 3.504.558 4.609 1.671 1.102 1.106 1.66 2.746 1.672 4.922 0 .856-.016 1.434-.047 1.734Zm-1.89-1.906c-.043-1.625-.407-2.805-1.094-3.547-.688-.75-1.672-1.125-2.953-1.125-1.344 0-2.403.375-3.172 1.125-.762.742-1.227 1.922-1.39 3.547ZM235.397 314.282v-15.36h2.156v2.406l.297.063c.508-.895 1.16-1.578 1.953-2.047.801-.476 1.77-.719 2.907-.719 1.851 0 3.191.477 4.015 1.422.832.938 1.25 2.387 1.25 4.344v9.89h-2.265v-9.828c0-.937-.122-1.687-.36-2.25-.23-.562-.594-.968-1.094-1.218-.5-.258-1.152-.39-1.953-.39-1.386 0-2.507.46-3.359 1.374-.844.918-1.266 2.39-1.266 4.422v7.89ZM260.804 311.844l.718 1.625c-.355.367-.828.64-1.421.828a6.302 6.302 0 0 1-1.907.281c-2.937 0-4.406-1.488-4.406-4.468v-9.344h-2.672v-1.86h2.672v-3.25l2.266-.374v3.625h4.953v1.859h-4.953v9.125c0 1.773.765 2.656 2.297 2.656.832 0 1.55-.234 2.156-.703Zm0 0"/>
  <g clip-path="url(#d)">
    <path fill="#fff" d="M0 .332h337.5v102.656H0Zm0 0"/>
  </g>
  <g clip-path="url(#e)">
    <path d="M.012-.418h.75v1.5h-.75Zm1.5 0h.75v1.5h-.75Zm1.5 0h.75v1.5h-.75Zm1.5 0h.75v1.5h-.75Zm1.5 0h.75v1.5h-.75Zm1.5 0h.75v1.5h-.75Zm1.5 0h.75v1.5h-.75Zm1.5 0h.75v1.5h-.75Zm1.5 0h.75v1.5h-.75Zm1.5 0h.75v1.5h-.75Zm1.5 0h.75v1.5h-.75Zm1.5 0h.75v1.5h-.75Zm1.5 0h.75v1.5h-.75Zm1.5 0h.75v1.5h-.75Zm1.5 0h.75v1.5h-.75Zm1.5 0h.75v1.5h-.75Zm1.5 0h.75v1.5h-.75Zm1.5 0h.75v1.5h-.75Zm1.5 0h.75v1.5h-.75Zm1.5 0h.75v1.5h-.75Zm1.5 0h.75v1.5h-.75Zm1.5 0h.75v1.5h-.75Zm1.5 0h.75v1.5h-.75Zm1.5 0h.75v1.5h-.75Zm1.5 0h.75v1.5h-.75Zm1.5 0h.75v1.5h-.75Zm1.5 0h.75v1.5h-.75Zm1.5 0h.75v1.5h-.75Zm1.5 0h.75v1.5h-.75Zm1.5 0h.75v1.5h-.75Zm1.5 0h.75v1.5h-.75Zm1.5 0h.75v1.5h-.75Zm1.5 0h.75v1.5h-.75Zm1.5 0h.75v1.5h-.75Zm1.5 0h.75v1.5h-.75Zm1.5 0h.75v1.5h-.75Zm1.5 0h.75v1.5h-.75Zm1.5 0h.75v1.5h-.75Zm1.5 0h.75v1.5h-.75Zm1.5 0h.75v1.5h-.75Zm1.5 0h.75v1.5h-.75Zm1.5 0h.75v1.5h-.75Zm1.5 0h.75v1.5h-.75Zm1.5 0h.75v1.5h-.75Zm1.5 0h.75v1.5h-.75Zm1.5 0h.75v1.5h-.75Zm1.5 0h.75v1.5h-.75Zm1.5 0h.75v1.5h-.75Zm1.5 0h.75v1.5h-.75Zm1.5 0h.75v1.5h-.75Zm1.5 0h.75v1.5h-.75Zm1.5 0h.75v1.5h-.75Zm1.5 0h.75v1.5h-.75Zm1.5 0h.75v1.5h-.75Zm1.5 0h.75v1.5h-.75Zm1.5 0h.75v1.5h-.75Zm1.5 0h.75v1.5h-.75Zm1.5 0h.75v1.5h-.75Zm1.5 0h.75v1.5h-.75Zm1.5 0h.75v1.5h-.75Zm1.5 0h.75v1.5h-.75Zm1.5 0h.75v1.5h-.75Zm1.5 0h.75v1.5h-.75Zm1.5 0h.75v1.5h-.75Zm1.5 0h.75v1.5h-.75Zm1.5 0h.75v1.5h-.75Zm1.5 0h.75v1.5h-.75Zm1.5 0h.75v1.5h-.75Zm1.5 0h.75v1.5h-.75Zm1.5 0h.75v1.5h-.75Zm1.5 0h.75v1.5h-.75Zm1.5 0h.75v1.5h-.75Zm1.5 0h.75v1.5h-.75Zm1.5 0h.75v1.5h-.75Zm1.5 0h.75v1.5h-.75Zm1.5 0h.75v1.5h-.75Zm1.5 0h.75v1.5h-.75Zm1.5 0h.75v1.5h-.75Zm1.5 0h.75v1.5h-.75Zm1.5 0h.75v1.5h-.75Zm1.5 0h.75v1.5h-.75Zm1.5 0h.75v1.5h-.75Zm1.5 0h.75v1.5h-.75Zm1.5 0h.75v1.5h-.75Zm1.5 0h.75v1.5h-.75Zm1.5 0h.75v1.5h-.75Zm1.5 0h.75v1.5h-.75Zm1.5 0h.75v1.5h-.75Zm1.5 0h.75v1.5h-.75Zm1.5 0h.75v1.5h-.75Zm1.5 0h.75v1.5h-.75Zm1.5 0h.75v1.5h-.75Zm1.5 0h.75v1.5h-.75Zm1.5 0h.75v1.5h-.75Zm1.5 0h.75v1.5h-.75Zm1.5 0h.75v1.5h-.75Zm1.5 0h.75v1.5h-.75Zm1.5 0h.75v1.5h-.75Zm1.5 0h.75v1.5h-.75Zm1.5 0h.75v1.5h-.75Zm1.5 0h.75v1.5h-.75Zm1.5 0h.75v1.5h-.75Zm1.5 0h.75v1.5h-.75Zm1.5 0h.75v1.5h-.75Zm1.5 0h.75v1.5h-.75Zm1.5 0h.75v1.5h-.75Zm1.5 0h.75v1.5h-.75Zm1.5 0h.75v1.5h-.75Zm1.5 0h.75v1.5h-.75Zm1.5 0h.75v1.5h-.75Zm1.5 0h.75v1.5h-.75Zm1.5 0h.75v1.5h-.75Zm1.5 0h.75v1.5h-.75Zm1.5 0h.75v1.5h-.75Zm1.5 0h.75v1.5h-.75Zm1.5 0h.75v1.5h-.75Zm1.5 0h.75v1.5h-.75Zm1.5 0h.75v1.5h-.75Zm1.5 0h.75v1.5h-.75Zm1.5 0h.75v1.5h-.75Zm1.5 0h.75v1.5h-.75Zm1.5 0h.75v1.5h-.75Zm1.5 0h.75v1.5h-.75Zm1.5 0h.75v1.5h-.75Zm1.5 0h.75v1.5h-.75Zm1.5 0h.75v1.5h-.75Zm1.5 0h.75v1.5h-.75Zm1.5 0h.75v1.5h-.75Zm1.5 0h.75v1.5h-.75Zm1.5 0h.75v1.5h-.75Zm1.5 0h.75v1.5h-.75Zm1.5 0h.75v1.5h-.75Zm1.5 0h.75v1.5h-.75Zm1.5 0h.75v1.5h-.75Zm1.5 0h.75v1.5h-.75Zm1.5 0h.75v1.5h-.75Zm1.5 0h.75v1.5h-.75Zm1.5 0h.75v1.5h-.75Zm1.5 0h.75v1.5h-.75Zm1.5 0h.75v1.5h-.75Zm1.5 0h.75v1.5h-.75Zm1.5 0h.75v1.5h-.75Zm1.5 0h.75v1.5h-.75Zm1.5 0h.75v1.5h-.75Zm1.5 0h.75v1.5h-.75Zm1.5 0h.75v1.5h-.75Zm1.5 0h.75v1.5h-.75Zm1.5 0h.75v1.5h-.75Zm1.5 0h.75v1.5h-.75Zm1.5 0h.75v1.5h-.75Zm1.5 0h.75v1.5h-.75Zm1.5 0h.75v1.5h-.75Zm1.5 0h.75v1.5h-.75Zm1.5 0h.75v1.5h-.75Zm1.5 0h.75v1.5h-.75Zm1.5 0h.75v1.5h-.75Zm1.5 0h.75v1.5h-.75Zm1.5 0h.75v1.5h-.75Zm1.5 0h.75v1.5h-.75Zm1.5 0h.75v1.5h-.75Zm1.5 0h.75v1.5h-.75Zm1.5 0h.75v1.5h-.75Zm1.5 0h.75v1.5h-.75Zm1.5 0h.75v1.5h-.75Zm1.5 0h.75v1.5h-.75Zm1.5 0h.75v1.5h-.75Zm1.5 0h.75v1.5h-.75Zm1.5 0h.75v1.5h-.75Zm1.5 0h.75v1.5h-.75Zm1.5 0h.75v1.5h-.75Zm1.5 0h.75v1.5h-.75Zm1.5 0h.75v1.5h-.75Zm1.5 0h.75v1.5h-.75Zm1.5 0h.75v1.5h-.75Zm1.5 0h.75v1.5h-.75Zm1.5 0h.75v1.5h-.75Zm1.5 0h.75v1.5h-.75Zm1.5 0h.75v1.5h-.75Zm1.5 0h.75v1.5h-.75Zm1.5 0h.75v1.5h-.75Zm1.5 0h.75v1.5h-.75Zm1.5 0h.75v1.5h-.75Zm1.5 0h.75v1.5h-.75Zm1.5 0h.75v1.5h-.75Zm1.5 0h.75v1.5h-.75Zm1.5 0h.75v1.5h-.75Zm1.5 0h.75v1.5h-.75Zm1.5 0h.75v1.5h-.75Zm1.5 0h.75v1.5h-.75Zm1.5 0h.75v1.5h-.75Zm1.5 0h.75v1.5h-.75Zm1.5 0h.75v1.5h-.75Zm1.5 0h.75v1.5h-.75Zm1.5 0h.75v1.5h-.75Zm1.5 0h.75v1.5h-.75Zm1.5 0h.75v1.5h-.75Zm1.5 0h.75v1.5h-.75Zm1.5 0h.75v1.5h-.75Zm1.5 0h.75v1.5h-.75Zm1.5 0h.75v1.5h-.75Zm1.5 0h.75v1.5h-.75Zm1.5 0h.75v1.5h-.75Zm1.5 0h.75v1.5h-.75Zm1.5 0h.75v1.5h-.75Zm1.5 0h.75v1.5h-.75Zm1.5 0h.75v1.5h-.75Zm1.5 0h.75v1.5h-.75Zm1.5 0h.75v1.5h-.75Zm1.5 0h.75v1.5h-.75Zm1.5 0h.75v1.5h-.75Zm1.5 0h.75v1.5h-.75Zm1.5 0h.75v1.5h-.75Zm1.5 0h.75v1.5h-.75Zm1.5 0h.75v1.5h-.75Zm1.5 0h.75v1.5h-.75Zm1.5 0h.75v1.5h-.75Zm1.5 0h.75v1.5h-.75Zm1.5 0h.75v1.5h-.75Zm1.5 0h.75v1.5h-.75Zm1.5 0h.75v1.5h-.75Zm1.5 0h.75v1.5h-.75Zm1.5 0h.75v1.5h-.75Zm1.5 0h.75v1.5h-.75Zm1.5 0h.75v1.5h-.75Zm1.5 0h.75v1.5h-.75Zm2.226.773v.75h-1.5v-.75Zm0 1.5v.75h-1.5v-.75Zm0 1.5v.75h-1.5v-.75Zm0 1.5v.75h-1.5v-.75Zm0 1.5v.75h-1.5v-.75Zm0 1.5v.75h-1.5v-.75Zm0 1.5v.75h-1.5v-.75Zm0 1.5v.75h-1.5v-.75Zm0 1.5v.747h-1.5v-.747Zm0 1.497v.75h-1.5v-.75Zm0 1.5v.75h-1.5v-.75Zm0 1.5v.75h-1.5v-.75Zm0 1.5v.75h-1.5v-.75Zm0 1.5v.75h-1.5v-.75Zm0 1.5v.75h-1.5v-.75Zm0 1.5v.75h-1.5v-.75Zm0 1.5v.75h-1.5v-.75Zm0 1.5v.75h-1.5v-.75Zm0 1.5v.75h-1.5v-.75Zm0 1.5v.75h-1.5v-.75Zm0 1.496v.75h-1.5v-.75Zm0 1.5v.75h-1.5v-.75Zm0 1.5v.75h-1.5v-.75Zm0 1.5v.75h-1.5v-.75Zm0 1.5v.75h-1.5v-.75Zm0 1.5v.75h-1.5v-.75Zm0 1.5v.75h-1.5v-.75Zm0 1.5v.75h-1.5v-.75Zm0 1.5v.75h-1.5v-.75Zm0 1.5v.75h-1.5v-.75Zm0 1.5v.75h-1.5v-.75Zm0 1.5v.746h-1.5v-.746Zm0 1.496v.75h-1.5v-.75Zm0 1.5v.75h-1.5v-.75Zm0 1.5v.75h-1.5v-.75Zm0 1.5v.75h-1.5v-.75Zm0 1.5v.75h-1.5v-.75Zm0 1.5v.75h-1.5v-.75Zm0 1.5v.75h-1.5v-.75Zm0 1.5v.75h-1.5v-.75Zm0 1.5v.75h-1.5v-.75Zm0 1.5v.75h-1.5v-.75Zm0 1.5v.75h-1.5v-.75Zm0 1.496v.75h-1.5v-.75Zm0 1.5v.75h-1.5v-.75Zm0 1.5v.75h-1.5v-.75Zm0 1.5v.75h-1.5v-.75Zm0 1.5v.75h-1.5v-.75Zm0 1.5v.75h-1.5v-.75Zm0 1.5v.75h-1.5v-.75Zm0 1.5v.75h-1.5v-.75Zm0 1.5v.75h-1.5v-.75Zm0 1.5v.75h-1.5v-.75Zm0 1.5v.75h-1.5v-.75Zm0 1.496v.75h-1.5v-.75Zm0 1.5v.75h-1.5v-.75Zm0 1.5v.75h-1.5v-.75Zm0 1.5v.75h-1.5v-.75Zm0 1.5v.75h-1.5v-.75Zm0 1.5v.75h-1.5v-.75Zm0 1.5v.75h-1.5v-.75Zm0 1.5v.75h-1.5v-.75Zm0 1.5v.75h-1.5v-.75Zm0 1.5v.75h-1.5v-.75Zm0 1.5v.75h-1.5v-.75Zm0 1.5v.746h-1.5v-.746Zm0 1.496v.75h-1.5v-.75Zm0 1.5v.75h-1.5v-.75Zm0 1.5v1.5h-.75v-1.5.75h-.75v-.75Zm-1.5 1.5h-.75v-1.5h.75Zm-1.5 0h-.75v-1.5h.75Zm-1.5 0h-.75v-1.5h.75Zm-1.5 0h-.75v-1.5h.75Zm-1.5 0h-.75v-1.5h.75Zm-1.5 0h-.75v-1.5h.75Zm-1.5 0h-.75v-1.5h.75Zm-1.5 0h-.75v-1.5h.75Zm-1.5 0h-.75v-1.5h.75Zm-1.5 0h-.75v-1.5h.75Zm-1.5 0h-.75v-1.5h.75Zm-1.5 0h-.75v-1.5h.75Zm-1.5 0h-.75v-1.5h.75Zm-1.5 0h-.75v-1.5h.75Zm-1.5 0h-.75v-1.5h.75Zm-1.5 0h-.75v-1.5h.75Zm-1.5 0h-.75v-1.5h.75Zm-1.5 0h-.75v-1.5h.75Zm-1.5 0h-.75v-1.5h.75Zm-1.5 0h-.75v-1.5h.75Zm-1.5 0h-.75v-1.5h.75Zm-1.5 0h-.75v-1.5h.75Zm-1.5 0h-.75v-1.5h.75Zm-1.5 0h-.75v-1.5h.75Zm-1.5 0h-.75v-1.5h.75Zm-1.5 0h-.75v-1.5h.75Zm-1.5 0h-.75v-1.5h.75Zm-1.5 0h-.75v-1.5h.75Zm-1.5 0h-.75v-1.5h.75Zm-1.5 0h-.75v-1.5h.75Zm-1.5 0h-.75v-1.5h.75Zm-1.5 0h-.75v-1.5h.75Zm-1.5 0h-.75v-1.5h.75Zm-1.5 0h-.75v-1.5h.75Zm-1.5 0h-.75v-1.5h.75Zm-1.5 0h-.75v-1.5h.75Zm-1.5 0h-.75v-1.5h.75Zm-1.5 0h-.75v-1.5h.75Zm-1.5 0h-.75v-1.5h.75Zm-1.5 0h-.75v-1.5h.75Zm-1.5 0h-.75v-1.5h.75Zm-1.5 0h-.75v-1.5h.75Zm-1.5 0h-.75v-1.5h.75Zm-1.5 0h-.75v-1.5h.75Zm-1.5 0h-.75v-1.5h.75Zm-1.5 0h-.75v-1.5h.75Zm-1.5 0h-.75v-1.5h.75Zm-1.5 0h-.75v-1.5h.75Zm-1.5 0h-.75v-1.5h.75Zm-1.5 0h-.75v-1.5h.75Zm-1.5 0h-.75v-1.5h.75Zm-1.5 0h-.75v-1.5h.75Zm-1.5 0h-.75v-1.5h.75Zm-1.5 0h-.75v-1.5h.75Zm-1.5 0h-.75v-1.5h.75Zm-1.5 0h-.75v-1.5h.75Zm-1.5 0h-.75v-1.5h.75Zm-1.5 0h-.75v-1.5h.75Zm-1.5 0h-.75v-1.5h.75Zm-1.5 0h-.75v-1.5h.75Zm-1.5 0h-.75v-1.5h.75Zm-1.5 0h-.75v-1.5h.75Zm-1.5 0h-.75v-1.5h.75Zm-1.5 0h-.75v-1.5h.75Zm-1.5 0h-.75v-1.5h.75Zm-1.5 0h-.75v-1.5h.75Zm-1.5 0h-.75v-1.5h.75Zm-1.5 0h-.75v-1.5h.75Zm-1.5 0h-.75v-1.5h.75Zm-1.5 0h-.75v-1.5h.75Zm-1.5 0h-.75v-1.5h.75Zm-1.5 0h-.75v-1.5h.75Zm-1.5 0h-.75v-1.5h.75Zm-1.5 0h-.75v-1.5h.75Zm-1.5 0h-.75v-1.5h.75Zm-1.5 0h-.75v-1.5h.75Zm-1.5 0h-.75v-1.5h.75Zm-1.5 0h-.75v-1.5h.75Zm-1.5 0h-.75v-1.5h.75Zm-1.5 0h-.75v-1.5h.75Zm-1.5 0h-.75v-1.5h.75Zm-1.5 0h-.75v-1.5h.75Zm-1.5 0h-.75v-1.5h.75Zm-1.5 0h-.75v-1.5h.75Zm-1.5 0h-.75v-1.5h.75Zm-1.5 0h-.75v-1.5h.75Zm-1.5 0h-.75v-1.5h.75Zm-1.5 0h-.75v-1.5h.75Zm-1.5 0h-.75v-1.5h.75Zm-1.5 0h-.75v-1.5h.75Zm-1.5 0h-.75v-1.5h.75Zm-1.5 0h-.75v-1.5h.75Zm-1.5 0h-.75v-1.5h.75Zm-1.5 0h-.75v-1.5h.75Zm-1.5 0h-.75v-1.5h.75Zm-1.5 0h-.75v-1.5h.75Zm-1.5 0h-.75v-1.5h.75Zm-1.5 0h-.75v-1.5h.75Zm-1.5 0h-.75v-1.5h.75Zm-1.5 0h-.75v-1.5h.75Zm-1.5 0h-.75v-1.5h.75Zm-1.5 0h-.75v-1.5h.75Zm-1.5 0h-.75v-1.5h.75Zm-1.5 0h-.75v-1.5h.75Zm-1.5 0h-.75v-1.5h.75Zm-1.5 0h-.75v-1.5h.75Zm-1.5 0h-.75v-1.5h.75Zm-1.5 0h-.75v-1.5h.75Zm-1.5 0h-.75v-1.5h.75Zm-1.5 0h-.75v-1.5h.75Zm-1.5 0h-.75v-1.5h.75Zm-1.5 0h-.75v-1.5h.75Zm-1.5 0h-.75v-1.5h.75Zm-1.5 0h-.75v-1.5h.75Zm-1.5 0h-.75v-1.5h.75Zm-1.5 0h-.75v-1.5h.75Zm-1.5 0h-.75v-1.5h.75Zm-1.5 0h-.75v-1.5h.75Zm-1.5 0h-.75v-1.5h.75Zm-1.5 0h-.75v-1.5h.75Zm-1.5 0h-.75v-1.5h.75Zm-1.5 0h-.75v-1.5h.75Zm-1.5 0h-.75v-1.5h.75Zm-1.5 0h-.75v-1.5h.75Zm-1.5 0h-.75v-1.5h.75Zm-1.5 0h-.75v-1.5h.75Zm-1.5 0h-.75v-1.5h.75Zm-1.5 0h-.75v-1.5h.75Zm-1.5 0h-.75v-1.5h.75Zm-1.5 0h-.75v-1.5h.75Zm-1.5 0h-.75v-1.5h.75Zm-1.5 0h-.75v-1.5h.75Zm-1.5 0h-.75v-1.5h.75Zm-1.5 0h-.75v-1.5h.75Zm-1.5 0h-.75v-1.5h.75Zm-1.5 0h-.75v-1.5h.75Zm-1.5 0h-.75v-1.5h.75Zm-1.5 0h-.75v-1.5h.75Zm-1.5 0h-.75v-1.5h.75Zm-1.5 0h-.75v-1.5h.75Zm-1.5 0h-.75v-1.5h.75Zm-1.5 0h-.75v-1.5h.75Zm-1.5 0h-.75v-1.5h.75Zm-1.5 0h-.75v-1.5h.75Zm-1.5 0h-.75v-1.5h.75Zm-1.5 0h-.75v-1.5h.75Zm-1.5 0h-.75v-1.5h.75Zm-1.5 0h-.75v-1.5h.75Zm-1.5 0h-.75v-1.5h.75Zm-1.5 0h-.75v-1.5h.75Zm-1.5 0h-.75v-1.5h.75Zm-1.5 0h-.75v-1.5h.75Zm-1.5 0h-.75v-1.5h.75Zm-1.5 0h-.75v-1.5h.75Zm-1.5 0h-.75v-1.5h.75Zm-1.5 0h-.75v-1.5h.75Zm-1.5 0h-.75v-1.5h.75Zm-1.5 0h-.75v-1.5h.75Zm-1.5 0h-.75v-1.5h.75Zm-1.5 0h-.75v-1.5h.75Zm-1.5 0h-.75v-1.5h.75Zm-1.5 0h-.75v-1.5h.75Zm-1.5 0h-.75v-1.5h.75Zm-1.5 0h-.75v-1.5h.75Zm-1.5 0h-.75v-1.5h.75Zm-1.5 0h-.75v-1.5h.75Zm-1.5 0h-.75v-1.5h.75Zm-1.5 0h-.75v-1.5h.75Zm-1.5 0h-.75v-1.5h.75Zm-1.5 0h-.75v-1.5h.75Zm-1.5 0h-.75v-1.5h.75Zm-1.5 0h-.75v-1.5h.75Zm-1.5 0h-.75v-1.5h.75Zm-1.5 0h-.75v-1.5h.75Zm-1.5 0h-.75v-1.5h.75Zm-1.5 0h-.75v-1.5h.75Zm-1.5 0h-.75v-1.5h.75Zm-1.5 0h-.75v-1.5h.75Zm-1.5 0h-.75v-1.5h.75Zm-1.5 0h-.75v-1.5h.75Zm-1.5 0h-.75v-1.5h.75Zm-1.5 0h-.75v-1.5h.75Zm-1.5 0h-.75v-1.5h.75Zm-1.5 0h-.75v-1.5h.75Zm-1.5 0h-.75v-1.5h.75Zm-1.5 0h-.75v-1.5h.75Zm-1.5 0h-.75v-1.5h.75Zm-1.5 0h-.75v-1.5h.75Zm-1.5 0h-.75v-1.5h.75Zm-1.5 0h-.75v-1.5h.75Zm-1.5 0h-.75v-1.5h.75Zm-1.5 0h-.75v-1.5h.75Zm-1.5 0h-.75v-1.5h.75Zm-1.5 0h-.75v-1.5h.75Zm-1.5 0h-.75v-1.5h.75Zm-1.5 0h-.75v-1.5h.75Zm-1.5 0h-.75v-1.5h.75Zm-1.5 0h-.75v-1.5h.75Zm-1.5 0h-.75v-1.5h.75Zm-1.5 0h-.75v-1.5h.75Zm-1.5 0h-.75v-1.5h.75Zm-1.5 0h-.75v-1.5h.75Zm-1.5 0h-.75v-1.5h.75Zm-1.5 0h-.75v-1.5h.75Zm-1.5 0h-.75v-1.5h.75Zm-1.5 0h-.75v-1.5h.75Zm-1.5 0h-.75v-1.5h.75Zm-1.5 0h-.75v-1.5h.75Zm-1.5 0h-.75v-1.5h.75Zm-1.5 0h-.75v-1.5h.75Zm-1.5 0h-.75v-1.5h.75Zm-1.5 0h-.75v-1.5h.75Zm-1.5 0h-.75v-1.5h.75Zm-1.5 0h-.75v-1.5h.75Zm-1.5 0h-.75v-1.5h.75Zm-1.5 0h-.75v-1.5h.75Zm-1.5 0h-.75v-1.5h.75Zm-1.5 0h-.75v-1.5h.75Zm-1.5 0h-.75v-1.5h.75Zm-1.5 0h-.75v-1.5h.75Zm-1.5 0h-.75v-1.5h.75Zm-1.5 0h-.75v-1.5h.75Zm-1.5 0h-.75v-1.5h.75Zm-1.5 0h-.75v-1.5h.75Zm-1.5 0H-.738v-.773h1.5v.023h-.75v-.75h.726Zm-1.476-1.523v-.75h1.5v.75Zm0-1.5v-.75h1.5v.75Zm0-1.5v-.75h1.5v.75Zm0-1.5v-.746h1.5v.746Zm0-1.496v-.75h1.5v.75Zm0-1.5v-.75h1.5v.75Zm0-1.5v-.75h1.5v.75Zm0-1.5v-.75h1.5v.75Zm0-1.5v-.75h1.5v.75Zm0-1.5v-.75h1.5v.75Zm0-1.5v-.75h1.5v.75Zm0-1.5v-.75h1.5v.75Zm0-1.5v-.75h1.5v.75Zm0-1.5v-.75h1.5v.75Zm0-1.5v-.75h1.5v.75Zm0-1.497v-.75h1.5v.75Zm0-1.5v-.75h1.5v.75Zm0-1.5v-.75h1.5v.75Zm0-1.5v-.75h1.5v.75Zm0-1.5v-.75h1.5v.75Zm0-1.5v-.75h1.5v.75Zm0-1.5v-.75h1.5v.75Zm0-1.5v-.75h1.5v.75Zm0-1.5v-.75h1.5v.75Zm0-1.5v-.75h1.5v.75Zm0-1.5v-.75h1.5v.75Zm0-1.5v-.746h1.5v.746Zm0-1.496v-.75h1.5v.75Zm0-1.5v-.75h1.5v.75Zm0-1.5v-.75h1.5v.75Zm0-1.5v-.75h1.5v.75Zm0-1.5v-.75h1.5v.75Zm0-1.5v-.75h1.5v.75Zm0-1.5v-.75h1.5v.75Zm0-1.5v-.75h1.5v.75Zm0-1.5v-.75h1.5v.75Zm0-1.5v-.75h1.5v.75Zm0-1.5v-.75h1.5v.75Zm0-1.496v-.75h1.5v.75Zm0-1.5v-.75h1.5v.75Zm0-1.5v-.75h1.5v.75Zm0-1.5v-.75h1.5v.75Zm0-1.5v-.75h1.5v.75Zm0-1.5v-.75h1.5v.75Zm0-1.5v-.75h1.5v.75Zm0-1.5v-.75h1.5v.75Zm0-1.5v-.75h1.5v.75Zm0-1.5v-.75h1.5v.75Zm0-1.5v-.75h1.5v.75Zm0-1.5v-.746h1.5v.746Zm0-1.496v-.75h1.5v.75Zm0-1.5v-.75h1.5v.75Zm0-1.5v-.75h1.5v.75Zm0-1.5v-.75h1.5v.75Zm0-1.5v-.75h1.5v.75Zm0-1.5v-.75h1.5v.75Zm0-1.5v-.75h1.5v.75Zm0-1.5v-.75h1.5v.75Zm0-1.5v-.75h1.5v.75Zm0-1.5v-.75h1.5v.75Zm0-1.5v-.746h1.5v.746Zm0-1.496v-.75h1.5v.75Zm0-1.5v-.75h1.5v.75Zm0-1.5v-.75h1.5v.75Zm0-1.5v-.75h1.5v.75Zm0-1.5v-.75h1.5v.75Zm0-1.5v-.75h1.5v.75Zm0-1.5v-.75h1.5v.75Zm0 0"/>
  </g>
  <path d="M86.871 61.833h-2.219V41.458H88.2l6.172 17.25h.297l6.172-17.25h3.422v20.375h-2.266V45.208l-.344-.047-6.015 16.672h-2.39L87.214 45.16l-.344.047ZM113.698 62.13c-1.524 0-2.711-.395-3.563-1.188-.844-.789-1.265-1.922-1.265-3.39 0-.907.187-1.672.562-2.297.375-.625.957-1.133 1.75-1.532.79-.394 1.82-.703 3.094-.921 1.113-.188 1.96-.395 2.547-.625.582-.227.972-.485 1.172-.766.195-.29.296-.656.296-1.094 0-.695-.242-1.234-.718-1.61-.48-.374-1.25-.562-2.313-.562-.992 0-1.84.196-2.547.578-.71.387-1.36.965-1.953 1.735h-.281l-1.125-1.578a6.94 6.94 0 0 1 2.484-1.97c1-.487 2.14-.733 3.422-.733 1.813 0 3.145.398 4 1.187.863.793 1.297 1.89 1.297 3.297v8.156c0 .856.363 1.281 1.094 1.281.238 0 .469-.039.687-.125l.203.047.266 1.578c-.168.118-.39.2-.672.25a3.775 3.775 0 0 1-.844.094c-.843 0-1.484-.18-1.921-.547-.43-.375-.7-.925-.813-1.656l-.297-.031c-.437.812-1.027 1.422-1.765 1.828-.743.394-1.672.594-2.797.594Zm.5-1.813c.851 0 1.593-.195 2.218-.594.625-.394 1.102-.945 1.438-1.656.332-.719.5-1.547.5-2.484V53.63l-.266-.063a4.839 4.839 0 0 1-1.25.61c-.492.168-1.18.312-2.062.437-.887.125-1.594.313-2.125.563-.524.25-.899.57-1.125.953-.219.386-.328.86-.328 1.422 0 .906.265 1.593.797 2.062.53.469 1.265.703 2.203.703ZM127.058 43.505c-.48 0-.871-.149-1.172-.453-.305-.301-.453-.688-.453-1.157 0-.457.148-.836.453-1.14.3-.301.691-.453 1.172-.453.488 0 .882.152 1.187.453.3.304.453.683.453 1.14 0 .47-.152.856-.453 1.157-.305.304-.7.453-1.187.453Zm-1.141 18.328v-15.36h2.281v15.36ZM133.535 61.833v-15.36h2.157v2.407l.296.062c.508-.894 1.16-1.578 1.954-2.047.8-.476 1.77-.718 2.906-.718 1.851 0 3.191.476 4.015 1.421.833.938 1.25 2.387 1.25 4.344v9.89h-2.265v-9.827c0-.938-.121-1.688-.36-2.25-.23-.563-.593-.97-1.093-1.22-.5-.257-1.153-.39-1.953-.39-1.387 0-2.508.461-3.36 1.375-.844.918-1.265 2.39-1.265 4.422v7.89ZM171.605 49.723v-8.265h2.375v20.375h-2.375V51.755h-10.593v10.078h-2.39V41.458h2.39v8.265ZM191.715 54.677h-10.562c.062 1.867.508 3.234 1.344 4.109.832.875 1.972 1.312 3.422 1.312 1.093 0 1.972-.191 2.64-.578.676-.394 1.203-1.015 1.578-1.86l.297.001 1.485.89c-.45 1.118-1.165 1.993-2.141 2.626-.98.636-2.266.953-3.86.953-1.48 0-2.757-.293-3.828-.875-1.074-.594-1.898-1.485-2.468-2.672-.575-1.188-.86-2.66-.86-4.422 0-1.75.301-3.223.907-4.422.613-1.195 1.445-2.086 2.5-2.672 1.05-.594 2.253-.89 3.609-.89 1.969 0 3.504.558 4.61 1.671 1.1 1.106 1.66 2.747 1.671 4.922 0 .856-.015 1.434-.047 1.735Zm-1.89-1.907c-.043-1.625-.406-2.804-1.094-3.547-.687-.75-1.672-1.125-2.953-1.125-1.344 0-2.402.375-3.172 1.125-.762.743-1.227 1.922-1.39 3.547ZM199.797 62.13c-1.523 0-2.71-.395-3.562-1.188-.844-.789-1.266-1.922-1.266-3.39 0-.907.188-1.672.563-2.297.375-.625.957-1.133 1.75-1.532.789-.394 1.82-.703 3.093-.921 1.114-.188 1.961-.395 2.547-.625.582-.227.973-.485 1.172-.766.195-.29.297-.656.297-1.094 0-.695-.242-1.234-.719-1.61-.48-.374-1.25-.562-2.312-.562-.992 0-1.84.196-2.547.578-.711.387-1.36.965-1.953 1.735h-.282l-1.125-1.578a6.94 6.94 0 0 1 2.485-1.97c1-.487 2.14-.733 3.422-.733 1.812 0 3.144.398 4 1.187.863.793 1.297 1.89 1.297 3.297v8.156c0 .856.363 1.281 1.093 1.281.239 0 .47-.039.688-.125l.203.047.266 1.578c-.168.118-.391.2-.672.25a3.775 3.775 0 0 1-.844.094c-.844 0-1.484-.18-1.922-.547-.43-.375-.7-.925-.812-1.656l-.297-.031c-.438.812-1.028 1.422-1.766 1.828-.742.394-1.672.594-2.797.594Zm.5-1.813c.852 0 1.594-.195 2.219-.594.625-.394 1.102-.945 1.437-1.656.333-.719.5-1.547.5-2.484V53.63l-.265-.063a4.839 4.839 0 0 1-1.25.61c-.492.168-1.18.312-2.063.437-.886.125-1.593.313-2.125.563-.523.25-.898.57-1.125.953-.218.386-.328.86-.328 1.422 0 .906.266 1.593.797 2.062.531.469 1.266.703 2.203.703ZM217.313 62.13c-1.242 0-2.335-.297-3.28-.89-.938-.595-1.673-1.485-2.204-2.673-.531-1.187-.797-2.656-.797-4.406 0-1.758.274-3.234.828-4.422.563-1.195 1.332-2.086 2.313-2.672.976-.594 2.113-.89 3.406-.89 1.02 0 1.938.195 2.75.578.82.386 1.524 1.023 2.11 1.906l.296-.063v-8.296h2.266v21.53h-2.266v-2.25l-.297-.046c-.5.762-1.183 1.387-2.046 1.875-.856.477-1.883.719-3.079.719Zm.704-2.032c1.437 0 2.582-.488 3.437-1.468.852-.989 1.281-2.477 1.281-4.47 0-2.007-.43-3.503-1.28-4.483-.856-.977-2-1.47-3.438-1.47-1.47 0-2.606.481-3.407 1.438-.804.961-1.203 2.465-1.203 4.516 0 3.96 1.535 5.937 4.61 5.937ZM242.328 54.677h-10.563c.063 1.867.508 3.234 1.344 4.109.832.875 1.973 1.312 3.422 1.312 1.094 0 1.973-.191 2.64-.578.676-.394 1.204-1.015 1.579-1.86l.297.001 1.484.89c-.45 1.118-1.164 1.993-2.14 2.626-.981.636-2.266.953-3.86.953-1.48 0-2.758-.293-3.828-.875-1.074-.594-1.899-1.485-2.469-2.672-.574-1.188-.86-2.66-.86-4.422 0-1.75.301-3.223.907-4.422.613-1.195 1.445-2.086 2.5-2.672 1.05-.594 2.254-.89 3.61-.89 1.968 0 3.503.558 4.609 1.671 1.101 1.106 1.66 2.747 1.672 4.922 0 .856-.016 1.434-.047 1.735Zm-1.89-1.907c-.044-1.625-.407-2.804-1.095-3.547-.687-.75-1.671-1.125-2.953-1.125-1.343 0-2.402.375-3.172 1.125-.761.743-1.226 1.922-1.39 3.547ZM246.738 61.833v-15.36h2.156v2.407l.297.062c.719-1.738 2.066-2.61 4.047-2.61 1.039 0 1.82.188 2.343.563l-.578 1.922-.28.063a4.143 4.143 0 0 0-1.892-.438c-1.23 0-2.171.465-2.828 1.39-.656.919-.984 2.407-.984 4.47v7.53Zm0 0"/>
  <g clip-path="url(#f)">
    <path fill="#fff" d="M0 103.113h337.5v54.844H0Zm0 0"/>
  </g>
  <g clip-path="url(#g)">
    <path d="M.023 102.36h.75v1.507h-.75Zm1.5 0h.75v1.507h-.75Zm1.5 0h.75v1.507h-.75Zm1.5 0h.75v1.507h-.75Zm1.5 0h.75v1.507h-.75Zm1.5 0h.75v1.507h-.75Zm1.5 0h.75v1.507h-.75Zm1.5 0h.75v1.507h-.75Zm1.5 0h.75v1.507h-.75Zm1.5 0h.75v1.507h-.75Zm1.5 0h.75v1.507h-.75Zm1.5 0h.75v1.507h-.75Zm1.5 0h.75v1.507h-.75Zm1.5 0h.75v1.507h-.75Zm1.5 0h.75v1.507h-.75Zm1.5 0h.75v1.507h-.75Zm1.5 0h.75v1.507h-.75Zm1.5 0h.75v1.507h-.75Zm1.5 0h.75v1.507h-.75Zm1.5 0h.75v1.507h-.75Zm1.5 0h.75v1.507h-.75Zm1.5 0h.75v1.507h-.75Zm1.5 0h.75v1.507h-.75Zm1.5 0h.75v1.507h-.75Zm1.5 0h.75v1.507h-.75Zm1.5 0h.75v1.507h-.75Zm1.5 0h.75v1.507h-.75Zm1.5 0h.75v1.507h-.75Zm1.5 0h.75v1.507h-.75Zm1.5 0h.75v1.507h-.75Zm1.5 0h.75v1.507h-.75Zm1.5 0h.75v1.507h-.75Zm1.5 0h.75v1.507h-.75Zm1.5 0h.75v1.507h-.75Zm1.5 0h.75v1.507h-.75Zm1.5 0h.75v1.507h-.75Zm1.5 0h.75v1.507h-.75Zm1.5 0h.75v1.507h-.75Zm1.5 0h.75v1.507h-.75Zm1.5 0h.75v1.507h-.75Zm1.5 0h.75v1.507h-.75Zm1.5 0h.75v1.507h-.75Zm1.5 0h.75v1.507h-.75Zm1.5 0h.75v1.507h-.75Zm1.5 0h.75v1.507h-.75Zm1.5 0h.75v1.507h-.75Zm1.5 0h.75v1.507h-.75Zm1.5 0h.75v1.507h-.75Zm1.5 0h.75v1.507h-.75Zm1.5 0h.75v1.507h-.75Zm1.5 0h.75v1.507h-.75Zm1.5 0h.75v1.507h-.75Zm1.5 0h.75v1.507h-.75Zm1.5 0h.75v1.507h-.75Zm1.5 0h.75v1.507h-.75Zm1.5 0h.75v1.507h-.75Zm1.5 0h.75v1.507h-.75Zm1.5 0h.75v1.507h-.75Zm1.5 0h.75v1.507h-.75Zm1.5 0h.75v1.507h-.75Zm1.5 0h.75v1.507h-.75Zm1.5 0h.75v1.507h-.75Zm1.5 0h.75v1.507h-.75Zm1.5 0h.75v1.507h-.75Zm1.5 0h.75v1.507h-.75Zm1.5 0h.75v1.507h-.75Zm1.5 0h.75v1.507h-.75Zm1.5 0h.75v1.507h-.75Zm1.5 0h.75v1.507h-.75Zm1.5 0h.75v1.507h-.75Zm1.5 0h.75v1.507h-.75Zm1.5 0h.75v1.507h-.75Zm1.5 0h.75v1.507h-.75Zm1.5 0h.75v1.507h-.75Zm1.5 0h.75v1.507h-.75Zm1.5 0h.75v1.507h-.75Zm1.5 0h.75v1.507h-.75Zm1.5 0h.75v1.507h-.75Zm1.5 0h.75v1.507h-.75Zm1.5 0h.75v1.507h-.75Zm1.5 0h.75v1.507h-.75Zm1.5 0h.75v1.507h-.75Zm1.5 0h.75v1.507h-.75Zm1.5 0h.75v1.507h-.75Zm1.5 0h.75v1.507h-.75Zm1.5 0h.75v1.507h-.75Zm1.5 0h.75v1.507h-.75Zm1.5 0h.75v1.507h-.75Zm1.5 0h.75v1.507h-.75Zm1.5 0h.75v1.507h-.75Zm1.5 0h.75v1.507h-.75Zm1.5 0h.75v1.507h-.75Zm1.5 0h.75v1.507h-.75Zm1.5 0h.75v1.507h-.75Zm1.5 0h.75v1.507h-.75Zm1.5 0h.75v1.507h-.75Zm1.5 0h.75v1.507h-.75Zm1.5 0h.75v1.507h-.75Zm1.5 0h.75v1.507h-.75Zm1.5 0h.75v1.507h-.75Zm1.5 0h.75v1.507h-.75Zm1.5 0h.75v1.507h-.75Zm1.5 0h.75v1.507h-.75Zm1.5 0h.75v1.507h-.75Zm1.5 0h.75v1.507h-.75Zm1.5 0h.75v1.507h-.75Zm1.5 0h.75v1.507h-.75Zm1.5 0h.75v1.507h-.75Zm1.5 0h.75v1.507h-.75Zm1.5 0h.75v1.507h-.75Zm1.5 0h.75v1.507h-.75Zm1.5 0h.75v1.507h-.75Zm1.5 0h.75v1.507h-.75Zm1.5 0h.75v1.507h-.75Zm1.5 0h.75v1.507h-.75Zm1.5 0h.75v1.507h-.75Zm1.5 0h.75v1.507h-.75Zm1.5 0h.75v1.507h-.75Zm1.5 0h.75v1.507h-.75Zm1.5 0h.75v1.507h-.75Zm1.5 0h.75v1.507h-.75Zm1.5 0h.75v1.507h-.75Zm1.5 0h.75v1.507h-.75Zm1.5 0h.75v1.507h-.75Zm1.5 0h.75v1.507h-.75Zm1.5 0h.75v1.507h-.75Zm1.5 0h.75v1.507h-.75Zm1.5 0h.75v1.507h-.75Zm1.5 0h.75v1.507h-.75Zm1.5 0h.75v1.507h-.75Zm1.5 0h.75v1.507h-.75Zm1.5 0h.75v1.507h-.75Zm1.5 0h.75v1.507h-.75Zm1.5 0h.75v1.507h-.75Zm1.5 0h.75v1.507h-.75Zm1.5 0h.75v1.507h-.75Zm1.5 0h.75v1.507h-.75Zm1.5 0h.75v1.507h-.75Zm1.5 0h.75v1.507h-.75Zm1.5 0h.75v1.507h-.75Zm1.5 0h.75v1.507h-.75Zm1.5 0h.75v1.507h-.75Zm1.5 0h.75v1.507h-.75Zm1.5 0h.75v1.507h-.75Zm1.5 0h.75v1.507h-.75Zm1.5 0h.75v1.507h-.75Zm1.5 0h.75v1.507h-.75Zm1.5 0h.75v1.507h-.75Zm1.5 0h.75v1.507h-.75Zm1.5 0h.75v1.507h-.75Zm1.5 0h.75v1.507h-.75Zm1.5 0h.75v1.507h-.75Zm1.5 0h.75v1.507h-.75Zm1.5 0h.75v1.507h-.75Zm1.5 0h.75v1.507h-.75Zm1.5 0h.75v1.507h-.75Zm1.5 0h.75v1.507h-.75Zm1.5 0h.75v1.507h-.75Zm1.5 0h.75v1.507h-.75Zm1.5 0h.75v1.507h-.75Zm1.5 0h.75v1.507h-.75Zm1.5 0h.75v1.507h-.75Zm1.5 0h.75v1.507h-.75Zm1.5 0h.75v1.507h-.75Zm1.5 0h.75v1.507h-.75Zm1.5 0h.75v1.507h-.75Zm1.5 0h.75v1.507h-.75Zm1.5 0h.75v1.507h-.75Zm1.5 0h.75v1.507h-.75Zm1.5 0h.75v1.507h-.75Zm1.5 0h.75v1.507h-.75Zm1.5 0h.75v1.507h-.75Zm1.5 0h.75v1.507h-.75Zm1.5 0h.75v1.507h-.75Zm1.5 0h.75v1.507h-.75Zm1.5 0h.75v1.507h-.75Zm1.5 0h.75v1.507h-.75Zm1.5 0h.75v1.507h-.75Zm1.5 0h.75v1.507h-.75Zm1.5 0h.75v1.507h-.75Zm1.5 0h.75v1.507h-.75Zm1.5 0h.75v1.507h-.75Zm1.5 0h.75v1.507h-.75Zm1.5 0h.75v1.507h-.75Zm1.5 0h.75v1.507h-.75Zm1.5 0h.75v1.507h-.75Zm1.5 0h.75v1.507h-.75Zm1.5 0h.75v1.507h-.75Zm1.5 0h.75v1.507h-.75Zm1.5 0h.75v1.507h-.75Zm1.5 0h.75v1.507h-.75Zm1.5 0h.75v1.507h-.75Zm1.5 0h.75v1.507h-.75Zm1.5 0h.75v1.507h-.75Zm1.5 0h.75v1.507h-.75Zm1.5 0h.75v1.507h-.75Zm1.5 0h.75v1.507h-.75Zm1.5 0h.75v1.507h-.75Zm1.5 0h.75v1.507h-.75Zm1.5 0h.75v1.507h-.75Zm1.5 0h.75v1.507h-.75Zm1.5 0h.75v1.507h-.75Zm1.5 0h.75v1.507h-.75Zm1.5 0h.75v1.507h-.75Zm1.5 0h.75v1.507h-.75Zm1.5 0h.75v1.507h-.75Zm1.5 0h.75v1.507h-.75Zm1.5 0h.75v1.507h-.75Zm1.5 0h.75v1.507h-.75Zm1.5 0h.75v1.507h-.75Zm1.5 0h.75v1.507h-.75Zm1.5 0h.75v1.507h-.75Zm1.5 0h.75v1.507h-.75Zm1.5 0h.75v1.507h-.75Zm1.5 0h.75v1.507h-.75Zm1.5 0h.75v1.507h-.75Zm1.5 0h.75v1.507h-.75Zm1.5 0h.75v1.507h-.75Zm1.5 0h.75v1.507h-.75Zm1.5 0h.75v1.507h-.75Zm1.5 0h.75v1.507h-.75Zm1.5 0h.75v1.507h-.75Zm1.5 0h.75v1.507h-.75Zm1.5 0h.75v1.507h-.75Zm1.5 0h.75v1.507h-.75Zm2.204.804v.754h-1.5v-.754Zm0 1.508v.754h-1.5v-.754Zm0 1.508v.757h-1.5v-.757Zm0 1.511v.754h-1.5v-.754Zm0 1.508v.754h-1.5v-.754Zm0 1.512v.754h-1.5v-.754Zm0 1.508v.754h-1.5v-.754Zm0 1.508v.753h-1.5v-.753Zm0 1.511v.754h-1.5v-.754Zm0 1.508v.754h-1.5v-.754Zm0 1.508v.758h-1.5v-.758Zm0 1.512v.754h-1.5v-.754Zm0 1.507v.754h-1.5v-.754Zm0 1.508v.758h-1.5v-.758Zm0 1.512v.754h-1.5v-.754Zm0 1.508v.754h-1.5v-.754Zm0 1.511v.754h-1.5v-.754Zm0 1.508v.754h-1.5v-.754Zm0 1.508v.754h-1.5v-.754Zm0 1.512v.754h-1.5v-.754Zm0 1.508v.754h-1.5v-.754Zm0 1.507v.758h-1.5v-.758Zm0 1.512v.754h-1.5v-.754Zm0 1.508v.754h-1.5v-.754Zm0 1.508v.758h-1.5v-.758Zm0 1.512v.753h-1.5v-.753Zm0 1.507v.754h-1.5v-.754Zm0 1.512v.754h-1.5v-.754Zm0 1.508v.754h-1.5v-.754Zm0 1.508v.754h-1.5v-.754Zm0 1.511v.754h-1.5v-.754Zm0 1.508v.754h-1.5v-.754Zm0 1.508v.758h-1.5v-.758Zm0 1.512v.754h-1.5v-.754Zm0 1.508v.753h-1.5v-.753Zm0 1.507v.758h-1.5v-.758Zm0 1.512v.754h-1.5v-.754Zm-1.141 1.871h-.75v-1.508h.75Zm-1.5 0h-.75v-1.508h.75Zm-1.5 0h-.75v-1.508h.75Zm-1.5 0h-.75v-1.508h.75Zm-1.5 0h-.75v-1.508h.75Zm-1.5 0h-.75v-1.508h.75Zm-1.5 0h-.75v-1.508h.75Zm-1.5 0h-.75v-1.508h.75Zm-1.5 0h-.75v-1.508h.75Zm-1.5 0h-.75v-1.508h.75Zm-1.5 0h-.75v-1.508h.75Zm-1.5 0h-.75v-1.508h.75Zm-1.5 0h-.75v-1.508h.75Zm-1.5 0h-.75v-1.508h.75Zm-1.5 0h-.75v-1.508h.75Zm-1.5 0h-.75v-1.508h.75Zm-1.5 0h-.75v-1.508h.75Zm-1.5 0h-.75v-1.508h.75Zm-1.5 0h-.75v-1.508h.75Zm-1.5 0h-.75v-1.508h.75Zm-1.5 0h-.75v-1.508h.75Zm-1.5 0h-.75v-1.508h.75Zm-1.5 0h-.75v-1.508h.75Zm-1.5 0h-.75v-1.508h.75Zm-1.5 0h-.75v-1.508h.75Zm-1.5 0h-.75v-1.508h.75Zm-1.5 0h-.75v-1.508h.75Zm-1.5 0h-.75v-1.508h.75Zm-1.5 0h-.75v-1.508h.75Zm-1.5 0h-.75v-1.508h.75Zm-1.5 0h-.75v-1.508h.75Zm-1.5 0h-.75v-1.508h.75Zm-1.5 0h-.75v-1.508h.75Zm-1.5 0h-.75v-1.508h.75Zm-1.5 0h-.75v-1.508h.75Zm-1.5 0h-.75v-1.508h.75Zm-1.5 0h-.75v-1.508h.75Zm-1.5 0h-.75v-1.508h.75Zm-1.5 0h-.75v-1.508h.75Zm-1.5 0h-.75v-1.508h.75Zm-1.5 0h-.75v-1.508h.75Zm-1.5 0h-.75v-1.508h.75Zm-1.5 0h-.75v-1.508h.75Zm-1.5 0h-.75v-1.508h.75Zm-1.5 0h-.75v-1.508h.75Zm-1.5 0h-.75v-1.508h.75Zm-1.5 0h-.75v-1.508h.75Zm-1.5 0h-.75v-1.508h.75Zm-1.5 0h-.75v-1.508h.75Zm-1.5 0h-.75v-1.508h.75Zm-1.5 0h-.75v-1.508h.75Zm-1.5 0h-.75v-1.508h.75Zm-1.5 0h-.75v-1.508h.75Zm-1.5 0h-.75v-1.508h.75Zm-1.5 0h-.75v-1.508h.75Zm-1.5 0h-.75v-1.508h.75Zm-1.5 0h-.75v-1.508h.75Zm-1.5 0h-.75v-1.508h.75Zm-1.5 0h-.75v-1.508h.75Zm-1.5 0h-.75v-1.508h.75Zm-1.5 0h-.75v-1.508h.75Zm-1.5 0h-.75v-1.508h.75Zm-1.5 0h-.75v-1.508h.75Zm-1.5 0h-.75v-1.508h.75Zm-1.5 0h-.75v-1.508h.75Zm-1.5 0h-.75v-1.508h.75Zm-1.5 0h-.75v-1.508h.75Zm-1.5 0h-.75v-1.508h.75Zm-1.5 0h-.75v-1.508h.75Zm-1.5 0h-.75v-1.508h.75Zm-1.5 0h-.75v-1.508h.75Zm-1.5 0h-.75v-1.508h.75Zm-1.5 0h-.75v-1.508h.75Zm-1.5 0h-.75v-1.508h.75Zm-1.5 0h-.75v-1.508h.75Zm-1.5 0h-.75v-1.508h.75Zm-1.5 0h-.75v-1.508h.75Zm-1.5 0h-.75v-1.508h.75Zm-1.5 0h-.75v-1.508h.75Zm-1.5 0h-.75v-1.508h.75Zm-1.5 0h-.75v-1.508h.75Zm-1.5 0h-.75v-1.508h.75Zm-1.5 0h-.75v-1.508h.75Zm-1.5 0h-.75v-1.508h.75Zm-1.5 0h-.75v-1.508h.75Zm-1.5 0h-.75v-1.508h.75Zm-1.5 0h-.75v-1.508h.75Zm-1.5 0h-.75v-1.508h.75Zm-1.5 0h-.75v-1.508h.75Zm-1.5 0h-.75v-1.508h.75Zm-1.5 0h-.75v-1.508h.75Zm-1.5 0h-.75v-1.508h.75Zm-1.5 0h-.75v-1.508h.75Zm-1.5 0h-.75v-1.508h.75Zm-1.5 0h-.75v-1.508h.75Zm-1.5 0h-.75v-1.508h.75Zm-1.5 0h-.75v-1.508h.75Zm-1.5 0h-.75v-1.508h.75Zm-1.5 0h-.75v-1.508h.75Zm-1.5 0h-.75v-1.508h.75Zm-1.5 0h-.75v-1.508h.75Zm-1.5 0h-.75v-1.508h.75Zm-1.5 0h-.75v-1.508h.75Zm-1.5 0h-.75v-1.508h.75Zm-1.5 0h-.75v-1.508h.75Zm-1.5 0h-.75v-1.508h.75Zm-1.5 0h-.75v-1.508h.75Zm-1.5 0h-.75v-1.508h.75Zm-1.5 0h-.75v-1.508h.75Zm-1.5 0h-.75v-1.508h.75Zm-1.5 0h-.75v-1.508h.75Zm-1.5 0h-.75v-1.508h.75Zm-1.5 0h-.75v-1.508h.75Zm-1.5 0h-.75v-1.508h.75Zm-1.5 0h-.75v-1.508h.75Zm-1.5 0h-.75v-1.508h.75Zm-1.5 0h-.75v-1.508h.75Zm-1.5 0h-.75v-1.508h.75Zm-1.5 0h-.75v-1.508h.75Zm-1.5 0h-.75v-1.508h.75Zm-1.5 0h-.75v-1.508h.75Zm-1.5 0h-.75v-1.508h.75Zm-1.5 0h-.75v-1.508h.75Zm-1.5 0h-.75v-1.508h.75Zm-1.5 0h-.75v-1.508h.75Zm-1.5 0h-.75v-1.508h.75Zm-1.5 0h-.75v-1.508h.75Zm-1.5 0h-.75v-1.508h.75Zm-1.5 0h-.75v-1.508h.75Zm-1.5 0h-.75v-1.508h.75Zm-1.5 0h-.75v-1.508h.75Zm-1.5 0h-.75v-1.508h.75Zm-1.5 0h-.75v-1.508h.75Zm-1.5 0h-.75v-1.508h.75Zm-1.5 0h-.75v-1.508h.75Zm-1.5 0h-.75v-1.508h.75Zm-1.5 0h-.75v-1.508h.75Zm-1.5 0h-.75v-1.508h.75Zm-1.5 0h-.75v-1.508h.75Zm-1.5 0h-.75v-1.508h.75Zm-1.5 0h-.75v-1.508h.75Zm-1.5 0h-.75v-1.508h.75Zm-1.5 0h-.75v-1.508h.75Zm-1.5 0h-.75v-1.508h.75Zm-1.5 0h-.75v-1.508h.75Zm-1.5 0h-.75v-1.508h.75Zm-1.5 0h-.75v-1.508h.75Zm-1.5 0h-.75v-1.508h.75Zm-1.5 0h-.75v-1.508h.75Zm-1.5 0h-.75v-1.508h.75Zm-1.5 0h-.75v-1.508h.75Zm-1.5 0h-.75v-1.508h.75Zm-1.5 0h-.75v-1.508h.75Zm-1.5 0h-.75v-1.508h.75Zm-1.5 0h-.75v-1.508h.75Zm-1.5 0h-.75v-1.508h.75Zm-1.5 0h-.75v-1.508h.75Zm-1.5 0h-.75v-1.508h.75Zm-1.5 0h-.75v-1.508h.75Zm-1.5 0h-.75v-1.508h.75Zm-1.5 0h-.75v-1.508h.75Zm-1.5 0h-.75v-1.508h.75Zm-1.5 0h-.75v-1.508h.75Zm-1.5 0h-.75v-1.508h.75Zm-1.5 0h-.75v-1.508h.75Zm-1.5 0h-.75v-1.508h.75Zm-1.5 0h-.75v-1.508h.75Zm-1.5 0h-.75v-1.508h.75Zm-1.5 0h-.75v-1.508h.75Zm-1.5 0h-.75v-1.508h.75Zm-1.5 0h-.75v-1.508h.75Zm-1.5 0h-.75v-1.508h.75Zm-1.5 0h-.75v-1.508h.75Zm-1.5 0h-.75v-1.508h.75Zm-1.5 0h-.75v-1.508h.75Zm-1.5 0h-.75v-1.508h.75Zm-1.5 0h-.75v-1.508h.75Zm-1.5 0h-.75v-1.508h.75Zm-1.5 0h-.75v-1.508h.75Zm-1.5 0h-.75v-1.508h.75Zm-1.5 0h-.75v-1.508h.75Zm-1.5 0h-.75v-1.508h.75Zm-1.5 0h-.75v-1.508h.75Zm-1.5 0h-.75v-1.508h.75Zm-1.5 0h-.75v-1.508h.75Zm-1.5 0h-.75v-1.508h.75Zm-1.5 0h-.75v-1.508h.75Zm-1.5 0h-.75v-1.508h.75Zm-1.5 0h-.75v-1.508h.75Zm-1.5 0h-.75v-1.508h.75Zm-1.5 0h-.75v-1.508h.75Zm-1.5 0h-.75v-1.508h.75Zm-1.5 0h-.75v-1.508h.75Zm-1.5 0h-.75v-1.508h.75Zm-1.5 0h-.75v-1.508h.75Zm-1.5 0h-.75v-1.508h.75Zm-1.5 0h-.75v-1.508h.75Zm-1.5 0h-.75v-1.508h.75Zm-1.5 0h-.75v-1.508h.75Zm-1.5 0h-.75v-1.508h.75Zm-1.5 0h-.75v-1.508h.75Zm-1.5 0h-.75v-1.508h.75Zm-1.5 0h-.75v-1.508h.75Zm-1.5 0h-.75v-1.508h.75Zm-1.5 0h-.75v-1.508h.75Zm-1.5 0h-.75v-1.508h.75Zm-1.5 0h-.75v-1.508h.75Zm-1.5 0h-.75v-1.508h.75Zm-1.5 0h-.75v-1.508h.75Zm-1.5 0h-.75v-1.508h.75Zm-1.5 0h-.75v-1.508h.75Zm-1.5 0h-.75v-1.508h.75Zm-1.5 0h-.75v-1.508h.75Zm-1.5 0h-.75v-1.508h.75Zm-1.5 0h-.75v-1.508h.75Zm-1.5 0h-.75v-1.508h.75Zm-1.5 0h-.75v-1.508h.75Zm-1.5 0h-.75v-1.508h.75Zm-1.5 0h-.75v-1.508h.75Zm-1.5 0h-.75v-1.508h.75Zm-1.5 0h-.75v-1.508h.75Zm-1.5 0h-.75v-1.508h.75Zm-1.5 0h-.75v-1.508h.75Zm-1.5 0h-.75v-1.508h.75Zm-1.5 0h-.75v-1.508h.75Zm-1.813-1.195v-.754h1.5v.754Zm0-1.508v-.754h1.5v.754Zm0-1.512v-.754h1.5v.754Zm0-1.507v-.754h1.5v.754Zm0-1.508v-.754h1.5v.754Zm0-1.512v-.754h1.5v.754Zm0-1.508v-.754h1.5v.754Zm0-1.508v-.757h1.5v.757Zm0-1.511v-.754h1.5v.754Zm0-1.508v-.754h1.5v.754Zm0-1.508v-.758h1.5v.758Zm0-1.512v-.754h1.5v.754Zm0-1.507v-.754h1.5v.754Zm0-1.512v-.754h1.5v.754Zm0-1.508v-.754h1.5v.754Zm0-1.508v-.754h1.5v.754Zm0-1.512v-.753h1.5v.753Zm0-1.507v-.754h1.5v.754Zm0-1.508v-.758h1.5v.758Zm0-1.512v-.754h1.5v.754Zm0-1.508v-.754h1.5v.754Zm0-1.508v-.757h1.5v.757Zm0-1.511v-.754h1.5v.754Zm0-1.508v-.754h1.5v.754Zm0-1.512v-.754h1.5v.754Zm0-1.508v-.754h1.5v.754Zm0-1.507v-.754h1.5v.754Zm0-1.512v-.754h1.5v.754Zm0-1.508v-.754h1.5v.754Zm0-1.508v-.758h1.5v.758Zm0-1.511v-.754h1.5v.754Zm0-1.508v-.754h1.5v.754Zm0-1.508v-.758h1.5v.758Zm0-1.512v-.754h1.5v.754Zm0-1.508v-.754h1.5v.754Zm0-1.511v-.754h1.5v.754Zm0-1.508v-.727h1.5v.727Zm0 0"/>
  </g>
  <path d="M159.598 120.238v2.047h-6.375v18.328h-2.375v-18.328h-6.391v-2.047ZM169.149 140.91c-1.45 0-2.711-.304-3.781-.922-1.075-.613-1.903-1.515-2.485-2.703-.574-1.195-.86-2.644-.86-4.343 0-1.696.286-3.145.86-4.344.582-1.196 1.41-2.102 2.485-2.719 1.07-.613 2.332-.922 3.78-.922 1.446 0 2.708.309 3.782.922 1.07.617 1.899 1.523 2.485 2.719.582 1.199.875 2.648.875 4.344 0 1.699-.293 3.148-.875 4.343-.586 1.188-1.415 2.09-2.485 2.703-1.074.618-2.336.922-3.781.922Zm0-2.03c1.531 0 2.703-.485 3.516-1.454.82-.969 1.234-2.461 1.234-4.484 0-2.04-.414-3.54-1.234-4.5-.813-.97-1.985-1.454-3.516-1.454s-2.711.485-3.531 1.454c-.813.968-1.22 2.468-1.22 4.5 0 2.023.407 3.515 1.22 4.484.82.969 2 1.453 3.53 1.453ZM186.781 140.91c-1.355 0-2.574-.304-3.656-.922-1.074-.625-1.922-1.535-2.547-2.734-.617-1.207-.922-2.644-.922-4.312 0-1.688.305-3.13.922-4.329.625-1.207 1.473-2.117 2.547-2.734 1.082-.613 2.3-.922 3.656-.922 1.625 0 2.914.309 3.875.922.969.617 1.664 1.434 2.094 2.453l-1.547 1.11h-.281c-.418-.844-.953-1.461-1.61-1.86-.656-.394-1.5-.594-2.53-.594-.95 0-1.782.227-2.5.672-.712.45-1.263 1.121-1.657 2.016-.399.887-.594 1.976-.594 3.266 0 1.28.195 2.367.594 3.25.406.886.96 1.558 1.672 2.015.707.45 1.535.672 2.484.672 1.07 0 1.957-.238 2.656-.719.707-.488 1.258-1.254 1.657-2.297h.296l1.485.875c-.399 1.293-1.11 2.313-2.14 3.063-1.024.742-2.34 1.11-3.954 1.11Zm0 0"/>
</svg>
