<svg xmlns="http://www.w3.org/2000/svg" xmlns:xlink="http://www.w3.org/1999/xlink" version="1.0" viewBox="0 0 224.88 337.5">
  <defs>
    <path id="reuse-0" d="M.105 0h224.668v337H.105Zm0 0"/>
  </defs>
  <defs>
    <clipPath id="a">
      <path d="M.105 0h224.547v337H.105Zm0 0"/>
    </clipPath>
    <clipPath id="b">
      <path d="M.105 0h224.547v76.96H.105Zm0 0"/>
    </clipPath>
    <clipPath id="c">
      <path d="M.105 0h224.547v77.137H.105Zm0 0"/>
    </clipPath>
    <clipPath id="d">
      <path d="M.105 255.977h224.547V337H.105Zm0 0"/>
    </clipPath>
    <clipPath id="e">
      <path d="M.113 255.977h224.54v80.878H.112Zm0 0"/>
    </clipPath>
    <clipPath id="f">
      <path d="M.11 76.953H81.7V255.97H.11Zm0 0"/>
    </clipPath>
    <clipPath id="g">
      <path d="M.11 76.988h81.628v178.973H.11Zm0 0"/>
    </clipPath>
    <clipPath id="h">
      <path d="M81.695 76.96h142.957v179.017H81.695Zm0 0"/>
    </clipPath>
    <clipPath id="i">
      <path d="M81.695 76.96h142.957v178.985H81.695Zm0 0"/>
    </clipPath>
  </defs>
  <g fill="#fff" clip-path="url(#a)">
    <path d="M.105 0h224.668v344.488H.105Zm0 0"/>
    <use xlink:href="#reuse-0"/>
    <use xlink:href="#reuse-0"/>
  </g>
  <g clip-path="url(#b)">
    <path fill="#fff" d="M.105 0h224.317v76.879H.105Zm0 0"/>
  </g>
  <g clip-path="url(#c)">
    <path d="M.105-.75h.75v1.5h-.75Zm1.5 0h.75v1.5h-.75Zm1.497 0h.75v1.5h-.75Zm1.5 0h.746v1.5h-.746Zm1.496 0h.75v1.5h-.75Zm1.5 0h.746v1.5h-.746Zm1.496 0h.75v1.5h-.75Zm1.496 0h.75v1.5h-.75Zm1.5 0h.75v1.5h-.75Zm1.496 0h.75v1.5h-.75Zm1.5 0h.746v1.5h-.746Zm1.496 0h.75v1.5h-.75Zm1.5 0h.746v1.5h-.746Zm1.496 0h.75v1.5h-.75Zm1.496 0h.75v1.5h-.75Zm1.5 0h.75v1.5h-.75Zm1.496 0h.75v1.5h-.75Zm1.5 0h.746v1.5h-.746Zm1.496 0h.75v1.5h-.75Zm1.5 0h.747v1.5h-.747Zm1.497 0h.75v1.5h-.75Zm1.496 0h.75v1.5h-.75Zm1.5 0h.75v1.5h-.75Zm1.496 0h.75v1.5h-.75Zm1.5 0h.746v1.5h-.746Zm1.496 0h.75v1.5h-.75Zm1.5 0h.746v1.5h-.746Zm1.496 0h.75v1.5h-.75Zm1.496 0h.75v1.5h-.75Zm1.5 0h.75v1.5h-.75Zm1.496 0h.75v1.5h-.75Zm1.5 0h.75v1.5h-.75Zm1.496 0h.75v1.5h-.75Zm1.5 0h.746v1.5h-.746Zm1.496 0h.75v1.5h-.75Zm1.5 0h.746v1.5h-.746Zm1.496 0h.75v1.5h-.75Zm1.496 0h.75v1.5h-.75Zm1.5 0h.75v1.5h-.75Zm1.497 0h.75v1.5h-.75Zm1.5 0h.746v1.5h-.746Zm1.496 0h.75v1.5h-.75Zm1.5 0h.746v1.5h-.746Zm1.496 0h.75v1.5h-.75Zm1.496 0h.75v1.5h-.75Zm1.5 0h.75v1.5h-.75Zm1.496 0h.75v1.5h-.75Zm1.5 0h.746v1.5h-.746ZM72-.75h.75v1.5H72Zm1.5 0h.746v1.5H73.5Zm1.496 0h.75v1.5h-.75Zm1.496 0h.75v1.5h-.75Zm1.5 0h.75v1.5h-.75Zm1.496 0h.75v1.5h-.75Zm1.5 0h.746v1.5h-.746Zm1.496 0h.75v1.5h-.75Zm1.5 0h.746v1.5h-.746Zm1.496 0h.75v1.5h-.75Zm1.497 0h.75v1.5h-.75Zm1.5 0h.75v1.5h-.75Zm1.496 0h.75v1.5h-.75Zm1.5 0h.746v1.5h-.746Zm1.496 0h.75v1.5h-.75Zm1.5 0h.746v1.5h-.746Zm1.496 0h.75v1.5h-.75Zm1.496 0h.75v1.5h-.75Zm1.5 0h.75v1.5h-.75Zm1.496 0h.75v1.5h-.75Zm1.5 0h.746v1.5h-.746Zm1.496 0h.75v1.5h-.75Zm1.5 0h.746v1.5h-.746Zm1.496 0h.75v1.5h-.75Zm1.496 0h.75v1.5h-.75Zm1.5 0h.75v1.5h-.75Zm1.496 0h.75v1.5h-.75Zm1.5 0h.75v1.5h-.75Zm1.496 0h.75v1.5h-.75Zm1.5 0h.747v1.5h-.746Zm1.497 0h.75v1.5h-.75Zm1.5 0h.746v1.5h-.746Zm1.496 0h.75v1.5h-.75Zm1.496 0h.75v1.5h-.75Zm1.5 0h.75v1.5h-.75Zm1.496 0h.75v1.5h-.75Zm1.5 0h.746v1.5h-.746Zm1.496 0h.75v1.5h-.75Zm1.5 0h.746v1.5h-.746Zm1.496 0h.75v1.5h-.75Zm1.496 0h.75v1.5h-.75Zm1.5 0h.75v1.5h-.75Zm1.496 0h.75v1.5h-.75Zm1.5 0h.746v1.5h-.746Zm1.496 0h.75v1.5h-.75Zm1.5 0h.746v1.5h-.746Zm1.496 0h.75v1.5h-.75Zm1.497 0h.75v1.5h-.75Zm1.5 0h.75v1.5h-.75Zm1.496 0h.75v1.5h-.75Zm1.5 0h.746v1.5h-.746Zm1.496 0h.75v1.5h-.75Zm1.5 0h.746v1.5h-.746Zm1.496 0h.75v1.5h-.75Zm1.496 0h.75v1.5h-.75Zm1.5 0h.75v1.5h-.75Zm1.496 0h.75v1.5h-.75Zm1.5 0h.746v1.5h-.746Zm1.496 0h.75v1.5h-.75Zm1.5 0h.746v1.5h-.746Zm1.496 0h.75v1.5h-.75Zm1.496 0h.75v1.5h-.75Zm1.5 0h.75v1.5h-.75Zm1.496 0h.75v1.5h-.75Zm1.5 0h.746v1.5h-.746Zm1.496 0h.75v1.5h-.75Zm1.5 0h.747v1.5h-.747Zm1.497 0h.75v1.5h-.75Zm1.5 0h.746v1.5h-.746Zm1.496 0h.75v1.5h-.75Zm1.496 0h.75v1.5h-.75Zm1.5 0h.75v1.5h-.75Zm1.496 0h.75v1.5h-.75Zm1.5 0h.746v1.5h-.746Zm1.496 0h.75v1.5h-.75Zm1.5 0h.746v1.5h-.746Zm1.496 0h.75v1.5h-.75Zm1.496 0h.75v1.5h-.75Zm1.5 0h.75v1.5h-.75Zm1.496 0h.75v1.5h-.75Zm1.5 0h.746v1.5h-.746Zm1.496 0h.75v1.5h-.75Zm1.5 0h.746v1.5h-.746Zm1.496 0h.75v1.5h-.75Zm1.496 0h.75v1.5h-.75Zm1.5 0h.75v1.5h-.75Zm1.497 0h.75v1.5h-.75Zm1.5 0h.746v1.5h-.746Zm1.496 0h.75v1.5h-.75Zm1.5 0h.746v1.5h-.746Zm1.496 0h.75v1.5h-.75Zm1.496 0h.75v1.5h-.75Zm1.5 0h.75v1.5h-.75Zm1.496 0h.75v1.5h-.75Zm1.5 0h.746v1.5h-.746Zm1.496 0h.75v1.5h-.75Zm1.5 0h.746v1.5h-.746Zm1.496 0h.75v1.5h-.75Zm1.496 0h.75v1.5h-.75Zm1.5 0h.75v1.5h-.75Zm1.496 0h.75v1.5h-.75Zm1.5 0h.746v1.5h-.746Zm2.246.75v.75h-1.5V0Zm0 1.504v.75h-1.5v-.75Zm0 1.5v.75h-1.5v-.75Zm0 1.5v.75h-1.5v-.75Zm0 1.504v.75h-1.5v-.75Zm0 1.5v.75h-1.5v-.75Zm0 1.5v.75h-1.5v-.75Zm0 1.5v.754h-1.5v-.754Zm0 1.504v.75h-1.5v-.75Zm0 1.5v.75h-1.5v-.75Zm0 1.5v.754h-1.5v-.754Zm0 1.504v.75h-1.5v-.75Zm0 1.5v.75h-1.5v-.75Zm0 1.5v.75h-1.5v-.75Zm0 1.504v.75h-1.5v-.75Zm0 1.5v.75h-1.5v-.75Zm0 1.5v.75h-1.5v-.75Zm0 1.503v.75h-1.5v-.75Zm0 1.5v.75h-1.5v-.75Zm0 1.5v.75h-1.5v-.75Zm0 1.5v.754h-1.5v-.754Zm0 1.504v.75h-1.5v-.75Zm0 1.5v.75h-1.5v-.75Zm0 1.5v.754h-1.5v-.754Zm0 1.504v.75h-1.5v-.75Zm0 1.5v.75h-1.5v-.75Zm0 1.5v.75h-1.5v-.75Zm0 1.504v.75h-1.5v-.75Zm0 1.5v.75h-1.5v-.75Zm0 1.5v.75h-1.5v-.75Zm0 1.504v.75h-1.5v-.75Zm0 1.5v.75h-1.5v-.75Zm0 1.5v.75h-1.5v-.75Zm0 1.5v.754h-1.5v-.754Zm0 1.504v.75h-1.5v-.75Zm0 1.5v.75h-1.5v-.75Zm0 1.5v.75h-1.5v-.75Zm0 1.504v.75h-1.5v-.75Zm0 1.5v.75h-1.5v-.75Zm0 1.5v.75h-1.5v-.75Zm0 1.504v.75h-1.5v-.75Zm0 1.5v.75h-1.5v-.75Zm0 1.5v.75h-1.5v-.75Zm0 1.5v.754h-1.5v-.754Zm0 1.504v.75h-1.5v-.75Zm0 1.5v.75h-1.5v-.75Zm0 1.5v.754h-1.5v-.754Zm0 1.504v.75h-1.5v-.75Zm0 1.5v.75h-1.5v-.75Zm0 1.5v.75h-1.5v-.75Zm0 1.504v.75h-1.5v-.75Zm0 1.5v1.324h-.925v-1.5h.175v.75h-.75v-.575Zm-1.675 1.324h-.75v-1.5h.75Zm-1.5 0h-.746v-1.5h.746Zm-1.496 0h-.75v-1.5h.75Zm-1.497 0h-.75v-1.5h.75Zm-1.5 0h-.75v-1.5h.75Zm-1.496 0h-.75v-1.5h.75Zm-1.5 0h-.746v-1.5h.746Zm-1.496 0h-.75v-1.5h.75Zm-1.5 0h-.746v-1.5h.746Zm-1.496 0h-.75v-1.5h.75Zm-1.496 0h-.75v-1.5h.75Zm-1.5 0h-.75v-1.5h.75Zm-1.496 0h-.75v-1.5h.75Zm-1.5 0h-.746v-1.5h.746Zm-1.496 0h-.75v-1.5h.75Zm-1.5 0h-.746v-1.5h.746Zm-1.496 0h-.75v-1.5h.75Zm-1.496 0h-.75v-1.5h.75Zm-1.5 0h-.75v-1.5h.75Zm-1.496 0h-.75v-1.5h.75Zm-1.5 0h-.746v-1.5h.746Zm-1.496 0h-.75v-1.5h.75Zm-1.5 0h-.747v-1.5h.747Zm-1.497 0h-.75v-1.5h.75Zm-1.496 0h-.75v-1.5h.75Zm-1.5 0h-.75v-1.5h.75Zm-1.496 0h-.75v-1.5h.75Zm-1.5 0h-.746v-1.5h.746Zm-1.496 0h-.75v-1.5h.75Zm-1.5 0h-.746v-1.5h.746Zm-1.496 0h-.75v-1.5h.75Zm-1.496 0h-.75v-1.5h.75Zm-1.5 0h-.75v-1.5h.75Zm-1.496 0h-.75v-1.5h.75Zm-1.5 0h-.746v-1.5h.746Zm-1.496 0h-.75v-1.5h.75Zm-1.5 0h-.746v-1.5h.746Zm-1.496 0h-.75v-1.5h.75Zm-1.496 0h-.75v-1.5h.75Zm-1.5 0h-.75v-1.5h.75Zm-1.496 0h-.75v-1.5h.75Zm-1.5 0h-.75v-1.5h.75Zm-1.497 0h-.75v-1.5h.75Zm-1.5 0h-.746v-1.5h.746Zm-1.496 0h-.75v-1.5h.75Zm-1.5 0h-.746v-1.5h.746Zm-1.496 0h-.75v-1.5h.75Zm-1.496 0h-.75v-1.5h.75Zm-1.5 0h-.75v-1.5h.75Zm-1.496 0h-.75v-1.5h.75Zm-1.5 0h-.746v-1.5h.746Zm-1.496 0h-.75v-1.5h.75Zm-1.5 0h-.746v-1.5h.746Zm-1.496 0h-.75v-1.5h.75Zm-1.496 0h-.75v-1.5h.75Zm-1.5 0h-.75v-1.5h.75Zm-1.496 0h-.75v-1.5h.75Zm-1.5 0h-.746v-1.5h.746Zm-1.496 0h-.75v-1.5h.75Zm-1.5 0h-.747v-1.5h.747Zm-1.497 0h-.75v-1.5h.75Zm-1.496 0h-.75v-1.5h.75Zm-1.5 0h-.75v-1.5h.75Zm-1.496 0h-.75v-1.5h.75Zm-1.5 0h-.746v-1.5h.746Zm-1.496 0h-.75v-1.5h.75Zm-1.5 0h-.746v-1.5h.746Zm-1.496 0h-.75v-1.5h.75Zm-1.496 0h-.75v-1.5h.75Zm-1.5 0h-.75v-1.5h.75Zm-1.496 0h-.75v-1.5h.75Zm-1.5 0h-.746v-1.5h.746Zm-1.496 0h-.75v-1.5h.75Zm-1.5 0h-.746v-1.5h.746Zm-1.496 0h-.75v-1.5h.75Zm-1.496 0h-.75v-1.5h.75Zm-1.5 0h-.75v-1.5h.75Zm-1.496 0h-.75v-1.5h.75Zm-1.5 0h-.747v-1.5h.747Zm-1.497 0h-.75v-1.5h.75Zm-1.5 0h-.746v-1.5h.746Zm-1.496 0h-.75v-1.5h.75Zm-1.496 0h-.75v-1.5h.75Zm-1.5 0h-.75v-1.5h.75Zm-1.496 0h-.75v-1.5h.75Zm-1.5 0h-.75v-1.5h.75Zm-1.496 0h-.75v-1.5h.75Zm-1.5 0h-.746v-1.5h.746Zm-1.496 0h-.75v-1.5h.75Zm-1.5 0h-.746v-1.5h.746Zm-1.496 0h-.75v-1.5h.75Zm-1.496 0h-.75v-1.5h.75Zm-1.5 0h-.75v-1.5h.75Zm-1.496 0h-.75v-1.5h.75Zm-1.5 0h-.746v-1.5h.746Zm-1.496 0h-.75v-1.5h.75Zm-1.5 0h-.746v-1.5h.746Zm-1.496 0h-.75v-1.5h.75Zm-1.497 0h-.75v-1.5h.75Zm-1.5 0h-.75v-1.5h.75Zm-1.496 0h-.75v-1.5h.75Zm-1.5 0h-.746v-1.5h.746Zm-1.496 0h-.75v-1.5h.75Zm-1.5 0h-.746v-1.5h.746Zm-1.496 0h-.75v-1.5h.75Zm-1.496 0h-.75v-1.5h.75Zm-1.5 0h-.75v-1.5h.75Zm-1.496 0h-.75v-1.5h.75Zm-1.5 0h-.746v-1.5h.746Zm-1.496 0h-.75v-1.5h.75Zm-1.5 0h-.746v-1.5h.746Zm-1.496 0h-.75v-1.5h.75Zm-1.496 0h-.75v-1.5h.75Zm-1.5 0h-.75v-1.5h.75Zm-1.496 0h-.75v-1.5h.75Zm-1.5 0h-.747v-1.5h.747Zm-1.497 0h-.75v-1.5h.75Zm-1.5 0h-.746v-1.5h.746Zm-1.496 0h-.75v-1.5h.75Zm-1.496 0h-.75v-1.5h.75Zm-1.5 0h-.75v-1.5h.75Zm-1.496 0h-.75v-1.5h.75Zm-1.5 0h-.746v-1.5h.746Zm-1.496 0h-.75v-1.5h.75Zm-1.5 0h-.746v-1.5h.746Zm-1.496 0h-.75v-1.5h.75Zm-1.5 0h-.746v-1.5h.746Zm-1.496 0h-.75v-1.5h.75Zm-1.496 0h-.75v-1.5h.75Zm-1.5 0h-.75v-1.5h.75Zm-1.496 0h-.75v-1.5h.75Zm-1.5 0h-.746v-1.5h.746Zm-1.496 0h-.75v-1.5h.75Zm-1.5 0h-.746v-1.5h.746Zm-1.496 0h-.75v-1.5h.75Zm-1.497 0h-.75v-1.5h.75Zm-1.5 0h-.75v-1.5h.75Zm-1.496 0h-.75v-1.5h.75Zm-1.5 0h-.746v-1.5h.746Zm-1.496 0h-.75v-1.5h.75Zm-1.5 0h-.746v-1.5h.746Zm-1.496 0h-.75v-1.5h.75Zm-1.496 0h-.75v-1.5h.75Zm-1.5 0h-.75v-1.5h.75Zm-1.496 0h-.75v-1.5h.75Zm-1.5 0h-.746v-1.5h.746Zm-1.496 0h-.75v-1.5h.75Zm-1.5 0h-.746v-1.5h.746Zm-1.496 0h-.75v-1.5h.75Zm-1.496 0H-.64v-.93H.854v.18h-.75v-.75H.68Zm-1.32-1.68v-.75H.854v.75Zm0-1.5v-.754H.854v.754Zm0-1.504v-.75H.854v.75Zm0-1.5v-.75H.854v.75Zm0-1.5v-.75H.854v.75Zm0-1.504v-.75H.854v.75Zm0-1.5v-.75H.854v.75Zm0-1.5v-.75H.854v.75Zm0-1.504v-.75H.854v.75Zm0-1.5v-.75H.854v.75Zm0-1.5v-.75H.854v.75Zm0-1.5v-.754H.854v.754Zm0-1.504v-.75H.854v.75Zm0-1.5v-.75H.854v.75Zm0-1.5v-.754H.854v.754Zm0-1.504v-.75H.854v.75Zm0-1.5v-.75H.854v.75Zm0-1.5v-.75H.854v.75Zm0-1.503v-.75H.854v.75Zm0-1.5v-.75H.854v.75Zm0-1.5v-.75H.854v.75Zm0-1.5v-.754H.854v.754Zm0-1.504v-.75H.854v.75Zm0-1.5v-.75H.854v.75Zm0-1.5v-.754H.854v.754Zm0-1.504v-.75H.854v.75Zm0-1.5v-.75H.854v.75Zm0-1.5v-.75H.854v.75Zm0-1.504v-.75H.854v.75Zm0-1.5v-.75H.854v.75Zm0-1.5v-.75H.854v.75Zm0-1.504v-.75H.854v.75Zm0-1.5v-.75H.854v.75Zm0-1.5v-.75H.854v.75Zm0-1.5v-.754H.854v.754Zm0-1.504v-.75H.854v.75Zm0-1.5v-.75H.854v.75Zm0-1.5v-.754H.854v.754Zm0-1.504v-.75H.854v.75Zm0-1.5v-.75H.854v.75Zm0-1.5v-.75H.854v.75Zm0-1.504v-.75H.854v.75Zm0-1.5v-.75H.854v.75Zm0-1.5v-.75H.854v.75Zm0-1.504v-.75H.854v.75Zm0-1.5v-.75H.854v.75Zm0-1.5v-.75H.854v.75Zm0-1.5v-.754H.854v.754Zm0-1.504v-.75H.854v.75Zm0-1.5v-.75H.854v.75Zm0-1.5V.395H.854v.753Zm0 0"/>
  </g>
  <path d="M54.982 31.166c1.05 0 1.953.187 2.703.562.758.375 1.332.914 1.719 1.61.394.699.594 1.523.594 2.468 0 .95-.2 1.774-.594 2.469-.387.7-.961 1.242-1.719 1.625-.75.375-1.652.562-2.703.562h-3.656v5.97h-1.797V31.165Zm-.047 7.75c2.125 0 3.188-1.036 3.188-3.11 0-2.082-1.063-3.125-3.188-3.125h-3.61v6.235ZM65.889 46.65c-1.137 0-2.024-.297-2.657-.89-.636-.594-.953-1.438-.953-2.532 0-.687.141-1.266.422-1.734.281-.469.719-.848 1.313-1.14.593-.302 1.363-.532 2.312-.688.832-.145 1.469-.301 1.906-.47.438-.175.727-.366.875-.577.157-.219.235-.492.235-.828 0-.52-.184-.914-.547-1.188-.355-.281-.93-.422-1.719-.422-.75 0-1.39.149-1.922.438-.53.281-1.023.71-1.468 1.281h-.204l-.843-1.188a5.332 5.332 0 0 1 1.86-1.468c.75-.364 1.608-.547 2.577-.547 1.352 0 2.352.297 3 .89.645.594.969 1.418.969 2.47v6.109c0 .636.27.953.812.953.176 0 .348-.032.516-.094l.156.047.188 1.187a1.312 1.312 0 0 1-.5.188c-.2.039-.406.062-.625.062-.637 0-1.117-.132-1.438-.406-.324-.281-.53-.691-.625-1.234l-.218-.032c-.325.618-.766 1.075-1.329 1.375-.554.29-1.25.438-2.093.438Zm.375-1.36c.644 0 1.203-.144 1.672-.437.468-.3.828-.719 1.078-1.25.25-.539.375-1.16.375-1.86v-1.468l-.203-.031c-.25.18-.563.328-.938.453-.367.117-.883.226-1.547.328-.668.086-1.199.227-1.594.422-.386.187-.667.43-.843.719-.168.28-.25.636-.25 1.062 0 .68.195 1.195.593 1.547.407.344.958.516 1.657.516ZM78.993 51.322c-1.824 0-3.152-.305-3.984-.906-.836-.606-1.25-1.414-1.25-2.422 0-.649.191-1.164.578-1.547.395-.375.961-.645 1.703-.813V45.4c-.355-.195-.62-.43-.797-.703-.18-.27-.265-.594-.265-.969 0-.445.14-.805.422-1.078.28-.281.703-.492 1.265-.64v-.22c-1.262-.663-1.89-1.742-1.89-3.234 0-.75.171-1.414.515-2a3.502 3.502 0 0 1 1.453-1.375c.633-.32 1.375-.484 2.22-.484.968 0 1.773.21 2.42.625.25-.27.43-.555.548-.86a4 4 0 0 0 .25-1.062l.219-.125 1.39.328c-.074.586-.25 1.078-.531 1.484-.281.407-.68.743-1.188 1v.22c.364.292.633.636.813 1.03.176.399.266.856.266 1.375 0 .73-.172 1.383-.516 1.954-.344.574-.836 1.027-1.469 1.359-.637.336-1.37.5-2.203.5-.094 0-.266-.004-.516-.016a10.45 10.45 0 0 0-.625-.03c-.355 0-.64.093-.859.28a.908.908 0 0 0-.328.72c0 .366.113.636.344.812.238.168.629.261 1.172.28l2.718.095c1.176.043 2.047.32 2.61.828.57.5.86 1.21.86 2.14a3.24 3.24 0 0 1-.563 1.86c-.368.55-.95.992-1.75 1.328-.805.332-1.813.5-3.032.5Zm-.03-10.266c.82 0 1.452-.207 1.89-.625.445-.426.672-1.023.672-1.797 0-.789-.227-1.398-.672-1.828-.438-.437-1.07-.656-1.89-.656-.825 0-1.45.215-1.876.64-.43.43-.64 1.044-.64 1.844 0 .782.21 1.383.64 1.797.426.418 1.05.625 1.875.625Zm.03 8.797c.844 0 1.535-.094 2.078-.281.54-.188.926-.438 1.157-.75.238-.305.36-.649.36-1.031 0-.344-.063-.622-.188-.829-.125-.21-.336-.367-.625-.468-.282-.102-.672-.172-1.172-.203l-2.578-.125h-.36c-1.449.023-2.172.582-2.172 1.687 0 1.332 1.164 2 3.5 2ZM95.842 41.056h-7.921c.05 1.406.382 2.438 1 3.094.625.648 1.476.969 2.562.969.82 0 1.484-.145 1.984-.438.508-.289.907-.75 1.188-1.375h.219l1.109.656a4.1 4.1 0 0 1-1.61 1.97c-.73.48-1.695.718-2.89.718-1.105 0-2.059-.219-2.86-.656-.804-.438-1.421-1.098-1.859-1.985-.43-.894-.64-2.004-.64-3.328 0-1.312.222-2.414.672-3.312.457-.895 1.082-1.563 1.875-2 .789-.446 1.695-.672 2.718-.672 1.469 0 2.617.418 3.453 1.25.832.824 1.25 2.058 1.25 3.703 0 .637-.011 1.062-.03 1.281Zm-1.421-1.406c-.032-1.227-.31-2.117-.829-2.672-.511-.562-1.246-.844-2.203-.844-1.011 0-1.804.282-2.375.844-.574.563-.922 1.453-1.047 2.672ZM114.43 37.353v-6.187h1.782V46.43h-1.781v-7.547h-7.938v7.547h-1.797V31.166h1.797v6.187ZM129.515 41.056h-7.922c.051 1.406.383 2.438 1 3.094.625.648 1.477.969 2.563.969.82 0 1.484-.145 1.984-.438.508-.289.906-.75 1.188-1.375h.218l1.11.656a4.1 4.1 0 0 1-1.61 1.97c-.73.48-1.695.718-2.89.718-1.106 0-2.059-.219-2.86-.656-.804-.438-1.421-1.098-1.859-1.985-.43-.894-.64-2.004-.64-3.328 0-1.312.222-2.414.671-3.312.457-.895 1.082-1.563 1.875-2 .79-.446 1.696-.672 2.72-.672 1.468 0 2.616.418 3.452 1.25.832.824 1.25 2.058 1.25 3.703 0 .637-.011 1.062-.031 1.281Zm-1.422-1.406c-.03-1.227-.308-2.117-.828-2.672-.511-.562-1.246-.844-2.203-.844-1.012 0-1.805.282-2.375.844-.574.563-.922 1.453-1.047 2.672ZM135.563 46.65c-1.136 0-2.023-.297-2.656-.89-.636-.594-.953-1.438-.953-2.532 0-.687.14-1.266.422-1.734.281-.469.719-.848 1.312-1.14.594-.302 1.364-.532 2.313-.688.832-.145 1.469-.301 1.906-.47.438-.175.727-.366.875-.577.156-.219.235-.492.235-.828 0-.52-.184-.914-.547-1.188-.356-.281-.93-.422-1.719-.422-.75 0-1.39.149-1.922.438-.531.281-1.023.71-1.469 1.281h-.203l-.844-1.188a5.332 5.332 0 0 1 1.86-1.468c.75-.364 1.61-.547 2.578-.547 1.352 0 2.352.297 3 .89.645.594.969 1.418.969 2.47v6.109c0 .636.27.953.812.953.176 0 .348-.032.516-.094l.156.047.188 1.187a1.312 1.312 0 0 1-.5.188c-.2.039-.407.062-.625.062-.637 0-1.118-.132-1.438-.406-.324-.281-.531-.691-.625-1.234l-.219-.032c-.324.618-.765 1.075-1.328 1.375-.554.29-1.25.438-2.094.438Zm.375-1.36c.645 0 1.204-.144 1.672-.437.47-.3.828-.719 1.078-1.25.25-.539.375-1.16.375-1.86v-1.468l-.203-.031c-.25.18-.562.328-.937.453-.367.117-.883.226-1.547.328-.668.086-1.2.227-1.594.422-.386.187-.668.43-.844.719-.167.28-.25.636-.25 1.062 0 .68.196 1.195.594 1.547.406.344.957.516 1.656.516ZM148.7 46.65c-.93 0-1.747-.219-2.454-.656-.699-.446-1.25-1.114-1.656-2-.398-.895-.594-2-.594-3.313 0-1.32.207-2.426.625-3.312.414-.895.988-1.563 1.719-2 .738-.446 1.594-.672 2.562-.672.77 0 1.457.148 2.063.437.613.282 1.14.758 1.578 1.422l.219-.047v-6.218h1.703v16.14h-1.703v-1.687l-.219-.032a4.328 4.328 0 0 1-1.531 1.407c-.637.351-1.406.531-2.313.531Zm.53-1.531c1.07 0 1.926-.364 2.563-1.094.645-.738.969-1.852.969-3.344 0-1.508-.324-2.629-.969-3.36-.637-.737-1.492-1.109-2.562-1.109-1.106 0-1.961.36-2.563 1.079-.594.718-.89 1.851-.89 3.39 0 2.961 1.148 4.438 3.453 4.438ZM167.47 41.056h-7.922c.051 1.406.383 2.438 1 3.094.625.648 1.477.969 2.563.969.82 0 1.484-.145 1.984-.438.508-.289.907-.75 1.188-1.375h.219l1.109.656a4.1 4.1 0 0 1-1.61 1.97c-.73.48-1.695.718-2.89.718-1.106 0-2.059-.219-2.86-.656-.804-.438-1.421-1.098-1.859-1.985-.43-.894-.64-2.004-.64-3.328 0-1.312.222-2.414.671-3.312.457-.895 1.082-1.563 1.875-2 .79-.446 1.696-.672 2.72-.672 1.468 0 2.616.418 3.452 1.25.832.824 1.25 2.058 1.25 3.703 0 .637-.011 1.062-.031 1.281Zm-1.422-1.406c-.03-1.227-.308-2.117-.828-2.672-.511-.562-1.246-.844-2.203-.844-1.012 0-1.805.282-2.375.844-.574.563-.922 1.453-1.047 2.672ZM170.769 46.431V34.916h1.625v1.796l.218.063c.532-1.313 1.54-1.969 3.032-1.969.78 0 1.367.14 1.765.422l-.437 1.453-.22.031a3.23 3.23 0 0 0-1.421-.312c-.918 0-1.625.344-2.125 1.031-.492.688-.734 1.805-.734 3.344v5.656Zm0 0"/>
  <g clip-path="url(#d)">
    <path fill="#fff" d="M.105 255.977h224.317v81.09H.105Zm0 0"/>
  </g>
  <g clip-path="url(#e)">
    <path d="M.113 255.227h.75v1.496h-.75Zm1.5 0h.746v1.496h-.746Zm1.496 0h.75v1.496h-.75Zm1.496 0h.75v1.496h-.75Zm1.5 0h.75v1.496h-.75Zm1.497 0h.75v1.496h-.75Zm1.5 0h.746v1.496h-.746Zm1.496 0h.75v1.496h-.75Zm1.5 0h.746v1.496h-.746Zm1.496 0h.75v1.496h-.75Zm1.496 0h.75v1.496h-.75Zm1.5 0h.75v1.496h-.75Zm1.496 0h.75v1.496h-.75Zm1.5 0h.746v1.496h-.746Zm1.496 0h.75v1.496h-.75Zm1.5 0h.746v1.496h-.746Zm1.496 0h.75v1.496h-.75Zm1.5 0h.746v1.496h-.746Zm1.496 0h.75v1.496h-.75Zm1.496 0h.75v1.496h-.75Zm1.5 0h.75v1.496h-.75Zm1.496 0h.75v1.496h-.75Zm1.5 0h.746v1.496h-.746Zm1.496 0h.75v1.496h-.75Zm1.5 0h.747v1.496h-.746Zm1.497 0h.75v1.496h-.75Zm1.496 0h.75v1.496h-.75Zm1.5 0h.75v1.496h-.75Zm1.496 0h.75v1.496h-.75Zm1.5 0h.746v1.496h-.746Zm1.496 0h.75v1.496h-.75Zm1.5 0h.746v1.496h-.746Zm1.496 0h.75v1.496h-.75Zm1.496 0h.75v1.496h-.75Zm1.5 0h.75v1.496h-.75Zm1.496 0h.75v1.496h-.75Zm1.5 0h.746v1.496h-.746Zm1.496 0h.75v1.496h-.75Zm1.5 0h.746v1.496h-.746Zm1.496 0h.75v1.496h-.75Zm1.496 0h.75v1.496h-.75Zm1.5 0h.75v1.496h-.75Zm1.497 0h.75v1.496h-.75Zm1.5 0h.746v1.496h-.746Zm1.496 0h.75v1.496h-.75Zm1.5 0h.746v1.496h-.746Zm1.496 0h.75v1.496h-.75Zm1.496 0h.75v1.496h-.75Zm1.5 0h.75v1.496h-.75Zm1.496 0h.75v1.496h-.75Zm1.5 0h.746v1.496h-.746Zm1.496 0h.75v1.496h-.75Zm1.5 0h.746v1.496H78Zm1.496 0h.75v1.496h-.75Zm1.496 0h.75v1.496h-.75Zm1.5 0h.75v1.496h-.75Zm1.496 0h.75v1.496h-.75Zm1.5 0h.75v1.496h-.75Zm1.496 0h.75v1.496h-.75Zm1.5 0h.746v1.496h-.746Zm1.496 0h.75v1.496h-.75Zm1.5 0h.747v1.496h-.747Zm1.497 0h.75v1.496h-.75Zm1.496 0h.75v1.496h-.75Zm1.5 0h.75v1.496h-.75Zm1.496 0h.75v1.496h-.75Zm1.5 0h.746v1.496h-.746Zm1.496 0h.75v1.496h-.75Zm1.5 0h.746v1.496h-.746Zm1.496 0h.75v1.496h-.75Zm1.496 0h.75v1.496h-.75Zm1.5 0h.75v1.496h-.75Zm1.496 0h.75v1.496h-.75Zm1.5 0h.746v1.496h-.746Zm1.496 0h.75v1.496h-.75Zm1.5 0h.746v1.496h-.746Zm1.496 0h.75v1.496h-.75Zm1.496 0h.75v1.496h-.75Zm1.5 0h.75v1.496h-.75Zm1.496 0h.75v1.496h-.75Zm1.5 0h.747v1.496h-.746Zm1.497 0h.75v1.496h-.75Zm1.5 0h.746v1.496h-.746Zm1.496 0h.75v1.496h-.75Zm1.496 0h.75v1.496h-.75Zm1.5 0h.75v1.496h-.75Zm1.496 0h.75v1.496h-.75Zm1.5 0h.746v1.496h-.746Zm1.496 0h.75v1.496h-.75Zm1.5 0h.746v1.496h-.746Zm1.496 0h.75v1.496h-.75Zm1.496 0h.75v1.496h-.75Zm1.5 0h.75v1.496h-.75Zm1.496 0h.75v1.496h-.75Zm1.5 0h.746v1.496h-.746Zm1.496 0h.75v1.496h-.75Zm1.5 0h.746v1.496h-.746Zm1.496 0h.75v1.496h-.75Zm1.497 0h.75v1.496h-.75Zm1.5 0h.75v1.496h-.75Zm1.496 0h.75v1.496h-.75Zm1.5 0h.75v1.496h-.75Zm1.496 0h.75v1.496h-.75Zm1.5 0h.746v1.496h-.746Zm1.496 0h.75v1.496h-.75Zm1.5 0h.746v1.496h-.746Zm1.496 0h.75v1.496h-.75Zm1.496 0h.75v1.496h-.75Zm1.5 0h.75v1.496h-.75Zm1.496 0h.75v1.496h-.75Zm1.5 0h.746v1.496h-.746Zm1.496 0h.75v1.496h-.75Zm1.5 0h.746v1.496h-.746Zm1.496 0h.75v1.496h-.75Zm1.496 0h.75v1.496h-.75Zm1.5 0h.75v1.496h-.75Zm1.496 0h.75v1.496h-.75Zm1.5 0h.747v1.496h-.747Zm1.497 0h.75v1.496h-.75Zm1.5 0h.746v1.496h-.746Zm1.496 0h.75v1.496h-.75Zm1.496 0h.75v1.496h-.75Zm1.5 0h.75v1.496h-.75Zm1.496 0h.75v1.496h-.75Zm1.5 0h.746v1.496h-.746Zm1.496 0h.75v1.496h-.75Zm1.5 0h.746v1.496h-.746Zm1.496 0h.75v1.496h-.75Zm1.496 0h.75v1.496h-.75Zm1.5 0h.75v1.496h-.75Zm1.496 0h.75v1.496h-.75Zm1.5 0h.746v1.496h-.746Zm1.496 0h.75v1.496h-.75Zm1.5 0h.746v1.496h-.746Zm1.496 0h.75v1.496h-.75Zm1.496 0h.75v1.496h-.75Zm1.5 0h.75v1.496h-.75Zm1.497 0h.75v1.496h-.75Zm1.5 0h.746v1.496h-.746Zm1.496 0h.75v1.496h-.75Zm1.5 0h.746v1.496h-.746Zm1.496 0h.75v1.496h-.75Zm1.496 0h.75v1.496h-.75Zm1.5 0h.75v1.496h-.75Zm1.496 0h.75v1.496h-.75Zm1.5 0h.75v1.496h-.75Zm1.496 0h.75v1.496h-.75Zm1.5 0h.746v1.496h-.746Zm1.496 0h.75v1.496h-.75Zm1.5 0h.746v1.496h-.746Zm2.23.761v.75h-1.5v-.75Zm0 1.496v.75h-1.5v-.75Zm0 1.496v.747h-1.5v-.747Zm0 1.497v.746h-1.5v-.746Zm0 1.492v.75h-1.5v-.75Zm0 1.496v.75h-1.5v-.75Zm0 1.496v.746h-1.5v-.746Zm0 1.496v.746h-1.5v-.746Zm0 1.496v.746h-1.5v-.746Zm0 1.492v.75h-1.5v-.75Zm0 1.496v.747h-1.5v-.747Zm0 1.497v.746h-1.5v-.747Zm0 1.496v.746h-1.5v-.746Zm0 1.492v.75h-1.5v-.75Zm0 1.496v.75h-1.5v-.75Zm0 1.496v.746h-1.5v-.746Zm0 1.496v.746h-1.5v-.746Zm0 1.492v.75h-1.5v-.75Zm0 1.496v.75h-1.5v-.75Zm0 1.496v.747h-1.5v-.747Zm0 1.497v.746h-1.5v-.746Zm0 1.492v.75h-1.5v-.75Zm0 1.496v.75h-1.5v-.75Zm0 1.496v.746h-1.5v-.746Zm0 1.496v.746h-1.5v-.746Zm0 1.496v.746h-1.5v-.746Zm0 1.492v.75h-1.5v-.75Zm0 1.496v.746h-1.5v-.746Zm0 1.496v.747h-1.5v-.747Zm0 1.497v.746h-1.5v-.746Zm0 1.492v.75h-1.5v-.75Zm0 1.496v.75h-1.5v-.75Zm0 1.496v.746h-1.5v-.746Zm0 1.496v.746h-1.5v-.746Zm0 1.492v.75h-1.5v-.75Zm0 1.496v.75h-1.5v-.75Zm0 1.496v.747h-1.5v-.747Zm0 1.497v.746h-1.5v-.747Zm0 1.496v.746h-1.5v-.746Zm0 1.492v.75h-1.5v-.75Zm0 1.496v.746h-1.5v-.746Zm0 1.496v.746h-1.5v-.746Zm0 1.496v.746h-1.5v-.746Zm0 1.492v.75h-1.5v-.75Zm0 1.496v.75h-1.5v-.75Zm0 1.496v.747h-1.5v-.747Zm0 1.497v.746h-1.5v-.746Zm0 1.492v.75h-1.5v-.75Zm0 1.496v.75h-1.5v-.75Zm0 1.496V330h-1.5v-.746Zm0 1.496v.746h-1.5v-.746Zm0 1.496v.746h-1.5v-.746Zm0 1.492v.75h-1.5v-.75Zm0 1.496v.746h-1.5v-.746Zm0 1.496v.872h-1.374v-1.497h.625v.75h-.75v-.125Zm-2.12.872h-.75v-1.497h.75Zm-1.5 0h-.747v-1.497h.747Zm-1.497 0h-.75v-1.497h.75Zm-1.5 0h-.746v-1.497h.746Zm-1.496 0h-.75v-1.497h.75Zm-1.496 0h-.75v-1.497h.75Zm-1.5 0h-.75v-1.497h.75Zm-1.496 0h-.75v-1.497h.75Zm-1.5 0h-.746v-1.497h.746Zm-1.496 0h-.75v-1.497h.75Zm-1.5 0h-.746v-1.497h.746Zm-1.496 0h-.75v-1.497h.75Zm-1.496 0h-.75v-1.497h.75Zm-1.5 0h-.75v-1.497h.75Zm-1.496 0h-.75v-1.497h.75Zm-1.5 0h-.746v-1.497h.746Zm-1.496 0h-.75v-1.497h.75Zm-1.5 0h-.746v-1.497h.746Zm-1.496 0h-.75v-1.497h.75Zm-1.496 0h-.75v-1.497h.75Zm-1.5 0h-.75v-1.497h.75Zm-1.497 0h-.75v-1.497h.75Zm-1.5 0h-.746v-1.497h.746Zm-1.496 0h-.75v-1.497h.75Zm-1.5 0h-.746v-1.497h.746Zm-1.496 0h-.75v-1.497h.75Zm-1.496 0h-.75v-1.497h.75Zm-1.5 0h-.75v-1.497h.75Zm-1.496 0h-.75v-1.497h.75Zm-1.5 0h-.746v-1.497h.746Zm-1.496 0h-.75v-1.497h.75Zm-1.5 0h-.746v-1.497h.746Zm-1.496 0h-.75v-1.497h.75Zm-1.496 0h-.75v-1.497h.75Zm-1.5 0h-.75v-1.497h.75Zm-1.496 0h-.75v-1.497h.75Zm-1.5 0h-.75v-1.497h.75Zm-1.496 0h-.75v-1.497h.75Zm-1.5 0h-.747v-1.497h.747Zm-1.497 0h-.75v-1.497h.75Zm-1.5 0h-.746v-1.497h.746Zm-1.496 0h-.75v-1.497h.75Zm-1.496 0h-.75v-1.497h.75Zm-1.5 0h-.75v-1.497h.75Zm-1.496 0h-.75v-1.497h.75Zm-1.5 0h-.746v-1.497h.746Zm-1.496 0h-.75v-1.497h.75Zm-1.5 0h-.746v-1.497h.746Zm-1.496 0h-.75v-1.497h.75Zm-1.496 0h-.75v-1.497h.75Zm-1.5 0h-.75v-1.497h.75Zm-1.496 0h-.75v-1.497h.75Zm-1.5 0h-.746v-1.497h.746Zm-1.496 0h-.75v-1.497h.75Zm-1.5 0h-.746v-1.497h.746Zm-1.496 0h-.75v-1.497h.75Zm-1.496 0h-.75v-1.497h.75Zm-1.5 0h-.75v-1.497h.75Zm-1.497 0h-.75v-1.497h.75Zm-1.5 0h-.746v-1.497h.746Zm-1.496 0h-.75v-1.497h.75Zm-1.5 0h-.746v-1.497h.746Zm-1.496 0h-.75v-1.497h.75Zm-1.496 0h-.75v-1.497h.75Zm-1.5 0h-.75v-1.497h.75Zm-1.496 0h-.75v-1.497h.75Zm-1.5 0h-.746v-1.497h.746Zm-1.496 0h-.75v-1.497h.75Zm-1.5 0h-.746v-1.497h.746Zm-1.496 0h-.75v-1.497h.75Zm-1.496 0h-.75v-1.497h.75Zm-1.5 0h-.75v-1.497h.75Zm-1.496 0h-.75v-1.497h.75Zm-1.5 0h-.746v-1.497h.746Zm-1.496 0h-.75v-1.497h.75Zm-1.5 0h-.746v-1.497h.746Zm-1.496 0h-.75v-1.497h.75Zm-1.5 0h-.747v-1.497h.746Zm-1.497 0h-.75v-1.497h.75Zm-1.496 0h-.75v-1.497h.75Zm-1.5 0h-.75v-1.497h.75Zm-1.496 0h-.75v-1.497h.75Zm-1.5 0h-.746v-1.497h.746Zm-1.496 0h-.75v-1.497h.75Zm-1.5 0h-.746v-1.497h.746Zm-1.496 0h-.75v-1.497h.75Zm-1.496 0h-.75v-1.497h.75Zm-1.5 0h-.75v-1.497h.75Zm-1.496 0h-.75v-1.497h.75Zm-1.5 0h-.746v-1.497h.746Zm-1.496 0h-.75v-1.497h.75Zm-1.5 0h-.746v-1.497h.746Zm-1.496 0h-.75v-1.497h.75Zm-1.496 0h-.75v-1.497h.75Zm-1.5 0h-.75v-1.497h.75Zm-1.497 0h-.75v-1.497h.75Zm-1.5 0h-.746v-1.497h.746Zm-1.496 0h-.75v-1.497h.75Zm-1.5 0h-.746v-1.497h.746Zm-1.496 0h-.75v-1.497h.75Zm-1.496 0h-.75v-1.497h.75Zm-1.5 0h-.75v-1.497h.75Zm-1.496 0h-.75v-1.497h.75Zm-1.5 0h-.746v-1.497h.746Zm-1.496 0h-.75v-1.497h.75Zm-1.5 0h-.746v-1.497h.746Zm-1.496 0h-.75v-1.497h.75Zm-1.496 0h-.75v-1.497h.75Zm-1.5 0h-.75v-1.497h.75Zm-1.496 0h-.75v-1.497h.75Zm-1.5 0h-.746v-1.497h.746Zm-1.496 0h-.75v-1.497h.75Zm-1.5 0h-.746v-1.497h.746Zm-1.496 0h-.75v-1.497h.75Zm-1.497 0h-.75v-1.497h.75Zm-1.5 0h-.75v-1.497h.75Zm-1.496 0h-.75v-1.497h.75Zm-1.5 0h-.746v-1.497h.746Zm-1.496 0h-.75v-1.497h.75Zm-1.5 0h-.746v-1.497h.746Zm-1.496 0h-.75v-1.497h.75Zm-1.5 0h-.746v-1.497h.746Zm-1.496 0h-.75v-1.497h.75Zm-1.496 0h-.75v-1.497h.75Zm-1.5 0h-.75v-1.497h.75Zm-1.496 0h-.75v-1.497h.75Zm-1.5 0h-.746v-1.497h.746Zm-1.496 0h-.75v-1.497h.75Zm-1.5 0h-.746v-1.497h.746Zm-1.496 0h-.75v-1.497h.75Zm-1.496 0h-.75v-1.497h.75Zm-1.5 0h-.75v-1.497h.75Zm-1.497 0h-.75v-1.497h.75Zm-1.5 0h-.746v-1.497h.747Zm-1.496 0h-.75v-1.497h.75Zm-1.5 0h-.746v-1.497h.746Zm-1.496 0h-.75v-1.497h.75Zm-1.496 0h-.75v-1.497h.75Zm-1.5 0h-.75v-1.497h.75Zm-1.496 0h-.75v-1.497h.75Zm-1.5 0h-.746v-1.497h.746Zm-1.496 0h-.75v-1.497h.75Zm-1.5 0h-.746v-1.497h.746Zm-1.496 0h-.75v-1.497h.75Zm-1.496 0h-.75v-1.497h.75Zm-1.5 0h-.75v-1.497h.75Zm-1.496 0h-.75v-1.497h.75Zm-1.5 0h-.746v-1.497h.746Zm-1.496 0h-.75v-1.497h.75Zm-1.5 0h-.86v-1.383h1.5v.636h-.75v-.75h.11Zm-.86-2.133v-.746h1.5v.746Zm0-1.492v-.75h1.5v.75Zm0-1.497v-.75h1.5v.75Zm0-1.496v-.746h1.5v.746Zm0-1.496v-.746h1.5v.746Zm0-1.496v-.746h1.5v.746Zm0-1.492v-.75h1.5v.75Zm0-1.496v-.746h1.5v.746Zm0-1.496v-.746h1.5v.746Zm0-1.496v-.746h1.5v.746Zm0-1.492v-.75h1.5v.75Zm0-1.497v-.75h1.5v.75Zm0-1.496v-.746h1.5v.746Zm0-1.496v-.746h1.5v.746Zm0-1.492v-.75h1.5v.75Zm0-1.496v-.75h1.5v.75Zm0-1.496v-.746h1.5v.746Zm0-1.496v-.746h1.5v.746Zm0-1.496v-.746h1.5v.746Zm0-1.493v-.75h1.5v.75Zm0-1.496v-.746h1.5v.746Zm0-1.496v-.746h1.5v.746Zm0-1.496v-.746h1.5v.746Zm0-1.492v-.75h1.5v.75Zm0-1.496v-.75h1.5v.75Zm0-1.496v-.746h1.5v.746Zm0-1.496v-.746h1.5v.746Zm0-1.492v-.75h1.5v.75Zm0-1.497v-.75h1.5v.75Zm0-1.496v-.746h1.5v.746Zm0-1.496v-.746h1.5v.746Zm0-1.496v-.746h1.5v.746Zm0-1.492v-.75h1.5v.75Zm0-1.496v-.746h1.5v.746Zm0-1.496v-.746h1.5v.746Zm0-1.496v-.746h1.5v.746Zm0-1.492v-.75h1.5v.75Zm0-1.497v-.75h1.5v.75Zm0-1.496v-.746h1.5v.746Zm0-1.496v-.746h1.5v.746Zm0-1.492v-.75h1.5v.75Zm0-1.496v-.75h1.5v.75Zm0-1.496v-.746h1.5v.746Zm0-1.496v-.746h1.5v.746Zm0-1.492v-.75h1.5v.75Zm0-1.497v-.75h1.5v.75Zm0-1.496v-.746h1.5v.746Zm0-1.496v-.746h1.5v.746Zm0-1.496v-.746h1.5v.746Zm0-1.492v-.75h1.5v.75Zm0-1.496v-.746h1.5v.746Zm0-1.496v-.746h1.5v.746Zm0-1.496v-.746h1.5v.746Zm0-1.492v-.25h1.5v.25Zm0 0"/>
  </g>
  <path d="M58.364 289.387c1.05 0 1.953.187 2.703.562.758.375 1.332.915 1.719 1.61.394.7.593 1.523.593 2.469 0 .949-.199 1.773-.593 2.468-.387.7-.961 1.243-1.72 1.625-.75.375-1.652.563-2.702.563h-3.657v5.969h-1.796v-15.266Zm-.047 7.75c2.125 0 3.187-1.035 3.187-3.11 0-2.081-1.062-3.124-3.187-3.124h-3.61v6.234ZM69.27 304.871c-1.136 0-2.023-.297-2.656-.89-.637-.594-.953-1.438-.953-2.532 0-.687.14-1.265.422-1.734.281-.469.719-.848 1.312-1.14.594-.301 1.364-.532 2.313-.688.832-.145 1.469-.3 1.906-.469.438-.176.727-.367.875-.578.156-.219.235-.492.235-.828 0-.52-.184-.914-.547-1.188-.356-.28-.93-.421-1.72-.421-.75 0-1.39.148-1.92.437-.532.281-1.024.711-1.47 1.281h-.203l-.844-1.187a5.332 5.332 0 0 1 1.86-1.469c.75-.363 1.61-.547 2.578-.547 1.352 0 2.352.297 3 .89.644.595.969 1.419.969 2.47v6.109c0 .637.27.953.812.953.176 0 .348-.031.516-.094l.156.047.188 1.188a1.312 1.312 0 0 1-.5.187c-.2.04-.407.063-.625.063-.637 0-1.118-.133-1.438-.407-.324-.28-.531-.69-.625-1.234l-.219-.031c-.324.617-.765 1.074-1.328 1.375-.555.289-1.25.437-2.094.437Zm.375-1.359c.645 0 1.204-.145 1.672-.438.47-.3.828-.718 1.078-1.25.25-.539.375-1.16.375-1.859v-1.469l-.203-.03c-.25.179-.562.327-.937.452-.367.117-.883.227-1.547.328-.668.086-1.2.227-1.594.422-.387.188-.668.43-.844.719-.168.281-.25.637-.25 1.062 0 .68.196 1.196.594 1.547.406.344.957.516 1.656.516ZM82.375 309.543c-1.824 0-3.152-.304-3.984-.906-.836-.605-1.25-1.414-1.25-2.422 0-.648.191-1.164.578-1.547.394-.375.96-.644 1.703-.812v-.235c-.356-.195-.621-.43-.797-.703-.18-.27-.266-.594-.266-.969 0-.445.141-.804.422-1.078.282-.28.703-.492 1.266-.64v-.219c-1.262-.664-1.89-1.742-1.89-3.234 0-.75.171-1.414.515-2a3.502 3.502 0 0 1 1.453-1.375c.633-.32 1.375-.485 2.219-.485.969 0 1.773.211 2.422.625.25-.27.43-.554.547-.86a4 4 0 0 0 .25-1.062l.218-.125 1.39.328c-.073.586-.25 1.079-.53 1.485-.282.406-.68.742-1.188 1v.219c.363.293.633.636.813 1.03.175.4.265.856.265 1.376 0 .73-.172 1.383-.515 1.953-.344.574-.836 1.027-1.47 1.36-.636.335-1.37.5-2.202.5-.094 0-.266-.005-.516-.016a10.45 10.45 0 0 0-.625-.032c-.355 0-.64.094-.86.282a.908.908 0 0 0-.327.718c0 .368.113.637.343.813.239.168.63.262 1.172.281l2.719.094c1.176.043 2.047.32 2.61.828.57.5.859 1.211.859 2.14a3.24 3.24 0 0 1-.563 1.86c-.367.55-.949.992-1.75 1.328-.804.332-1.812.5-3.031.5Zm-.031-10.265c.82 0 1.453-.207 1.89-.625.446-.426.672-1.024.672-1.797 0-.79-.226-1.399-.672-1.828-.437-.438-1.07-.657-1.89-.657-.824 0-1.45.215-1.875.641-.43.43-.64 1.043-.64 1.844 0 .781.21 1.383.64 1.797.426.418 1.05.625 1.875.625Zm.031 8.796c.844 0 1.535-.093 2.078-.28.54-.188.926-.438 1.156-.75.239-.305.36-.65.36-1.032 0-.344-.063-.621-.188-.828-.125-.211-.336-.367-.625-.469-.281-.101-.672-.172-1.172-.203l-2.578-.125h-.36c-1.448.023-2.171.582-2.171 1.687 0 1.333 1.164 2 3.5 2ZM99.224 299.278h-7.922c.051 1.406.383 2.437 1 3.093.625.649 1.477.97 2.563.97.82 0 1.484-.145 1.984-.438.508-.29.906-.75 1.188-1.375h.218l1.11.656a4.1 4.1 0 0 1-1.61 1.969c-.73.48-1.695.718-2.89.718-1.106 0-2.059-.218-2.86-.656-.804-.437-1.422-1.098-1.859-1.984-.43-.895-.64-2.004-.64-3.328 0-1.313.222-2.414.671-3.313.457-.894 1.082-1.562 1.875-2 .79-.445 1.696-.672 2.719-.672 1.469 0 2.617.418 3.453 1.25.832.824 1.25 2.059 1.25 3.703 0 .637-.012 1.063-.031 1.282Zm-1.422-1.407c-.031-1.226-.308-2.117-.828-2.672-.512-.562-1.246-.843-2.203-.843-1.012 0-1.805.281-2.375.843-.574.563-.922 1.454-1.047 2.672ZM117.047 289.387v1.484h-7.172v5.547h6.453v1.5h-6.453v6.735h-1.797v-15.266ZM124.48 304.871c-1.086 0-2.031-.226-2.844-.687-.804-.457-1.422-1.133-1.86-2.031-.429-.895-.64-1.977-.64-3.25 0-1.282.211-2.368.64-3.266.438-.895 1.056-1.57 1.86-2.031.813-.457 1.758-.688 2.844-.688 1.082 0 2.023.23 2.828.688.813.46 1.43 1.136 1.86 2.031.437.898.656 1.984.656 3.266 0 1.273-.22 2.355-.657 3.25-.43.898-1.046 1.574-1.859 2.03-.805.462-1.746.688-2.828.688Zm0-1.53c1.144 0 2.02-.36 2.625-1.079.613-.727.922-1.848.922-3.36 0-1.53-.309-2.656-.922-3.374-.606-.727-1.48-1.094-2.625-1.094-1.148 0-2.027.367-2.64 1.094-.618.73-.923 1.855-.923 3.375 0 1.511.305 2.632.922 3.359.614.719 1.493 1.078 2.64 1.078ZM137.703 304.871c-1.086 0-2.032-.226-2.844-.687-.805-.457-1.422-1.133-1.86-2.031-.43-.895-.64-1.977-.64-3.25 0-1.282.21-2.368.64-3.266.438-.895 1.055-1.57 1.86-2.031.812-.457 1.758-.688 2.844-.688 1.082 0 2.023.23 2.828.688.812.46 1.43 1.136 1.86 2.031.437.898.655 1.984.655 3.266 0 1.273-.218 2.355-.656 3.25-.43.898-1.047 1.574-1.86 2.03-.804.462-1.745.688-2.827.688Zm0-1.53c1.144 0 2.02-.36 2.625-1.079.613-.727.921-1.848.921-3.36 0-1.53-.308-2.656-.921-3.374-.606-.727-1.48-1.094-2.625-1.094-1.149 0-2.028.367-2.641 1.094-.617.73-.922 1.855-.922 3.375 0 1.511.305 2.632.922 3.359.613.719 1.492 1.078 2.64 1.078ZM152.113 302.824l.531 1.22c-.273.273-.633.476-1.078.609a4.519 4.519 0 0 1-1.422.218c-2.2 0-3.297-1.113-3.297-3.343v-7h-2.016v-1.407h2.016v-2.437l1.703-.281v2.718h3.703v1.407h-3.703v6.828c0 1.324.57 1.984 1.719 1.984.625 0 1.164-.172 1.625-.516ZM164.074 299.278h-7.922c.05 1.406.382 2.437 1 3.093.625.649 1.476.97 2.562.97.82 0 1.485-.145 1.985-.438.507-.29.906-.75 1.187-1.375h.219l1.11.656a4.1 4.1 0 0 1-1.61 1.969c-.73.48-1.696.718-2.89.718-1.106 0-2.06-.218-2.86-.656-.805-.437-1.422-1.098-1.86-1.984-.43-.895-.64-2.004-.64-3.328 0-1.313.222-2.414.672-3.313.457-.894 1.082-1.562 1.875-2 .789-.445 1.695-.672 2.718-.672 1.47 0 2.618.418 3.454 1.25.832.824 1.25 2.059 1.25 3.703 0 .637-.012 1.063-.032 1.282Zm-1.422-1.407c-.032-1.226-.309-2.117-.828-2.672-.512-.562-1.247-.843-2.204-.843-1.011 0-1.804.281-2.375.843-.574.563-.921 1.454-1.046 2.672ZM167.372 304.653v-11.516h1.625v1.797l.219.062c.53-1.312 1.539-1.968 3.03-1.968.782 0 1.368.14 1.766.421l-.437 1.454-.219.03a3.23 3.23 0 0 0-1.422-.312c-.918 0-1.625.344-2.125 1.032-.492.687-.734 1.804-.734 3.343v5.657Zm0 0"/>
  <g clip-path="url(#f)">
    <path fill="#fff" d="M.11 255.969V76.938H81.2v179.03Zm0 0"/>
  </g>
  <g clip-path="url(#g)">
    <path d="M-.64 255.96v-.745H.854v.746Zm0-1.495v-.75H.854v.75Zm0-1.496v-.75H.854v.75Zm0-1.5v-.75H.854v.75Zm0-1.496v-.75H.854v.75Zm0-1.5v-.746H.854v.746Zm0-1.496v-.75H.854v.75Zm0-1.497v-.75H.854v.75Zm0-1.5v-.746H.854v.746Zm0-1.496v-.75H.854v.75Zm0-1.5v-.746H.854v.746Zm0-1.496v-.75H.854v.75Zm0-1.496v-.75H.854v.75Zm0-1.5v-.746H.854v.746Zm0-1.496v-.75H.854v.75Zm0-1.496v-.75H.854v.75Zm0-1.5v-.75H.854v.75Zm0-1.496v-.75H.854v.75Zm0-1.5v-.746H.854v.746Zm0-1.496v-.75H.854v.75Zm0-1.496v-.75H.854v.75Zm0-1.5v-.746H.854v.746Zm0-1.496v-.75H.854v.75Zm0-1.5v-.746H.854v.746Zm0-1.496v-.75H.854v.75Zm0-1.497v-.75H.854v.75Zm0-1.5v-.746H.854v.746Zm0-1.496v-.75H.854v.75Zm0-1.496v-.75H.854v.75Zm0-1.5v-.746H.854v.746Zm0-1.496v-.75H.854v.75Zm0-1.5v-.746H.854v.746Zm0-1.496v-.75H.854v.75Zm0-1.496v-.75H.854v.75Zm0-1.5v-.746H.854v.746Zm0-1.496v-.75H.854v.75Zm0-1.496v-.75H.854v.75Zm0-1.5v-.75H.854v.75Zm0-1.496v-.75H.854v.75Zm0-1.5v-.746H.854v.746Zm0-1.496v-.75H.854v.75Zm0-1.496v-.75H.854v.75Zm0-1.5v-.747H.854v.746Zm0-1.497v-.75H.854v.75Zm0-1.5v-.746H.854v.746Zm0-1.496v-.75H.854v.75Zm0-1.496v-.75H.854v.75Zm0-1.5v-.746H.854v.746Zm0-1.496v-.75H.854v.75Zm0-1.496v-.75H.854v.75Zm0-1.5v-.75H.854v.75Zm0-1.496v-.75H.854v.75Zm0-1.5v-.746H.854v.746Zm0-1.496v-.75H.854v.75Zm0-1.496v-.75H.854v.75Zm0-1.5v-.746H.854v.746Zm0-1.496v-.75H.854v.75Zm0-1.496v-.75H.854v.75Zm0-1.5v-.75H.854v.75Zm0-1.497v-.75H.854v.75Zm0-1.5v-.746H.854v.746Zm0-1.496v-.75H.854v.75Zm0-1.496v-.75H.854v.75Zm0-1.5v-.746H.854v.746Zm0-1.496v-.75H.854v.75Zm0-1.5v-.746H.854v.746Zm0-1.496v-.75H.854v.75Zm0-1.496v-.75H.854v.75Zm0-1.5v-.746H.854v.746Zm0-1.496v-.75H.854v.75Zm0-1.496v-.75H.854v.75Zm0-1.5v-.75H.854v.75Zm0-1.496v-.75H.854v.75Zm0-1.5v-.746H.854v.746Zm0-1.496v-.75H.854v.75Zm0-1.496v-.75H.854v.75Zm0-1.5v-.747H.854v.747Zm0-1.497v-.75H.854v.75Zm0-1.5v-.746H.854v.746Zm0-1.496v-.75H.854v.75Zm0-1.496v-.75H.854v.75Zm0-1.5v-.746H.854v.746Zm0-1.496v-.75H.854v.75Zm0-1.496v-.75H.854v.75Zm0-1.5v-.746H.854v.746Zm0-1.496v-.75H.854v.75Zm0-1.5v-.746H.854v.746Zm0-1.496v-.75H.854v.75Zm0-1.496v-.75H.854v.75Zm0-1.5v-.746H.854v.746Zm0-1.496v-.75H.854v.75Zm0-1.496v-.75H.854v.75Zm0-1.5v-.75H.854v.75Zm0-1.496v-.75H.854v.75Zm0-1.5v-.747H.854v.746Zm0-1.497v-.75H.854v.75Zm0-1.496v-.75H.854v.75Zm0-1.5v-.746H.854v.746Zm0-1.496v-.75H.854v.75Zm0-1.5v-.746H.854v.746Zm0-1.496v-.75H.854v.75Zm0-1.496v-.75H.854v.75Zm0-1.5v-.746H.854v.746Zm0-1.496v-.75H.854v.75Zm0-1.496v-.75H.854v.75Zm0-1.5v-.75H.854v.75Zm0-1.496v-.75H.854v.75Zm0-1.5v-.746H.854v.746Zm0-1.496v-.75H.854v.75Zm0-1.496v-.75H.854v.75Zm0-1.5v-.747H.854v.747Zm0-1.497v-.75H.854v.75Zm0-1.496v-.75H.854v.75Zm0-1.5v-.75H.854v.75Zm0-1.496v-.75H.854v.75Zm0-1.5v-.746H.854v.746Zm0-1.496v-.75H.854v.75Zm0-1.496v-.75H.854v.75Zm0-1.5V78.5H.854v.746Zm0-1.496V77H.854v.75Zm1.484-1.512h.75v1.5h-.75Zm1.5 0h.75v1.5h-.75Zm1.5 0h.746v1.5h-.746Zm1.496 0h.75v1.5h-.75Zm1.5 0h.75v1.5h-.75Zm1.5 0h.746v1.5H8.34Zm1.496 0h.75v1.5h-.75Zm1.5 0h.75v1.5h-.75Zm1.5 0h.746v1.5h-.746Zm1.496 0h.75v1.5h-.75Zm1.5 0h.75v1.5h-.75Zm1.496 0h.75v1.5h-.75Zm1.5 0h.75v1.5h-.75Zm1.5 0h.75v1.5h-.75Zm1.496 0h.75v1.5h-.75Zm1.5 0h.75v1.5h-.75Zm1.5 0h.75v1.5h-.75Zm1.496 0h.75v1.5h-.75Zm1.5 0h.75v1.5h-.75Zm1.5 0h.75v1.5h-.75Zm1.496 0h.75v1.5h-.75Zm1.5 0h.75v1.5h-.75Zm1.5 0h.746v1.5h-.746Zm1.496 0h.75v1.5h-.75Zm1.5 0h.75v1.5h-.75Zm1.5 0h.747v1.5h-.746Zm1.497 0h.75v1.5h-.75Zm1.5 0h.75v1.5h-.75Zm1.5 0h.746v1.5h-.746Zm1.496 0h.75v1.5h-.75Zm1.5 0h.75v1.5h-.75Zm1.5 0h.746v1.5h-.746Zm1.496 0h.75v1.5h-.75Zm1.5 0h.75v1.5h-.75Zm1.496 0h.75v1.5h-.75Zm1.5 0h.75v1.5h-.75Zm1.5 0h.75v1.5h-.75Zm1.496 0h.75v1.5h-.75Zm1.5 0h.75v1.5h-.75Zm1.5 0h.75v1.5h-.75Zm1.496 0h.75v1.5h-.75Zm1.5 0h.75v1.5h-.75Zm1.5 0h.75v1.5h-.75Zm1.496 0h.75v1.5h-.75Zm1.5 0h.75v1.5h-.75Zm1.5 0h.746v1.5h-.746Zm1.496 0h.75v1.5h-.75Zm1.5 0h.75v1.5h-.75Zm1.5 0h.746v1.5h-.746Zm1.496 0h.75v1.5h-.75Zm1.5 0h.75v1.5h-.75Zm1.5 0h.746v1.5h-.746Zm1.496 0h.75v1.5h-.75Zm1.5 0h.75v1.5h-.75Zm2.211.785v.75h-1.496v-.75Zm0 1.497v.75h-1.496v-.75Zm0 1.5v.75h-1.496v-.75Zm0 1.496v.75h-1.496v-.75Zm0 1.5v.746h-1.496v-.746Zm0 1.496v.75h-1.496v-.75Zm0 1.496v.75h-1.496v-.75Zm0 1.5v.746h-1.496v-.746Zm0 1.496v.75h-1.496v-.75Zm0 1.5v.746h-1.496v-.746Zm0 1.496v.75h-1.496V92Zm0 1.496v.75h-1.496v-.75Zm0 1.5v.746h-1.496v-.746Zm0 1.496v.75h-1.496v-.75Zm0 1.496v.75h-1.496v-.75Zm0 1.5v.746h-1.496v-.746Zm0 1.496v.75h-1.496v-.75Zm0 1.5v.746h-1.496v-.746Zm0 1.496v.75h-1.496v-.75Zm0 1.497v.75h-1.496v-.75Zm0 1.5v.746h-1.496v-.746Zm0 1.496v.75h-1.496v-.75Zm0 1.496v.75h-1.496v-.75Zm0 1.5v.75h-1.496v-.75Zm0 1.496v.75h-1.496v-.75Zm0 1.5v.746h-1.496v-.746Zm0 1.496v.75h-1.496v-.75Zm0 1.496v.75h-1.496v-.75Zm0 1.5v.746h-1.496v-.746Zm0 1.496v.75h-1.496v-.75Zm0 1.5v.746h-1.496v-.746Zm0 1.496v.75h-1.496v-.75Zm0 1.496v.75h-1.496v-.75Zm0 1.5v.746h-1.496v-.746Zm0 1.496v.75h-1.496v-.75Zm0 1.496v.75h-1.496v-.75Zm0 1.5v.747h-1.496v-.746Zm0 1.497v.75h-1.496v-.75Zm0 1.5v.746h-1.496v-.746Zm0 1.496v.75h-1.496v-.75Zm0 1.496v.75h-1.496v-.75Zm0 1.5v.746h-1.496v-.746Zm0 1.496v.75h-1.496v-.75Zm0 1.496v.75h-1.496v-.75Zm0 1.5v.75h-1.496v-.75Zm0 1.496v.75h-1.496v-.75Zm0 1.5v.746h-1.496v-.746Zm0 1.496v.75h-1.496v-.75Zm0 1.496v.75h-1.496v-.75Zm0 1.5v.746h-1.496v-.746Zm0 1.496v.75h-1.496v-.75Zm0 1.5v.746h-1.496v-.746Zm0 1.496v.75h-1.496v-.75Zm0 1.497v.75h-1.496v-.75Zm0 1.5v.746h-1.496v-.746Zm0 1.496v.75h-1.496v-.75Zm0 1.496v.75h-1.496v-.75Zm0 1.5v.75h-1.496v-.75Zm0 1.496v.75h-1.496v-.75Zm0 1.5v.746h-1.496v-.746Zm0 1.496v.75h-1.496v-.75Zm0 1.496v.75h-1.496v-.75Zm0 1.5v.746h-1.496v-.746Zm0 1.496v.75h-1.496v-.75Zm0 1.496v.75h-1.496v-.75Zm0 1.5v.75h-1.496v-.75Zm0 1.496v.75h-1.496v-.75Zm0 1.5v.746h-1.496v-.746Zm0 1.496v.75h-1.496v-.75Zm0 1.496v.75h-1.496v-.75Zm0 1.5v.747h-1.496v-.747Zm0 1.497v.75h-1.496v-.75Zm0 1.5v.746h-1.496v-.746Zm0 1.496v.75h-1.496v-.75Zm0 1.496v.75h-1.496v-.75Zm0 1.5v.746h-1.496v-.746Zm0 1.496v.75h-1.496v-.75Zm0 1.496v.75h-1.496v-.75Zm0 1.5v.75h-1.496v-.75Zm0 1.496v.75h-1.496v-.75Zm0 1.5v.746h-1.496v-.746Zm0 1.496v.75h-1.496v-.75Zm0 1.496v.75h-1.496v-.75Zm0 1.5v.746h-1.496v-.746Zm0 1.496v.75h-1.496v-.75Zm0 1.5v.746h-1.496v-.746Zm0 1.496v.75h-1.496v-.75Zm0 1.496v.75h-1.496v-.75Zm0 1.5v.747h-1.496v-.746Zm0 1.497v.75h-1.496v-.75Zm0 1.496v.75h-1.496v-.75Zm0 1.5v.75h-1.496v-.75Zm0 1.496v.75h-1.496v-.75Zm0 1.5v.746h-1.496v-.746Zm0 1.496v.75h-1.496v-.75Zm0 1.496v.75h-1.496v-.75Zm0 1.5v.746h-1.496v-.746Zm0 1.496v.75h-1.496v-.75Zm0 1.496v.75h-1.496v-.75Zm0 1.5v.75h-1.496v-.75Zm0 1.496v.75h-1.496v-.75Zm0 1.5v.746h-1.496v-.746Zm0 1.496v.75h-1.496v-.75Zm0 1.496v.75h-1.496v-.75Zm0 1.5v.747h-1.496v-.747Zm0 1.497v.75h-1.496v-.75Zm0 1.5v.746h-1.496v-.746Zm0 1.496v.75h-1.496v-.75Zm0 1.496v.75h-1.496v-.75Zm0 1.5v.746h-1.496v-.746Zm0 1.496v.75h-1.496v-.75Zm0 1.496v.75h-1.496v-.75Zm0 1.5v.75h-1.496v-.75Zm0 1.496v.75h-1.496v-.75Zm0 1.5v.746h-1.496v-.746Zm0 1.496v.75h-1.496v-.75Zm0 1.496v.75h-1.496v-.75Zm0 1.5v.746h-1.496v-.746Zm0 1.496v.75h-1.496v-.75Zm0 1.496v1.477h-.77v-1.496h.024v.746h-.75v-.727Zm-1.52 1.477h-.75v-1.496h.75Zm-1.5 0h-.75v-1.496h.75Zm-1.5 0h-.745v-1.496h.746Zm-1.495 0h-.75v-1.496h.75Zm-1.5 0h-.75v-1.496h.75Zm-1.496 0h-.75v-1.496h.75Zm-1.5 0h-.75v-1.496h.75Zm-1.5 0h-.75v-1.496h.75Zm-1.496 0h-.75v-1.496h.75Zm-1.5 0h-.75v-1.496h.75Zm-1.5 0h-.75v-1.496h.75Zm-1.497 0h-.75v-1.496h.75Zm-1.5 0h-.75v-1.496h.75Zm-1.5 0h-.746v-1.496h.746Zm-1.496 0h-.75v-1.496h.75Zm-1.5 0h-.75v-1.496h.75Zm-1.5 0h-.746v-1.496h.746Zm-1.496 0h-.75v-1.496h.75Zm-1.5 0h-.75v-1.496h.75Zm-1.5 0h-.746v-1.496h.746Zm-1.496 0h-.75v-1.496h.75Zm-1.5 0h-.75v-1.496h.75Zm-1.5 0h-.746v-1.496h.746Zm-1.496 0h-.75v-1.496h.75Zm-1.5 0h-.75v-1.496h.75Zm-1.496 0h-.75v-1.496h.75Zm-1.5 0h-.75v-1.496H42Zm-1.5 0h-.75v-1.496h.75Zm-1.496 0h-.75v-1.496h.75Zm-1.5 0h-.75v-1.496h.75Zm-1.5 0h-.75v-1.496h.75Zm-1.496 0h-.75v-1.496h.75Zm-1.5 0h-.75v-1.496h.75Zm-1.5 0h-.75v-1.496h.75Zm-1.496 0h-.75v-1.496h.75Zm-1.5 0h-.75v-1.496h.75Zm-1.5 0h-.746v-1.496h.746Zm-1.496 0h-.75v-1.496h.75Zm-1.5 0h-.75v-1.496h.75Zm-1.5 0h-.746v-1.496h.746Zm-1.496 0h-.75v-1.496h.75Zm-1.5 0h-.75v-1.496h.75Zm-1.5 0h-.747v-1.496h.747Zm-1.497 0h-.75v-1.496h.75Zm-1.5 0h-.75v-1.496h.75Zm-1.5 0h-.746v-1.496h.746Zm-1.496 0h-.75v-1.496h.75Zm-1.5 0h-.75v-1.496h.75Zm-1.496 0h-.75v-1.496h.75Zm-1.5 0h-.75v-1.496h.75Zm-1.5 0h-.75v-1.496h.75Zm-1.496 0h-.75v-1.496h.75Zm-1.5 0h-.75v-1.496h.75Zm-1.5 0h-.75v-1.496h.75Zm0 0"/>
  </g>
  <path d="M49.004 198.758c0 .96-.133 1.82-.39 2.578-.258.761-.602 1.398-1.032 1.906-.426.512-.89.89-1.39 1.14l-1.204-.984v-.25c1.594-.945 2.391-2.41 2.391-4.39 0-1.145-.238-2-.719-2.563-.476-.562-1.144-.844-2-.844-.5 0-.922.094-1.265.282-.352.18-.649.48-.89.906-.25.43-.47 1.008-.657 1.734l-.438 1.781c-.32 1.336-.832 2.32-1.53 2.954-.696.625-1.583.937-2.657.937-.758 0-1.438-.191-2.031-.578-.594-.395-1.055-.969-1.391-1.719-.332-.75-.5-1.644-.5-2.687 0-1.157.164-2.125.484-2.907.325-.789.809-1.425 1.453-1.906l1.188.875v.266c-.54.437-.938.96-1.188 1.562-.25.594-.375 1.297-.375 2.11 0 1.054.211 1.851.625 2.39.407.543.97.813 1.688.813.7 0 1.25-.196 1.656-.594.406-.395.719-1.066.938-2.016l.437-1.828c.356-1.476.89-2.55 1.61-3.218.718-.665 1.64-1 2.765-1 .867 0 1.633.195 2.297.578.656.386 1.18.976 1.563 1.765.375.793.562 1.762.562 2.907ZM35.035 189.483c0 .367-.109.664-.328.89-.226.22-.52.329-.875.329-.344 0-.625-.11-.844-.328-.226-.227-.343-.524-.343-.89 0-.364.117-.657.343-.876.22-.226.5-.344.844-.344.356 0 .649.118.875.344.219.219.328.512.328.875Zm13.75.86H37.27v-1.704h11.515ZM49.004 180.66c0 .93-.219 1.747-.656 2.454-.445.699-1.113 1.25-2 1.656-.895.398-2 .594-3.313.594-1.32 0-2.425-.207-3.312-.625-.895-.414-1.563-.988-2-1.719-.445-.738-.672-1.594-.672-2.562 0-.77.148-1.457.437-2.063.282-.613.758-1.14 1.422-1.578l-.047-.219h-6.218v-1.703h16.14v1.703h-1.687l-.031.219a4.328 4.328 0 0 1 1.406 1.531c.351.637.531 1.406.531 2.313Zm-1.531-.53c0-1.07-.363-1.926-1.094-2.563-.738-.645-1.851-.969-3.344-.969-1.507 0-2.629.324-3.359.969-.738.637-1.11 1.492-1.11 2.562 0 1.106.36 1.961 1.079 2.563.718.594 1.851.89 3.39.89 2.961 0 4.438-1.148 4.438-3.453ZM43.41 161.89v7.922c1.407-.051 2.438-.383 3.094-1 .649-.625.969-1.477.969-2.563 0-.82-.145-1.484-.438-1.984-.289-.508-.75-.907-1.375-1.188v-.219l.657-1.109a4.1 4.1 0 0 1 1.968 1.61c.48.73.72 1.695.72 2.89 0 1.106-.22 2.059-.657 2.86-.438.804-1.098 1.421-1.985 1.859-.894.43-2.003.64-3.328.64-1.312 0-2.414-.222-3.312-.671-.895-.457-1.563-1.082-2-1.875-.445-.79-.672-1.696-.672-2.72 0-1.468.418-2.616 1.25-3.452.824-.832 2.059-1.25 3.703-1.25.637 0 1.063.011 1.281.031Zm-1.406 1.422c-1.226.03-2.117.308-2.672.828-.562.511-.844 1.246-.844 2.203 0 1.012.282 1.805.844 2.375.563.574 1.453.922 2.672 1.047ZM43.41 149.607v7.922c1.407-.05 2.438-.383 3.094-1 .649-.625.969-1.477.969-2.563 0-.82-.145-1.484-.438-1.984-.289-.508-.75-.906-1.375-1.187v-.22l.657-1.109a4.1 4.1 0 0 1 1.968 1.61c.48.73.72 1.695.72 2.89 0 1.106-.22 2.06-.657 2.86-.438.805-1.098 1.422-1.985 1.86-.894.429-2.003.64-3.328.64-1.312 0-2.414-.223-3.312-.672-.895-.457-1.563-1.082-2-1.875-.445-.79-.672-1.695-.672-2.719 0-1.469.418-2.617 1.25-3.453.824-.832 2.059-1.25 3.703-1.25.637 0 1.063.012 1.281.031Zm-1.406 1.422c-1.226.031-2.117.309-2.672.828-.562.512-.844 1.246-.844 2.203 0 1.012.282 1.805.844 2.375.563.574 1.453.922 2.672 1.047ZM49.004 143.559c0 1.137-.297 2.023-.89 2.656-.594.637-1.438.953-2.532.953-.687 0-1.265-.14-1.734-.422-.469-.28-.848-.718-1.14-1.312-.302-.594-.532-1.363-.688-2.313-.145-.832-.301-1.468-.469-1.906-.176-.437-.367-.726-.578-.875-.219-.156-.492-.234-.828-.234-.52 0-.914.183-1.188.547-.281.355-.422.93-.422 1.718 0 .75.149 1.39.438 1.922.281.531.71 1.024 1.281 1.469v.203l-1.187.844a5.332 5.332 0 0 1-1.47-1.86c-.362-.75-.546-1.609-.546-2.578 0-1.351.297-2.351.89-3 .594-.644 1.419-.968 2.47-.968h6.109c.636 0 .953-.27.953-.813 0-.176-.031-.348-.094-.516l.047-.156 1.187-.187c.086.125.149.293.188.5.039.199.062.406.062.625 0 .636-.132 1.117-.406 1.437-.281.324-.691.531-1.234.625l-.031.219c.617.324 1.074.766 1.375 1.328.289.555.437 1.25.437 2.094Zm-1.36-.375c0-.645-.144-1.203-.437-1.672a2.931 2.931 0 0 0-1.25-1.078c-.539-.25-1.16-.375-1.86-.375H42.63l-.031.203c.18.25.328.562.453.937.117.368.227.883.328 1.547.086.668.227 1.2.422 1.594.187.387.43.668.719.844.281.168.636.25 1.062.25.68 0 1.196-.195 1.547-.594.344-.406.516-.957.516-1.656ZM48.785 134.392H37.27v-1.625h1.797l.062-.219c-1.312-.531-1.969-1.54-1.969-3.031 0-.782.141-1.367.422-1.766l1.453.438.032.218a3.23 3.23 0 0 0-.313 1.422c0 .918.344 1.625 1.031 2.125.688.492 1.805.735 3.344.735h5.656Zm0 0"/>
  <g clip-path="url(#h)">
    <path fill="#fff" d="M81.695 76.96h143.227v179.032H81.695Zm0 0"/>
  </g>
  <g clip-path="url(#i)">
    <path d="M81.695 76.21h.75v1.5h-.75Zm1.5 0h.746v1.5h-.746Zm1.496 0h.75v1.5h-.75Zm1.496 0h.75v1.5h-.75Zm1.5 0h.747v1.5h-.746Zm1.497 0h.75v1.5h-.75Zm1.496 0h.75v1.5h-.75Zm1.5 0h.746v1.5h-.746Zm1.496 0h.75v1.5h-.75Zm1.496 0h.75v1.5h-.75Zm1.5 0h.75v1.5h-.75Zm1.496 0h.75v1.5h-.75Zm1.5 0h.746v1.5h-.746Zm1.496 0h.75v1.5h-.75Zm1.496 0h.75v1.5h-.75Zm1.5 0h.746v1.5h-.746Zm1.496 0h.75v1.5h-.75Zm1.496 0h.75v1.5h-.75Zm1.5 0h.746v1.5h-.746Zm1.496 0h.75v1.5h-.75Zm1.497 0h.75v1.5h-.75Zm1.5 0h.746v1.5h-.746Zm1.496 0h.75v1.5h-.75Zm1.496 0h.75v1.5h-.75Zm1.5 0h.746v1.5h-.746Zm1.496 0h.75v1.5h-.75Zm1.496 0h.75v1.5h-.75Zm1.5 0h.746v1.5h-.746Zm1.496 0h.75v1.5h-.75Zm1.496 0h.75v1.5h-.75Zm1.5 0h.746v1.5h-.746Zm1.496 0h.75v1.5h-.75Zm1.496 0h.75v1.5h-.75Zm1.5 0h.746v1.5h-.746Zm1.496 0h.75v1.5h-.75Zm1.496 0h.75v1.5h-.75Zm1.5 0h.747v1.5h-.747Zm1.497 0h.75v1.5h-.75Zm1.496 0h.75v1.5h-.75Zm1.5 0h.746v1.5h-.746Zm1.496 0h.75v1.5h-.75Zm1.496 0h.75v1.5h-.75Zm1.5 0h.746v1.5h-.746Zm1.496 0h.75v1.5h-.75Zm1.496 0h.75v1.5h-.75Zm1.5 0h.746v1.5h-.746Zm1.496 0h.75v1.5h-.75Zm1.496 0h.75v1.5h-.75Zm1.5 0h.746v1.5h-.746Zm1.496 0h.75v1.5h-.75Zm1.496 0h.75v1.5h-.75Zm1.5 0h.746v1.5h-.746Zm1.496 0h.75v1.5h-.75Zm1.497 0h.75v1.5h-.75Zm1.5 0h.746v1.5h-.746Zm1.496 0h.75v1.5h-.75Zm1.496 0h.75v1.5h-.75Zm1.5 0h.746v1.5h-.746Zm1.496 0h.75v1.5h-.75Zm1.496 0h.75v1.5h-.75Zm1.5 0h.746v1.5h-.746Zm1.496 0h.75v1.5h-.75Zm1.496 0h.75v1.5h-.75Zm1.5 0h.746v1.5h-.746Zm1.496 0h.75v1.5h-.75Zm1.496 0h.75v1.5h-.75Zm1.5 0h.746v1.5h-.746Zm1.496 0h.75v1.5h-.75Zm1.497 0h.75v1.5h-.75Zm1.5 0h.746v1.5h-.746Zm1.496 0h.75v1.5h-.75Zm1.496 0h.75v1.5h-.75Zm1.5 0h.746v1.5h-.746Zm1.496 0h.75v1.5h-.75Zm1.496 0h.75v1.5h-.75Zm1.5 0h.746v1.5h-.746Zm1.496 0h.75v1.5h-.75Zm1.496 0h.75v1.5h-.75Zm1.5 0h.746v1.5h-.746Zm1.496 0h.75v1.5h-.75Zm1.496 0h.75v1.5h-.75Zm1.5 0h.746v1.5h-.746Zm1.496 0h.75v1.5h-.75Zm1.496 0h.75v1.5h-.75Zm1.5 0h.75v1.5h-.75Zm1.497 0h.75v1.5h-.75Zm1.5 0h.746v1.5h-.746Zm1.496 0h.75v1.5h-.75Zm1.496 0h.75v1.5h-.75Zm1.5 0h.746v1.5h-.746Zm1.496 0h.75v1.5h-.75Zm1.496 0h.75v1.5h-.75Zm1.5 0h.746v1.5h-.746Zm1.496 0h.75v1.5h-.75Zm1.496 0h.75v1.5h-.75Zm1.5 0h.746v1.5h-.746Zm1.531 1.466v.75h-1.5v-.75Zm0 1.496v.75h-1.5v-.75Zm0 1.5v.746h-1.5v-.746Zm0 1.496v.75h-1.5v-.75Zm0 1.496v.75h-1.5v-.75Zm0 1.5v.746h-1.5v-.746Zm0 1.496v.75h-1.5v-.75Zm0 1.5v.746h-1.5v-.746Zm0 1.496v.75h-1.5v-.75Zm0 1.496v.75h-1.5v-.75Zm0 1.5v.746h-1.5v-.746Zm0 1.496v.75h-1.5v-.75Zm0 1.497v.75h-1.5v-.75Zm0 1.5v.75h-1.5v-.75Zm0 1.496v.75h-1.5v-.75Zm0 1.5v.746h-1.5v-.746Zm0 1.496v.75h-1.5v-.75Zm0 1.496v.75h-1.5v-.75Zm0 1.5v.746h-1.5v-.746Zm0 1.496v.75h-1.5v-.75Zm0 1.496v.75h-1.5v-.75Zm0 1.5v.75h-1.5v-.75Zm0 1.496v.75h-1.5v-.75Zm0 1.5v.746h-1.5v-.746Zm0 1.496v.75h-1.5v-.75Zm0 1.496v.75h-1.5v-.75Zm0 1.5v.746h-1.5v-.746Zm0 1.496v.75h-1.5v-.75Zm0 1.5v.746h-1.5v-.746Zm0 1.496v.75h-1.5v-.75Zm0 1.497v.75h-1.5v-.75Zm0 1.5v.746h-1.5v-.746Zm0 1.496v.75h-1.5v-.75Zm0 1.496v.75h-1.5v-.75Zm0 1.5v.75h-1.5v-.75Zm0 1.496v.75h-1.5v-.75Zm0 1.5v.746h-1.5v-.746Zm0 1.496v.75h-1.5v-.75Zm0 1.496v.75h-1.5v-.75Zm0 1.5v.746h-1.5v-.746Zm0 1.496v.75h-1.5v-.75Zm0 1.5v.746h-1.5v-.746Zm0 1.496v.75h-1.5v-.75Zm0 1.496v.75h-1.5v-.75Zm0 1.5v.746h-1.5v-.746Zm0 1.496v.75h-1.5v-.75Zm0 1.496v.75h-1.5v-.75Zm0 1.5v.747h-1.5v-.746Zm0 1.497v.75h-1.5v-.75Zm0 1.5v.746h-1.5v-.746Zm0 1.496v.75h-1.5v-.75Zm0 1.496v.75h-1.5v-.75Zm0 1.5v.746h-1.5v-.746Zm0 1.496v.75h-1.5v-.75Zm0 1.496v.75h-1.5v-.75Zm0 1.5v.75h-1.5v-.75Zm0 1.496v.75h-1.5v-.75Zm0 1.5v.746h-1.5v-.746Zm0 1.496v.75h-1.5v-.75Zm0 1.496v.75h-1.5v-.75Zm0 1.5v.746h-1.5v-.746Zm0 1.496v.75h-1.5v-.75Zm0 1.5v.746h-1.5v-.746Zm0 1.496v.75h-1.5v-.75Zm0 1.497v.75h-1.5v-.75Zm0 1.5v.746h-1.5v-.746Zm0 1.496v.75h-1.5v-.75Zm0 1.496v.75h-1.5v-.75Zm0 1.5v.75h-1.5v-.75Zm0 1.496v.75h-1.5v-.75Zm0 1.5v.746h-1.5v-.746Zm0 1.496v.75h-1.5v-.75Zm0 1.496v.75h-1.5v-.75Zm0 1.5v.746h-1.5V187Zm0 1.496v.75h-1.5v-.75Zm0 1.496v.75h-1.5v-.75Zm0 1.5v.75h-1.5v-.75Zm0 1.496v.75h-1.5v-.75Zm0 1.5v.746h-1.5v-.746Zm0 1.496v.75h-1.5v-.75Zm0 1.496v.75h-1.5v-.75Zm0 1.5v.747h-1.5v-.747Zm0 1.497v.75h-1.5v-.75Zm0 1.5v.746h-1.5v-.746Zm0 1.496v.75h-1.5v-.75Zm0 1.496v.75h-1.5v-.75Zm0 1.5v.746h-1.5v-.746Zm0 1.496v.75h-1.5v-.75Zm0 1.496v.75h-1.5v-.75Zm0 1.5v.75h-1.5v-.75Zm0 1.496v.75h-1.5v-.75Zm0 1.5v.746h-1.5v-.746Zm0 1.496v.75h-1.5v-.75Zm0 1.496v.75h-1.5v-.75Zm0 1.5v.746h-1.5v-.746Zm0 1.496v.75h-1.5v-.75Zm0 1.5v.746h-1.5v-.746Zm0 1.496v.75h-1.5v-.75Zm0 1.496v.75h-1.5v-.75Zm0 1.5v.747h-1.5v-.746Zm0 1.497v.75h-1.5v-.75Zm0 1.496v.75h-1.5v-.75Zm0 1.5v.75h-1.5v-.75Zm0 1.496v.75h-1.5v-.75Zm0 1.5v.746h-1.5v-.746Zm0 1.496v.75h-1.5v-.75Zm0 1.496v.75h-1.5v-.75Zm0 1.5v.746h-1.5v-.746Zm0 1.496v.75h-1.5v-.75Zm0 1.496v.75h-1.5v-.75Zm0 1.5v.75h-1.5v-.75Zm0 1.496v.75h-1.5v-.75Zm0 1.5v.746h-1.5v-.746Zm0 1.496v.75h-1.5v-.75Zm0 1.496v.75h-1.5v-.75Zm0 1.5v.747h-1.5v-.747Zm0 1.497v.75h-1.5v-.75Zm0 1.5v.746h-1.5v-.746Zm0 1.496v.75h-1.5v-.75Zm0 1.496v.808h-1.441v-1.5h.691v.75h-.75v-.058Zm-2.191.808h-.746v-1.5h.746Zm-1.496 0h-.75v-1.5h.75Zm-1.496 0h-.75v-1.5h.75Zm-1.5 0h-.746v-1.5h.746Zm-1.496 0h-.75v-1.5h.75Zm-1.496 0h-.75v-1.5h.75Zm-1.5 0h-.746v-1.5h.746Zm-1.496 0h-.75v-1.5h.75Zm-1.497 0h-.75v-1.5h.75Zm-1.5 0h-.746v-1.5h.746Zm-1.496 0h-.75v-1.5h.75Zm-1.496 0h-.75v-1.5h.75Zm-1.5 0h-.746v-1.5h.746Zm-1.496 0h-.75v-1.5h.75Zm-1.496 0h-.75v-1.5h.75Zm-1.5 0h-.746v-1.5h.746Zm-1.496 0h-.75v-1.5h.75Zm-1.496 0h-.75v-1.5h.75Zm-1.5 0h-.746v-1.5h.746Zm-1.496 0h-.75v-1.5h.75Zm-1.496 0h-.75v-1.5h.75Zm-1.5 0h-.746v-1.5h.746Zm-1.496 0h-.75v-1.5h.75Zm-1.497 0h-.75v-1.5h.75Zm-1.5 0h-.746v-1.5h.746Zm-1.496 0h-.75v-1.5h.75Zm-1.496 0h-.75v-1.5h.75Zm-1.5 0h-.746v-1.5h.746Zm-1.496 0h-.75v-1.5h.75Zm-1.496 0h-.75v-1.5h.75Zm-1.5 0h-.746v-1.5h.746Zm-1.496 0h-.75v-1.5h.75Zm-1.496 0h-.75v-1.5h.75Zm-1.5 0h-.746v-1.5h.746Zm-1.496 0h-.75v-1.5h.75Zm-1.496 0h-.75v-1.5h.75Zm-1.5 0h-.746v-1.5h.746Zm-1.496 0h-.75v-1.5h.75Zm-1.496 0h-.75v-1.5h.75Zm-1.5 0h-.747v-1.5h.747Zm-1.497 0h-.75v-1.5h.75Zm-1.496 0h-.75v-1.5h.75Zm-1.5 0h-.746v-1.5h.746Zm-1.496 0h-.75v-1.5h.75Zm-1.5 0h-.746v-1.5h.746Zm-1.496 0h-.75v-1.5h.75Zm-1.496 0h-.75v-1.5h.75Zm-1.5 0h-.746v-1.5h.746Zm-1.496 0h-.75v-1.5h.75Zm-1.496 0h-.75v-1.5h.75Zm-1.5 0h-.746v-1.5h.746Zm-1.496 0h-.75v-1.5h.75Zm-1.496 0h-.75v-1.5h.75Zm-1.5 0h-.746v-1.5h.746Zm-1.496 0h-.75v-1.5h.75Zm-1.496 0h-.75v-1.5h.75Zm-1.5 0h-.747v-1.5h.746Zm-1.497 0h-.75v-1.5h.75Zm-1.496 0h-.75v-1.5h.75Zm-1.5 0h-.746v-1.5h.746Zm-1.496 0h-.75v-1.5h.75Zm-1.496 0h-.75v-1.5h.75Zm-1.5 0h-.746v-1.5h.746Zm-1.496 0h-.75v-1.5h.75Zm-1.496 0h-.75v-1.5h.75Zm-1.5 0h-.746v-1.5h.746Zm-1.496 0h-.75v-1.5h.75Zm-1.496 0h-.75v-1.5h.75Zm-1.5 0h-.746v-1.5h.746Zm-1.496 0h-.75v-1.5h.75Zm-1.496 0h-.75v-1.5h.75Zm-1.5 0h-.747v-1.5h.747Zm-1.497 0h-.75v-1.5h.75Zm-1.496 0h-.75v-1.5h.75Zm-1.5 0h-.746v-1.5h.746Zm-1.496 0h-.75v-1.5h.75Zm-1.496 0h-.75v-1.5h.75Zm-1.5 0h-.746v-1.5h.746Zm-1.496 0h-.75v-1.5h.75Zm-1.496 0h-.75v-1.5h.75Zm-1.5 0h-.746v-1.5h.746Zm-1.496 0h-.75v-1.5h.75Zm-1.496 0h-.75v-1.5h.75Zm-1.5 0h-.746v-1.5h.746Zm-1.496 0h-.75v-1.5h.75Zm-1.496 0h-.75v-1.5h.75Zm-1.5 0h-.746v-1.5h.746Zm-1.496 0h-.75v-1.5h.75Zm-1.497 0h-.75v-1.5h.75Zm-1.5 0h-.746v-1.5h.746Zm-1.496 0h-.75v-1.5h.75Zm-1.496 0h-.75v-1.5h.75Zm-1.5 0h-.746v-1.5h.746Zm-1.496 0h-.75v-1.5h.75Zm-1.496 0h-.75v-1.5h.75Zm-1.59-1.406v-.75h1.496v.75Zm0-1.5v-.746h1.496v.746Zm0-1.496v-.75h1.496v.75Zm0-1.496v-.75h1.496v.75Zm0-1.5v-.746h1.496v.746Zm0-1.496v-.75h1.496v.75Zm0-1.496v-.75h1.496v.75Zm0-1.5v-.75h1.496v.75Zm0-1.496v-.75h1.496v.75Zm0-1.5v-.746h1.496v.746Zm0-1.496v-.75h1.496v.75Zm0-1.497v-.75h1.496v.75Zm0-1.5v-.746h1.496v.746Zm0-1.496v-.75h1.496v.75Zm0-1.5v-.746h1.496v.746Zm0-1.496v-.75h1.496v.75Zm0-1.496v-.75h1.496v.75Zm0-1.5v-.746h1.496v.746Zm0-1.496v-.75h1.496v.75Zm0-1.496v-.75h1.496v.75Zm0-1.5v-.75h1.496v.75Zm0-1.496v-.75h1.496v.75Zm0-1.5v-.746h1.496v.746Zm0-1.496v-.75h1.496v.75Zm0-1.496v-.75h1.496v.75Zm0-1.5v-.746h1.496v.746Zm0-1.496v-.75h1.496v.75Zm0-1.497v-.75h1.496v.75Zm0-1.5v-.75h1.496v.75Zm0-1.496v-.75h1.496v.75Zm0-1.5v-.746h1.496v.746Zm0-1.496v-.75h1.496v.75Zm0-1.496v-.75h1.496v.75Zm0-1.5v-.746h1.496v.746Zm0-1.496v-.75h1.496v.75Zm0-1.5v-.746h1.496v.746Zm0-1.496v-.75h1.496v.75Zm0-1.496v-.75h1.496v.75Zm0-1.5v-.746h1.496v.746Zm0-1.496v-.75h1.496v.75Zm0-1.496v-.75h1.496v.75Zm0-1.5v-.75h1.496v.75Zm0-1.496v-.75h1.496v.75Zm0-1.5v-.746h1.496v.746Zm0-1.496v-.75h1.496v.75Zm0-1.497v-.75h1.496v.75Zm0-1.5v-.746h1.496v.746Zm0-1.496v-.75h1.496v.75Zm0-1.5v-.746h1.496v.746Zm0-1.496v-.75h1.496v.75Zm0-1.496v-.75h1.496v.75Zm0-1.5v-.746h1.496v.746Zm0-1.496v-.75h1.496v.75Zm0-1.496v-.75h1.496v.75Zm0-1.5v-.746h1.496v.746Zm0-1.496v-.75h1.496v.75Zm0-1.5v-.746h1.496v.746Zm0-1.496v-.75h1.496v.75Zm0-1.496v-.75h1.496v.75Zm0-1.5v-.746h1.496v.746Zm0-1.496v-.75h1.496v.75Zm0-1.496v-.75h1.496v.75Zm0-1.5v-.75h1.496v.75Zm0-1.497v-.75h1.496v.75Zm0-1.5v-.746h1.496v.746Zm0-1.496v-.75h1.496v.75Zm0-1.496v-.75h1.496v.75Zm0-1.5v-.746h1.496v.746Zm0-1.496v-.75h1.496v.75Zm0-1.5v-.746h1.496v.746Zm0-1.496v-.75h1.496v.75Zm0-1.496v-.75h1.496v.75Zm0-1.5v-.746h1.496v.746Zm0-1.496v-.75h1.496v.75Zm0-1.496v-.75h1.496v.75Zm0-1.5v-.75h1.496v.75Zm0-1.496v-.75h1.496v.75Zm0-1.5v-.746h1.496v.746Zm0-1.496v-.75h1.496v.75Zm0-1.497v-.75h1.496v.75Zm0-1.5v-.746h1.496v.746Zm0-1.496v-.75h1.496v.75Zm0-1.496v-.75h1.496v.75Zm0-1.5v-.75h1.496v.75Zm0-1.496v-.75h1.496v.75Zm0-1.5v-.746h1.496v.746Zm0-1.496v-.75h1.496v.75Zm0-1.496v-.75h1.496v.75Zm0-1.5v-.746h1.496v.746Zm0-1.496v-.75h1.496v.75Zm0-1.5v-.746h1.496v.746Zm0-1.496v-.75h1.496v.75Zm0-1.496v-.75h1.496v.75Zm0-1.5v-.746h1.496v.746Zm0-1.496v-.75h1.496v.75Zm0-1.496v-.75h1.496v.75Zm0-1.5v-.75h1.496v.75Zm0-1.497v-.75h1.496v.75Zm0-1.5v-.746h1.496v.746Zm0-1.496v-.75h1.496v.75Zm0-1.496v-.75h1.496v.75Zm0-1.5v-.746h1.496v.746Zm0-1.496v-.75h1.496v.75Zm0-1.5v-.746h1.496v.746Zm0-1.496v-.75h1.496v.75Zm0-1.496v-.75h1.496v.75Zm0-1.5v-.746h1.496v.746Zm0-1.496v-.75h1.496v.75Zm0-1.496v-.75h1.496v.75Zm0-1.5v-.746h1.496v.746Zm0-1.496v-.75h1.496v.75Zm0-1.5v-.746h1.496v.746Zm0-1.496v-.75h1.496v.75Zm0-1.496v-.75h1.496v.75Zm0-1.5v-.747h1.496v.746Zm0-1.497v-.75h1.496v.75Zm0-1.496v-.75h1.496v.75Zm0-1.5v-.75h1.496v.75Zm0-1.496v-.75h1.496v.75Zm0-1.5v-.113h1.496v.113Zm0 0"/>
  </g>
  <path d="M132.132 159.339h-1.657v-15.25h2.657l4.61 12.906h.218l4.625-12.906h2.562v15.25h-1.687V146.9l-.266-.047-4.515 12.485h-1.782l-4.515-12.485-.25.047ZM152.214 159.557c-1.137 0-2.024-.289-2.656-.875-.637-.593-.954-1.441-.954-2.547 0-.675.141-1.25.422-1.718.282-.47.711-.848 1.297-1.14.594-.302 1.367-.536 2.328-.704.832-.133 1.461-.285 1.891-.453.437-.176.727-.375.875-.594.156-.219.234-.488.234-.812 0-.52-.183-.914-.547-1.188-.355-.281-.93-.422-1.718-.422-.742 0-1.375.149-1.907.438-.53.28-1.023.71-1.468 1.28h-.203l-.844-1.187a5.332 5.332 0 0 1 1.86-1.468c.75-.364 1.6-.547 2.562-.547 1.351 0 2.351.297 3 .89.644.594.968 1.418.968 2.47v6.093c0 .648.27.969.813.969.176 0 .348-.032.516-.094l.156.031.187 1.188a1.312 1.312 0 0 1-.5.187c-.199.04-.406.063-.625.063-.636 0-1.117-.133-1.437-.407-.324-.28-.527-.691-.61-1.234l-.218-.016c-.336.606-.782 1.059-1.344 1.36-.555.289-1.246.437-2.078.437Zm.375-1.36c.633 0 1.187-.144 1.656-.437.469-.289.828-.703 1.078-1.234.25-.539.375-1.164.375-1.875v-1.453l-.187-.047a3.555 3.555 0 0 1-.953.469c-.368.117-.875.219-1.532.312-.668.094-1.199.235-1.593.422-.399.188-.68.43-.844.719-.168.281-.25.637-.25 1.062 0 .68.195 1.196.594 1.547.394.344.945.516 1.656.516ZM162.22 145.62c-.366 0-.663-.113-.89-.344a1.191 1.191 0 0 1-.328-.86c0-.35.11-.64.328-.859.227-.226.524-.343.89-.343.364 0 .657.117.876.343.226.22.344.508.344.86 0 .343-.118.633-.344.86-.219.23-.512.343-.875.343Zm-.859 13.719v-11.5h1.704v11.5ZM167.065 159.339v-11.5h1.625v1.796l.219.063c.375-.676.86-1.191 1.453-1.547.594-.351 1.32-.531 2.187-.531 1.375 0 2.375.355 3 1.062.625.7.938 1.782.938 3.25v7.407h-1.703v-7.36c0-.695-.09-1.254-.266-1.672-.18-.425-.453-.734-.828-.922-.367-.187-.851-.28-1.453-.28-1.043 0-1.883.343-2.516 1.03-.636.68-.953 1.778-.953 3.297v5.907ZM119.442 188.764c-1.336 0-2.523-.3-3.562-.906-1.043-.613-1.86-1.508-2.453-2.688-.594-1.187-.891-2.601-.891-4.25 0-1.644.297-3.054.89-4.234.594-1.176 1.41-2.07 2.454-2.688 1.039-.613 2.226-.921 3.562-.921 1.426 0 2.614.273 3.563.812.945.543 1.629 1.356 2.047 2.438l-1.157.75h-.25c-.418-.864-.964-1.477-1.64-1.844-.668-.363-1.524-.547-2.563-.547-.96 0-1.812.215-2.562.64-.742.43-1.328 1.106-1.766 2.032-.437.93-.656 2.117-.656 3.562 0 1.45.219 2.637.656 3.563.438.918 1.024 1.594 1.766 2.031.75.43 1.601.64 2.562.64 1.102 0 2.004-.25 2.703-.75.707-.5 1.235-1.304 1.578-2.421h.266l1.188.594c-.356 1.355-1.024 2.39-2 3.109-.98.719-2.227 1.078-3.735 1.078ZM132.582 188.764c-1.093 0-2.042-.227-2.843-.687-.805-.457-1.422-1.133-1.86-2.032-.43-.894-.64-1.976-.64-3.25 0-1.27.21-2.351.64-3.25.438-.894 1.055-1.57 1.86-2.03.8-.458 1.75-.688 2.843-.688 1.083 0 2.024.23 2.829.687.8.461 1.414 1.137 1.843 2.031.438.899.657 1.98.657 3.25 0 1.274-.22 2.356-.657 3.25-.43.899-1.043 1.575-1.843 2.032-.805.46-1.746.687-2.829.687Zm0-1.516c1.145 0 2.02-.359 2.625-1.078.602-.726.907-1.851.907-3.375 0-1.52-.305-2.64-.907-3.36-.605-.726-1.48-1.093-2.625-1.093-1.156 0-2.042.367-2.656 1.094-.605.73-.906 1.851-.906 3.36 0 1.523.3 2.648.906 3.374.614.72 1.5 1.078 2.656 1.078ZM141.174 188.545v-11.5h1.625v1.797l.219.063c.375-.676.86-1.192 1.453-1.547.594-.352 1.32-.531 2.187-.531 1.375 0 2.375.355 3 1.062.625.7.938 1.781.938 3.25v7.406h-1.703v-7.36c0-.694-.09-1.253-.266-1.671-.18-.426-.453-.734-.828-.922-.367-.187-.852-.281-1.453-.281-1.043 0-1.883.344-2.516 1.031-.636.68-.953 1.778-.953 3.297v5.906ZM160.198 186.717l.547 1.219c-.274.273-.633.476-1.078.61a4.565 4.565 0 0 1-1.438.218c-2.187 0-3.281-1.113-3.281-3.344v-6.984h-2.016v-1.406h2.016v-2.422l1.687-.281v2.703h3.704v1.406h-3.704v6.828c0 1.324.57 1.984 1.72 1.984.632 0 1.175-.175 1.624-.53ZM172.144 183.186h-7.906c.04 1.398.375 2.422 1 3.078.625.656 1.477.984 2.563.984.82 0 1.484-.144 1.984-.437.5-.3.89-.766 1.172-1.39h.219l1.109.656c-.336.843-.871 1.507-1.61 1.984-.73.469-1.687.703-2.874.703-1.118 0-2.075-.219-2.875-.656-.793-.438-1.407-1.098-1.844-1.985-.43-.894-.64-2.003-.64-3.328 0-1.3.222-2.398.671-3.297.457-.894 1.082-1.562 1.875-2 .79-.445 1.692-.671 2.703-.671 1.477 0 2.63.418 3.453 1.25.832.824 1.25 2.054 1.25 3.687 0 .648-.011 1.078-.03 1.297Zm-1.422-1.422c-.03-1.219-.308-2.102-.828-2.656-.511-.563-1.246-.844-2.203-.844-1.011 0-1.804.281-2.375.844-.574.554-.922 1.437-1.047 2.656ZM175.438 188.545v-11.5h1.625v1.797l.219.063c.375-.676.86-1.192 1.453-1.547.594-.352 1.32-.531 2.187-.531 1.375 0 2.375.355 3 1.062.625.7.938 1.781.938 3.25v7.406h-1.703v-7.36c0-.694-.09-1.253-.266-1.671-.18-.426-.453-.734-.828-.922-.367-.187-.851-.281-1.453-.281-1.043 0-1.883.344-2.516 1.031-.636.68-.953 1.778-.953 3.297v5.906ZM194.462 186.717l.547 1.219c-.274.273-.633.476-1.078.61a4.565 4.565 0 0 1-1.438.218c-2.187 0-3.281-1.113-3.281-3.344v-6.984h-2.016v-1.406h2.016v-2.422l1.688-.281v2.703h3.703v1.406h-3.704v6.828c0 1.324.57 1.984 1.72 1.984.632 0 1.175-.175 1.624-.53Zm0 0"/>
</svg>
