<svg xmlns="http://www.w3.org/2000/svg" version="1.1" xmlns:xlink="http://www.w3.org/1999/xlink" xmlns:svgjs="http://svgjs.com/svgjs" width="1440" height="560" preserveAspectRatio="none" viewBox="0 0 1440 560"><g mask="url(&quot;#SvgjsMask1015&quot;)" fill="none"><rect width="1440" height="560" x="0" y="0" fill="rgba(164, 252, 174, 1)"></rect><path d="M 0,554 C 57.6,467.8 172.8,140.8 288,123 C 403.2,105.2 460.8,468.6 576,465 C 691.2,461.4 748.8,127.4 864,105 C 979.2,82.6 1036.8,324.8 1152,353 C 1267.2,381.2 1382.4,267.4 1440,246L1440 560L0 560z" fill="rgba(175, 239, 136, 1)"></path><path d="M 0,199 C 96,230 288,366.8 480,354 C 672,341.2 768,133.2 960,135 C 1152,136.8 1344,317.4 1440,363L1440 560L0 560z" fill="rgba(144, 237, 143, 1)"></path></g><defs><mask id="SvgjsMask1015"><rect width="1440" height="560" fill="#ffffff"></rect></mask></defs></svg>