<svg xmlns="http://www.w3.org/2000/svg" xmlns:xlink="http://www.w3.org/1999/xlink" version="1.0" viewBox="0 0 337.5 450">
  <defs>
    <path id="reuse-0" d="M0 .332h337.5v450H0Zm0 0"/>
  </defs>
  <defs>
    <clipPath id="a">
      <path d="M0 .332h337v449.336H0Zm0 0"/>
    </clipPath>
    <clipPath id="b">
      <path d="M0 .332h337V103H0Zm0 0"/>
    </clipPath>
    <clipPath id="c">
      <path d="M.016.332H337v102.625H.016Zm0 0"/>
    </clipPath>
    <clipPath id="d">
      <path d="M0 347.316h337v102.352H0Zm0 0"/>
    </clipPath>
    <clipPath id="e">
      <path d="M.016 347.316H337v102.352H.016Zm0 0"/>
    </clipPath>
    <clipPath id="f">
      <path d="M51.508 210.445h234.484v76.871H51.508Zm0 0"/>
    </clipPath>
    <clipPath id="g">
      <path d="M51.52 210.445h234.726v76.5H51.52Zm0 0"/>
    </clipPath>
    <clipPath id="h">
      <path d="M51.508 103.223h234.484v60H51.508Zm0 0"/>
    </clipPath>
    <clipPath id="i">
      <path d="M51.508 103.223h234.75v60H51.508Zm0 0"/>
    </clipPath>
    <clipPath id="j">
      <path d="M51.508 287.316h234.484v60H51.508Zm0 0"/>
    </clipPath>
    <clipPath id="k">
      <path d="M51.508 287.316h234.75v60H51.508Zm0 0"/>
    </clipPath>
    <clipPath id="l">
      <path d="M51.508 163.223h234.484V217H51.508Zm0 0"/>
    </clipPath>
    <clipPath id="m">
      <path d="M51.523 163.223h234.72v54H51.522Zm0 0"/>
    </clipPath>
  </defs>
  <g fill="#fff" clip-path="url(#a)">
    <path d="M0 .332h337.5v456.75H0Zm0 0"/>
    <use xlink:href="#reuse-0"/>
    <use xlink:href="#reuse-0"/>
  </g>
  <g clip-path="url(#b)">
    <path fill="#fff" d="M0 .207h337.5v102.656H0Zm0 0"/>
  </g>
  <g clip-path="url(#c)">
    <path d="M.016-.54h.75V.958h-.75Zm1.5 0h.75V.958h-.75Zm1.5 0h.75V.958h-.75Zm1.5 0h.75V.958h-.75Zm1.5 0h.75V.958h-.75Zm1.5 0h.75V.958h-.75Zm1.5 0h.75V.958h-.75Zm1.5 0h.75V.958h-.75Zm1.5 0h.75V.958h-.75Zm1.5 0h.75V.958h-.75Zm1.5 0h.75V.958h-.75Zm1.5 0h.75V.958h-.75Zm1.5 0h.75V.958h-.75Zm1.5 0h.75V.958h-.75Zm1.5 0h.75V.958h-.75Zm1.5 0h.75V.958h-.75Zm1.5 0h.75V.958h-.75Zm1.5 0h.75V.958h-.75Zm1.5 0h.75V.958h-.75Zm1.5 0h.75V.958h-.75Zm1.5 0h.75V.958h-.75Zm1.5 0h.75V.958h-.75Zm1.5 0h.75V.958h-.75Zm1.5 0h.75V.958h-.75Zm1.5 0h.75V.958h-.75Zm1.5 0h.75V.958h-.75Zm1.5 0h.75V.958h-.75Zm1.5 0h.75V.958h-.75Zm1.5 0h.75V.958h-.75Zm1.5 0h.75V.958h-.75Zm1.5 0h.75V.958h-.75Zm1.5 0h.75V.958h-.75Zm1.5 0h.75V.958h-.75Zm1.5 0h.75V.958h-.75Zm1.5 0h.75V.958h-.75Zm1.5 0h.75V.958h-.75Zm1.5 0h.75V.958h-.75Zm1.5 0h.75V.958h-.75Zm1.5 0h.75V.958h-.75Zm1.5 0h.75V.958h-.75Zm1.5 0h.75V.958h-.75Zm1.5 0h.75V.958h-.75Zm1.5 0h.75V.958h-.75Zm1.5 0h.75V.958h-.75Zm1.5 0h.75V.958h-.75Zm1.5 0h.75V.958h-.75Zm1.5 0h.75V.958h-.75Zm1.5 0h.75V.958h-.75Zm1.5 0h.75V.958h-.75Zm1.5 0h.75V.958h-.75Zm1.5 0h.75V.958h-.75Zm1.5 0h.75V.958h-.75Zm1.5 0h.75V.958h-.75Zm1.5 0h.75V.958h-.75Zm1.5 0h.75V.958h-.75Zm1.5 0h.75V.958h-.75Zm1.5 0h.75V.958h-.75Zm1.5 0h.75V.958h-.75Zm1.5 0h.75V.958h-.75Zm1.5 0h.75V.958h-.75Zm1.5 0h.75V.958h-.75Zm1.5 0h.75V.958h-.75Zm1.5 0h.75V.958h-.75Zm1.5 0h.75V.958h-.75Zm1.5 0h.75V.958h-.75Zm1.5 0h.75V.958h-.75Zm1.5 0h.75V.958h-.75Zm1.5 0h.75V.958h-.75Zm1.5 0h.75V.958h-.75Zm1.5 0h.75V.958h-.75Zm1.5 0h.75V.958h-.75Zm1.5 0h.75V.958h-.75Zm1.5 0h.75V.958h-.75Zm1.5 0h.75V.958h-.75Zm1.5 0h.75V.958h-.75Zm1.5 0h.75V.958h-.75Zm1.5 0h.75V.958h-.75Zm1.5 0h.75V.958h-.75Zm1.5 0h.75V.958h-.75Zm1.5 0h.75V.958h-.75Zm1.5 0h.75V.958h-.75Zm1.5 0h.75V.958h-.75Zm1.5 0h.75V.958h-.75Zm1.5 0h.75V.958h-.75Zm1.5 0h.75V.958h-.75Zm1.5 0h.75V.958h-.75Zm1.5 0h.75V.958h-.75Zm1.5 0h.75V.958h-.75Zm1.5 0h.75V.958h-.75Zm1.5 0h.75V.958h-.75Zm1.5 0h.75V.958h-.75Zm1.5 0h.75V.958h-.75Zm1.5 0h.75V.958h-.75Zm1.5 0h.75V.958h-.75Zm1.5 0h.75V.958h-.75Zm1.5 0h.75V.958h-.75Zm1.5 0h.75V.958h-.75Zm1.5 0h.75V.958h-.75Zm1.5 0h.75V.958h-.75Zm1.5 0h.75V.958h-.75Zm1.5 0h.75V.958h-.75Zm1.5 0h.75V.958h-.75Zm1.5 0h.75V.958h-.75Zm1.5 0h.75V.958h-.75Zm1.5 0h.75V.958h-.75Zm1.5 0h.75V.958h-.75Zm1.5 0h.75V.958h-.75Zm1.5 0h.75V.958h-.75Zm1.5 0h.75V.958h-.75Zm1.5 0h.75V.958h-.75Zm1.5 0h.75V.958h-.75Zm1.5 0h.75V.958h-.75Zm1.5 0h.75V.958h-.75Zm1.5 0h.75V.958h-.75Zm1.5 0h.75V.958h-.75Zm1.5 0h.75V.958h-.75Zm1.5 0h.75V.958h-.75Zm1.5 0h.75V.958h-.75Zm1.5 0h.75V.958h-.75Zm1.5 0h.75V.958h-.75Zm1.5 0h.75V.958h-.75Zm1.5 0h.75V.958h-.75Zm1.5 0h.75V.958h-.75Zm1.5 0h.75V.958h-.75Zm1.5 0h.75V.958h-.75Zm1.5 0h.75V.958h-.75Zm1.496 0h.754V.958h-.754Zm1.504 0h.75V.958h-.75Zm1.5 0h.75V.958h-.75Zm1.5 0h.75V.958h-.75Zm1.5 0h.75V.958h-.75Zm1.5 0h.75V.958h-.75Zm1.5 0h.75V.958h-.75Zm1.5 0h.75V.958h-.75Zm1.5 0h.75V.958h-.75Zm1.5 0h.75V.958h-.75Zm1.5 0h.75V.958h-.75Zm1.5 0h.75V.958h-.75Zm1.5 0h.75V.958h-.75Zm1.5 0h.75V.958h-.75Zm1.5 0h.75V.958h-.75Zm1.5 0h.75V.958h-.75Zm1.5 0h.75V.958h-.75Zm1.5 0h.75V.958h-.75Zm1.5 0h.75V.958h-.75Zm1.5 0h.75V.958h-.75Zm1.5 0h.75V.958h-.75Zm1.5 0h.75V.958h-.75Zm1.5 0h.75V.958h-.75Zm1.5 0h.75V.958h-.75Zm1.5 0h.75V.958h-.75Zm1.5 0h.75V.958h-.75Zm1.5 0h.75V.958h-.75Zm1.5 0h.75V.958h-.75Zm1.5 0h.75V.958h-.75Zm1.5 0h.75V.958h-.75Zm1.5 0h.75V.958h-.75Zm1.5 0h.75V.958h-.75Zm1.5 0h.75V.958h-.75Zm1.5 0h.75V.958h-.75Zm1.5 0h.75V.958h-.75Zm1.5 0h.75V.958h-.75Zm1.5 0h.75V.958h-.75Zm1.5 0h.75V.958h-.75Zm1.5 0h.75V.958h-.75Zm1.5 0h.75V.958h-.75Zm1.5 0h.75V.958h-.75Zm1.5 0h.75V.958h-.75Zm1.5 0h.75V.958h-.75Zm1.5 0h.75V.958h-.75Zm1.5 0h.75V.958h-.75Zm1.5 0h.75V.958h-.75Zm1.5 0h.75V.958h-.75Zm1.5 0h.75V.958h-.75Zm1.5 0h.75V.958h-.75Zm1.5 0h.75V.958h-.75Zm1.5 0h.75V.958h-.75Zm1.5 0h.75V.958h-.75Zm1.5 0h.75V.958h-.75Zm1.5 0h.75V.958h-.75Zm1.5 0h.75V.958h-.75Zm1.5 0h.75V.958h-.75Zm1.5 0h.75V.958h-.75Zm1.5 0h.75V.958h-.75Zm1.5 0h.75V.958h-.75Zm1.5 0h.75V.958h-.75Zm1.5 0h.75V.958h-.75Zm1.5 0h.75V.958h-.75Zm1.5 0h.75V.958h-.75Zm1.5 0h.75V.958h-.75Zm1.5 0h.75V.958h-.75Zm1.5 0h.75V.958h-.75Zm1.5 0h.75V.958h-.75Zm1.5 0h.75V.958h-.75Zm1.5 0h.75V.958h-.75Zm1.5 0h.75V.958h-.75Zm1.5 0h.75V.958h-.75Zm1.5 0h.75V.958h-.75Zm1.5 0h.75V.958h-.75Zm1.5 0h.75V.958h-.75Zm1.5 0h.75V.958h-.75Zm1.5 0h.75V.958h-.75Zm1.5 0h.75V.958h-.75Zm1.5 0h.75V.958h-.75Zm1.5 0h.75V.958h-.75Zm1.5 0h.75V.958h-.75Zm1.5 0h.75V.958h-.75Zm1.5 0h.75V.958h-.75Zm1.5 0h.75V.958h-.75Zm1.5 0h.75V.958h-.75Zm1.5 0h.75V.958h-.75Zm1.5 0h.746V.958h-.746Zm1.496 0h.75V.958h-.75Zm1.5 0h.75V.958h-.75Zm1.5 0h.75V.958h-.75Zm1.5 0h.75V.958h-.75Zm1.5 0h.75V.958h-.75Zm1.5 0h.75V.958h-.75Zm1.5 0h.75V.958h-.75Zm1.5 0h.75V.958h-.75Zm1.5 0h.75V.958h-.75Zm1.5 0h.75V.958h-.75Zm1.5 0h.75V.958h-.75Zm1.5 0h.75V.958h-.75Zm1.5 0h.75V.958h-.75Zm2.222.774v.75h-1.5v-.75Zm0 1.496v.75h-1.5v-.75Zm0 1.497v.75h-1.5v-.75Zm0 1.496v.75h-1.5v-.75Zm0 1.496v.75h-1.5v-.75Zm0 1.496v.75h-1.5v-.75Zm0 1.496v.75h-1.5v-.75Zm0 1.496v.75h-1.5v-.75Zm0 1.5v.746h-1.5v-.746Zm0 1.496v.746h-1.5v-.746Zm0 1.496v.746h-1.5V15.2Zm0 1.496v.746h-1.5v-.746Zm0 1.496v.747h-1.5v-.747Zm0 1.497v.746h-1.5v-.747Zm0 1.496v.746h-1.5v-.746Zm0 1.496v.746h-1.5v-.746Zm0 1.496v.746h-1.5v-.746Zm0 1.496v.746h-1.5v-.746Zm0 1.496v.746h-1.5v-.746Zm0 1.496v.746h-1.5v-.746Zm0 1.496v.75h-1.5v-.75Zm0 1.496v.75h-1.5v-.75Zm0 1.496v.75h-1.5v-.75Zm0 1.496v.75h-1.5v-.75Zm0 1.497v.75h-1.5v-.75Zm0 1.496v.75h-1.5v-.75Zm0 1.496v.75h-1.5v-.75Zm0 1.496v.75h-1.5v-.75Zm0 1.496v.75h-1.5v-.75Zm0 1.496v.75h-1.5v-.75Zm0 1.496v.75h-1.5v-.75Zm0 1.496v.75h-1.5v-.75Zm0 1.496v.75h-1.5v-.75Zm0 1.496v.75h-1.5v-.75Zm0 1.5v.746h-1.5v-.746Zm0 1.496v.747h-1.5v-.747Zm0 1.497v.746h-1.5v-.746Zm0 1.496v.746h-1.5v-.746Zm0 1.496v.746h-1.5v-.746Zm0 1.496v.746h-1.5v-.746Zm0 1.496v.746h-1.5v-.746Zm0 1.496v.746h-1.5v-.746Zm0 1.496v.746h-1.5v-.746Zm0 1.496v.746h-1.5v-.746Zm0 1.496v.746h-1.5v-.746Zm0 1.496v.746h-1.5v-.746Zm0 1.496v.75h-1.5v-.75Zm0 1.497v.75h-1.5v-.75Zm0 1.496v.75h-1.5v-.75Zm0 1.496v.75h-1.5v-.75Zm0 1.496v.75h-1.5v-.75Zm0 1.496v.75h-1.5v-.75Zm0 1.496v.75h-1.5v-.75Zm0 1.496v.75h-1.5v-.75Zm0 1.496v.75h-1.5v-.75Zm0 1.496v.75h-1.5v-.75Zm0 1.496v.75h-1.5v-.75Zm0 1.497v.75h-1.5v-.75Zm0 1.496v.75h-1.5v-.75Zm0 1.496v.75h-1.5v-.75Zm0 1.5v.746h-1.5v-.746Zm0 1.496v.746h-1.5v-.746Zm0 1.496v.746h-1.5v-.746Zm0 1.496v.746h-1.5V94.5Zm0 1.496v.746h-1.5v-.746Zm0 1.496v.746h-1.5v-.746Zm0 1.496v.746h-1.5v-.746Zm0 1.496v.746h-1.5v-.746Zm0 1.496v.747h-1.5v-.747Zm-1.27 1.727h-.75v-1.496h.75Zm-1.5 0h-.75v-1.496h.75Zm-1.5 0h-.75v-1.496h.75Zm-1.5 0h-.75v-1.496h.75Zm-1.5 0h-.75v-1.496h.75Zm-1.5 0h-.75v-1.496h.75Zm-1.5 0h-.75v-1.496h.75Zm-1.5 0h-.75v-1.496h.75Zm-1.5 0h-.75v-1.496h.75Zm-1.5 0h-.75v-1.496h.75Zm-1.5 0h-.75v-1.496h.75Zm-1.5 0h-.75v-1.496h.75Zm-1.5 0h-.75v-1.496h.75Zm-1.5 0h-.75v-1.496h.75Zm-1.5 0h-.75v-1.496h.75Zm-1.5 0h-.75v-1.496h.75Zm-1.5 0h-.75v-1.496h.75Zm-1.5 0h-.75v-1.496h.75Zm-1.5 0h-.75v-1.496h.75Zm-1.5 0h-.75v-1.496h.75Zm-1.5 0h-.75v-1.496h.75Zm-1.5 0h-.75v-1.496h.75Zm-1.5 0h-.75v-1.496h.75Zm-1.5 0h-.75v-1.496h.75Zm-1.5 0h-.75v-1.496h.75Zm-1.5 0h-.75v-1.496h.75Zm-1.5 0h-.75v-1.496h.75Zm-1.5 0h-.75v-1.496h.75Zm-1.5 0h-.75v-1.496h.75Zm-1.5 0h-.75v-1.496h.75Zm-1.5 0h-.75v-1.496h.75Zm-1.5 0h-.75v-1.496h.75Zm-1.5 0h-.75v-1.496h.75Zm-1.5 0h-.75v-1.496h.75Zm-1.5 0h-.75v-1.496h.75Zm-1.5 0h-.75v-1.496h.75Zm-1.5 0h-.75v-1.496h.75Zm-1.5 0h-.75v-1.496h.75Zm-1.5 0h-.75v-1.496h.75Zm-1.5 0h-.75v-1.496h.75Zm-1.5 0h-.75v-1.496h.75Zm-1.5 0h-.75v-1.496h.75Zm-1.5 0h-.75v-1.496h.75Zm-1.5 0h-.75v-1.496h.75Zm-1.5 0h-.75v-1.496h.75Zm-1.5 0h-.75v-1.496h.75Zm-1.5 0h-.75v-1.496h.75Zm-1.5 0h-.75v-1.496h.75Zm-1.5 0h-.75v-1.496h.75Zm-1.5 0h-.75v-1.496h.75Zm-1.5 0h-.75v-1.496h.75Zm-1.5 0h-.75v-1.496h.75Zm-1.5 0h-.75v-1.496h.75Zm-1.5 0h-.75v-1.496h.75Zm-1.5 0h-.75v-1.496h.75Zm-1.5 0h-.75v-1.496h.75Zm-1.5 0h-.75v-1.496h.75Zm-1.5 0h-.75v-1.496h.75Zm-1.5 0h-.75v-1.496h.75Zm-1.5 0h-.75v-1.496h.75Zm-1.5 0h-.75v-1.496h.75Zm-1.5 0h-.75v-1.496h.75Zm-1.5 0h-.75v-1.496h.75Zm-1.5 0h-.75v-1.496h.75Zm-1.5 0h-.75v-1.496h.75Zm-1.5 0h-.75v-1.496h.75Zm-1.5 0h-.75v-1.496h.75Zm-1.5 0h-.75v-1.496h.75Zm-1.5 0h-.75v-1.496h.75Zm-1.5 0h-.75v-1.496h.75Zm-1.5 0h-.75v-1.496h.75Zm-1.5 0h-.75v-1.496h.75Zm-1.5 0h-.75v-1.496h.75Zm-1.5 0h-.75v-1.496h.75Zm-1.5 0h-.75v-1.496h.75Zm-1.5 0h-.75v-1.496h.75Zm-1.5 0h-.75v-1.496h.75Zm-1.5 0h-.75v-1.496h.75Zm-1.5 0h-.75v-1.496h.75Zm-1.5 0h-.75v-1.496h.75Zm-1.5 0h-.75v-1.496h.75Zm-1.5 0h-.75v-1.496h.75Zm-1.5 0h-.75v-1.496h.75Zm-1.5 0h-.75v-1.496h.75Zm-1.5 0h-.75v-1.496h.75Zm-1.5 0h-.75v-1.496h.75Zm-1.5 0h-.75v-1.496h.75Zm-1.5 0h-.75v-1.496h.75Zm-1.5 0h-.75v-1.496h.75Zm-1.5 0h-.75v-1.496h.75Zm-1.5 0h-.75v-1.496h.75Zm-1.5 0h-.75v-1.496h.75Zm-1.5 0h-.75v-1.496h.75Zm-1.5 0h-.75v-1.496h.75Zm-1.5 0h-.75v-1.496h.75Zm-1.5 0h-.75v-1.496h.75Zm-1.5 0h-.75v-1.496h.75Zm-1.5 0h-.75v-1.496h.75Zm-1.5 0h-.75v-1.496h.75Zm-1.5 0h-.75v-1.496h.75Zm-1.5 0h-.75v-1.496h.75Zm-1.5 0h-.75v-1.496h.75Zm-1.5 0h-.75v-1.496h.75Zm-1.5 0h-.75v-1.496h.75Zm-1.5 0h-.75v-1.496h.75Zm-1.5 0h-.75v-1.496h.75Zm-1.5 0h-.75v-1.496h.75Zm-1.5 0h-.75v-1.496h.75Zm-1.5 0h-.75v-1.496h.75Zm-1.5 0h-.75v-1.496h.75Zm-1.5 0h-.75v-1.496h.75Zm-1.5 0h-.75v-1.496h.75Zm-1.5 0h-.75v-1.496h.75Zm-1.5 0h-.75v-1.496h.75Zm-1.5 0h-.75v-1.496h.75Zm-1.5 0h-.75v-1.496h.75Zm-1.5 0h-.75v-1.496h.75Zm-1.5 0h-.75v-1.496h.75Zm-1.5 0h-.75v-1.496h.75Zm-1.5 0h-.75v-1.496h.75Zm-1.5 0h-.75v-1.496h.75Zm-1.5 0h-.75v-1.496h.75Zm-1.5 0h-.75v-1.496h.75Zm-1.5 0h-.75v-1.496h.75Zm-1.5 0h-.75v-1.496h.75Zm-1.5 0h-.75v-1.496h.75Zm-1.5 0h-.75v-1.496h.75Zm-1.5 0h-.75v-1.496h.75Zm-1.5 0h-.75v-1.496h.75Zm-1.5 0h-.75v-1.496h.75Zm-1.5 0h-.75v-1.496h.75Zm-1.5 0h-.75v-1.496h.75Zm-1.5 0h-.75v-1.496h.75Zm-1.5 0h-.75v-1.496h.75Zm-1.5 0h-.75v-1.496h.75Zm-1.5 0h-.75v-1.496h.75Zm-1.5 0h-.75v-1.496h.75Zm-1.5 0h-.75v-1.496h.75Zm-1.5 0h-.75v-1.496h.75Zm-1.5 0h-.75v-1.496h.75Zm-1.5 0h-.75v-1.496h.75Zm-1.5 0h-.75v-1.496h.75Zm-1.5 0h-.75v-1.496h.75Zm-1.5 0h-.75v-1.496h.75Zm-1.5 0h-.75v-1.496h.75Zm-1.5 0h-.75v-1.496h.75Zm-1.5 0h-.75v-1.496h.75Zm-1.5 0h-.75v-1.496h.75Zm-1.5 0h-.75v-1.496h.75Zm-1.5 0h-.75v-1.496h.75Zm-1.5 0h-.75v-1.496h.75Zm-1.5 0h-.75v-1.496h.75Zm-1.5 0h-.75v-1.496h.75Zm-1.5 0h-.75v-1.496h.75Zm-1.5 0h-.75v-1.496h.75Zm-1.5 0h-.75v-1.496h.75Zm-1.5 0h-.75v-1.496h.75Zm-1.5 0h-.75v-1.496h.75Zm-1.5 0h-.75v-1.496h.75Zm-1.5 0h-.75v-1.496h.75Zm-1.5 0h-.75v-1.496h.75Zm-1.5 0h-.75v-1.496h.75Zm-1.5 0h-.75v-1.496h.75Zm-1.5 0h-.75v-1.496h.75Zm-1.5 0h-.75v-1.496h.75Zm-1.5 0h-.75v-1.496h.75Zm-1.5 0h-.75v-1.496h.75Zm-1.5 0h-.75v-1.496h.75Zm-1.5 0h-.75v-1.496h.75Zm-1.5 0h-.75v-1.496h.75Zm-1.5 0h-.75v-1.496h.75Zm-1.5 0h-.75v-1.496h.75Zm-1.5 0h-.75v-1.496h.75Zm-1.5 0h-.75v-1.496h.75Zm-1.5 0h-.75v-1.496h.75Zm-1.5 0h-.75v-1.496h.75Zm-1.5 0h-.75v-1.496h.75Zm-1.5 0h-.75v-1.496h.75Zm-1.5 0h-.75v-1.496h.75Zm-1.5 0h-.75v-1.496h.75Zm-1.5 0h-.75v-1.496h.75Zm-1.5 0h-.75v-1.496h.75Zm-1.5 0h-.75v-1.496h.75Zm-1.5 0h-.75v-1.496h.75Zm-1.5 0h-.75v-1.496h.75Zm-1.5 0h-.75v-1.496h.75Zm-1.5 0h-.75v-1.496h.75Zm-1.5 0h-.75v-1.496h.75Zm-1.5 0h-.75v-1.496h.75Zm-1.5 0h-.75v-1.496h.75Zm-1.5 0h-.75v-1.496h.75Zm-1.5 0h-.75v-1.496h.75Zm-1.5 0h-.75v-1.496h.75Zm-1.5 0h-.75v-1.496h.75Zm-1.5 0h-.75v-1.496h.75Zm-1.5 0h-.75v-1.496h.75Zm-1.5 0h-.75v-1.496h.75Zm-1.5 0h-.75v-1.496h.75Zm-1.5 0h-.75v-1.496h.75Zm-1.5 0h-.75v-1.496h.75Zm-1.5 0h-.75v-1.496h.75Zm-1.5 0h-.75v-1.496h.75Zm-1.5 0h-.75v-1.496h.75Zm-1.5 0h-.75v-1.496h.75Zm-1.5 0h-.75v-1.496h.75Zm-1.5 0h-.75v-1.496h.75Zm-1.5 0h-.75v-1.496h.75Zm-1.5 0h-.75v-1.496h.75Zm-1.5 0h-.75v-1.496h.75Zm-1.5 0h-.75v-1.496h.75Zm-1.5 0h-.75v-1.496h.75Zm-1.5 0h-.75v-1.496h.75Zm-1.5 0h-.75v-1.496h.75Zm-1.5 0h-.75v-1.496h.75Zm-1.5 0h-.75v-1.496h.75Zm-1.5 0h-.75v-1.496h.75Zm-1.5 0h-.75v-1.496h.75Zm-1.5 0h-.75v-1.496h.75Zm-1.5 0h-.75v-1.496h.75Zm-1.5 0h-.75v-1.496h.75Zm-1.5 0h-.75v-1.496h.75Zm-1.5 0h-.75v-1.496h.75Zm-1.5 0h-.75v-1.496h.75Zm-1.5 0h-.75v-1.496h.75Zm-1.5 0h-.75v-1.496h.75Zm-1.698-1.293v-.75h1.5v.75Zm0-1.5v-.746h1.5v.746Zm0-1.496v-.746h1.5v.746Zm0-1.496v-.746h1.5v.746Zm0-1.496v-.746h1.5v.746Zm0-1.496v-.746h1.5v.746Zm0-1.496v-.746h1.5v.746Zm0-1.496v-.747h1.5v.746Zm0-1.497v-.746h1.5v.746Zm0-1.496V88.2h1.5v.746Zm0-1.496v-.746h1.5v.746Zm0-1.496v-.746h1.5v.746Zm0-1.496v-.746h1.5v.746Zm0-1.496v-.75h1.5v.75Zm0-1.496v-.75h1.5v.75Zm0-1.496v-.75h1.5v.75Zm0-1.496v-.75h1.5v.75Zm0-1.496v-.75h1.5v.75Zm0-1.497v-.75h1.5v.75Zm0-1.496v-.75h1.5v.75Zm0-1.496v-.75h1.5v.75Zm0-1.496v-.75h1.5v.75Zm0-1.496v-.75h1.5v.75Zm0-1.496v-.75h1.5V68Zm0-1.496v-.75h1.5v.75Zm0-1.496v-.75h1.5v.75Zm0-1.496v-.75h1.5v.75Zm0-1.5v-.746h1.5v.746Zm0-1.496v-.746h1.5v.746Zm0-1.496v-.747h1.5v.747Zm0-1.497v-.746h1.5v.746Zm0-1.496v-.746h1.5v.746Zm0-1.496v-.746h1.5v.746Zm0-1.496v-.746h1.5v.746Zm0-1.496v-.746h1.5v.746Zm0-1.496v-.746h1.5v.746Zm0-1.496V47.8h1.5v.746Zm0-1.496v-.746h1.5v.746Zm0-1.496v-.746h1.5v.746Zm0-1.496v-.75h1.5v.75Zm0-1.496v-.75h1.5v.75Zm0-1.497v-.75h1.5v.75Zm0-1.496v-.75h1.5v.75Zm0-1.496v-.75h1.5v.75Zm0-1.496v-.75h1.5v.75Zm0-1.496v-.75h1.5v.75Zm0-1.496v-.75h1.5v.75Zm0-1.496v-.75h1.5v.75Zm0-1.496v-.75h1.5v.75Zm0-1.496v-.75h1.5v.75Zm0-1.496v-.75h1.5v.75Zm0-1.497v-.75h1.5v.75Zm0-1.5v-.746h1.5v.746Zm0-1.496v-.746h1.5v.746Zm0-1.496v-.746h1.5v.746Zm0-1.496v-.746h1.5v.746Zm0-1.496v-.746h1.5v.746Zm0-1.496v-.746h1.5v.746Zm0-1.496v-.746h1.5v.746Zm0-1.496v-.746h1.5v.746Zm0-1.496v-.746h1.5v.746Zm0-1.496v-.746h1.5v.746Zm0-1.496v-.747h1.5v.747Zm0-1.497v-.746h1.5v.746Zm0-1.496v-.746h1.5v.746Zm0-1.496v-.75h1.5v.75Zm0-1.496v-.75h1.5v.75Zm0-1.496v-.75h1.5v.75Zm0-1.496V.207h1.5v.461Zm0 0"/>
  </g>
  <path d="M92.043 41.317c1.406 0 2.61.25 3.61.75 1.007.5 1.773 1.219 2.296 2.156.531.938.797 2.04.797 3.297 0 1.274-.266 2.371-.797 3.297-.523.93-1.289 1.649-2.297 2.156-1 .5-2.203.75-3.609.75h-4.89v7.985h-2.407v-20.39Zm-.063 10.36c2.832 0 4.25-1.383 4.25-4.157 0-2.78-1.418-4.172-4.25-4.172h-4.828v8.329ZM106.6 62.005c-1.512 0-2.695-.395-3.547-1.188-.855-.789-1.281-1.922-1.281-3.39 0-.907.187-1.672.562-2.297.383-.633.969-1.149 1.75-1.547.79-.395 1.828-.695 3.11-.906 1.113-.188 1.957-.395 2.53-.625.583-.239.974-.5 1.173-.782.207-.289.312-.656.312-1.093 0-.696-.242-1.235-.718-1.61-.48-.375-1.25-.562-2.313-.562-1 0-1.855.199-2.562.593-.711.387-1.36.961-1.954 1.72h-.28l-1.11-1.579c.644-.832 1.469-1.488 2.469-1.969 1.007-.488 2.156-.734 3.437-.734 1.813 0 3.145.398 4 1.187.863.793 1.297 1.891 1.297 3.297v8.157c0 .855.363 1.28 1.094 1.28.238 0 .468-.038.687-.124l.203.062.266 1.578c-.168.118-.39.2-.672.25a3.775 3.775 0 0 1-.844.094c-.843 0-1.484-.18-1.922-.547-.43-.375-.699-.925-.812-1.656l-.297-.031c-.437.812-1.031 1.422-1.781 1.828-.742.394-1.672.594-2.797.594Zm.5-1.813c.851 0 1.594-.195 2.219-.594.632-.394 1.117-.953 1.453-1.671.332-.72.5-1.547.5-2.485V53.49l-.266-.047a4.839 4.839 0 0 1-1.25.61c-.492.156-1.18.304-2.062.437-.899.117-1.61.297-2.141.547-.523.25-.898.574-1.125.969-.219.386-.328.86-.328 1.422 0 .906.266 1.593.797 2.062.531.469 1.265.703 2.203.703ZM124.089 68.24c-2.43 0-4.2-.407-5.313-1.22-1.117-.812-1.672-1.886-1.672-3.218 0-.868.258-1.555.782-2.063.52-.508 1.273-.879 2.265-1.11v-.28c-.468-.27-.824-.586-1.062-.954-.242-.363-.36-.797-.36-1.297 0-.593.188-1.078.563-1.453.383-.375.945-.656 1.687-.843v-.297c-1.68-.883-2.515-2.32-2.515-4.313 0-1 .226-1.89.687-2.672.457-.78 1.11-1.39 1.953-1.828.844-.437 1.829-.656 2.954-.656 1.289 0 2.367.281 3.234.844.332-.364.578-.75.734-1.157.164-.414.27-.882.313-1.406l.297-.187 1.875.453c-.094.781-.336 1.445-.719 1.984-.375.531-.906.977-1.594 1.328v.297c.5.399.864.856 1.094 1.375.238.524.36 1.133.36 1.828 0 .97-.235 1.84-.704 2.61-.46.773-1.117 1.383-1.969 1.828-.843.437-1.82.656-2.921.656-.125 0-.356-.008-.688-.031-.375-.008-.652-.016-.828-.016-.492 0-.883.125-1.172.375-.281.25-.422.57-.422.953 0 .493.156.852.469 1.078.312.22.828.344 1.547.375l3.64.125c1.563.063 2.723.434 3.485 1.11.758.668 1.14 1.617 1.14 2.86 0 .913-.25 1.741-.75 2.484-.492.738-1.273 1.328-2.343 1.765-1.063.446-2.414.672-4.047.672Zm-.031-13.704c1.093 0 1.937-.281 2.53-.844.595-.57.891-1.367.891-2.39 0-1.063-.296-1.88-.89-2.454-.586-.57-1.43-.859-2.531-.859-1.094 0-1.934.29-2.516.86-.574.562-.86 1.382-.86 2.453 0 1.03.286 1.828.86 2.39.582.563 1.422.844 2.516.844Zm.03 11.75c1.134 0 2.063-.125 2.782-.375.719-.25 1.234-.586 1.547-1 .32-.418.484-.883.484-1.39 0-.462-.09-.829-.265-1.11-.168-.273-.446-.48-.828-.625-.375-.133-.899-.223-1.563-.266l-3.437-.156h-.485c-1.93.024-2.89.766-2.89 2.234 0 1.79 1.55 2.688 4.656 2.688ZM146.58 54.536h-10.562c.063 1.875.508 3.25 1.344 4.125.832.867 1.973 1.297 3.422 1.297 1.094 0 1.972-.192 2.64-.578.676-.395 1.204-1.008 1.579-1.844h.296l1.485.875a5.541 5.541 0 0 1-2.156 2.64c-.98.637-2.262.954-3.844.954-1.492 0-2.774-.293-3.844-.875-1.062-.594-1.887-1.485-2.469-2.672-.574-1.188-.86-2.664-.86-4.438 0-1.75.302-3.222.907-4.422.613-1.195 1.445-2.085 2.5-2.671 1.063-.594 2.27-.891 3.625-.891 1.969 0 3.504.559 4.61 1.672 1.113 1.105 1.671 2.75 1.671 4.937 0 .856-.015 1.434-.046 1.735Zm-1.89-1.89c-.043-1.633-.406-2.821-1.094-3.563-.687-.75-1.672-1.125-2.953-1.125-1.355 0-2.418.375-3.187 1.125-.762.75-1.227 1.937-1.391 3.562ZM171.402 49.583v-8.266h2.39v20.39h-2.39V51.63h-10.594v10.078h-2.406v-20.39h2.406v8.265ZM191.538 54.536h-10.562c.062 1.875.507 3.25 1.343 4.125.832.867 1.973 1.297 3.422 1.297 1.094 0 1.973-.192 2.64-.578.677-.395 1.204-1.008 1.579-1.844h.297l1.484.875a5.541 5.541 0 0 1-2.156 2.64c-.98.637-2.262.954-3.844.954-1.492 0-2.773-.293-3.844-.875-1.062-.594-1.886-1.485-2.468-2.672-.574-1.188-.86-2.664-.86-4.438 0-1.75.301-3.222.907-4.422.613-1.195 1.445-2.085 2.5-2.671 1.062-.594 2.27-.891 3.625-.891 1.968 0 3.504.559 4.609 1.672 1.113 1.105 1.672 2.75 1.672 4.937 0 .856-.016 1.434-.047 1.735Zm-1.89-1.89c-.043-1.633-.407-2.821-1.094-3.563-.688-.75-1.672-1.125-2.953-1.125-1.356 0-2.418.375-3.188 1.125-.762.75-1.226 1.937-1.39 3.562ZM199.624 62.005c-1.511 0-2.695-.395-3.546-1.188-.856-.789-1.282-1.922-1.282-3.39 0-.907.188-1.672.563-2.297.383-.633.969-1.149 1.75-1.547.789-.395 1.828-.695 3.11-.906 1.113-.188 1.956-.395 2.53-.625.583-.239.973-.5 1.172-.782.207-.289.313-.656.313-1.093 0-.696-.242-1.235-.719-1.61-.48-.375-1.25-.562-2.312-.562-1 0-1.856.199-2.563.593-.71.387-1.36.961-1.953 1.72h-.281l-1.11-1.579c.645-.832 1.47-1.488 2.47-1.969 1.007-.488 2.155-.734 3.437-.734 1.812 0 3.144.398 4 1.187.863.793 1.296 1.891 1.296 3.297v8.157c0 .855.364 1.28 1.094 1.28.239 0 .469-.038.688-.124l.203.062.265 1.578c-.167.118-.39.2-.671.25a3.775 3.775 0 0 1-.844.094c-.844 0-1.485-.18-1.922-.547-.43-.375-.7-.925-.813-1.656l-.296-.031c-.438.812-1.032 1.422-1.782 1.828-.742.394-1.672.594-2.797.594Zm.5-1.813c.852 0 1.594-.195 2.22-.594.632-.394 1.116-.953 1.452-1.671.332-.72.5-1.547.5-2.485V53.49l-.265-.047a4.839 4.839 0 0 1-1.25.61c-.492.156-1.18.304-2.063.437-.898.117-1.61.297-2.14.547-.524.25-.899.574-1.125.969-.22.386-.329.86-.329 1.422 0 .906.266 1.593.797 2.062.532.469 1.266.703 2.203.703ZM217.176 62.005c-1.242 0-2.336-.297-3.281-.89-.938-.595-1.68-1.485-2.22-2.673-.53-1.187-.796-2.66-.796-4.422 0-1.757.274-3.234.828-4.422.563-1.195 1.332-2.085 2.313-2.671.976-.594 2.117-.891 3.422-.891 1.02 0 1.937.195 2.75.578.82.387 1.523 1.024 2.109 1.906l.297-.062v-8.313h2.265v21.563h-2.265v-2.25l-.297-.047c-.5.762-1.184 1.387-2.047 1.875-.855.477-1.883.719-3.078.719Zm.703-2.047c1.438 0 2.582-.488 3.438-1.469.851-.976 1.28-2.469 1.28-4.469 0-2.007-.429-3.504-1.28-4.484-.856-.977-2-1.469-3.438-1.469-1.48 0-2.621.48-3.422 1.438-.793.96-1.187 2.465-1.187 4.515 0 3.961 1.535 5.938 4.61 5.938ZM242.213 54.536H231.65c.063 1.875.508 3.25 1.344 4.125.832.867 1.973 1.297 3.422 1.297 1.094 0 1.973-.192 2.64-.578.676-.395 1.204-1.008 1.579-1.844h.297l1.484.875a5.541 5.541 0 0 1-2.156 2.64c-.98.637-2.262.954-3.844.954-1.492 0-2.773-.293-3.844-.875-1.062-.594-1.886-1.485-2.468-2.672-.575-1.188-.86-2.664-.86-4.438 0-1.75.3-3.222.906-4.422.614-1.195 1.446-2.085 2.5-2.671 1.063-.594 2.27-.891 3.625-.891 1.97 0 3.504.559 4.61 1.672 1.113 1.105 1.672 2.75 1.672 4.937 0 .856-.016 1.434-.047 1.735Zm-1.89-1.89c-.044-1.633-.407-2.821-1.094-3.563-.688-.75-1.672-1.125-2.954-1.125-1.355 0-2.418.375-3.187 1.125-.762.75-1.227 1.937-1.39 3.562ZM246.627 61.708v-15.39h2.172v2.421l.282.063c.718-1.739 2.066-2.61 4.046-2.61 1.051 0 1.836.188 2.36.563l-.578 1.922-.282.062a4.244 4.244 0 0 0-1.906-.437c-1.219 0-2.164.464-2.828 1.39-.656.918-.984 2.406-.984 4.469v7.547Zm0 0"/>
  <g clip-path="url(#d)">
    <path fill="#fff" d="M0 347.316h337.5v102.657H0Zm0 0"/>
  </g>
  <g clip-path="url(#e)">
    <path d="M.016 346.57h.75v1.496h-.75Zm1.5 0h.75v1.496h-.75Zm1.5 0h.75v1.496h-.75Zm1.5 0h.75v1.496h-.75Zm1.5 0h.75v1.496h-.75Zm1.5 0h.75v1.496h-.75Zm1.5 0h.75v1.496h-.75Zm1.5 0h.75v1.496h-.75Zm1.5 0h.75v1.496h-.75Zm1.5 0h.75v1.496h-.75Zm1.5 0h.75v1.496h-.75Zm1.5 0h.75v1.496h-.75Zm1.5 0h.75v1.496h-.75Zm1.5 0h.75v1.496h-.75Zm1.5 0h.75v1.496h-.75Zm1.5 0h.75v1.496h-.75Zm1.5 0h.75v1.496h-.75Zm1.5 0h.75v1.496h-.75Zm1.5 0h.75v1.496h-.75Zm1.5 0h.75v1.496h-.75Zm1.5 0h.75v1.496h-.75Zm1.5 0h.75v1.496h-.75Zm1.5 0h.75v1.496h-.75Zm1.5 0h.75v1.496h-.75Zm1.5 0h.75v1.496h-.75Zm1.5 0h.75v1.496h-.75Zm1.5 0h.75v1.496h-.75Zm1.5 0h.75v1.496h-.75Zm1.5 0h.75v1.496h-.75Zm1.5 0h.75v1.496h-.75Zm1.5 0h.75v1.496h-.75Zm1.5 0h.75v1.496h-.75Zm1.5 0h.75v1.496h-.75Zm1.5 0h.75v1.496h-.75Zm1.5 0h.75v1.496h-.75Zm1.5 0h.75v1.496h-.75Zm1.5 0h.75v1.496h-.75Zm1.5 0h.75v1.496h-.75Zm1.5 0h.75v1.496h-.75Zm1.5 0h.75v1.496h-.75Zm1.5 0h.75v1.496h-.75Zm1.5 0h.75v1.496h-.75Zm1.5 0h.75v1.496h-.75Zm1.5 0h.75v1.496h-.75Zm1.5 0h.75v1.496h-.75Zm1.5 0h.75v1.496h-.75Zm1.5 0h.75v1.496h-.75Zm1.5 0h.75v1.496h-.75Zm1.5 0h.75v1.496h-.75Zm1.5 0h.75v1.496h-.75Zm1.5 0h.75v1.496h-.75Zm1.5 0h.75v1.496h-.75Zm1.5 0h.75v1.496h-.75Zm1.5 0h.75v1.496h-.75Zm1.5 0h.75v1.496h-.75Zm1.5 0h.75v1.496h-.75Zm1.5 0h.75v1.496h-.75Zm1.5 0h.75v1.496h-.75Zm1.5 0h.75v1.496h-.75Zm1.5 0h.75v1.496h-.75Zm1.5 0h.75v1.496h-.75Zm1.5 0h.75v1.496h-.75Zm1.5 0h.75v1.496h-.75Zm1.5 0h.75v1.496h-.75Zm1.5 0h.75v1.496h-.75Zm1.5 0h.75v1.496h-.75Zm1.5 0h.75v1.496h-.75Zm1.5 0h.75v1.496h-.75Zm1.5 0h.75v1.496h-.75Zm1.5 0h.75v1.496h-.75Zm1.5 0h.75v1.496h-.75Zm1.5 0h.75v1.496h-.75Zm1.5 0h.75v1.496h-.75Zm1.5 0h.75v1.496h-.75Zm1.5 0h.75v1.496h-.75Zm1.5 0h.75v1.496h-.75Zm1.5 0h.75v1.496h-.75Zm1.5 0h.75v1.496h-.75Zm1.5 0h.75v1.496h-.75Zm1.5 0h.75v1.496h-.75Zm1.5 0h.75v1.496h-.75Zm1.5 0h.75v1.496h-.75Zm1.5 0h.75v1.496h-.75Zm1.5 0h.75v1.496h-.75Zm1.5 0h.75v1.496h-.75Zm1.5 0h.75v1.496h-.75Zm1.5 0h.75v1.496h-.75Zm1.5 0h.75v1.496h-.75Zm1.5 0h.75v1.496h-.75Zm1.5 0h.75v1.496h-.75Zm1.5 0h.75v1.496h-.75Zm1.5 0h.75v1.496h-.75Zm1.5 0h.75v1.496h-.75Zm1.5 0h.75v1.496h-.75Zm1.5 0h.75v1.496h-.75Zm1.5 0h.75v1.496h-.75Zm1.5 0h.75v1.496h-.75Zm1.5 0h.75v1.496h-.75Zm1.5 0h.75v1.496h-.75Zm1.5 0h.75v1.496h-.75Zm1.5 0h.75v1.496h-.75Zm1.5 0h.75v1.496h-.75Zm1.5 0h.75v1.496h-.75Zm1.5 0h.75v1.496h-.75Zm1.5 0h.75v1.496h-.75Zm1.5 0h.75v1.496h-.75Zm1.5 0h.75v1.496h-.75Zm1.5 0h.75v1.496h-.75Zm1.5 0h.75v1.496h-.75Zm1.5 0h.75v1.496h-.75Zm1.5 0h.75v1.496h-.75Zm1.5 0h.75v1.496h-.75Zm1.5 0h.75v1.496h-.75Zm1.5 0h.75v1.496h-.75Zm1.5 0h.75v1.496h-.75Zm1.5 0h.75v1.496h-.75Zm1.5 0h.75v1.496h-.75Zm1.5 0h.75v1.496h-.75Zm1.5 0h.75v1.496h-.75Zm1.5 0h.75v1.496h-.75Zm1.5 0h.75v1.496h-.75Zm1.5 0h.75v1.496h-.75Zm1.5 0h.75v1.496h-.75Zm1.5 0h.75v1.496h-.75Zm1.5 0h.75v1.496h-.75Zm1.5 0h.75v1.496h-.75Zm1.496 0h.754v1.496h-.754Zm1.504 0h.75v1.496h-.75Zm1.5 0h.75v1.496h-.75Zm1.5 0h.75v1.496h-.75Zm1.5 0h.75v1.496h-.75Zm1.5 0h.75v1.496h-.75Zm1.5 0h.75v1.496h-.75Zm1.5 0h.75v1.496h-.75Zm1.5 0h.75v1.496h-.75Zm1.5 0h.75v1.496h-.75Zm1.5 0h.75v1.496h-.75Zm1.5 0h.75v1.496h-.75Zm1.5 0h.75v1.496h-.75Zm1.5 0h.75v1.496h-.75Zm1.5 0h.75v1.496h-.75Zm1.5 0h.75v1.496h-.75Zm1.5 0h.75v1.496h-.75Zm1.5 0h.75v1.496h-.75Zm1.5 0h.75v1.496h-.75Zm1.5 0h.75v1.496h-.75Zm1.5 0h.75v1.496h-.75Zm1.5 0h.75v1.496h-.75Zm1.5 0h.75v1.496h-.75Zm1.5 0h.75v1.496h-.75Zm1.5 0h.75v1.496h-.75Zm1.5 0h.75v1.496h-.75Zm1.5 0h.75v1.496h-.75Zm1.5 0h.75v1.496h-.75Zm1.5 0h.75v1.496h-.75Zm1.5 0h.75v1.496h-.75Zm1.5 0h.75v1.496h-.75Zm1.5 0h.75v1.496h-.75Zm1.5 0h.75v1.496h-.75Zm1.5 0h.75v1.496h-.75Zm1.5 0h.75v1.496h-.75Zm1.5 0h.75v1.496h-.75Zm1.5 0h.75v1.496h-.75Zm1.5 0h.75v1.496h-.75Zm1.5 0h.75v1.496h-.75Zm1.5 0h.75v1.496h-.75Zm1.5 0h.75v1.496h-.75Zm1.5 0h.75v1.496h-.75Zm1.5 0h.75v1.496h-.75Zm1.5 0h.75v1.496h-.75Zm1.5 0h.75v1.496h-.75Zm1.5 0h.75v1.496h-.75Zm1.5 0h.75v1.496h-.75Zm1.5 0h.75v1.496h-.75Zm1.5 0h.75v1.496h-.75Zm1.5 0h.75v1.496h-.75Zm1.5 0h.75v1.496h-.75Zm1.5 0h.75v1.496h-.75Zm1.5 0h.75v1.496h-.75Zm1.5 0h.75v1.496h-.75Zm1.5 0h.75v1.496h-.75Zm1.5 0h.75v1.496h-.75Zm1.5 0h.75v1.496h-.75Zm1.5 0h.75v1.496h-.75Zm1.5 0h.75v1.496h-.75Zm1.5 0h.75v1.496h-.75Zm1.5 0h.75v1.496h-.75Zm1.5 0h.75v1.496h-.75Zm1.5 0h.75v1.496h-.75Zm1.5 0h.75v1.496h-.75Zm1.5 0h.75v1.496h-.75Zm1.5 0h.75v1.496h-.75Zm1.5 0h.75v1.496h-.75Zm1.5 0h.75v1.496h-.75Zm1.5 0h.75v1.496h-.75Zm1.5 0h.75v1.496h-.75Zm1.5 0h.75v1.496h-.75Zm1.5 0h.75v1.496h-.75Zm1.5 0h.75v1.496h-.75Zm1.5 0h.75v1.496h-.75Zm1.5 0h.75v1.496h-.75Zm1.5 0h.75v1.496h-.75Zm1.5 0h.75v1.496h-.75Zm1.5 0h.75v1.496h-.75Zm1.5 0h.75v1.496h-.75Zm1.5 0h.75v1.496h-.75Zm1.5 0h.75v1.496h-.75Zm1.5 0h.75v1.496h-.75Zm1.5 0h.75v1.496h-.75Zm1.5 0h.75v1.496h-.75Zm1.5 0h.75v1.496h-.75Zm1.5 0h.746v1.496h-.746Zm1.496 0h.75v1.496h-.75Zm1.5 0h.75v1.496h-.75Zm1.5 0h.75v1.496h-.75Zm1.5 0h.75v1.496h-.75Zm1.5 0h.75v1.496h-.75Zm1.5 0h.75v1.496h-.75Zm1.5 0h.75v1.496h-.75Zm1.5 0h.75v1.496h-.75Zm1.5 0h.75v1.496h-.75Zm1.5 0h.75v1.496h-.75Zm1.5 0h.75v1.496h-.75Zm1.5 0h.75v1.496h-.75Zm1.5 0h.75v1.496h-.75Zm2.222.774v.75h-1.5v-.75Zm0 1.496v.75h-1.5v-.75Zm0 1.496v.75h-1.5v-.75Zm0 1.496v.75h-1.5v-.75Zm0 1.496v.75h-1.5v-.75Zm0 1.496v.75h-1.5v-.75Zm0 1.496v.75h-1.5v-.75Zm0 1.496v.75h-1.5v-.75Zm0 1.497v.75h-1.5v-.75Zm0 1.496v.75h-1.5v-.75Zm0 1.496v.75h-1.5v-.75Zm0 1.496v.75h-1.5v-.75Zm0 1.5v.746h-1.5v-.746Zm0 1.496v.746h-1.5v-.746Zm0 1.496v.746h-1.5v-.746Zm0 1.496v.746h-1.5v-.746Zm0 1.496v.746h-1.5v-.746Zm0 1.496v.746h-1.5v-.746Zm0 1.496v.746h-1.5v-.746Zm0 1.496v.747h-1.5v-.747Zm0 1.497v.746h-1.5v-.746Zm0 1.496v.746h-1.5v-.746Zm0 1.496v.746h-1.5v-.746Zm0 1.496v.746h-1.5v-.746Zm0 1.496v.75h-1.5v-.75Zm0 1.496v.75h-1.5v-.75Zm0 1.496v.75h-1.5v-.75Zm0 1.496v.75h-1.5v-.75Zm0 1.496v.75h-1.5v-.75Zm0 1.496v.75h-1.5v-.75Zm0 1.496v.75h-1.5v-.75Zm0 1.497v.75h-1.5v-.75Zm0 1.496v.75h-1.5v-.75Zm0 1.496v.75h-1.5v-.75Zm0 1.496v.75h-1.5v-.75Zm0 1.496v.75h-1.5v-.75Zm0 1.496v.75h-1.5v-.75Zm0 1.496v.75h-1.5v-.75Zm0 1.5v.746h-1.5v-.746Zm0 1.496v.746h-1.5v-.746Zm0 1.496v.746h-1.5v-.746Zm0 1.496v.747h-1.5v-.747Zm0 1.497v.746h-1.5v-.747Zm0 1.496v.746h-1.5v-.746Zm0 1.496v.746h-1.5v-.746Zm0 1.496v.746h-1.5v-.746Zm0 1.496v.746h-1.5v-.746Zm0 1.496v.746h-1.5v-.746Zm0 1.496v.746h-1.5v-.746Zm0 1.496v.746h-1.5v-.746Zm0 1.496v.75h-1.5v-.75Zm0 1.496v.75h-1.5v-.75Zm0 1.496v.75h-1.5v-.75Zm0 1.497v.75h-1.5v-.75Zm0 1.496v.75h-1.5v-.75Zm0 1.496v.75h-1.5v-.75Zm0 1.496v.75h-1.5v-.75Zm0 1.496v.75h-1.5v-.75Zm0 1.496v.75h-1.5v-.75Zm0 1.496v.75h-1.5v-.75Zm0 1.496v.75h-1.5v-.75Zm0 1.496v.75h-1.5v-.75Zm0 1.496v.75h-1.5v-.75Zm0 1.496v.75h-1.5v-.75Zm0 1.5v.747h-1.5v-.747Zm0 1.497v.746h-1.5v-.746Zm0 1.496v.746h-1.5v-.746Zm0 1.496v.746h-1.5v-.746Zm0 1.496v.746h-1.5v-.746Zm-1.27 1.726h-.75v-1.496h.75Zm-1.5 0h-.75v-1.496h.75Zm-1.5 0h-.75v-1.496h.75Zm-1.5 0h-.75v-1.496h.75Zm-1.5 0h-.75v-1.496h.75Zm-1.5 0h-.75v-1.496h.75Zm-1.5 0h-.75v-1.496h.75Zm-1.5 0h-.75v-1.496h.75Zm-1.5 0h-.75v-1.496h.75Zm-1.5 0h-.75v-1.496h.75Zm-1.5 0h-.75v-1.496h.75Zm-1.5 0h-.75v-1.496h.75Zm-1.5 0h-.75v-1.496h.75Zm-1.5 0h-.75v-1.496h.75Zm-1.5 0h-.75v-1.496h.75Zm-1.5 0h-.75v-1.496h.75Zm-1.5 0h-.75v-1.496h.75Zm-1.5 0h-.75v-1.496h.75Zm-1.5 0h-.75v-1.496h.75Zm-1.5 0h-.75v-1.496h.75Zm-1.5 0h-.75v-1.496h.75Zm-1.5 0h-.75v-1.496h.75Zm-1.5 0h-.75v-1.496h.75Zm-1.5 0h-.75v-1.496h.75Zm-1.5 0h-.75v-1.496h.75Zm-1.5 0h-.75v-1.496h.75Zm-1.5 0h-.75v-1.496h.75Zm-1.5 0h-.75v-1.496h.75Zm-1.5 0h-.75v-1.496h.75Zm-1.5 0h-.75v-1.496h.75Zm-1.5 0h-.75v-1.496h.75Zm-1.5 0h-.75v-1.496h.75Zm-1.5 0h-.75v-1.496h.75Zm-1.5 0h-.75v-1.496h.75Zm-1.5 0h-.75v-1.496h.75Zm-1.5 0h-.75v-1.496h.75Zm-1.5 0h-.75v-1.496h.75Zm-1.5 0h-.75v-1.496h.75Zm-1.5 0h-.75v-1.496h.75Zm-1.5 0h-.75v-1.496h.75Zm-1.5 0h-.75v-1.496h.75Zm-1.5 0h-.75v-1.496h.75Zm-1.5 0h-.75v-1.496h.75Zm-1.5 0h-.75v-1.496h.75Zm-1.5 0h-.75v-1.496h.75Zm-1.5 0h-.75v-1.496h.75Zm-1.5 0h-.75v-1.496h.75Zm-1.5 0h-.75v-1.496h.75Zm-1.5 0h-.75v-1.496h.75Zm-1.5 0h-.75v-1.496h.75Zm-1.5 0h-.75v-1.496h.75Zm-1.5 0h-.75v-1.496h.75Zm-1.5 0h-.75v-1.496h.75Zm-1.5 0h-.75v-1.496h.75Zm-1.5 0h-.75v-1.496h.75Zm-1.5 0h-.75v-1.496h.75Zm-1.5 0h-.75v-1.496h.75Zm-1.5 0h-.75v-1.496h.75Zm-1.5 0h-.75v-1.496h.75Zm-1.5 0h-.75v-1.496h.75Zm-1.5 0h-.75v-1.496h.75Zm-1.5 0h-.75v-1.496h.75Zm-1.5 0h-.75v-1.496h.75Zm-1.5 0h-.75v-1.496h.75Zm-1.5 0h-.75v-1.496h.75Zm-1.5 0h-.75v-1.496h.75Zm-1.5 0h-.75v-1.496h.75Zm-1.5 0h-.75v-1.496h.75Zm-1.5 0h-.75v-1.496h.75Zm-1.5 0h-.75v-1.496h.75Zm-1.5 0h-.75v-1.496h.75Zm-1.5 0h-.75v-1.496h.75Zm-1.5 0h-.75v-1.496h.75Zm-1.5 0h-.75v-1.496h.75Zm-1.5 0h-.75v-1.496h.75Zm-1.5 0h-.75v-1.496h.75Zm-1.5 0h-.75v-1.496h.75Zm-1.5 0h-.75v-1.496h.75Zm-1.5 0h-.75v-1.496h.75Zm-1.5 0h-.75v-1.496h.75Zm-1.5 0h-.75v-1.496h.75Zm-1.5 0h-.75v-1.496h.75Zm-1.5 0h-.75v-1.496h.75Zm-1.5 0h-.75v-1.496h.75Zm-1.5 0h-.75v-1.496h.75Zm-1.5 0h-.75v-1.496h.75Zm-1.5 0h-.75v-1.496h.75Zm-1.5 0h-.75v-1.496h.75Zm-1.5 0h-.75v-1.496h.75Zm-1.5 0h-.75v-1.496h.75Zm-1.5 0h-.75v-1.496h.75Zm-1.5 0h-.75v-1.496h.75Zm-1.5 0h-.75v-1.496h.75Zm-1.5 0h-.75v-1.496h.75Zm-1.5 0h-.75v-1.496h.75Zm-1.5 0h-.75v-1.496h.75Zm-1.5 0h-.75v-1.496h.75Zm-1.5 0h-.75v-1.496h.75Zm-1.5 0h-.75v-1.496h.75Zm-1.5 0h-.75v-1.496h.75Zm-1.5 0h-.75v-1.496h.75Zm-1.5 0h-.75v-1.496h.75Zm-1.5 0h-.75v-1.496h.75Zm-1.5 0h-.75v-1.496h.75Zm-1.5 0h-.75v-1.496h.75Zm-1.5 0h-.75v-1.496h.75Zm-1.5 0h-.75v-1.496h.75Zm-1.5 0h-.75v-1.496h.75Zm-1.5 0h-.75v-1.496h.75Zm-1.5 0h-.75v-1.496h.75Zm-1.5 0h-.75v-1.496h.75Zm-1.5 0h-.75v-1.496h.75Zm-1.5 0h-.75v-1.496h.75Zm-1.5 0h-.75v-1.496h.75Zm-1.5 0h-.75v-1.496h.75Zm-1.5 0h-.75v-1.496h.75Zm-1.5 0h-.75v-1.496h.75Zm-1.5 0h-.75v-1.496h.75Zm-1.5 0h-.75v-1.496h.75Zm-1.5 0h-.75v-1.496h.75Zm-1.5 0h-.75v-1.496h.75Zm-1.5 0h-.75v-1.496h.75Zm-1.5 0h-.75v-1.496h.75Zm-1.5 0h-.75v-1.496h.75Zm-1.5 0h-.75v-1.496h.75Zm-1.5 0h-.75v-1.496h.75Zm-1.5 0h-.75v-1.496h.75Zm-1.5 0h-.75v-1.496h.75Zm-1.5 0h-.75v-1.496h.75Zm-1.5 0h-.75v-1.496h.75Zm-1.5 0h-.75v-1.496h.75Zm-1.5 0h-.75v-1.496h.75Zm-1.5 0h-.75v-1.496h.75Zm-1.5 0h-.75v-1.496h.75Zm-1.5 0h-.75v-1.496h.75Zm-1.5 0h-.75v-1.496h.75Zm-1.5 0h-.75v-1.496h.75Zm-1.5 0h-.75v-1.496h.75Zm-1.5 0h-.75v-1.496h.75Zm-1.5 0h-.75v-1.496h.75Zm-1.5 0h-.75v-1.496h.75Zm-1.5 0h-.75v-1.496h.75Zm-1.5 0h-.75v-1.496h.75Zm-1.5 0h-.75v-1.496h.75Zm-1.5 0h-.75v-1.496h.75Zm-1.5 0h-.75v-1.496h.75Zm-1.5 0h-.75v-1.496h.75Zm-1.5 0h-.75v-1.496h.75Zm-1.5 0h-.75v-1.496h.75Zm-1.5 0h-.75v-1.496h.75Zm-1.5 0h-.75v-1.496h.75Zm-1.5 0h-.75v-1.496h.75Zm-1.5 0h-.75v-1.496h.75Zm-1.5 0h-.75v-1.496h.75Zm-1.5 0h-.75v-1.496h.75Zm-1.5 0h-.75v-1.496h.75Zm-1.5 0h-.75v-1.496h.75Zm-1.5 0h-.75v-1.496h.75Zm-1.5 0h-.75v-1.496h.75Zm-1.5 0h-.75v-1.496h.75Zm-1.5 0h-.75v-1.496h.75Zm-1.5 0h-.75v-1.496h.75Zm-1.5 0h-.75v-1.496h.75Zm-1.5 0h-.75v-1.496h.75Zm-1.5 0h-.75v-1.496h.75Zm-1.5 0h-.75v-1.496h.75Zm-1.5 0h-.75v-1.496h.75Zm-1.5 0h-.75v-1.496h.75Zm-1.5 0h-.75v-1.496h.75Zm-1.5 0h-.75v-1.496h.75Zm-1.5 0h-.75v-1.496h.75Zm-1.5 0h-.75v-1.496h.75Zm-1.5 0h-.75v-1.496h.75Zm-1.5 0h-.75v-1.496h.75Zm-1.5 0h-.75v-1.496h.75Zm-1.5 0h-.75v-1.496h.75Zm-1.5 0h-.75v-1.496h.75Zm-1.5 0h-.75v-1.496h.75Zm-1.5 0h-.75v-1.496h.75Zm-1.5 0h-.75v-1.496h.75Zm-1.5 0h-.75v-1.496h.75Zm-1.5 0h-.75v-1.496h.75Zm-1.5 0h-.75v-1.496h.75Zm-1.5 0h-.75v-1.496h.75Zm-1.5 0h-.75v-1.496h.75Zm-1.5 0h-.75v-1.496h.75Zm-1.5 0h-.75v-1.496h.75Zm-1.5 0h-.75v-1.496h.75Zm-1.5 0h-.75v-1.496h.75Zm-1.5 0h-.75v-1.496h.75Zm-1.5 0h-.75v-1.496h.75Zm-1.5 0h-.75v-1.496h.75Zm-1.5 0h-.75v-1.496h.75Zm-1.5 0h-.75v-1.496h.75Zm-1.5 0h-.75v-1.496h.75Zm-1.5 0h-.75v-1.496h.75Zm-1.5 0h-.75v-1.496h.75Zm-1.5 0h-.75v-1.496h.75Zm-1.5 0h-.75v-1.496h.75Zm-1.5 0h-.75v-1.496h.75Zm-1.5 0h-.75v-1.496h.75Zm-1.5 0h-.75v-1.496h.75Zm-1.5 0h-.75v-1.496h.75Zm-1.5 0h-.75v-1.496h.75Zm-1.5 0h-.75v-1.496h.75Zm-1.5 0h-.75v-1.496h.75Zm-1.5 0h-.75v-1.496h.75Zm-1.5 0h-.75v-1.496h.75Zm-1.5 0h-.75v-1.496h.75Zm-1.5 0h-.75v-1.496h.75Zm-1.5 0h-.75v-1.496h.75Zm-1.5 0h-.75v-1.496h.75Zm-1.5 0h-.75v-1.496h.75Zm-1.5 0h-.75v-1.496h.75Zm-1.5 0h-.75v-1.496h.75Zm-1.5 0h-.75v-1.496h.75Zm-1.5 0h-.75v-1.496h.75Zm-1.5 0h-.75v-1.496h.75Zm-1.5 0h-.75v-1.496h.75Zm-1.5 0h-.75v-1.496h.75Zm-1.5 0h-.75v-1.496h.75Zm-1.5 0h-.75v-1.496h.75Zm-1.5 0h-.75v-1.496h.75Zm-1.5 0h-.75v-1.496h.75Zm-1.5 0h-.75v-1.496h.75Zm-1.698-1.296v-.747h1.5v.747Zm0-1.497v-.746h1.5v.746Zm0-1.496v-.746h1.5v.746Zm0-1.496v-.746h1.5v.746Zm0-1.496v-.746h1.5v.746Zm0-1.496v-.746h1.5v.746Zm0-1.496v-.746h1.5v.746Zm0-1.496v-.746h1.5v.746Zm0-1.496v-.746h1.5v.746Zm0-1.496v-.75h1.5v.75Zm0-1.496v-.75h1.5v.75Zm0-1.497v-.75h1.5v.75Zm0-1.496v-.75h1.5v.75Zm0-1.496v-.75h1.5v.75Zm0-1.496v-.75h1.5v.75Zm0-1.496v-.75h1.5v.75Zm0-1.496v-.75h1.5v.75Zm0-1.496v-.75h1.5v.75Zm0-1.496v-.75h1.5v.75Zm0-1.496v-.75h1.5v.75Zm0-1.496v-.75h1.5v.75Zm0-1.496v-.75h1.5v.75Zm0-1.497v-.75h1.5v.75Zm0-1.5v-.746h1.5v.746Zm0-1.496v-.746h1.5v.746Zm0-1.496v-.746h1.5v.746Zm0-1.496v-.746h1.5v.746Zm0-1.496v-.746h1.5v.746Zm0-1.496v-.746h1.5v.746Zm0-1.496v-.746h1.5v.746Zm0-1.496v-.746h1.5v.746Zm0-1.496v-.746h1.5v.746Zm0-1.496v-.746h1.5v.746Zm0-1.496v-.747h1.5v.747Zm0-1.497v-.746h1.5v.746Zm0-1.496v-.75h1.5v.75Zm0-1.496v-.75h1.5v.75Zm0-1.496v-.75h1.5v.75Zm0-1.496v-.75h1.5v.75Zm0-1.496v-.75h1.5v.75Zm0-1.496v-.75h1.5v.75Zm0-1.496v-.75h1.5v.75Zm0-1.496v-.75h1.5v.75Zm0-1.496v-.75h1.5v.75Zm0-1.497v-.75h1.5v.75Zm0-1.496v-.75h1.5v.75Zm0-1.496v-.75h1.5v.75Zm0-1.496v-.75h1.5v.75Zm0-1.5v-.746h1.5v.746Zm0-1.496v-.746h1.5v.746Zm0-1.496v-.746h1.5v.746Zm0-1.496v-.746h1.5v.746Zm0-1.496v-.746h1.5v.746Zm0-1.496v-.746h1.5v.746Zm0-1.496v-.746h1.5v.746Zm0-1.496v-.747h1.5v.747Zm0-1.497v-.746h1.5v.746Zm0-1.496v-.746h1.5v.746Zm0-1.496v-.746h1.5v.746Zm0-1.496v-.746h1.5v.746Zm0-1.496V359h1.5v.746Zm0-1.496v-.75h1.5v.75Zm0-1.496v-.75h1.5v.75Zm0-1.496v-.75h1.5v.75Zm0-1.496v-.75h1.5v.75Zm0-1.496v-.75h1.5v.75Zm0-1.496v-.75h1.5v.75Zm0-1.497v-.75h1.5v.75Zm0-1.496v-.46h1.5v.46Zm0 0"/>
  </g>
  <path d="M96.566 388.426c1.407 0 2.61.25 3.61.75 1.008.5 1.773 1.219 2.297 2.156.53.938.797 2.04.797 3.297 0 1.274-.266 2.371-.797 3.297-.524.93-1.29 1.648-2.297 2.156-1 .5-2.203.75-3.61.75h-4.89v7.985H89.27v-20.391Zm-.062 10.36c2.832 0 4.25-1.383 4.25-4.157 0-2.781-1.418-4.172-4.25-4.172h-4.828v8.328ZM111.123 409.113c-1.511 0-2.695-.394-3.547-1.187-.855-.79-1.28-1.922-1.28-3.39 0-.907.187-1.673.562-2.298.383-.632.968-1.148 1.75-1.546.789-.395 1.828-.696 3.11-.907 1.112-.187 1.956-.394 2.53-.625.582-.238.973-.5 1.172-.78.207-.29.313-.657.313-1.095 0-.695-.242-1.234-.719-1.609-.48-.375-1.25-.563-2.313-.563-1 0-1.855.2-2.562.594-.711.387-1.36.961-1.953 1.719h-.281l-1.11-1.578c.645-.832 1.469-1.488 2.469-1.969 1.008-.488 2.156-.734 3.437-.734 1.813 0 3.145.398 4 1.187.864.793 1.297 1.89 1.297 3.297v8.156c0 .856.364 1.282 1.094 1.282.238 0 .469-.04.688-.125l.203.062.265 1.578c-.168.117-.39.2-.672.25a3.775 3.775 0 0 1-.843.094c-.844 0-1.485-.18-1.922-.547-.43-.375-.7-.926-.813-1.656l-.297-.031c-.437.812-1.03 1.421-1.78 1.828-.743.394-1.673.593-2.798.593Zm.5-1.812c.852 0 1.594-.195 2.22-.594.632-.394 1.116-.953 1.452-1.672.332-.718.5-1.547.5-2.484v-1.953l-.265-.047a4.839 4.839 0 0 1-1.25.61c-.493.156-1.18.304-2.063.437-.898.117-1.61.297-2.14.547-.524.25-.899.574-1.126.968-.218.387-.328.86-.328 1.422 0 .907.266 1.594.797 2.063.531.469 1.266.703 2.203.703ZM128.612 415.348c-2.43 0-4.199-.406-5.312-1.219-1.117-.812-1.672-1.887-1.672-3.219 0-.867.258-1.554.781-2.062.52-.508 1.274-.88 2.266-1.11v-.28c-.469-.27-.824-.587-1.063-.954-.242-.363-.36-.797-.36-1.297 0-.594.188-1.078.563-1.453.383-.375.946-.656 1.688-.844v-.297c-1.68-.882-2.516-2.32-2.516-4.312 0-1 .227-1.89.688-2.672.457-.781 1.11-1.39 1.953-1.828.844-.438 1.828-.656 2.953-.656 1.29 0 2.367.281 3.234.843.332-.363.579-.75.735-1.156.164-.414.27-.883.312-1.406l.297-.188 1.875.454c-.094.78-.336 1.445-.719 1.984-.375.531-.906.977-1.593 1.328v.297c.5.398.863.855 1.093 1.375.239.523.36 1.133.36 1.828 0 .969-.235 1.84-.703 2.61-.461.773-1.118 1.382-1.97 1.828-.843.437-1.82.656-2.921.656-.125 0-.355-.008-.687-.031-.375-.008-.653-.016-.829-.016-.492 0-.882.125-1.171.375-.282.25-.422.57-.422.953 0 .492.156.852.468 1.078.313.219.829.344 1.547.375l3.64.125c1.563.063 2.724.434 3.485 1.11.758.668 1.14 1.617 1.14 2.859 0 .914-.25 1.742-.75 2.484-.491.739-1.273 1.328-2.343 1.766-1.062.445-2.414.672-4.047.672Zm-.031-13.703c1.094 0 1.938-.282 2.531-.844.594-.57.89-1.367.89-2.39 0-1.063-.296-1.88-.89-2.454-.586-.57-1.43-.86-2.531-.86-1.094 0-1.934.29-2.516.86-.574.563-.859 1.383-.859 2.453 0 1.032.285 1.828.86 2.391.581.562 1.421.844 2.515.844Zm.031 11.75c1.133 0 2.063-.125 2.782-.375.718-.25 1.234-.586 1.546-1 .32-.418.485-.883.485-1.39 0-.462-.09-.829-.266-1.11-.168-.274-.445-.48-.828-.625-.375-.133-.898-.223-1.562-.266l-3.438-.156h-.484c-1.93.023-2.891.765-2.891 2.234 0 1.79 1.55 2.688 4.656 2.688ZM151.104 401.645h-10.562c.062 1.875.507 3.25 1.343 4.125.832.867 1.973 1.297 3.422 1.297 1.094 0 1.973-.192 2.64-.579.677-.394 1.204-1.007 1.579-1.843h.297l1.484.875a5.541 5.541 0 0 1-2.156 2.64c-.98.637-2.262.953-3.844.953-1.492 0-2.773-.293-3.844-.875-1.062-.593-1.886-1.484-2.468-2.671-.575-1.188-.86-2.664-.86-4.438 0-1.75.301-3.223.907-4.422.613-1.195 1.445-2.086 2.5-2.672 1.062-.593 2.27-.89 3.625-.89 1.968 0 3.503.558 4.609 1.672 1.113 1.105 1.672 2.75 1.672 4.937 0 .856-.016 1.434-.047 1.734Zm-1.89-1.89c-.044-1.634-.407-2.821-1.094-3.563-.688-.75-1.672-1.125-2.953-1.125-1.356 0-2.418.375-3.188 1.125-.762.75-1.226 1.937-1.39 3.562ZM174.91 388.426v1.984h-9.579v7.422h8.61v1.985h-8.61v9h-2.406v-20.391ZM184.837 409.113c-1.45 0-2.711-.304-3.781-.921-1.075-.614-1.903-1.516-2.485-2.704-.586-1.195-.875-2.648-.875-4.359 0-1.695.29-3.144.875-4.344.582-1.195 1.41-2.101 2.485-2.718 1.07-.614 2.332-.922 3.78-.922 1.446 0 2.708.308 3.782.922 1.07.617 1.899 1.523 2.484 2.718.583 1.2.875 2.649.875 4.344 0 1.711-.292 3.164-.875 4.36-.585 1.187-1.414 2.09-2.484 2.703-1.074.617-2.336.921-3.781.921Zm0-2.046c1.531 0 2.703-.477 3.515-1.438.813-.969 1.22-2.469 1.22-4.5s-.407-3.531-1.22-4.5c-.812-.969-1.984-1.453-3.515-1.453-1.531 0-2.711.492-3.531 1.469-.813.968-1.22 2.465-1.22 4.484 0 2.031.407 3.531 1.22 4.5.82.961 2 1.438 3.53 1.438ZM202.49 409.113c-1.448 0-2.71-.304-3.78-.921-1.075-.614-1.903-1.516-2.485-2.704-.586-1.195-.875-2.648-.875-4.359 0-1.695.29-3.144.875-4.344.582-1.195 1.41-2.101 2.485-2.718 1.07-.614 2.332-.922 3.78-.922 1.446 0 2.708.308 3.782.922 1.07.617 1.898 1.523 2.484 2.718.582 1.2.875 2.649.875 4.344 0 1.711-.293 3.164-.875 4.36-.586 1.187-1.414 2.09-2.484 2.703-1.074.617-2.336.921-3.781.921Zm0-2.046c1.532 0 2.704-.477 3.516-1.438.813-.969 1.22-2.469 1.22-4.5s-.407-3.531-1.22-4.5c-.812-.969-1.984-1.453-3.515-1.453-1.531 0-2.711.492-3.531 1.469-.813.968-1.22 2.465-1.22 4.484 0 2.031.407 3.531 1.22 4.5.82.961 2 1.438 3.53 1.438ZM221.723 406.38l.719 1.624c-.368.367-.844.64-1.438.828a6.211 6.211 0 0 1-1.906.281c-2.938 0-4.406-1.488-4.406-4.468v-9.36h-2.672v-1.859h2.672v-3.25l2.265-.375v3.625h4.953v1.86h-4.953v9.14c0 1.762.77 2.64 2.313 2.64.832 0 1.55-.226 2.156-.687ZM237.686 401.645h-10.562c.062 1.875.508 3.25 1.344 4.125.832.867 1.972 1.297 3.421 1.297 1.094 0 1.973-.192 2.641-.579.676-.394 1.203-1.007 1.578-1.843h.297l1.484.875a5.541 5.541 0 0 1-2.156 2.64c-.98.637-2.262.953-3.844.953-1.492 0-2.773-.293-3.843-.875-1.063-.593-1.887-1.484-2.47-2.671-.573-1.188-.858-2.664-.858-4.438 0-1.75.3-3.223.906-4.422.613-1.195 1.445-2.086 2.5-2.672 1.062-.593 2.27-.89 3.625-.89 1.969 0 3.504.558 4.61 1.672 1.112 1.105 1.671 2.75 1.671 4.937 0 .856-.016 1.434-.047 1.734Zm-1.89-1.89c-.043-1.634-.407-2.821-1.094-3.563-.688-.75-1.672-1.125-2.953-1.125-1.356 0-2.418.375-3.188 1.125-.761.75-1.226 1.937-1.39 3.562ZM242.1 408.817v-15.391h2.173v2.422l.28.062c.72-1.738 2.067-2.609 4.048-2.609 1.05 0 1.836.187 2.36.562l-.579 1.922-.281.063a4.244 4.244 0 0 0-1.906-.438c-1.22 0-2.165.465-2.829 1.391-.656.918-.984 2.406-.984 4.469v7.547Zm0 0"/>
  <g clip-path="url(#f)">
    <path fill="#fff" d="M51.508 210.445h234.844v77.344H51.508Zm0 0"/>
  </g>
  <g clip-path="url(#g)">
    <path d="M51.52 209.695h.753v1.496h-.753Zm1.503 0h.75v1.496h-.75Zm1.5 0h.754v1.496h-.754Zm1.504 0h.75v1.496h-.75Zm1.5 0h.75v1.496h-.75Zm1.504 0h.75v1.496h-.75Zm1.5 0h.75v1.496h-.75Zm1.504 0h.75v1.496h-.75Zm1.5 0h.75v1.496h-.75Zm1.5 0h.754v1.496h-.754Zm1.504 0h.75v1.496h-.75Zm1.5 0h.754v1.496h-.754Zm1.504 0h.75v1.496h-.75Zm1.5 0h.75v1.496h-.75Zm1.504 0h.75v1.496h-.75Zm1.5 0h.75v1.496h-.75Zm1.5 0h.754v1.496h-.754Zm1.504 0h.75v1.496h-.75Zm1.5 0h.754v1.496h-.754Zm1.504 0h.75v1.496h-.75Zm1.5 0h.75v1.496h-.75Zm1.504 0h.75v1.496h-.75Zm1.5 0h.75v1.496h-.75Zm1.504 0h.75v1.496h-.75Zm1.5 0h.75v1.496h-.75Zm1.5 0h.753v1.496h-.754Zm1.503 0h.75v1.496h-.75Zm1.5 0h.754v1.496h-.754Zm1.504 0h.75v1.496h-.75Zm1.5 0h.75v1.496h-.75Zm1.504 0h.75v1.496h-.75Zm1.5 0h.75v1.496h-.75Zm1.504 0h.75v1.496h-.75Zm1.5 0h.75v1.496h-.75Zm1.5 0h.754v1.496h-.754Zm1.504 0h.75v1.496h-.75Zm1.5 0h.754v1.496h-.754Zm1.504 0h.75v1.496h-.75Zm1.5 0h.75v1.496h-.75Zm1.504 0h.75v1.496h-.75Zm1.5 0h.75v1.496h-.75Zm1.504 0h.75v1.496h-.75Zm1.5 0h.75v1.496h-.75Zm1.5 0h.754v1.496h-.754Zm1.504 0h.75v1.496h-.75Zm1.5 0h.754v1.496h-.754Zm1.504 0h.75v1.496h-.75Zm1.5 0h.75v1.496h-.75Zm1.503 0h.75v1.496h-.75Zm1.5 0h.75v1.496h-.75Zm1.5 0h.754v1.496h-.754Zm1.504 0h.75v1.496h-.75Zm1.5 0h.754v1.496h-.754Zm1.504 0h.75v1.496h-.75Zm1.5 0h.75v1.496h-.75Zm1.504 0h.75v1.496h-.75Zm1.5 0h.75v1.496h-.75Zm1.504 0h.75v1.496h-.75Zm1.5 0h.75v1.496h-.75Zm1.5 0h.754v1.496h-.754Zm1.504 0h.75v1.496h-.75Zm1.5 0h.754v1.496h-.754Zm1.504 0h.75v1.496h-.75Zm1.5 0h.75v1.496h-.75Zm1.504 0h.75v1.496h-.75Zm1.5 0h.75v1.496h-.75Zm1.504 0h.75v1.496h-.75Zm1.5 0h.75v1.496h-.75Zm1.5 0h.754v1.496h-.754Zm1.504 0h.75v1.496h-.75Zm1.5 0h.754v1.496h-.754Zm1.504 0h.75v1.496h-.75Zm1.5 0h.75v1.496h-.75Zm1.503 0h.75v1.496h-.75Zm1.5 0h.75v1.496h-.75Zm1.504 0h.75v1.496h-.75Zm1.5 0h.75v1.496h-.75Zm1.5 0h.754v1.496h-.754Zm1.504 0h.75v1.496h-.75Zm1.5 0h.754v1.496h-.754Zm1.504 0h.75v1.496h-.75Zm1.5 0h.75v1.496h-.75Zm1.504 0h.75v1.496h-.75Zm1.5 0h.75v1.496h-.75Zm1.504 0h.75v1.496h-.75Zm1.5 0h.75v1.496h-.75Zm1.5 0h.754v1.496h-.754Zm1.504 0h.75v1.496h-.75Zm1.5 0h.75v1.496h-.75Zm1.504 0h.75v1.496h-.75Zm1.5 0h.75v1.496h-.75Zm1.504 0h.75v1.496h-.75Zm1.5 0h.75v1.496h-.75Zm1.5 0h.754v1.496h-.754Zm1.504 0h.75v1.496h-.75Zm1.5 0h.754v1.496h-.754Zm1.504 0h.75v1.496h-.75Zm1.5 0h.75v1.496h-.75Zm1.503 0h.75v1.496h-.75Zm1.5 0h.75v1.496h-.75Zm1.504 0h.75v1.496h-.75Zm1.5 0h.75v1.496h-.75Zm1.5 0h.754v1.496h-.754Zm1.504 0h.75v1.496h-.75Zm1.5 0h.754v1.496h-.754Zm1.504 0h.75v1.496h-.75Zm1.5 0h.75v1.496h-.75Zm1.504 0h.75v1.496h-.75Zm1.5 0h.75v1.496h-.75Zm1.504 0h.75v1.496h-.75Zm1.5 0h.75v1.496h-.75Zm1.5 0h.754v1.496h-.754Zm1.504 0h.75v1.496h-.75Zm1.5 0h.754v1.496h-.754Zm1.504 0h.75v1.496h-.75Zm1.5 0h.75v1.496h-.75Zm1.504 0h.75v1.496h-.75Zm1.5 0h.75v1.496h-.75Zm1.504 0h.75v1.496h-.75Zm1.5 0h.75v1.496h-.75Zm1.5 0h.753v1.496h-.753Zm1.503 0h.75v1.496h-.75Zm1.5 0h.75v1.496h-.75Zm1.504 0h.75v1.496h-.75Zm1.5 0h.75v1.496h-.75Zm1.504 0h.75v1.496h-.75Zm1.5 0h.75v1.496h-.75Zm1.5 0h.754v1.496h-.754Zm1.504 0h.75v1.496h-.75Zm1.5 0h.754v1.496h-.754Zm1.504 0h.75v1.496h-.75Zm1.5 0h.75v1.496h-.75Zm1.504 0h.75v1.496h-.75Zm1.5 0h.75v1.496h-.75Zm1.504 0h.75v1.496h-.75Zm1.5 0h.75v1.496h-.75Zm1.5 0h.754v1.496h-.754Zm1.504 0h.75v1.496h-.75Zm1.5 0h.754v1.496h-.754Zm1.504 0h.75v1.496h-.75Zm1.5 0h.75v1.496h-.75Zm1.504 0h.75v1.496h-.75Zm1.5 0h.75v1.496h-.75Zm1.504 0h.75v1.496h-.75Zm1.5 0h.75v1.496h-.75Zm1.5 0h.753v1.496h-.753Zm1.503 0h.75v1.496h-.75Zm1.5 0h.754v1.496h-.754Zm1.504 0h.75v1.496h-.75Zm1.5 0h.75v1.496h-.75Zm1.504 0h.75v1.496h-.75Zm1.5 0h.75v1.496h-.75Zm1.504 0h.75v1.496h-.75Zm1.5 0h.75v1.496h-.75Zm1.5 0h.754v1.496h-.754Zm1.504 0h.75v1.496h-.75Zm1.5 0h1.207v1.043h-1.504v-.293h.754v.746h-.457Zm1.207 1.79v.745h-1.504v-.746Zm0 1.492v.746h-1.504v-.746Zm0 1.492v.746h-1.504v-.746Zm0 1.496v.746h-1.504v-.746Zm0 1.492v.746h-1.504v-.746Zm0 1.492v.746h-1.504v-.746Zm0 1.492v.746h-1.504v-.746Zm0 1.493v.746h-1.504v-.746Zm0 1.496v.746h-1.504v-.746Zm0 1.492v.746h-1.504v-.746Zm0 1.492v.746h-1.504v-.746Zm0 1.492v.746h-1.504v-.746Zm0 1.492v.747h-1.504v-.747Zm0 1.493v.75h-1.504v-.75Zm0 1.496v.746h-1.504v-.746Zm0 1.492v.746h-1.504v-.746Zm0 1.492v.746h-1.504v-.746Zm0 1.492v.746h-1.504v-.746Zm0 1.492v.747h-1.504v-.747Zm0 1.497v.746h-1.504v-.746Zm0 1.492v.746h-1.504v-.746Zm0 1.492v.746h-1.504v-.746Zm0 1.492v.746h-1.504v-.746Zm0 1.492v.746h-1.504v-.746Zm0 1.493v.75h-1.504v-.75Zm0 1.496v.746h-1.504v-.746Zm0 1.492v.746h-1.504v-.746Zm0 1.492v.746h-1.504v-.746Zm0 1.492v.746h-1.504v-.746Zm0 1.492v.746h-1.504v-.746Zm0 1.496v.747h-1.504v-.747Zm0 1.493v.746h-1.504v-.746Zm0 1.492v.746h-1.504v-.746Zm0 1.492v.746h-1.504v-.746Zm0 1.492v.746h-1.504v-.746Zm0 1.492v.75h-1.504v-.75Zm0 1.496v.747h-1.504v-.747Zm0 1.493v.746h-1.504v-.746Zm0 1.492v.746h-1.504v-.746Zm0 1.492v.746h-1.504v-.746Zm0 1.492v.75h-1.504v-.75Zm0 1.496v.746h-1.504v-.746Zm0 1.493v.746h-1.504v-.747Zm0 1.492v.746h-1.504v-.746Zm0 1.492v.746h-1.504v-.746Zm0 1.492v.746h-1.504v-.746Zm0 1.496v.746h-1.504v-.746Zm0 1.492v.746h-1.504v-.746Zm0 1.493v.746h-1.504v-.746Zm0 1.492v.746h-1.504v-.746Zm0 1.492v.746h-1.504v-.746Zm-1.433 1.562h-.75v-1.496h.75Zm-1.504 0h-.75v-1.496h.75Zm-1.5 0h-.75v-1.496h.75Zm-1.504 0h-.75v-1.496h.75Zm-1.5 0h-.75v-1.496h.75Zm-1.5 0h-.754v-1.496h.754Zm-1.504 0h-.75v-1.496h.75Zm-1.5 0h-.754v-1.496h.754Zm-1.504 0h-.75v-1.496h.75Zm-1.5 0h-.75v-1.496h.75Zm-1.504 0h-.75v-1.496h.75Zm-1.5 0h-.75v-1.496h.75Zm-1.504 0h-.75v-1.496h.75Zm-1.5 0h-.75v-1.496h.75Zm-1.5 0h-.754v-1.496h.754Zm-1.504 0h-.75v-1.496h.75Zm-1.5 0h-.75v-1.496h.75Zm-1.504 0h-.75v-1.496h.75Zm-1.5 0h-.75v-1.496h.75Zm-1.504 0h-.75v-1.496h.75Zm-1.5 0h-.75v-1.496h.75Zm-1.5 0h-.754v-1.496h.754Zm-1.504 0h-.75v-1.496h.75Zm-1.5 0h-.753v-1.496h.753Zm-1.503 0h-.75v-1.496h.75Zm-1.5 0h-.75v-1.496h.75Zm-1.504 0h-.75v-1.496h.75Zm-1.5 0h-.75v-1.496h.75Zm-1.504 0h-.75v-1.496h.75Zm-1.5 0h-.75v-1.496h.75Zm-1.5 0h-.754v-1.496h.754Zm-1.504 0h-.75v-1.496h.75Zm-1.5 0h-.754v-1.496h.754Zm-1.504 0h-.75v-1.496h.75Zm-1.5 0h-.75v-1.496h.75Zm-1.504 0h-.75v-1.496h.75Zm-1.5 0h-.75v-1.496h.75Zm-1.504 0h-.75v-1.496h.75Zm-1.5 0h-.75v-1.496h.75Zm-1.5 0h-.754v-1.496h.754Zm-1.504 0h-.75v-1.496h.75Zm-1.5 0h-.754v-1.496h.754Zm-1.504 0h-.75v-1.496h.75Zm-1.5 0h-.75v-1.496h.75Zm-1.504 0h-.75v-1.496h.75Zm-1.5 0h-.75v-1.496h.75Zm-1.504 0h-.75v-1.496h.75Zm-1.5 0h-.75v-1.496h.75Zm-1.5 0h-.753v-1.496h.753Zm-1.503 0h-.75v-1.496h.75Zm-1.5 0h-.75v-1.496h.75Zm-1.504 0h-.75v-1.496h.75Zm-1.5 0h-.75v-1.496h.75Zm-1.504 0h-.75v-1.496h.75Zm-1.5 0h-.75v-1.496h.75Zm-1.5 0h-.754v-1.496h.754Zm-1.504 0h-.75v-1.496h.75Zm-1.5 0h-.754v-1.496h.754Zm-1.504 0h-.75v-1.496h.75Zm-1.5 0h-.75v-1.496h.75Zm-1.504 0h-.75v-1.496h.75Zm-1.5 0h-.75v-1.496h.75Zm-1.504 0h-.75v-1.496h.75Zm-1.5 0h-.75v-1.496h.75Zm-1.5 0h-.754v-1.496h.754Zm-1.504 0h-.75v-1.496h.75Zm-1.5 0h-.754v-1.496h.754Zm-1.504 0h-.75v-1.496h.75Zm-1.5 0h-.75v-1.496h.75Zm-1.504 0h-.75v-1.496h.75Zm-1.5 0h-.75v-1.496h.75Zm-1.504 0h-.75v-1.496h.75Zm-1.5 0h-.75v-1.496h.75Zm-1.5 0h-.753v-1.496h.754Zm-1.503 0h-.75v-1.496h.75Zm-1.5 0h-.754v-1.496h.754Zm-1.504 0h-.75v-1.496h.75Zm-1.5 0h-.75v-1.496h.75Zm-1.504 0h-.75v-1.496h.75Zm-1.5 0h-.75v-1.496h.75Zm-1.504 0h-.75v-1.496h.75Zm-1.5 0h-.75v-1.496h.75Zm-1.5 0h-.754v-1.496h.754Zm-1.504 0h-.75v-1.496h.75Zm-1.5 0h-.754v-1.496h.754Zm-1.504 0h-.75v-1.496h.75Zm-1.5 0h-.75v-1.496h.75Zm-1.504 0h-.75v-1.496h.75Zm-1.5 0h-.75v-1.496h.75Zm-1.5 0h-.754v-1.496h.754Zm-1.504 0h-.75v-1.496h.75Zm-1.5 0h-.754v-1.496h.754Zm-1.504 0h-.75v-1.496h.75Zm-1.5 0h-.75v-1.496h.75Zm-1.504 0h-.75v-1.496h.75Zm-1.5 0h-.75v-1.496h.75Zm-1.503 0h-.75v-1.496h.75Zm-1.5 0h-.75v-1.496h.75Zm-1.5 0h-.754v-1.496h.754Zm-1.504 0h-.75v-1.496h.75Zm-1.5 0h-.754v-1.496h.754Zm-1.504 0h-.75v-1.496h.75Zm-1.5 0h-.75v-1.496h.75Zm-1.504 0h-.75v-1.496h.75Zm-1.5 0h-.75v-1.496h.75Zm-1.504 0h-.75v-1.496h.75Zm-1.5 0h-.75v-1.496h.75Zm-1.5 0h-.754v-1.496h.754Zm-1.504 0h-.75v-1.496h.75Zm-1.5 0h-.754v-1.496h.754Zm-1.504 0h-.75v-1.496h.75Zm-1.5 0h-.75v-1.496h.75Zm-1.504 0h-.75v-1.496h.75Zm-1.5 0h-.75v-1.496h.75Zm-1.504 0h-.75v-1.496h.75Zm-1.5 0h-.75v-1.496h.75Zm-1.5 0h-.754v-1.496h.754Zm-1.504 0h-.75v-1.496h.75Zm-1.5 0h-.754v-1.496h.754Zm-1.504 0h-.75v-1.496h.75Zm-1.5 0h-.75v-1.496h.75Zm-1.503 0h-.75v-1.496h.75Zm-1.5 0h-.75v-1.496h.75Zm-1.5 0h-.754v-1.496h.754Zm-1.504 0h-.75v-1.496h.75Zm-1.5 0h-.754v-1.496h.754Zm-1.504 0h-.75v-1.496h.75Zm-1.5 0h-.75v-1.496h.75Zm-1.504 0h-.75v-1.496h.75Zm-1.5 0h-.75v-1.496h.75Zm-1.504 0h-.75v-1.496h.75Zm-1.5 0h-.75v-1.496h.75Zm-1.5 0h-.754v-1.496h.754Zm-1.504 0h-.75v-1.496h.75Zm-1.5 0h-.754v-1.496h.754Zm-1.504 0h-.75v-1.496h.75Zm-1.5 0h-.75v-1.496h.75Zm-1.504 0h-.75v-1.496h.75Zm-1.5 0h-.75v-1.496h.75Zm-1.504 0h-.75v-1.496h.75Zm-1.5 0h-.75v-1.496h.75Zm-1.5 0h-.754v-1.496h.754Zm-1.504 0h-.75v-1.496h.75Zm-1.5 0h-.754v-1.496h.754Zm-1.504 0h-.75v-1.496h.75Zm-1.5 0h-.75v-1.496h.75Zm-1.503 0h-.75v-1.496h.75Zm-1.5 0h-.75v-1.496h.75Zm-1.504 0h-.75v-1.496h.75Zm-1.5 0h-.75v-1.496h.75Zm-1.5 0h-.754v-1.496h.754Zm-1.504 0h-.75v-1.496h.75Zm-1.5 0h-.754v-1.496h.754Zm-1.504 0h-.75v-1.496h.75Zm-1.5 0h-.75v-1.496h.75Zm-1.504 0h-.75v-1.496h.75Zm-2.023-.976v-.746h1.503v.746Zm0-1.492v-.746h1.503v.746Zm0-1.493v-.746h1.503v.746Zm0-1.492v-.746h1.503v.746Zm0-1.492V280h1.503v.746Zm0-1.492v-.75h1.503v.75Zm0-1.496v-.746h1.503v.746Zm0-1.492v-.746h1.503v.746Zm0-1.493v-.746h1.503v.746Zm0-1.492v-.746h1.503v.746Zm0-1.492v-.75h1.503v.75Zm0-1.496v-.746h1.503v.746Zm0-1.492v-.746h1.503v.746Zm0-1.492v-.747h1.503v.747Zm0-1.493v-.746h1.503v.746Zm0-1.492v-.746h1.503v.746Zm0-1.496v-.746h1.503v.746Zm0-1.492v-.746h1.503v.746Zm0-1.492v-.746h1.503v.746Zm0-1.492v-.747h1.503v.747Zm0-1.493v-.746h1.503v.746Zm0-1.492v-.75h1.503v.75Zm0-1.496v-.746h1.503v.746Zm0-1.492v-.746h1.503v.746Zm0-1.492v-.746h1.503v.746Zm0-1.492v-.747h1.503v.747Zm0-1.493v-.746h1.503v.746Zm0-1.496v-.746h1.503v.746Zm0-1.492v-.746h1.503v.746Zm0-1.492v-.746h1.503v.746Zm0-1.492v-.746h1.503v.746Zm0-1.493v-.746h1.503v.746Zm0-1.492v-.75h1.503v.75Zm0-1.496v-.746h1.503v.746Zm0-1.492v-.746h1.503v.746Zm0-1.492v-.746h1.503v.746Zm0-1.492v-.746h1.503v.746Zm0-1.493v-.75h1.503v.75Zm0-1.496v-.746h1.503v.746Zm0-1.492v-.746h1.503v.746Zm0-1.492v-.746h1.503V227Zm0-1.492v-.746h1.503v.746Zm0-1.492v-.746h1.503v.746Zm0-1.496v-.747h1.503v.747Zm0-1.493v-.746h1.503v.746Zm0-1.492v-.746h1.503v.746Zm0-1.492v-.746h1.503v.746Zm0-1.492v-.746h1.503v.746Zm0-1.492v-.75h1.503v.75Zm0-1.496v-.747h1.503v.746Zm0-1.493v-.746h1.503v.746Zm0-1.492v-.133h1.503v.133Zm0 0"/>
  </g>
  <path d="M80.688 259.194h-2.219v-20.375h3.547l6.172 17.25h.297l6.172-17.25h3.421v20.375h-2.265v-16.625l-.344-.047-6.016 16.672h-2.39l-6.031-16.672-.344.047ZM107.514 259.49c-1.523 0-2.71-.394-3.562-1.187-.844-.789-1.266-1.922-1.266-3.39 0-.907.188-1.672.563-2.297.375-.625.957-1.133 1.75-1.532.789-.394 1.82-.703 3.093-.922 1.114-.187 1.961-.394 2.547-.625.582-.226.973-.484 1.172-.765.196-.29.297-.656.297-1.094 0-.695-.242-1.234-.719-1.61-.48-.374-1.25-.562-2.312-.562-.992 0-1.84.195-2.547.578-.71.387-1.36.965-1.953 1.735h-.281l-1.125-1.578a6.94 6.94 0 0 1 2.484-1.97c1-.488 2.14-.734 3.422-.734 1.812 0 3.144.399 4 1.188.863.793 1.297 1.89 1.297 3.297v8.156c0 .855.363 1.281 1.093 1.281.239 0 .47-.039.688-.125l.203.047.266 1.578c-.168.117-.39.2-.672.25a3.775 3.775 0 0 1-.844.094c-.844 0-1.484-.18-1.922-.547-.43-.375-.699-.926-.812-1.656l-.297-.031c-.438.812-1.027 1.422-1.766 1.828-.742.394-1.672.594-2.797.594Zm.5-1.812c.852 0 1.594-.195 2.22-.594.624-.394 1.1-.945 1.437-1.656.332-.719.5-1.547.5-2.484v-1.953l-.266-.063a4.839 4.839 0 0 1-1.25.61c-.492.167-1.18.312-2.063.437-.886.125-1.593.312-2.125.562-.523.25-.898.57-1.125.954-.218.386-.328.859-.328 1.421 0 .907.266 1.594.797 2.063.531.469 1.266.703 2.203.703ZM120.874 240.866c-.48 0-.87-.149-1.172-.454-.304-.3-.453-.687-.453-1.156 0-.457.149-.836.453-1.14.301-.301.692-.454 1.172-.454.489 0 .883.153 1.188.454.3.304.453.683.453 1.14 0 .469-.152.856-.453 1.156-.305.305-.7.454-1.188.454Zm-1.14 18.328v-15.36h2.281v15.36ZM127.352 259.194v-15.36h2.156v2.407l.297.062c.508-.895 1.16-1.578 1.953-2.047.801-.476 1.77-.719 2.907-.719 1.851 0 3.19.477 4.015 1.422.832.938 1.25 2.387 1.25 4.344v9.89h-2.265v-9.827c0-.938-.122-1.688-.36-2.25-.23-.563-.594-.97-1.094-1.22-.5-.257-1.152-.39-1.953-.39-1.386 0-2.508.461-3.36 1.375-.843.918-1.265 2.39-1.265 4.422v7.89ZM160.61 259.49c-1.782 0-3.371-.406-4.766-1.218-1.387-.82-2.477-2.02-3.266-3.594-.793-1.57-1.187-3.46-1.187-5.672 0-2.195.394-4.082 1.187-5.656.79-1.57 1.88-2.766 3.266-3.578 1.395-.82 2.984-1.235 4.766-1.235 1.906 0 3.488.36 4.75 1.079 1.27.718 2.18 1.804 2.734 3.25l-1.531 1.015h-.344c-.563-1.156-1.293-1.976-2.188-2.469-.886-.488-2.027-.734-3.421-.734-1.282 0-2.418.29-3.407.86-.992.574-1.78 1.48-2.375 2.718-.586 1.242-.875 2.824-.875 4.75 0 1.938.29 3.527.875 4.766.594 1.23 1.383 2.133 2.375 2.703.989.574 2.125.86 3.407.86 1.476 0 2.687-.333 3.625-1 .937-.665 1.632-1.743 2.093-3.235h.344l1.61.797c-.493 1.804-1.387 3.187-2.688 4.156-1.305.961-2.965 1.438-4.984 1.438ZM178.144 259.49c-1.45 0-2.71-.304-3.781-.921-1.074-.614-1.902-1.516-2.485-2.703-.574-1.196-.859-2.645-.859-4.344 0-1.696.285-3.145.86-4.344.582-1.195 1.41-2.102 2.484-2.719 1.07-.613 2.332-.922 3.781-.922 1.445 0 2.707.309 3.781.922 1.07.617 1.899 1.524 2.485 2.719.582 1.2.875 2.648.875 4.344 0 1.699-.293 3.148-.875 4.344-.586 1.187-1.414 2.09-2.485 2.703-1.074.617-2.336.922-3.78.922Zm0-2.03c1.531 0 2.703-.485 3.516-1.454.82-.969 1.234-2.46 1.234-4.484 0-2.04-.414-3.54-1.234-4.5-.813-.969-1.985-1.453-3.516-1.453s-2.71.484-3.531 1.453c-.813.969-1.219 2.469-1.219 4.5 0 2.023.406 3.515 1.219 4.484.82.969 2 1.453 3.531 1.453ZM189.636 259.194v-15.36h2.156v2.407l.297.062c.508-.895 1.16-1.578 1.953-2.047.8-.476 1.77-.719 2.906-.719 1.852 0 3.192.477 4.016 1.422.832.938 1.25 2.387 1.25 4.344v9.89h-2.266v-9.827c0-.938-.121-1.688-.36-2.25-.23-.563-.593-.97-1.093-1.22-.5-.257-1.152-.39-1.953-.39-1.387 0-2.508.461-3.36 1.375-.843.918-1.265 2.39-1.265 4.422v7.89ZM215.042 256.756l.719 1.625c-.355.367-.828.64-1.422.828a6.302 6.302 0 0 1-1.906.282c-2.938 0-4.406-1.489-4.406-4.47v-9.343h-2.672v-1.86h2.672v-3.25l2.265-.374v3.625h4.953v1.859h-4.953v9.125c0 1.773.766 2.656 2.297 2.656.832 0 1.55-.234 2.156-.703ZM230.991 252.037H220.43c.062 1.868.508 3.235 1.344 4.11.832.875 1.972 1.312 3.421 1.312 1.094 0 1.973-.191 2.641-.578.676-.394 1.203-1.015 1.578-1.86h.297l1.484.891c-.449 1.118-1.164 1.993-2.14 2.625-.98.637-2.266.954-3.86.954-1.48 0-2.757-.293-3.828-.875-1.074-.594-1.898-1.485-2.468-2.672-.575-1.188-.86-2.66-.86-4.422 0-1.75.301-3.223.906-4.422.614-1.195 1.446-2.086 2.5-2.672 1.051-.594 2.254-.89 3.61-.89 1.969 0 3.504.558 4.61 1.671 1.1 1.106 1.66 2.746 1.671 4.922 0 .856-.016 1.434-.047 1.735Zm-1.89-1.906c-.043-1.625-.407-2.805-1.094-3.547-.688-.75-1.672-1.125-2.953-1.125-1.344 0-2.403.375-3.172 1.125-.762.742-1.227 1.922-1.39 3.547ZM235.401 259.194v-15.36h2.157v2.407l.296.062c.508-.895 1.16-1.578 1.954-2.047.8-.476 1.769-.719 2.906-.719 1.851 0 3.191.477 4.015 1.422.832.938 1.25 2.387 1.25 4.344v9.89h-2.265v-9.827c0-.938-.121-1.688-.36-2.25-.23-.563-.593-.97-1.093-1.22-.5-.257-1.153-.39-1.953-.39-1.387 0-2.508.461-3.36 1.375-.844.918-1.265 2.39-1.265 4.422v7.89ZM260.808 256.756l.719 1.625c-.356.367-.828.64-1.422.828a6.302 6.302 0 0 1-1.906.282c-2.938 0-4.407-1.489-4.407-4.47v-9.343h-2.672v-1.86h2.672v-3.25l2.266-.374v3.625h4.953v1.859h-4.953v9.125c0 1.773.766 2.656 2.297 2.656.832 0 1.55-.234 2.156-.703Zm0 0"/>
  <g clip-path="url(#h)">
    <path fill="#fff" d="M51.508 103.223h234.844v60.468H51.508Zm0 0"/>
  </g>
  <g clip-path="url(#i)">
    <path d="M51.508 102.473h.75v1.5h-.75Zm1.504 0h.75v1.5h-.75Zm1.5 0h.75v1.5h-.75Zm1.5 0h.754v1.5h-.754Zm1.504 0h.75v1.5h-.75Zm1.5 0h.75v1.5h-.75Zm1.504 0h.75v1.5h-.75Zm1.5 0h.75v1.5h-.75Zm1.503 0h.75v1.5h-.75Zm1.5 0h.75v1.5h-.75Zm1.5 0h.754v1.5h-.754Zm1.504 0h.75v1.5h-.75Zm1.5 0h.754v1.5h-.754Zm1.504 0h.75v1.5h-.75Zm1.5 0h.75v1.5h-.75Zm1.504 0h.75v1.5h-.75Zm1.5 0h.75v1.5h-.75Zm1.504 0h.75v1.5h-.75Zm1.5 0h.75v1.5h-.75Zm1.5 0h.754v1.5h-.754Zm1.504 0h.75v1.5h-.75Zm1.5 0h.754v1.5h-.754Zm1.504 0h.75v1.5h-.75Zm1.5 0h.75v1.5h-.75Zm1.504 0h.75v1.5h-.75Zm1.5 0h.75v1.5h-.75Zm1.504 0h.75v1.5h-.75Zm1.5 0h.75v1.5h-.75Zm1.5 0h.754v1.5h-.754Zm1.504 0h.75v1.5h-.75Zm1.5 0h.754v1.5h-.754Zm1.504 0h.75v1.5h-.75Zm1.5 0h.75v1.5h-.75Zm1.503 0h.75v1.5h-.75Zm1.5 0h.75v1.5h-.75Zm1.504 0h.75v1.5h-.75Zm1.5 0h.75v1.5h-.75Zm1.5 0h.754v1.5h-.754Zm1.504 0h.75v1.5h-.75Zm1.5 0h.754v1.5h-.754Zm1.504 0h.75v1.5h-.75Zm1.5 0h.75v1.5h-.75Zm1.504 0h.75v1.5h-.75Zm1.5 0h.75v1.5h-.75Zm1.5 0h.754v1.5h-.754Zm1.504 0h.75v1.5h-.75Zm1.5 0h.754v1.5h-.754Zm1.504 0h.75v1.5h-.75Zm1.5 0h.75v1.5h-.75Zm1.504 0h.75v1.5h-.75Zm1.5 0h.75v1.5h-.75Zm1.504 0h.75v1.5h-.75Zm1.5 0h.75v1.5h-.75Zm1.5 0h.754v1.5h-.754Zm1.504 0h.75v1.5h-.75Zm1.5 0h.753v1.5h-.753Zm1.503 0h.75v1.5h-.75Zm1.5 0h.75v1.5h-.75Zm1.504 0h.75v1.5h-.75Zm1.5 0h.75v1.5h-.75Zm1.504 0h.75v1.5h-.75Zm1.5 0h.75v1.5h-.75Zm1.5 0h.754v1.5h-.754Zm1.504 0h.75v1.5h-.75Zm1.5 0h.754v1.5h-.754Zm1.504 0h.75v1.5h-.75Zm1.5 0h.75v1.5h-.75Zm1.504 0h.75v1.5h-.75Zm1.5 0h.75v1.5h-.75Zm1.504 0h.75v1.5h-.75Zm1.5 0h.75v1.5h-.75Zm1.5 0h.754v1.5h-.754Zm1.504 0h.75v1.5h-.75Zm1.5 0h.754v1.5h-.754Zm1.504 0h.75v1.5h-.75Zm1.5 0h.75v1.5h-.75Zm1.504 0h.75v1.5h-.75Zm1.5 0h.75v1.5h-.75Zm1.5 0h.754v1.5h-.754Zm1.504 0h.75v1.5h-.75Zm1.5 0h.753v1.5h-.753Zm1.503 0h.75v1.5h-.75Zm1.5 0h.75v1.5h-.75Zm1.504 0h.75v1.5h-.75Zm1.5 0h.75v1.5h-.75Zm1.504 0h.75v1.5h-.75Zm1.5 0h.75v1.5h-.75Zm1.5 0h.754v1.5h-.754Zm1.504 0h.75v1.5h-.75Zm1.5 0h.754v1.5h-.754Zm1.504 0h.75v1.5h-.75Zm1.5 0h.75v1.5h-.75Zm1.504 0h.75v1.5h-.75Zm1.5 0h.75v1.5h-.75Zm1.504 0h.75v1.5h-.75Zm1.5 0h.75v1.5h-.75Zm1.5 0h.754v1.5h-.754Zm1.504 0h.75v1.5h-.75Zm1.5 0h.754v1.5h-.754Zm1.504 0h.75v1.5h-.75Zm1.5 0h.75v1.5h-.75Zm1.504 0h.75v1.5h-.75Zm1.5 0h.75v1.5h-.75Zm1.504 0h.75v1.5h-.75Zm1.5 0h.75v1.5h-.75Zm1.5 0h.753v1.5h-.754Zm1.503 0h.75v1.5h-.75Zm1.5 0h.754v1.5h-.754Zm1.504 0h.75v1.5h-.75Zm1.5 0h.75v1.5h-.75Zm1.504 0h.75v1.5h-.75Zm1.5 0h.75v1.5h-.75Zm1.504 0h.75v1.5h-.75Zm1.5 0h.75v1.5h-.75Zm1.5 0h.754v1.5h-.754Zm1.504 0h.75v1.5h-.75Zm1.5 0h.75v1.5h-.75Zm1.504 0h.75v1.5h-.75Zm1.5 0h.75v1.5h-.75Zm1.504 0h.75v1.5h-.75Zm1.5 0h.75v1.5h-.75Zm1.5 0h.754v1.5h-.754Zm1.504 0h.75v1.5h-.75Zm1.5 0h.754v1.5h-.754Zm1.504 0h.75v1.5h-.75Zm1.5 0h.75v1.5h-.75Zm1.504 0h.75v1.5h-.75Zm1.5 0h.75v1.5h-.75Zm1.503 0h.75v1.5h-.75Zm1.5 0h.75v1.5h-.75Zm1.5 0h.754v1.5h-.754Zm1.504 0h.75v1.5h-.75Zm1.5 0h.754v1.5h-.754Zm1.504 0h.75v1.5h-.75Zm1.5 0h.75v1.5h-.75Zm1.504 0h.75v1.5h-.75Zm1.5 0h.75v1.5h-.75Zm1.504 0h.75v1.5h-.75Zm1.5 0h.75v1.5h-.75Zm1.5 0H261v1.5h-.754Zm1.504 0h.75v1.5h-.75Zm1.5 0h.754v1.5h-.754Zm1.504 0h.75v1.5h-.75Zm1.5 0h.75v1.5h-.75Zm1.504 0h.75v1.5h-.75Zm1.5 0h.75v1.5h-.75Zm1.504 0h.75v1.5h-.75Zm1.5 0h.75v1.5h-.75Zm1.5 0h.754v1.5h-.754Zm1.504 0h.75v1.5h-.75Zm1.5 0h.75v1.5h-.75Zm1.504 0h.75v1.5h-.75Zm1.5 0h.75v1.5h-.75Zm1.503 0h.75v1.5h-.75Zm1.5 0h.75v1.5h-.75Zm1.5 0h.754v1.5h-.754Zm1.504 0h1.23v1.02h-1.5v-.27h.75v.75h-.48Zm1.23 1.77v.75h-1.5v-.75Zm0 1.5v.75h-1.5v-.75Zm0 1.5v.75h-1.5v-.75Zm0 1.5v.75h-1.5v-.75Zm0 1.5v.75h-1.5v-.75Zm0 1.5v.75h-1.5v-.75Zm0 1.5v.75h-1.5v-.75Zm0 1.5v.75h-1.5v-.75Zm0 1.5v.75h-1.5v-.75Zm0 1.5v.75h-1.5v-.75Zm0 1.5v.75h-1.5v-.75Zm0 1.5v.75h-1.5v-.75Zm0 1.5v.75h-1.5v-.75Zm0 1.5v.75h-1.5v-.75Zm0 1.5v.75h-1.5v-.75Zm0 1.5v.75h-1.5v-.75Zm0 1.5v.75h-1.5v-.75Zm0 1.5v.75h-1.5v-.75Zm0 1.5v.75h-1.5v-.75Zm0 1.5v.75h-1.5v-.75Zm0 1.5v.75h-1.5v-.75Zm0 1.5v.75h-1.5v-.75Zm0 1.5v.75h-1.5v-.75Zm0 1.5v.75h-1.5v-.75Zm0 1.5v.75h-1.5v-.75Zm0 1.5v.75h-1.5v-.75Zm0 1.5v.75h-1.5v-.75Zm0 1.5v.75h-1.5v-.75Zm0 1.5v.75h-1.5v-.75Zm0 1.5v.75h-1.5v-.75Zm0 1.5v.75h-1.5v-.75Zm0 1.5v.75h-1.5v-.75Zm0 1.5v.75h-1.5v-.75Zm0 1.5v.75h-1.5v-.75Zm0 1.5v.75h-1.5v-.75Zm0 1.5v.75h-1.5v-.75Zm0 1.5v.75h-1.5v-.75Zm0 1.5v.75h-1.5v-.75Zm0 1.5v.75h-1.5v-.75Zm0 1.5v1.23h-1.019v-1.5h.27v.75h-.75v-.48Zm-1.769 1.23h-.754v-1.5h.754Zm-1.504 0h-.75v-1.5h.75Zm-1.5 0h-.754v-1.5h.754Zm-1.504 0h-.75v-1.5h.75Zm-1.5 0h-.75v-1.5h.75Zm-1.503 0h-.75v-1.5h.75Zm-1.5 0h-.75v-1.5h.75Zm-1.504 0h-.75v-1.5h.75Zm-1.5 0h-.75v-1.5h.75Zm-1.5 0h-.754v-1.5h.754Zm-1.504 0h-.75v-1.5h.75Zm-1.5 0h-.754v-1.5h.754Zm-1.504 0h-.75v-1.5h.75Zm-1.5 0h-.75v-1.5h.75Zm-1.504 0h-.75v-1.5h.75Zm-1.5 0h-.75v-1.5h.75Zm-1.504 0h-.75v-1.5h.75Zm-1.5 0h-.75v-1.5h.75Zm-1.5 0h-.754v-1.5h.754Zm-1.504 0h-.75v-1.5h.75Zm-1.5 0h-.754v-1.5h.754Zm-1.504 0h-.75v-1.5h.75Zm-1.5 0h-.75v-1.5h.75Zm-1.504 0h-.75v-1.5h.75Zm-1.5 0h-.75v-1.5h.75Zm-1.5 0h-.754v-1.5h.754Zm-1.504 0h-.75v-1.5h.75Zm-1.5 0h-.754v-1.5h.754Zm-1.504 0h-.75v-1.5h.75Zm-1.5 0h-.75v-1.5h.75Zm-1.503 0h-.75v-1.5h.75Zm-1.5 0h-.75v-1.5h.75Zm-1.504 0h-.75v-1.5h.75Zm-1.5 0h-.75v-1.5h.75Zm-1.5 0h-.754v-1.5h.754Zm-1.504 0h-.75v-1.5h.75Zm-1.5 0h-.754v-1.5h.754Zm-1.504 0h-.75v-1.5h.75Zm-1.5 0h-.75v-1.5h.75Zm-1.504 0h-.75v-1.5h.75Zm-1.5 0h-.75v-1.5h.75Zm-1.504 0h-.75v-1.5h.75Zm-1.5 0h-.75v-1.5h.75Zm-1.5 0h-.754v-1.5h.754Zm-1.504 0h-.75v-1.5h.75Zm-1.5 0h-.754v-1.5h.754Zm-1.504 0h-.75v-1.5h.75Zm-1.5 0h-.75v-1.5h.75Zm-1.504 0h-.75v-1.5h.75Zm-1.5 0h-.75v-1.5h.75Zm-1.504 0h-.75v-1.5h.75Zm-1.5 0h-.75v-1.5h.75Zm-1.5 0h-.753v-1.5h.753Zm-1.503 0h-.75v-1.5h.75Zm-1.5 0h-.754v-1.5h.754Zm-1.504 0h-.75v-1.5h.75Zm-1.5 0h-.75v-1.5h.75Zm-1.504 0h-.75v-1.5h.75Zm-1.5 0h-.75v-1.5h.75Zm-1.504 0h-.75v-1.5h.75Zm-1.5 0h-.75v-1.5h.75Zm-1.5 0h-.754v-1.5h.754Zm-1.504 0h-.75v-1.5h.75Zm-1.5 0h-.75v-1.5h.75Zm-1.504 0h-.75v-1.5h.75Zm-1.5 0h-.75v-1.5h.75Zm-1.504 0h-.75v-1.5h.75Zm-1.5 0h-.75v-1.5h.75Zm-1.5 0h-.754v-1.5h.754Zm-1.504 0h-.75v-1.5h.75Zm-1.5 0h-.754v-1.5h.754Zm-1.504 0h-.75v-1.5h.75Zm-1.5 0h-.75v-1.5h.75Zm-1.504 0h-.75v-1.5h.75Zm-1.5 0h-.75v-1.5h.75Zm-1.504 0h-.75v-1.5h.75Zm-1.5 0h-.75v-1.5h.75Zm-1.5 0h-.753v-1.5h.753Zm-1.503 0h-.75v-1.5h.75Zm-1.5 0h-.754v-1.5h.754Zm-1.504 0h-.75v-1.5h.75Zm-1.5 0h-.75v-1.5h.75Zm-1.504 0h-.75v-1.5h.75Zm-1.5 0h-.75v-1.5h.75Zm-1.504 0h-.75v-1.5h.75Zm-1.5 0h-.75v-1.5h.75Zm-1.5 0h-.754v-1.5h.754Zm-1.504 0h-.75v-1.5h.75Zm-1.5 0h-.754v-1.5h.754Zm-1.504 0h-.75v-1.5h.75Zm-1.5 0h-.75v-1.5h.75Zm-1.504 0h-.75v-1.5h.75Zm-1.5 0h-.75v-1.5h.75Zm-1.504 0h-.75v-1.5h.75Zm-1.5 0h-.75v-1.5h.75Zm-1.5 0h-.754v-1.5h.754Zm-1.504 0h-.75v-1.5h.75Zm-1.5 0h-.75v-1.5h.75Zm-1.504 0h-.75v-1.5h.75Zm-1.5 0h-.75v-1.5h.75Zm-1.504 0h-.75v-1.5h.75Zm-1.5 0h-.75v-1.5h.75Zm-1.5 0h-.753v-1.5h.754Zm-1.503 0h-.75v-1.5h.75Zm-1.5 0h-.754v-1.5h.754Zm-1.504 0h-.75v-1.5h.75Zm-1.5 0h-.75v-1.5h.75Zm-1.504 0h-.75v-1.5h.75Zm-1.5 0h-.75v-1.5h.75Zm-1.504 0h-.75v-1.5h.75Zm-1.5 0h-.75v-1.5h.75Zm-1.5 0h-.754v-1.5h.754Zm-1.504 0h-.75v-1.5h.75Zm-1.5 0h-.754v-1.5h.754Zm-1.504 0h-.75v-1.5h.75Zm-1.5 0h-.75v-1.5h.75Zm-1.504 0h-.75v-1.5h.75Zm-1.5 0h-.75v-1.5h.75Zm-1.504 0h-.75v-1.5h.75Zm-1.5 0h-.75v-1.5h.75Zm-1.5 0h-.754v-1.5h.754Zm-1.504 0h-.75v-1.5h.75Zm-1.5 0h-.754v-1.5h.754Zm-1.504 0h-.75v-1.5h.75Zm-1.5 0h-.75v-1.5h.75Zm-1.503 0h-.75v-1.5h.75Zm-1.5 0h-.75v-1.5h.75Zm-1.504 0h-.75v-1.5h.75Zm-1.5 0h-.75v-1.5h.75Zm-1.5 0h-.754v-1.5h.754Zm-1.504 0h-.75v-1.5h.75Zm-1.5 0h-.75v-1.5h.75Zm-1.504 0h-.75v-1.5h.75Zm-1.5 0h-.75v-1.5h.75Zm-1.504 0h-.75v-1.5h.75Zm-1.5 0h-.75v-1.5h.75Zm-1.5 0h-.754v-1.5h.754Zm-1.504 0h-.75v-1.5h.75Zm-1.5 0h-.754v-1.5H78Zm-1.504 0h-.75v-1.5h.75Zm-1.5 0h-.75v-1.5h.75Zm-1.504 0h-.75v-1.5h.75Zm-1.5 0h-.75v-1.5h.75Zm-1.504 0h-.75v-1.5h.75Zm-1.5 0h-.75v-1.5h.75Zm-1.5 0h-.754v-1.5h.754Zm-1.504 0h-.75v-1.5h.75Zm-1.5 0h-.754v-1.5h.754Zm-1.504 0h-.75v-1.5h.75Zm-1.5 0h-.75v-1.5h.75Zm-1.503 0h-.75v-1.5h.75Zm-1.5 0h-.75v-1.5h.75Zm-1.504 0h-.75v-1.5h.75Zm-1.5 0h-.75v-1.5h.75Zm-1.5 0h-.754v-1.5h.754Zm-1.504 0h-.75v-1.5h.75Zm-1.711-1.29v-.75h1.5v.75Zm0-1.5v-.75h1.5v.75Zm0-1.5v-.75h1.5v.75Zm0-1.5v-.75h1.5v.75Zm0-1.5v-.75h1.5v.75Zm0-1.5v-.75h1.5v.75Zm0-1.5v-.75h1.5v.75Zm0-1.5v-.75h1.5v.75Zm0-1.5v-.75h1.5v.75Zm0-1.5v-.75h1.5v.75Zm0-1.5v-.75h1.5v.75Zm0-1.5v-.75h1.5v.75Zm0-1.5v-.75h1.5v.75Zm0-1.5v-.75h1.5v.75Zm0-1.5v-.75h1.5v.75Zm0-1.5v-.75h1.5v.75Zm0-1.5v-.75h1.5v.75Zm0-1.5v-.75h1.5v.75Zm0-1.5v-.75h1.5v.75Zm0-1.5v-.75h1.5v.75Zm0-1.5v-.75h1.5v.75Zm0-1.5v-.75h1.5v.75Zm0-1.5v-.75h1.5v.75Zm0-1.5v-.75h1.5v.75Zm0-1.5v-.75h1.5v.75Zm0-1.5v-.75h1.5v.75Zm0-1.5v-.75h1.5v.75Zm0-1.5v-.75h1.5v.75Zm0-1.5v-.75h1.5v.75Zm0-1.5v-.75h1.5v.75Zm0-1.5v-.75h1.5v.75Zm0-1.5v-.75h1.5v.75Zm0-1.5v-.75h1.5v.75Zm0-1.5v-.75h1.5v.75Zm0-1.5v-.75h1.5v.75Zm0-1.5v-.75h1.5v.75Zm0-1.5v-.75h1.5v.75Zm0-1.5v-.75h1.5v.75Zm0-1.5v-.75h1.5v.75Zm0-1.5v-.75h1.5v.75Zm0 0"/>
  </g>
  <path d="M86.864 143.724h-2.22v-20.375h3.548l6.172 17.25h.296l6.172-17.25h3.422v20.375h-2.265v-16.625l-.344-.047-6.016 16.672h-2.39l-6.032-16.672-.343.047ZM113.69 144.02c-1.523 0-2.71-.394-3.562-1.187-.844-.789-1.266-1.922-1.266-3.39 0-.907.188-1.672.563-2.297.375-.625.957-1.133 1.75-1.531.789-.395 1.82-.704 3.093-.922 1.114-.188 1.961-.395 2.547-.625.582-.227.973-.485 1.172-.766.195-.289.297-.656.297-1.094 0-.695-.242-1.234-.719-1.609-.48-.375-1.25-.563-2.312-.563-.993 0-1.84.196-2.547.579-.711.386-1.36.964-1.953 1.734h-.282l-1.125-1.578a6.94 6.94 0 0 1 2.485-1.969c1-.488 2.14-.734 3.422-.734 1.812 0 3.144.398 4 1.187.863.793 1.297 1.89 1.297 3.297v8.156c0 .856.363 1.282 1.093 1.282.239 0 .469-.04.688-.125l.203.046.266 1.579c-.168.117-.391.199-.672.25a3.775 3.775 0 0 1-.844.093c-.844 0-1.484-.18-1.922-.547-.43-.375-.7-.925-.812-1.656l-.297-.031c-.438.812-1.028 1.422-1.766 1.828-.742.395-1.672.594-2.797.594Zm.5-1.812c.852 0 1.594-.195 2.219-.593.625-.395 1.101-.946 1.437-1.657.332-.718.5-1.547.5-2.484v-1.953l-.265-.063a4.839 4.839 0 0 1-1.25.61c-.492.168-1.18.312-2.063.437-.886.125-1.593.313-2.125.563-.523.25-.898.57-1.125.953-.218.387-.328.86-.328 1.422 0 .906.266 1.593.797 2.062.531.469 1.266.703 2.203.703ZM127.05 125.396c-.48 0-.871-.149-1.172-.453-.304-.301-.453-.688-.453-1.157 0-.457.149-.835.453-1.14.301-.3.692-.453 1.172-.453.488 0 .883.152 1.188.453.3.305.453.683.453 1.14 0 .47-.153.856-.453 1.157-.305.304-.7.453-1.188.453Zm-1.14 18.328v-15.36h2.28v15.36ZM133.528 143.724v-15.36h2.156v2.407l.297.062c.508-.894 1.16-1.578 1.953-2.047.8-.476 1.77-.718 2.906-.718 1.852 0 3.192.476 4.016 1.422.832.937 1.25 2.386 1.25 4.343v9.891h-2.266v-9.828c0-.938-.12-1.688-.36-2.25-.23-.563-.593-.969-1.093-1.219-.5-.258-1.152-.39-1.953-.39-1.387 0-2.508.46-3.36 1.374-.843.918-1.265 2.391-1.265 4.422v7.891ZM171.598 131.615v-8.266h2.375v20.375h-2.375v-10.078h-10.594v10.078h-2.39v-20.375h2.39v8.266ZM191.708 136.568h-10.563c.063 1.867.508 3.234 1.344 4.11.832.874 1.973 1.312 3.422 1.312 1.094 0 1.973-.192 2.64-.579.676-.394 1.204-1.015 1.579-1.859h.297l1.484.89c-.45 1.118-1.164 1.993-2.14 2.626-.981.636-2.266.953-3.86.953-1.48 0-2.758-.293-3.828-.875-1.074-.594-1.899-1.485-2.469-2.672-.574-1.188-.86-2.66-.86-4.422 0-1.75.302-3.223.907-4.422.613-1.195 1.445-2.086 2.5-2.672 1.05-.593 2.254-.89 3.61-.89 1.968 0 3.503.558 4.609 1.672 1.101 1.105 1.66 2.746 1.672 4.921 0 .856-.016 1.434-.047 1.735Zm-1.89-1.907c-.044-1.625-.407-2.804-1.094-3.546-.688-.75-1.672-1.125-2.954-1.125-1.343 0-2.402.375-3.171 1.125-.762.742-1.227 1.921-1.391 3.546ZM199.79 144.02c-1.524 0-2.711-.394-3.563-1.187-.844-.789-1.265-1.922-1.265-3.39 0-.907.187-1.672.562-2.297.375-.625.957-1.133 1.75-1.531.79-.395 1.82-.704 3.094-.922 1.113-.188 1.96-.395 2.547-.625.582-.227.972-.485 1.172-.766.195-.289.296-.656.296-1.094 0-.695-.242-1.234-.718-1.609-.48-.375-1.25-.563-2.313-.563-.992 0-1.84.196-2.547.579-.71.386-1.36.964-1.953 1.734h-.281l-1.125-1.578a6.94 6.94 0 0 1 2.484-1.969c1-.488 2.14-.734 3.422-.734 1.813 0 3.145.398 4 1.187.863.793 1.297 1.89 1.297 3.297v8.156c0 .856.363 1.282 1.094 1.282.238 0 .469-.04.687-.125l.203.046.266 1.579c-.168.117-.39.199-.672.25a3.775 3.775 0 0 1-.844.093c-.843 0-1.484-.18-1.921-.547-.43-.375-.7-.925-.813-1.656l-.297-.031c-.437.812-1.027 1.422-1.765 1.828-.743.395-1.672.594-2.797.594Zm.5-1.812c.851 0 1.593-.195 2.218-.593.625-.395 1.102-.946 1.438-1.657.332-.718.5-1.547.5-2.484v-1.953l-.266-.063a4.839 4.839 0 0 1-1.25.61c-.492.168-1.18.312-2.062.437-.887.125-1.594.313-2.125.563-.524.25-.899.57-1.125.953-.219.387-.328.86-.328 1.422 0 .906.265 1.593.797 2.062.53.469 1.265.703 2.203.703ZM217.306 144.02c-1.242 0-2.336-.296-3.281-.89-.938-.594-1.672-1.484-2.203-2.672-.532-1.187-.797-2.656-.797-4.406 0-1.758.273-3.234.828-4.422.562-1.195 1.332-2.086 2.312-2.672.977-.593 2.114-.89 3.407-.89 1.02 0 1.937.195 2.75.578.82.387 1.523 1.023 2.109 1.906l.297-.062v-8.297h2.265v21.531h-2.265v-2.25l-.297-.047c-.5.762-1.184 1.387-2.047 1.875-.855.477-1.883.719-3.078.719Zm.703-2.03c1.438 0 2.582-.489 3.438-1.47.851-.987 1.28-2.476 1.28-4.468 0-2.008-.429-3.504-1.28-4.484-.856-.977-2-1.469-3.438-1.469-1.469 0-2.605.48-3.406 1.437-.805.961-1.203 2.465-1.203 4.516 0 3.961 1.535 5.938 4.609 5.938ZM242.32 136.568h-10.562c.062 1.867.508 3.234 1.344 4.11.832.874 1.972 1.312 3.421 1.312 1.094 0 1.973-.192 2.641-.579.676-.394 1.203-1.015 1.578-1.859h.297l1.484.89c-.449 1.118-1.164 1.993-2.14 2.626-.98.636-2.266.953-3.86.953-1.48 0-2.757-.293-3.828-.875-1.074-.594-1.898-1.485-2.468-2.672-.575-1.188-.86-2.66-.86-4.422 0-1.75.3-3.223.906-4.422.614-1.195 1.446-2.086 2.5-2.672 1.051-.593 2.254-.89 3.61-.89 1.969 0 3.504.558 4.61 1.672 1.1 1.105 1.66 2.746 1.671 4.921 0 .856-.016 1.434-.047 1.735Zm-1.89-1.907c-.043-1.625-.407-2.804-1.094-3.546-.688-.75-1.672-1.125-2.953-1.125-1.344 0-2.403.375-3.172 1.125-.762.742-1.227 1.921-1.39 3.546ZM246.73 143.724v-15.36h2.156v2.407l.297.062c.72-1.738 2.067-2.609 4.047-2.609 1.04 0 1.82.187 2.344.562l-.578 1.922-.281.063a4.143 4.143 0 0 0-1.891-.438c-1.23 0-2.172.465-2.828 1.391-.656.918-.985 2.406-.985 4.469v7.531Zm0 0"/>
  <g clip-path="url(#j)">
    <path fill="#fff" d="M51.508 287.316h234.844v60.47H51.508Zm0 0"/>
  </g>
  <g clip-path="url(#k)">
    <path d="M51.508 286.566h.75v1.5h-.75Zm1.504 0h.75v1.5h-.75Zm1.5 0h.75v1.5h-.75Zm1.5 0h.754v1.5h-.754Zm1.504 0h.75v1.5h-.75Zm1.5 0h.75v1.5h-.75Zm1.504 0h.75v1.5h-.75Zm1.5 0h.75v1.5h-.75Zm1.503 0h.75v1.5h-.75Zm1.5 0h.75v1.5h-.75Zm1.5 0h.754v1.5h-.754Zm1.504 0h.75v1.5h-.75Zm1.5 0h.754v1.5h-.754Zm1.504 0h.75v1.5h-.75Zm1.5 0h.75v1.5h-.75Zm1.504 0h.75v1.5h-.75Zm1.5 0h.75v1.5h-.75Zm1.504 0h.75v1.5h-.75Zm1.5 0h.75v1.5h-.75Zm1.5 0h.754v1.5h-.754Zm1.504 0h.75v1.5h-.75Zm1.5 0h.754v1.5h-.754Zm1.504 0h.75v1.5h-.75Zm1.5 0h.75v1.5h-.75Zm1.504 0h.75v1.5h-.75Zm1.5 0h.75v1.5h-.75Zm1.504 0h.75v1.5h-.75Zm1.5 0h.75v1.5h-.75Zm1.5 0h.754v1.5h-.754Zm1.504 0h.75v1.5h-.75Zm1.5 0h.754v1.5h-.754Zm1.504 0h.75v1.5h-.75Zm1.5 0h.75v1.5h-.75Zm1.503 0h.75v1.5h-.75Zm1.5 0h.75v1.5h-.75Zm1.504 0h.75v1.5h-.75Zm1.5 0h.75v1.5h-.75Zm1.5 0h.754v1.5h-.754Zm1.504 0h.75v1.5h-.75Zm1.5 0h.754v1.5h-.754Zm1.504 0h.75v1.5h-.75Zm1.5 0h.75v1.5h-.75Zm1.504 0h.75v1.5h-.75Zm1.5 0h.75v1.5h-.75Zm1.5 0h.754v1.5h-.754Zm1.504 0h.75v1.5h-.75Zm1.5 0h.754v1.5h-.754Zm1.504 0h.75v1.5h-.75Zm1.5 0h.75v1.5h-.75Zm1.504 0h.75v1.5h-.75Zm1.5 0h.75v1.5h-.75Zm1.504 0h.75v1.5h-.75Zm1.5 0h.75v1.5h-.75Zm1.5 0h.754v1.5h-.754Zm1.504 0h.75v1.5h-.75Zm1.5 0h.753v1.5h-.753Zm1.503 0h.75v1.5h-.75Zm1.5 0h.75v1.5h-.75Zm1.504 0h.75v1.5h-.75Zm1.5 0h.75v1.5h-.75Zm1.504 0h.75v1.5h-.75Zm1.5 0h.75v1.5h-.75Zm1.5 0h.754v1.5h-.754Zm1.504 0h.75v1.5h-.75Zm1.5 0h.754v1.5h-.754Zm1.504 0h.75v1.5h-.75Zm1.5 0h.75v1.5h-.75Zm1.504 0h.75v1.5h-.75Zm1.5 0h.75v1.5h-.75Zm1.504 0h.75v1.5h-.75Zm1.5 0h.75v1.5h-.75Zm1.5 0h.754v1.5h-.754Zm1.504 0h.75v1.5h-.75Zm1.5 0h.754v1.5h-.754Zm1.504 0h.75v1.5h-.75Zm1.5 0h.75v1.5h-.75Zm1.504 0h.75v1.5h-.75Zm1.5 0h.75v1.5h-.75Zm1.5 0h.754v1.5h-.754Zm1.504 0h.75v1.5h-.75Zm1.5 0h.753v1.5h-.753Zm1.503 0h.75v1.5h-.75Zm1.5 0h.75v1.5h-.75Zm1.504 0h.75v1.5h-.75Zm1.5 0h.75v1.5h-.75Zm1.504 0h.75v1.5h-.75Zm1.5 0h.75v1.5h-.75Zm1.5 0h.754v1.5h-.754Zm1.504 0h.75v1.5h-.75Zm1.5 0h.754v1.5h-.754Zm1.504 0h.75v1.5h-.75Zm1.5 0h.75v1.5h-.75Zm1.504 0h.75v1.5h-.75Zm1.5 0h.75v1.5h-.75Zm1.504 0h.75v1.5h-.75Zm1.5 0h.75v1.5h-.75Zm1.5 0h.754v1.5h-.754Zm1.504 0h.75v1.5h-.75Zm1.5 0h.754v1.5h-.754Zm1.504 0h.75v1.5h-.75Zm1.5 0h.75v1.5h-.75Zm1.504 0h.75v1.5h-.75Zm1.5 0h.75v1.5h-.75Zm1.504 0h.75v1.5h-.75Zm1.5 0h.75v1.5h-.75Zm1.5 0h.753v1.5h-.754Zm1.503 0h.75v1.5h-.75Zm1.5 0h.754v1.5h-.754Zm1.504 0h.75v1.5h-.75Zm1.5 0h.75v1.5h-.75Zm1.504 0h.75v1.5h-.75Zm1.5 0h.75v1.5h-.75Zm1.504 0h.75v1.5h-.75Zm1.5 0h.75v1.5h-.75Zm1.5 0h.754v1.5h-.754Zm1.504 0h.75v1.5h-.75Zm1.5 0h.75v1.5h-.75Zm1.504 0h.75v1.5h-.75Zm1.5 0h.75v1.5h-.75Zm1.504 0h.75v1.5h-.75Zm1.5 0h.75v1.5h-.75Zm1.5 0h.754v1.5h-.754Zm1.504 0h.75v1.5h-.75Zm1.5 0h.754v1.5h-.754Zm1.504 0h.75v1.5h-.75Zm1.5 0h.75v1.5h-.75Zm1.504 0h.75v1.5h-.75Zm1.5 0h.75v1.5h-.75Zm1.503 0h.75v1.5h-.75Zm1.5 0h.75v1.5h-.75Zm1.5 0h.754v1.5h-.754Zm1.504 0h.75v1.5h-.75Zm1.5 0h.754v1.5h-.754Zm1.504 0h.75v1.5h-.75Zm1.5 0h.75v1.5h-.75Zm1.504 0h.75v1.5h-.75Zm1.5 0h.75v1.5h-.75Zm1.504 0h.75v1.5h-.75Zm1.5 0h.75v1.5h-.75Zm1.5 0H261v1.5h-.754Zm1.504 0h.75v1.5h-.75Zm1.5 0h.754v1.5h-.754Zm1.504 0h.75v1.5h-.75Zm1.5 0h.75v1.5h-.75Zm1.504 0h.75v1.5h-.75Zm1.5 0h.75v1.5h-.75Zm1.504 0h.75v1.5h-.75Zm1.5 0h.75v1.5h-.75Zm1.5 0h.754v1.5h-.754Zm1.504 0h.75v1.5h-.75Zm1.5 0h.75v1.5h-.75Zm1.504 0h.75v1.5h-.75Zm1.5 0h.75v1.5h-.75Zm1.503 0h.75v1.5h-.75Zm1.5 0h.75v1.5h-.75Zm1.5 0h.754v1.5h-.754Zm1.504 0h1.23v1.02h-1.5v-.27h.75v.75h-.48Zm1.23 1.77v.75h-1.5v-.75Zm0 1.5v.75h-1.5v-.75Zm0 1.5v.75h-1.5v-.75Zm0 1.5v.75h-1.5v-.75Zm0 1.5v.75h-1.5v-.75Zm0 1.5v.75h-1.5v-.75Zm0 1.5v.75h-1.5v-.75Zm0 1.5v.75h-1.5v-.75Zm0 1.5v.75h-1.5v-.75Zm0 1.5v.75h-1.5v-.75Zm0 1.5v.75h-1.5v-.75Zm0 1.5v.75h-1.5v-.75Zm0 1.5v.75h-1.5v-.75Zm0 1.5v.75h-1.5v-.75Zm0 1.5v.75h-1.5v-.75Zm0 1.5v.75h-1.5v-.75Zm0 1.5v.75h-1.5v-.75Zm0 1.5v.75h-1.5v-.75Zm0 1.5v.75h-1.5v-.75Zm0 1.5v.75h-1.5v-.75Zm0 1.5v.75h-1.5v-.75Zm0 1.5v.75h-1.5v-.75Zm0 1.5v.75h-1.5v-.75Zm0 1.5v.75h-1.5v-.75Zm0 1.5v.75h-1.5v-.75Zm0 1.5v.75h-1.5v-.75Zm0 1.5v.75h-1.5v-.75Zm0 1.5v.75h-1.5v-.75Zm0 1.5v.75h-1.5v-.75Zm0 1.5v.75h-1.5v-.75Zm0 1.5v.75h-1.5v-.75Zm0 1.5v.75h-1.5v-.75Zm0 1.5v.75h-1.5v-.75Zm0 1.5v.75h-1.5v-.75Zm0 1.5v.75h-1.5v-.75Zm0 1.5v.75h-1.5v-.75Zm0 1.5v.75h-1.5v-.75Zm0 1.5v.75h-1.5v-.75Zm0 1.5v.75h-1.5v-.75Zm0 1.5v1.23h-1.019v-1.5h.27v.75h-.75v-.48Zm-1.769 1.23h-.754v-1.5h.754Zm-1.504 0h-.75v-1.5h.75Zm-1.5 0h-.754v-1.5h.754Zm-1.504 0h-.75v-1.5h.75Zm-1.5 0h-.75v-1.5h.75Zm-1.503 0h-.75v-1.5h.75Zm-1.5 0h-.75v-1.5h.75Zm-1.504 0h-.75v-1.5h.75Zm-1.5 0h-.75v-1.5h.75Zm-1.5 0h-.754v-1.5h.754Zm-1.504 0h-.75v-1.5h.75Zm-1.5 0h-.754v-1.5h.754Zm-1.504 0h-.75v-1.5h.75Zm-1.5 0h-.75v-1.5h.75Zm-1.504 0h-.75v-1.5h.75Zm-1.5 0h-.75v-1.5h.75Zm-1.504 0h-.75v-1.5h.75Zm-1.5 0h-.75v-1.5h.75Zm-1.5 0h-.754v-1.5h.754Zm-1.504 0h-.75v-1.5h.75Zm-1.5 0h-.754v-1.5h.754Zm-1.504 0h-.75v-1.5h.75Zm-1.5 0h-.75v-1.5h.75Zm-1.504 0h-.75v-1.5h.75Zm-1.5 0h-.75v-1.5h.75Zm-1.5 0h-.754v-1.5h.754Zm-1.504 0h-.75v-1.5h.75Zm-1.5 0h-.754v-1.5h.754Zm-1.504 0h-.75v-1.5h.75Zm-1.5 0h-.75v-1.5h.75Zm-1.503 0h-.75v-1.5h.75Zm-1.5 0h-.75v-1.5h.75Zm-1.504 0h-.75v-1.5h.75Zm-1.5 0h-.75v-1.5h.75Zm-1.5 0h-.754v-1.5h.754Zm-1.504 0h-.75v-1.5h.75Zm-1.5 0h-.754v-1.5h.754Zm-1.504 0h-.75v-1.5h.75Zm-1.5 0h-.75v-1.5h.75Zm-1.504 0h-.75v-1.5h.75Zm-1.5 0h-.75v-1.5h.75Zm-1.504 0h-.75v-1.5h.75Zm-1.5 0h-.75v-1.5h.75Zm-1.5 0h-.754v-1.5h.754Zm-1.504 0h-.75v-1.5h.75Zm-1.5 0h-.754v-1.5h.754Zm-1.504 0h-.75v-1.5h.75Zm-1.5 0h-.75v-1.5h.75Zm-1.504 0h-.75v-1.5h.75Zm-1.5 0h-.75v-1.5h.75Zm-1.504 0h-.75v-1.5h.75Zm-1.5 0h-.75v-1.5h.75Zm-1.5 0h-.753v-1.5h.753Zm-1.503 0h-.75v-1.5h.75Zm-1.5 0h-.754v-1.5h.754Zm-1.504 0h-.75v-1.5h.75Zm-1.5 0h-.75v-1.5h.75Zm-1.504 0h-.75v-1.5h.75Zm-1.5 0h-.75v-1.5h.75Zm-1.504 0h-.75v-1.5h.75Zm-1.5 0h-.75v-1.5h.75Zm-1.5 0h-.754v-1.5h.754Zm-1.504 0h-.75v-1.5h.75Zm-1.5 0h-.75v-1.5h.75Zm-1.504 0h-.75v-1.5h.75Zm-1.5 0h-.75v-1.5h.75Zm-1.504 0h-.75v-1.5h.75Zm-1.5 0h-.75v-1.5h.75Zm-1.5 0h-.754v-1.5h.754Zm-1.504 0h-.75v-1.5h.75Zm-1.5 0h-.754v-1.5h.754Zm-1.504 0h-.75v-1.5h.75Zm-1.5 0h-.75v-1.5h.75Zm-1.504 0h-.75v-1.5h.75Zm-1.5 0h-.75v-1.5h.75Zm-1.504 0h-.75v-1.5h.75Zm-1.5 0h-.75v-1.5h.75Zm-1.5 0h-.753v-1.5h.753Zm-1.503 0h-.75v-1.5h.75Zm-1.5 0h-.754v-1.5h.754Zm-1.504 0h-.75v-1.5h.75Zm-1.5 0h-.75v-1.5h.75Zm-1.504 0h-.75v-1.5h.75Zm-1.5 0h-.75v-1.5h.75Zm-1.504 0h-.75v-1.5h.75Zm-1.5 0h-.75v-1.5h.75Zm-1.5 0h-.754v-1.5h.754Zm-1.504 0h-.75v-1.5h.75Zm-1.5 0h-.754v-1.5h.754Zm-1.504 0h-.75v-1.5h.75Zm-1.5 0h-.75v-1.5h.75Zm-1.504 0h-.75v-1.5h.75Zm-1.5 0h-.75v-1.5h.75Zm-1.504 0h-.75v-1.5h.75Zm-1.5 0h-.75v-1.5h.75Zm-1.5 0h-.754v-1.5h.754Zm-1.504 0h-.75v-1.5h.75Zm-1.5 0h-.75v-1.5h.75Zm-1.504 0h-.75v-1.5h.75Zm-1.5 0h-.75v-1.5h.75Zm-1.504 0h-.75v-1.5h.75Zm-1.5 0h-.75v-1.5h.75Zm-1.5 0h-.753v-1.5h.754Zm-1.503 0h-.75v-1.5h.75Zm-1.5 0h-.754v-1.5h.754Zm-1.504 0h-.75v-1.5h.75Zm-1.5 0h-.75v-1.5h.75Zm-1.504 0h-.75v-1.5h.75Zm-1.5 0h-.75v-1.5h.75Zm-1.504 0h-.75v-1.5h.75Zm-1.5 0h-.75v-1.5h.75Zm-1.5 0h-.754v-1.5h.754Zm-1.504 0h-.75v-1.5h.75Zm-1.5 0h-.754v-1.5h.754Zm-1.504 0h-.75v-1.5h.75Zm-1.5 0h-.75v-1.5h.75Zm-1.504 0h-.75v-1.5h.75Zm-1.5 0h-.75v-1.5h.75Zm-1.504 0h-.75v-1.5h.75Zm-1.5 0h-.75v-1.5h.75Zm-1.5 0h-.754v-1.5h.754Zm-1.504 0h-.75v-1.5h.75Zm-1.5 0h-.754v-1.5h.754Zm-1.504 0h-.75v-1.5h.75Zm-1.5 0h-.75v-1.5h.75Zm-1.503 0h-.75v-1.5h.75Zm-1.5 0h-.75v-1.5h.75Zm-1.504 0h-.75v-1.5h.75Zm-1.5 0h-.75v-1.5h.75Zm-1.5 0h-.754v-1.5h.754Zm-1.504 0h-.75v-1.5h.75Zm-1.5 0h-.75v-1.5h.75Zm-1.504 0h-.75v-1.5h.75Zm-1.5 0h-.75v-1.5h.75Zm-1.504 0h-.75v-1.5h.75Zm-1.5 0h-.75v-1.5h.75Zm-1.5 0h-.754v-1.5h.754Zm-1.504 0h-.75v-1.5h.75Zm-1.5 0h-.754v-1.5H78Zm-1.504 0h-.75v-1.5h.75Zm-1.5 0h-.75v-1.5h.75Zm-1.504 0h-.75v-1.5h.75Zm-1.5 0h-.75v-1.5h.75Zm-1.504 0h-.75v-1.5h.75Zm-1.5 0h-.75v-1.5h.75Zm-1.5 0h-.754v-1.5h.754Zm-1.504 0h-.75v-1.5h.75Zm-1.5 0h-.754v-1.5h.754Zm-1.504 0h-.75v-1.5h.75Zm-1.5 0h-.75v-1.5h.75Zm-1.503 0h-.75v-1.5h.75Zm-1.5 0h-.75v-1.5h.75Zm-1.504 0h-.75v-1.5h.75Zm-1.5 0h-.75v-1.5h.75Zm-1.5 0h-.754v-1.5h.754Zm-1.504 0h-.75v-1.5h.75Zm-1.711-1.289v-.75h1.5v.75Zm0-1.5v-.75h1.5v.75Zm0-1.5v-.75h1.5v.75Zm0-1.5v-.75h1.5v.75Zm0-1.5v-.75h1.5v.75Zm0-1.5v-.75h1.5v.75Zm0-1.5v-.75h1.5v.75Zm0-1.5v-.75h1.5v.75Zm0-1.5v-.75h1.5v.75Zm0-1.5v-.75h1.5v.75Zm0-1.5v-.75h1.5v.75Zm0-1.5v-.75h1.5v.75Zm0-1.5v-.75h1.5v.75Zm0-1.5v-.75h1.5v.75Zm0-1.5v-.75h1.5v.75Zm0-1.5v-.75h1.5v.75Zm0-1.5v-.75h1.5v.75Zm0-1.5v-.75h1.5v.75Zm0-1.5v-.75h1.5v.75Zm0-1.5v-.75h1.5v.75Zm0-1.5v-.75h1.5v.75Zm0-1.5v-.75h1.5v.75Zm0-1.5v-.75h1.5v.75Zm0-1.5v-.75h1.5v.75Zm0-1.5v-.75h1.5v.75Zm0-1.5v-.75h1.5v.75Zm0-1.5v-.75h1.5v.75Zm0-1.5v-.75h1.5v.75Zm0-1.5v-.75h1.5v.75Zm0-1.5v-.75h1.5v.75Zm0-1.5v-.75h1.5v.75Zm0-1.5v-.75h1.5v.75Zm0-1.5v-.75h1.5v.75Zm0-1.5v-.75h1.5v.75Zm0-1.5v-.75h1.5v.75Zm0-1.5v-.75h1.5v.75Zm0-1.5v-.75h1.5v.75Zm0-1.5v-.75h1.5v.75Zm0-1.5v-.75h1.5v.75Zm0-1.5v-.75h1.5v.75Zm0 0"/>
  </g>
  <path d="M91.387 327.817h-2.219v-20.375h3.547l6.172 17.25h.297l6.172-17.25h3.422v20.375h-2.266v-16.625l-.344-.047-6.015 16.672h-2.391l-6.031-16.672-.344.047ZM118.214 328.113c-1.524 0-2.711-.394-3.563-1.187-.844-.79-1.266-1.922-1.266-3.39 0-.907.188-1.673.563-2.298.375-.625.957-1.132 1.75-1.53.789-.395 1.82-.704 3.094-.923 1.113-.187 1.96-.394 2.547-.625.582-.226.972-.484 1.171-.765.196-.29.297-.657.297-1.094 0-.695-.242-1.234-.718-1.61-.48-.374-1.25-.562-2.313-.562-.992 0-1.84.195-2.547.578-.71.387-1.36.965-1.953 1.735h-.281l-1.125-1.579a6.94 6.94 0 0 1 2.484-1.968c1-.489 2.14-.735 3.422-.735 1.813 0 3.145.399 4 1.188.863.793 1.297 1.89 1.297 3.297v8.156c0 .855.363 1.281 1.094 1.281.238 0 .468-.039.687-.125l.203.047.266 1.578c-.168.117-.39.2-.672.25a3.775 3.775 0 0 1-.844.094c-.843 0-1.484-.18-1.922-.547-.43-.375-.699-.926-.812-1.656l-.297-.031c-.437.812-1.027 1.421-1.766 1.828-.742.394-1.671.593-2.796.593Zm.5-1.812c.851 0 1.593-.195 2.218-.594.625-.394 1.102-.945 1.438-1.656.332-.719.5-1.547.5-2.484v-1.954l-.266-.062a4.839 4.839 0 0 1-1.25.61c-.492.167-1.18.312-2.062.437-.887.125-1.594.312-2.125.562-.524.25-.899.57-1.125.953-.219.387-.328.86-.328 1.422 0 .907.265 1.594.796 2.063.532.469 1.266.703 2.204.703ZM131.574 309.488c-.48 0-.872-.148-1.172-.453-.305-.3-.453-.687-.453-1.156 0-.457.148-.836.453-1.14.3-.301.691-.454 1.172-.454.488 0 .882.153 1.187.453.3.305.453.684.453 1.141 0 .469-.152.856-.453 1.156-.305.305-.7.453-1.187.453Zm-1.141 18.329v-15.36h2.281v15.36ZM138.051 327.817v-15.36h2.157v2.406l.296.063c.508-.895 1.16-1.578 1.954-2.047.8-.476 1.769-.719 2.906-.719 1.851 0 3.191.477 4.015 1.422.832.938 1.25 2.387 1.25 4.344v9.89h-2.265v-9.828c0-.937-.121-1.687-.36-2.25-.23-.562-.593-.968-1.093-1.218-.5-.258-1.153-.39-1.953-.39-1.387 0-2.508.46-3.36 1.374-.844.918-1.265 2.39-1.265 4.422v7.89ZM175.106 307.442v1.984h-9.578v7.406h8.609v2h-8.61v8.985h-2.39v-20.375ZM185.013 328.113c-1.449 0-2.71-.304-3.781-.921-1.074-.614-1.902-1.516-2.484-2.704-.575-1.195-.86-2.644-.86-4.343 0-1.696.285-3.145.86-4.344.582-1.195 1.41-2.102 2.484-2.719 1.07-.613 2.332-.922 3.781-.922 1.446 0 2.707.309 3.782.922 1.07.617 1.898 1.524 2.484 2.719.582 1.2.875 2.648.875 4.344 0 1.699-.293 3.148-.875 4.343-.586 1.188-1.414 2.09-2.484 2.704-1.075.617-2.336.921-3.782.921Zm0-2.03c1.532 0 2.703-.485 3.516-1.454.82-.969 1.234-2.46 1.234-4.484 0-2.04-.414-3.54-1.234-4.5-.813-.969-1.984-1.453-3.516-1.453-1.531 0-2.71.484-3.531 1.453-.812.968-1.219 2.468-1.219 4.5 0 2.023.407 3.515 1.219 4.484.82.969 2 1.453 3.531 1.453ZM202.645 328.113c-1.449 0-2.71-.304-3.78-.921-1.075-.614-1.903-1.516-2.485-2.704-.574-1.195-.86-2.644-.86-4.343 0-1.696.286-3.145.86-4.344.582-1.195 1.41-2.102 2.484-2.719 1.07-.613 2.332-.922 3.781-.922 1.446 0 2.707.309 3.782.922 1.07.617 1.898 1.524 2.484 2.719.582 1.2.875 2.648.875 4.344 0 1.699-.293 3.148-.875 4.343-.586 1.188-1.414 2.09-2.484 2.704-1.075.617-2.336.921-3.782.921Zm0-2.03c1.532 0 2.704-.485 3.516-1.454.82-.969 1.234-2.46 1.234-4.484 0-2.04-.414-3.54-1.234-4.5-.812-.969-1.984-1.453-3.516-1.453-1.53 0-2.71.484-3.53 1.453-.813.968-1.22 2.468-1.22 4.5 0 2.023.407 3.515 1.22 4.484.82.969 2 1.453 3.53 1.453ZM221.856 325.38l.718 1.624c-.355.367-.828.64-1.421.828a6.302 6.302 0 0 1-1.907.281c-2.937 0-4.406-1.488-4.406-4.468V314.3h-2.672v-1.86h2.672v-3.25l2.266-.374v3.625h4.953v1.859h-4.953v9.125c0 1.773.765 2.656 2.297 2.656.832 0 1.55-.234 2.156-.703ZM237.805 320.66h-10.563c.063 1.868.508 3.235 1.344 4.11.832.875 1.973 1.312 3.422 1.312 1.094 0 1.973-.191 2.64-.578.676-.394 1.204-1.016 1.579-1.86h.297l1.484.891c-.45 1.118-1.164 1.993-2.14 2.625-.981.637-2.266.953-3.86.953-1.48 0-2.758-.293-3.828-.875-1.074-.593-1.899-1.484-2.469-2.671-.574-1.188-.86-2.66-.86-4.422 0-1.75.301-3.223.907-4.422.613-1.195 1.445-2.086 2.5-2.672 1.05-.594 2.254-.89 3.61-.89 1.968 0 3.503.558 4.609 1.671 1.101 1.106 1.66 2.746 1.672 4.922 0 .856-.016 1.434-.047 1.734Zm-1.89-1.906c-.044-1.625-.407-2.805-1.095-3.547-.687-.75-1.671-1.125-2.953-1.125-1.343 0-2.402.375-3.172 1.125-.761.742-1.226 1.922-1.39 3.547ZM242.215 327.817v-15.36h2.156v2.406l.297.063c.719-1.738 2.066-2.61 4.047-2.61 1.039 0 1.82.188 2.343.563l-.578 1.922-.28.062a4.143 4.143 0 0 0-1.892-.437c-1.23 0-2.171.465-2.828 1.39-.656.919-.984 2.407-.984 4.47v7.53Zm0 0"/>
  <g clip-path="url(#l)">
    <path fill="#fff" d="M51.508 163.223h234.844v53.437H51.508Zm0 0"/>
  </g>
  <g clip-path="url(#m)">
    <path d="M51.523 162.473h.75v1.504h-.75Zm1.5 0h.754v1.504h-.754Zm1.504 0h.75v1.504h-.75Zm1.5 0h.754v1.504h-.754Zm1.504 0h.75v1.504h-.75Zm1.5 0h.75v1.504h-.75Zm1.504 0h.75v1.504h-.75Zm1.5 0h.75v1.504h-.75Zm1.504 0h.75v1.504h-.75Zm1.5 0h.75v1.504h-.75Zm1.5 0h.754v1.504h-.754Zm1.504 0h.75v1.504h-.75Zm1.5 0h.75v1.504h-.75Zm1.504 0h.75v1.504h-.75Zm1.5 0h.75v1.504h-.75Zm1.504 0h.75v1.504h-.75Zm1.5 0h.75v1.504h-.75Zm1.5 0h.754v1.504h-.754Zm1.504 0h.75v1.504h-.75Zm1.5 0h.754v1.504h-.754Zm1.504 0h.75v1.504h-.75Zm1.5 0h.75v1.504h-.75Zm1.504 0h.75v1.504h-.75Zm1.5 0h.75v1.504h-.75Zm1.503 0h.75v1.504h-.75Zm1.5 0h.75v1.504h-.75Zm1.5 0h.754v1.504h-.754Zm1.504 0h.75v1.504h-.75Zm1.5 0h.754v1.504h-.754Zm1.504 0h.75v1.504h-.75Zm1.5 0h.75v1.504h-.75Zm1.504 0h.75v1.504h-.75Zm1.5 0h.75v1.504h-.75Zm1.504 0h.75v1.504h-.75Zm1.5 0h.75v1.504h-.75Zm1.5 0h.754v1.504h-.754Zm1.504 0h.75v1.504h-.75Zm1.5 0h.754v1.504h-.754Zm1.504 0h.75v1.504h-.75Zm1.5 0h.75v1.504h-.75Zm1.504 0h.75v1.504h-.75Zm1.5 0h.75v1.504h-.75Zm1.504 0h.75v1.504h-.75Zm1.5 0h.75v1.504h-.75Zm1.5 0h.754v1.504h-.754Zm1.504 0h.75v1.504h-.75Zm1.5 0h.753v1.504h-.753Zm1.503 0h.75v1.504h-.75Zm1.5 0h.75v1.504h-.75Zm1.504 0h.75v1.504h-.75Zm1.5 0h.75v1.504h-.75Zm1.5 0h.754v1.504h-.754Zm1.504 0h.75v1.504h-.75Zm1.5 0h.754v1.504h-.754Zm1.504 0h.75v1.504h-.75Zm1.5 0h.75v1.504h-.75Zm1.504 0h.75v1.504h-.75Zm1.5 0h.75v1.504h-.75Zm1.504 0h.75v1.504h-.75Zm1.5 0h.75v1.504h-.75Zm1.5 0h.754v1.504h-.754Zm1.504 0h.75v1.504h-.75Zm1.5 0h.754v1.504h-.754Zm1.504 0h.75v1.504h-.75Zm1.5 0h.75v1.504h-.75Zm1.504 0h.75v1.504h-.75Zm1.5 0h.75v1.504h-.75Zm1.504 0h.75v1.504h-.75Zm1.5 0h.75v1.504h-.75Zm1.5 0h.754v1.504h-.754Zm1.504 0h.75v1.504h-.75Zm1.5 0h.753v1.504h-.753Zm1.503 0h.75v1.504h-.75Zm1.5 0h.75v1.504h-.75Zm1.504 0h.75v1.504h-.75Zm1.5 0h.75v1.504h-.75Zm1.504 0h.75v1.504h-.75Zm1.5 0h.75v1.504h-.75Zm1.5 0h.754v1.504h-.754Zm1.504 0h.75v1.504h-.75Zm1.5 0h.754v1.504h-.754Zm1.504 0h.75v1.504h-.75Zm1.5 0h.75v1.504h-.75Zm1.504 0h.75v1.504h-.75Zm1.5 0h.75v1.504h-.75Zm1.5 0h.754v1.504h-.754Zm1.504 0h.75v1.504h-.75Zm1.5 0h.754v1.504h-.754Zm1.504 0h.75v1.504h-.75Zm1.5 0h.75v1.504h-.75Zm1.504 0h.75v1.504h-.75Zm1.5 0h.75v1.504h-.75Zm1.504 0h.75v1.504h-.75Zm1.5 0h.75v1.504h-.75Zm1.5 0h.754v1.504h-.754Zm1.504 0h.75v1.504h-.75Zm1.5 0h.753v1.504h-.754Zm1.503 0h.75v1.504h-.75Zm1.5 0h.75v1.504h-.75Zm1.504 0h.75v1.504h-.75Zm1.5 0h.75v1.504h-.75Zm1.504 0h.75v1.504h-.75Zm1.5 0h.75v1.504h-.75Zm1.5 0h.754v1.504h-.754Zm1.504 0h.75v1.504h-.75Zm1.5 0h.754v1.504h-.754Zm1.504 0h.75v1.504h-.75Zm1.5 0h.75v1.504h-.75Zm1.504 0h.75v1.504h-.75Zm1.5 0h.75v1.504h-.75Zm1.504 0h.75v1.504h-.75Zm1.5 0h.75v1.504h-.75Zm1.5 0h.754v1.504h-.754Zm1.504 0h.75v1.504h-.75Zm1.5 0h.754v1.504h-.754Zm1.504 0h.75v1.504h-.75Zm1.5 0h.75v1.504h-.75Zm1.504 0h.75v1.504h-.75Zm1.5 0h.75v1.504h-.75Zm1.503 0h.75v1.504h-.75Zm1.5 0h.75v1.504h-.75Zm1.5 0h.754v1.504h-.754Zm1.504 0h.75v1.504h-.75Zm1.5 0h.75v1.504h-.75Zm1.504 0h.75v1.504h-.75Zm1.5 0h.75v1.504h-.75Zm1.504 0h.75v1.504h-.75Zm1.5 0h.75v1.504h-.75Zm1.5 0h.754v1.504h-.754Zm1.504 0h.75v1.504h-.75Zm1.5 0h.754v1.504h-.754Zm1.504 0h.75v1.504h-.75Zm1.5 0h.75v1.504h-.75Zm1.504 0h.75v1.504h-.75Zm1.5 0h.75v1.504h-.75Zm1.504 0h.75v1.504h-.75Zm1.5 0h.75v1.504h-.75Zm1.5 0h.754v1.504h-.754Zm1.504 0h.75v1.504h-.75Zm1.5 0h.754v1.504h-.754Zm1.504 0h.75v1.504h-.75Zm1.5 0h.75v1.504h-.75Zm1.504 0h.75v1.504h-.75Zm1.5 0h.75v1.504h-.75Zm1.503 0h.75v1.504h-.75Zm1.5 0h.75v1.504h-.75Zm1.5 0h.754v1.504h-.754Zm1.504 0h.75v1.504h-.75Zm1.5 0h.754v1.504h-.754Zm1.504 0h.75v1.504h-.75Zm1.5 0h.75v1.504h-.75Zm1.504 0h.75v1.504h-.75Zm1.5 0h.75v1.504h-.75Zm1.504 0h.75v1.504h-.75Zm1.5 0h.75v1.504h-.75Zm1.5 0h.754v1.504h-.754Zm1.504 0h1.2v1.05h-1.5v-.3h.75v.754h-.45Zm1.2 1.804v.75h-1.5v-.75Zm0 1.504v.75h-1.5v-.75Zm0 1.504v.75h-1.5v-.75Zm0 1.504v.75h-1.5v-.75Zm0 1.504v.75h-1.5v-.75Zm0 1.504v.75h-1.5v-.75Zm0 1.504v.75h-1.5v-.75Zm0 1.504v.75h-1.5v-.75Zm0 1.504v.75h-1.5v-.75Zm0 1.504v.75h-1.5v-.75Zm0 1.503v.75h-1.5v-.75Zm0 1.504v.75h-1.5v-.75Zm0 1.504v.75h-1.5v-.75Zm0 1.504v.75h-1.5v-.75Zm0 1.504v.75h-1.5v-.75Zm0 1.504v.75h-1.5v-.75Zm0 1.504v.75h-1.5v-.75Zm0 1.504v.75h-1.5v-.75Zm0 1.504v.75h-1.5v-.75Zm0 1.504v.75h-1.5v-.75Zm0 1.503v.75h-1.5v-.75Zm0 1.504v.75h-1.5v-.75Zm0 1.504v.75h-1.5v-.75Zm0 1.504v.75h-1.5v-.75Zm0 1.504v.75h-1.5v-.75Zm0 1.504v.75h-1.5v-.75Zm0 1.504v.75h-1.5v-.75Zm0 1.504v.75h-1.5v-.75Zm0 1.504v.75h-1.5v-.75Zm0 1.504v.75h-1.5v-.75Zm0 1.504v.75h-1.5v-.75Zm0 1.503v.75h-1.5v-.75Zm0 1.504v.75h-1.5v-.75Zm0 1.504v.75h-1.5v-.75Zm0 1.504v.75h-1.5v-.75Zm0 1.504v1.063H285.8v-1.504h.441v.75h-.75v-.309Zm-1.942 1.063h-.75v-1.504h.75Zm-1.5 0h-.754v-1.504h.754Zm-1.504 0h-.75v-1.504h.75Zm-1.5 0h-.754v-1.504h.754Zm-1.504 0h-.75v-1.504h.75Zm-1.5 0h-.75v-1.504h.75Zm-1.504 0h-.75v-1.504h.75Zm-1.5 0h-.75v-1.504h.75Zm-1.504 0h-.75v-1.504h.75Zm-1.5 0h-.75v-1.504h.75Zm-1.5 0h-.754v-1.504h.754Zm-1.504 0h-.75v-1.504h.75Zm-1.5 0h-.754v-1.504h.754Zm-1.504 0h-.75v-1.504h.75Zm-1.5 0h-.75v-1.504h.75Zm-1.504 0h-.75v-1.504h.75Zm-1.5 0h-.75v-1.504h.75Zm-1.503 0h-.75v-1.504h.75Zm-1.5 0h-.75v-1.504h.75Zm-1.5 0h-.754v-1.504h.754Zm-1.504 0h-.75v-1.504h.75Zm-1.5 0h-.75v-1.504h.75Zm-1.504 0h-.75v-1.504h.75Zm-1.5 0h-.75v-1.504h.75Zm-1.504 0h-.75v-1.504h.75Zm-1.5 0h-.75v-1.504h.75Zm-1.5 0h-.754v-1.504h.754Zm-1.504 0h-.75v-1.504h.75Zm-1.5 0h-.754v-1.504h.754Zm-1.504 0h-.75v-1.504h.75Zm-1.5 0h-.75v-1.504h.75Zm-1.504 0h-.75v-1.504h.75Zm-1.5 0h-.75v-1.504h.75Zm-1.504 0h-.75v-1.504h.75Zm-1.5 0h-.75v-1.504h.75Zm-1.5 0h-.754v-1.504h.754Zm-1.504 0h-.75v-1.504h.75Zm-1.5 0h-.754v-1.504h.754Zm-1.504 0h-.75v-1.504h.75Zm-1.5 0h-.75v-1.504h.75Zm-1.504 0h-.75v-1.504h.75Zm-1.5 0h-.75v-1.504h.75Zm-1.503 0h-.75v-1.504h.75Zm-1.5 0h-.75v-1.504h.75Zm-1.5 0h-.754v-1.504h.754Zm-1.504 0h-.75v-1.504h.75Zm-1.5 0h-.754v-1.504h.754Zm-1.504 0h-.75v-1.504h.75Zm-1.5 0h-.75v-1.504h.75Zm-1.504 0h-.75v-1.504h.75Zm-1.5 0h-.75v-1.504h.75Zm-1.504 0h-.75v-1.504h.75Zm-1.5 0h-.75v-1.504h.75Zm-1.5 0h-.754v-1.504h.754Zm-1.504 0h-.75v-1.504h.75Zm-1.5 0h-.75v-1.504h.75Zm-1.504 0h-.75v-1.504h.75Zm-1.5 0h-.75v-1.504h.75Zm-1.504 0h-.75v-1.504h.75Zm-1.5 0h-.75v-1.504h.75Zm-1.5 0h-.754v-1.504h.754Zm-1.504 0h-.75v-1.504h.75Zm-1.5 0h-.754v-1.504h.754Zm-1.504 0h-.75v-1.504h.75Zm-1.5 0h-.75v-1.504h.75Zm-1.504 0h-.75v-1.504h.75Zm-1.5 0h-.75v-1.504h.75Zm-1.503 0h-.75v-1.504h.75Zm-1.5 0h-.75v-1.504h.75Zm-1.5 0h-.754v-1.504h.754Zm-1.504 0h-.75v-1.504h.75Zm-1.5 0h-.754v-1.504h.754Zm-1.504 0h-.75v-1.504h.75Zm-1.5 0h-.75v-1.504h.75Zm-1.504 0h-.75v-1.504h.75Zm-1.5 0h-.75v-1.504h.75Zm-1.504 0h-.75v-1.504h.75Zm-1.5 0h-.75v-1.504h.75Zm-1.5 0h-.754v-1.504h.754Zm-1.504 0h-.75v-1.504h.75Zm-1.5 0h-.754v-1.504h.754Zm-1.504 0h-.75v-1.504h.75Zm-1.5 0h-.75v-1.504h.75Zm-1.504 0h-.75v-1.504h.75Zm-1.5 0h-.75v-1.504h.75Zm-1.504 0h-.75v-1.504h.75Zm-1.5 0h-.75v-1.504h.75Zm-1.5 0h-.754v-1.504h.754Zm-1.504 0h-.75v-1.504h.75Zm-1.5 0h-.753v-1.504h.753Zm-1.503 0h-.75v-1.504h.75Zm-1.5 0h-.75v-1.504h.75Zm-1.504 0h-.75v-1.504h.75Zm-1.5 0h-.75v-1.504h.75Zm-1.5 0h-.754v-1.504h.754Zm-1.504 0h-.75v-1.504h.75Zm-1.5 0h-.754v-1.504h.754Zm-1.504 0h-.75v-1.504h.75Zm-1.5 0h-.75v-1.504h.75Zm-1.504 0h-.75v-1.504h.75Zm-1.5 0h-.75v-1.504h.75Zm-1.504 0h-.75v-1.504h.75Zm-1.5 0h-.75v-1.504h.75Zm-1.5 0h-.754v-1.504h.754Zm-1.504 0h-.75v-1.504h.75Zm-1.5 0h-.754v-1.504h.754Zm-1.504 0h-.75v-1.504h.75Zm-1.5 0h-.75v-1.504h.75Zm-1.504 0h-.75v-1.504h.75Zm-1.5 0h-.75v-1.504h.75Zm-1.504 0h-.75v-1.504h.75Zm-1.5 0h-.75v-1.504h.75Zm-1.5 0h-.754v-1.504h.754Zm-1.504 0h-.75v-1.504h.75Zm-1.5 0h-.753v-1.504h.753Zm-1.503 0h-.75v-1.504h.75Zm-1.5 0h-.75v-1.504h.75Zm-1.504 0h-.75v-1.504h.75Zm-1.5 0h-.75v-1.504h.75Zm-1.504 0h-.75v-1.504h.75Zm-1.5 0h-.75v-1.504h.75Zm-1.5 0h-.754v-1.504h.754Zm-1.504 0h-.75v-1.504h.75Zm-1.5 0h-.754v-1.504h.754Zm-1.504 0h-.75v-1.504h.75Zm-1.5 0h-.75v-1.504h.75Zm-1.504 0h-.75v-1.504h.75Zm-1.5 0h-.75v-1.504h.75Zm-1.5 0h-.754v-1.504h.754Zm-1.504 0h-.75v-1.504h.75Zm-1.5 0h-.754v-1.504h.754Zm-1.504 0h-.75v-1.504h.75Zm-1.5 0h-.75v-1.504h.75Zm-1.504 0h-.75v-1.504h.75Zm-1.5 0h-.75v-1.504h.75Zm-1.504 0h-.75v-1.504h.75Zm-1.5 0h-.75v-1.504h.75Zm-1.5 0h-.754v-1.504h.754Zm-1.504 0h-.75v-1.504h.75Zm-1.5 0h-.753v-1.504h.754Zm-1.503 0h-.75v-1.504h.75Zm-1.5 0h-.75v-1.504h.75Zm-1.504 0h-.75v-1.504h.75Zm-1.5 0h-.75v-1.504h.75Zm-1.504 0h-.75v-1.504h.75Zm-1.5 0h-.75v-1.504h.75Zm-1.5 0h-.754v-1.504h.754Zm-1.504 0h-.75v-1.504h.75Zm-1.5 0h-.754v-1.504h.754Zm-1.504 0h-.75v-1.504h.75Zm-1.5 0h-.75v-1.504h.75Zm-1.504 0h-.75v-1.504h.75Zm-1.5 0h-.75v-1.504h.75Zm-1.504 0h-.75v-1.504h.75Zm-1.5 0h-.75v-1.504h.75Zm-1.5 0h-.754v-1.504h.754Zm-1.512-1.497v-.75h1.5v.75Zm0-1.503v-.75h1.5v.75Zm0-1.504v-.75h1.5v.75Zm0-1.504v-.75h1.5v.75Zm0-1.504v-.75h1.5v.75Zm0-1.504v-.75h1.5v.75Zm0-1.504v-.75h1.5v.75Zm0-1.504v-.75h1.5v.75Zm0-1.504v-.75h1.5v.75Zm0-1.504v-.75h1.5v.75Zm0-1.504v-.75h1.5v.75Zm0-1.504v-.75h1.5v.75Zm0-1.503v-.75h1.5v.75Zm0-1.504v-.75h1.5v.75Zm0-1.504v-.75h1.5v.75Zm0-1.504v-.75h1.5v.75Zm0-1.504v-.75h1.5v.75Zm0-1.504v-.75h1.5v.75Zm0-1.504v-.75h1.5v.75Zm0-1.504v-.75h1.5v.75Zm0-1.504v-.75h1.5v.75Zm0-1.504v-.75h1.5v.75Zm0-1.503v-.75h1.5v.75Zm0-1.504v-.75h1.5v.75Zm0-1.504v-.75h1.5v.75Zm0-1.504v-.75h1.5v.75Zm0-1.504v-.75h1.5v.75Zm0-1.504v-.75h1.5v.75Zm0-1.504v-.75h1.5v.75Zm0-1.504v-.75h1.5v.75Zm0-1.504v-.75h1.5v.75Zm0-1.504v-.75h1.5v.75Zm0-1.504v-.75h1.5v.75Zm0-1.503v-.75h1.5v.75Zm0-1.504v-.75h1.5v.75Zm0-1.504v-.621h1.5v.62Zm0 0"/>
  </g>
  <path d="M159.59 179.599v2.047h-6.375v18.328h-2.375v-18.328h-6.39v-2.047ZM169.141 200.27c-1.449 0-2.71-.304-3.78-.921-1.075-.613-1.903-1.516-2.485-2.703-.574-1.195-.86-2.645-.86-4.344 0-1.695.286-3.144.86-4.344.582-1.195 1.41-2.101 2.484-2.718 1.07-.614 2.332-.922 3.781-.922 1.446 0 2.707.308 3.782.922 1.07.617 1.898 1.523 2.484 2.718.582 1.2.875 2.649.875 4.344 0 1.7-.293 3.149-.875 4.344-.586 1.187-1.414 2.09-2.484 2.703-1.075.617-2.336.922-3.782.922Zm0-2.03c1.532 0 2.703-.485 3.516-1.454.82-.968 1.234-2.46 1.234-4.484 0-2.039-.414-3.539-1.234-4.5-.813-.969-1.984-1.453-3.516-1.453-1.53 0-2.71.484-3.53 1.453-.813.969-1.22 2.469-1.22 4.5 0 2.024.407 3.516 1.22 4.484.82.97 2 1.454 3.53 1.454ZM186.774 200.27c-1.356 0-2.575-.304-3.657-.921-1.074-.625-1.922-1.535-2.547-2.734-.617-1.207-.921-2.645-.921-4.313 0-1.687.304-3.129.921-4.328.625-1.207 1.473-2.117 2.547-2.734 1.082-.614 2.301-.922 3.657-.922 1.625 0 2.914.308 3.875.922.968.617 1.664 1.433 2.093 2.453l-1.547 1.11h-.28c-.419-.845-.954-1.462-1.61-1.86-.656-.395-1.5-.594-2.531-.594-.95 0-1.782.227-2.5.672-.711.45-1.262 1.121-1.657 2.015-.398.887-.593 1.977-.593 3.266 0 1.281.195 2.367.593 3.25.407.887.961 1.559 1.672 2.016.707.449 1.535.672 2.485.672 1.07 0 1.957-.239 2.656-.72.707-.487 1.258-1.253 1.656-2.296h.297l1.484.875c-.398 1.293-1.11 2.312-2.14 3.062-1.024.743-2.34 1.11-3.953 1.11Zm0 0"/>
</svg>
