<?xml version="1.0" encoding="UTF-8" standalone="no"?>
<svg
   xmlns:dc="http://purl.org/dc/elements/1.1/"
   xmlns:cc="http://creativecommons.org/ns#"
   xmlns:rdf="http://www.w3.org/1999/02/22-rdf-syntax-ns#"
   xmlns:svg="http://www.w3.org/2000/svg"
   xmlns="http://www.w3.org/2000/svg"
   xmlns:sodipodi="http://sodipodi.sourceforge.net/DTD/sodipodi-0.dtd"
   xmlns:inkscape="http://www.inkscape.org/namespaces/inkscape"
   viewBox="0 0 1488.5922 931.81317"
   version="1.1"
   id="svg4562"
   sodipodi:docname="object-multicolor.svg"
   preserveAspectRatio="none"
   width="1488.5922"
   height="931.81317"
   inkscape:version="0.92.4 (5da689c313, 2019-01-14)">
  <metadata
     id="metadata4568">
    <rdf:RDF>
      <cc:Work
         rdf:about="">
        <dc:format>image/svg+xml</dc:format>
        <dc:type
           rdf:resource="http://purl.org/dc/dcmitype/StillImage" />
        <dc:title></dc:title>
      </cc:Work>
    </rdf:RDF>
  </metadata>
  <defs
     id="defs4566" />
  <sodipodi:namedview
     pagecolor="#ffffff"
     bordercolor="#666666"
     borderopacity="1"
     objecttolerance="10"
     gridtolerance="10"
     guidetolerance="10"
     inkscape:pageopacity="0"
     inkscape:pageshadow="2"
     inkscape:window-width="1920"
     inkscape:window-height="1017"
     id="namedview4564"
     showgrid="false"
     inkscape:lockguides="false"
     inkscape:zoom="0.47466667"
     inkscape:cx="654.39005"
     inkscape:cy="468.33243"
     inkscape:window-x="-8"
     inkscape:window-y="-8"
     inkscape:window-maximized="1"
     inkscape:current-layer="svg4562"
     fit-margin-top="60"
     fit-margin-left="60"
     fit-margin-right="60"
     fit-margin-bottom="60" />
  <path
     d="m 177.15022,537.44112 -10.106,-10.304 c -0.995,-1.013 -0.995,-2.618 0,-3.631 l 10.106,-10.303 c 0.994,-1.013 2.568,-1.013 3.562,0 l 10.106,10.303 c 0.994,1.013 0.994,2.618 0,3.631 l -10.106,10.304 c -0.912,1.013 -2.568,1.013 -3.562,0 z"
     id="path4544"
     inkscape:connector-curvature="0" />
  <circle
     cx="1207.8053"
     cy="167.48312"
     r="9.7229996"
     id="circle4546" />
  <circle
     stroke-miterlimit="10"
     cx="344.28421"
     cy="291.65811"
     r="12.587"
     style="stroke-width:3;stroke-miterlimit:10"
     id="circle4548" />
  <path
     d="m 66.344217,65.731122 c 0.642,-1.657 2.118,-2.845 3.874,-3.118 l 16.441,-2.554 c 1.755,-0.273 3.522,0.412 4.636,1.795 l 10.433003,12.961 c 1.114,1.384 1.405,3.257 0.764,4.914 l -6.009003,15.515 c -0.642,1.657 -2.118,2.845 -3.874,3.119 l -16.441,2.553998 c -1.755,0.273 -3.523,-0.411 -4.636,-1.795998 l -10.433,-12.961 c -1.114,-1.384 -1.405,-3.257 -0.764,-4.914 z"
     id="path4550"
     inkscape:connector-curvature="0" />
  <path
     d="m 1151.9412,668.66012 c 0.301,-0.777 0.993,-1.334 1.816,-1.462 l 7.707,-1.197 c 0.822,-0.128 1.651,0.193 2.173,0.842 l 4.89,6.075 c 0.522,0.649 0.659,1.527 0.358,2.303 l -2.816,7.273 c -0.301,0.777 -0.993,1.334 -1.816,1.462 l -7.706,1.197 c -0.823,0.128 -1.652,-0.193 -2.174,-0.842 l -4.89,-6.075 c -0.522,-0.649 -0.659,-1.527 -0.358,-2.303 z"
     id="path4552"
     inkscape:connector-curvature="0" />
  <path
     d="m 133.05222,253.77912 c 0.371,-0.959 1.225,-1.645 2.24,-1.803 l 9.505,-1.476 c 1.015,-0.159 2.037,0.238 2.681,1.037 l 6.031,7.494 c 0.644,0.8 0.813,1.883 0.442,2.84 l -3.474,8.97 c -0.371,0.958 -1.224,1.646 -2.239,1.804 l -9.506,1.476 c -1.015,0.158 -2.036,-0.237 -2.68,-1.038 l -6.032,-7.493 c -0.644,-0.801 -0.812,-1.883 -0.442,-2.841 z"
     id="path4554"
     inkscape:connector-curvature="0" />
  <path
     d="m 281.99522,852.71912 c 0.348,-0.897 1.148,-1.541 2.099,-1.689 l 8.907,-1.383 c 0.95,-0.148 1.908,0.223 2.511,0.972 l 5.652,7.021 c 0.604,0.751 0.762,1.765 0.414,2.663 l -3.255,8.404 c -0.348,0.898 -1.148,1.542 -2.099,1.69 l -8.906,1.384 c -0.951,0.148 -1.909,-0.223 -2.512,-0.973 l -5.652,-7.021 c -0.603,-0.75 -0.761,-1.765 -0.414,-2.663 z"
     id="path4556"
     inkscape:connector-curvature="0" />
  <circle
     stroke-miterlimit="10"
     cx="754.3642"
     cy="850.02911"
     r="9.9969997"
     style="stroke-width:3;stroke-miterlimit:10"
     id="circle4558" />
  <path
     d="m 1414.0142,345.35212 c 0.257,-0.661 0.846,-1.137 1.548,-1.246 l 6.57,-1.02 c 0.701,-0.109 1.407,0.165 1.852,0.717 l 4.169,5.179 c 0.445,0.553 0.561,1.302 0.305,1.964 l -2.401,6.199 c -0.256,0.662 -0.847,1.137 -1.548,1.247 l -6.569,1.021 c -0.701,0.108 -1.408,-0.165 -1.853,-0.718 l -4.169,-5.179 c -0.445,-0.553 -0.561,-1.302 -0.305,-1.964 z"
     style="display:inline"
     id="path4560"
     inkscape:connector-curvature="0" />
</svg>
