<svg preserveAspectRatio="none" version="1.1" viewBox="0 0 1419.2 834.05" xmlns="http://www.w3.org/2000/svg">
 <path d="m107.77 439.68-10.106-10.304c-0.995-1.013-0.995-2.618 0-3.631l10.106-10.303c0.994-1.013 2.568-1.013 3.562 0l10.106 10.303c0.994 1.013 0.994 2.618 0 3.631l-10.106 10.304c-0.912 1.013-2.568 1.013-3.562 0z"/>
 <circle cx="1138.4" cy="69.723" r="9.723"/>
 <circle class="nico" cx="274.9" cy="193.9" r="12.587" stroke-miterlimit="10" stroke-width="3"/>
 <path d="m680.39 104.91c0.642-1.657 2.118-2.845 3.874-3.118l16.441-2.554c1.755-0.273 3.522 0.412 4.636 1.795l10.433 12.961c1.114 1.384 1.405 3.257 0.764 4.914l-6.009 15.515c-0.642 1.657-2.118 2.845-3.874 3.119l-16.441 2.554c-1.755 0.273-3.523-0.411-4.636-1.796l-10.433-12.961c-1.114-1.384-1.405-3.257-0.764-4.914z"/>
 <path class="fill-pink" d="m1082.6 570.9c0.301-0.777 0.993-1.334 1.816-1.462l7.707-1.197c0.822-0.128 1.651 0.193 2.173 0.842l4.89 6.075c0.522 0.649 0.659 1.527 0.358 2.303l-2.816 7.273c-0.301 0.777-0.993 1.334-1.816 1.462l-7.706 1.197c-0.823 0.128-1.652-0.193-2.174-0.842l-4.89-6.075c-0.522-0.649-0.659-1.527-0.358-2.303z"/>
 <path d="m63.667 156.02c0.371-0.959 1.225-1.645 2.24-1.803l9.505-1.476c1.015-0.159 2.037 0.238 2.681 1.037l6.031 7.494c0.644 0.8 0.813 1.883 0.442 2.84l-3.474 8.97c-0.371 0.958-1.224 1.646-2.239 1.804l-9.506 1.476c-1.015 0.158-2.036-0.237-2.68-1.038l-6.032-7.493c-0.644-0.801-0.812-1.883-0.442-2.841z"/>
 <path d="m212.61 754.96c0.348-0.897 1.148-1.541 2.099-1.689l8.907-1.383c0.95-0.148 1.908 0.223 2.511 0.972l5.652 7.021c0.604 0.751 0.762 1.765 0.414 2.663l-3.255 8.404c-0.348 0.898-1.148 1.542-2.099 1.69l-8.906 1.384c-0.951 0.148-1.909-0.223-2.512-0.973l-5.652-7.021c-0.603-0.75-0.761-1.765-0.414-2.663z"/>
 <circle cx="684.98" cy="752.27" r="9.997" stroke-miterlimit="10" stroke-width="3"/>
 <path d="m1344.6 247.59c0.257-0.661 0.846-1.137 1.548-1.246l6.57-1.02c0.701-0.109 1.407 0.165 1.852 0.717l4.169 5.179c0.445 0.553 0.561 1.302 0.305 1.964l-2.401 6.199c-0.256 0.662-0.847 1.137-1.548 1.247l-6.569 1.021c-0.701 0.108-1.408-0.165-1.853-0.718l-4.169-5.179c-0.445-0.553-0.561-1.302-0.305-1.964z"/>
</svg>
