<svg xmlns="http://www.w3.org/2000/svg" xmlns:xlink="http://www.w3.org/1999/xlink" version="1.0" viewBox="0 0 337.5 450">
  <defs>
    <path id="reuse-0" d="M0 .332h337.5v450H0Zm0 0"/>
  </defs>
  <defs>
    <clipPath id="a">
      <path d="M0 .332h337v449.336H0Zm0 0"/>
    </clipPath>
    <clipPath id="b">
      <path d="M0 .332h337V103H0Zm0 0"/>
    </clipPath>
    <clipPath id="c">
      <path d="M.016.332H337v102.625H.016Zm0 0"/>
    </clipPath>
    <clipPath id="d">
      <path d="M0 342.137h337v107.531H0Zm0 0"/>
    </clipPath>
    <clipPath id="e">
      <path d="M.012 342.137H337v107.531H.012Zm0 0"/>
    </clipPath>
    <clipPath id="f">
      <path d="M.004 103.094H103v239.039H.004Zm0 0"/>
    </clipPath>
    <clipPath id="g">
      <path d="M.004 102.895h102.75v239.23H.004Zm0 0"/>
    </clipPath>
    <clipPath id="h">
      <path d="M103.016 163.098H337v119.039H103.016Zm0 0"/>
    </clipPath>
    <clipPath id="i">
      <path d="M103.016 163.102H337v119.246H103.016Zm0 0"/>
    </clipPath>
    <clipPath id="j">
      <path d="M103.016 103.098H337v60H103.016Zm0 0"/>
    </clipPath>
    <clipPath id="k">
      <path d="M103.016 282.137H337v60H103.016Zm0 0"/>
    </clipPath>
  </defs>
  <g fill="#fff" clip-path="url(#a)">
    <path d="M0 .332h337.5v456.75H0Zm0 0"/>
    <use xlink:href="#reuse-0"/>
    <use xlink:href="#reuse-0"/>
  </g>
  <g clip-path="url(#b)">
    <path fill="#fff" d="M0 .207h337.5v102.656H0Zm0 0"/>
  </g>
  <g clip-path="url(#c)">
    <path d="M.016-.54h.75V.958h-.75Zm1.5 0h.75V.958h-.75Zm1.5 0h.75V.958h-.75Zm1.5 0h.75V.958h-.75Zm1.5 0h.75V.958h-.75Zm1.5 0h.75V.958h-.75Zm1.5 0h.75V.958h-.75Zm1.5 0h.75V.958h-.75Zm1.5 0h.75V.958h-.75Zm1.5 0h.75V.958h-.75Zm1.5 0h.75V.958h-.75Zm1.5 0h.75V.958h-.75Zm1.5 0h.75V.958h-.75Zm1.5 0h.75V.958h-.75Zm1.5 0h.75V.958h-.75Zm1.5 0h.75V.958h-.75Zm1.5 0h.75V.958h-.75Zm1.5 0h.75V.958h-.75Zm1.5 0h.75V.958h-.75Zm1.5 0h.75V.958h-.75Zm1.5 0h.75V.958h-.75Zm1.5 0h.75V.958h-.75Zm1.5 0h.75V.958h-.75Zm1.5 0h.75V.958h-.75Zm1.5 0h.75V.958h-.75Zm1.5 0h.75V.958h-.75Zm1.5 0h.75V.958h-.75Zm1.5 0h.75V.958h-.75Zm1.5 0h.75V.958h-.75Zm1.5 0h.75V.958h-.75Zm1.5 0h.75V.958h-.75Zm1.5 0h.75V.958h-.75Zm1.5 0h.75V.958h-.75Zm1.5 0h.75V.958h-.75Zm1.5 0h.75V.958h-.75Zm1.5 0h.75V.958h-.75Zm1.5 0h.75V.958h-.75Zm1.5 0h.75V.958h-.75Zm1.5 0h.75V.958h-.75Zm1.5 0h.75V.958h-.75Zm1.5 0h.75V.958h-.75Zm1.5 0h.75V.958h-.75Zm1.5 0h.75V.958h-.75Zm1.5 0h.75V.958h-.75Zm1.5 0h.75V.958h-.75Zm1.5 0h.75V.958h-.75Zm1.5 0h.75V.958h-.75Zm1.5 0h.75V.958h-.75Zm1.5 0h.75V.958h-.75Zm1.5 0h.75V.958h-.75Zm1.5 0h.75V.958h-.75Zm1.5 0h.75V.958h-.75Zm1.5 0h.75V.958h-.75Zm1.5 0h.75V.958h-.75Zm1.5 0h.75V.958h-.75Zm1.5 0h.75V.958h-.75Zm1.5 0h.75V.958h-.75Zm1.5 0h.75V.958h-.75Zm1.5 0h.75V.958h-.75Zm1.5 0h.75V.958h-.75Zm1.5 0h.75V.958h-.75Zm1.5 0h.75V.958h-.75Zm1.5 0h.75V.958h-.75Zm1.5 0h.75V.958h-.75Zm1.5 0h.75V.958h-.75Zm1.5 0h.75V.958h-.75Zm1.5 0h.75V.958h-.75Zm1.5 0h.75V.958h-.75Zm1.5 0h.75V.958h-.75Zm1.5 0h.75V.958h-.75Zm1.5 0h.75V.958h-.75Zm1.5 0h.75V.958h-.75Zm1.5 0h.75V.958h-.75Zm1.5 0h.75V.958h-.75Zm1.5 0h.75V.958h-.75Zm1.5 0h.75V.958h-.75Zm1.5 0h.75V.958h-.75Zm1.5 0h.75V.958h-.75Zm1.5 0h.75V.958h-.75Zm1.5 0h.75V.958h-.75Zm1.5 0h.75V.958h-.75Zm1.5 0h.75V.958h-.75Zm1.5 0h.75V.958h-.75Zm1.5 0h.75V.958h-.75Zm1.5 0h.75V.958h-.75Zm1.5 0h.75V.958h-.75Zm1.5 0h.75V.958h-.75Zm1.5 0h.75V.958h-.75Zm1.5 0h.75V.958h-.75Zm1.5 0h.75V.958h-.75Zm1.5 0h.75V.958h-.75Zm1.5 0h.75V.958h-.75Zm1.5 0h.75V.958h-.75Zm1.5 0h.75V.958h-.75Zm1.5 0h.75V.958h-.75Zm1.5 0h.75V.958h-.75Zm1.5 0h.75V.958h-.75Zm1.5 0h.75V.958h-.75Zm1.5 0h.75V.958h-.75Zm1.5 0h.75V.958h-.75Zm1.5 0h.75V.958h-.75Zm1.5 0h.75V.958h-.75Zm1.5 0h.75V.958h-.75Zm1.5 0h.75V.958h-.75Zm1.5 0h.75V.958h-.75Zm1.5 0h.75V.958h-.75Zm1.5 0h.75V.958h-.75Zm1.5 0h.75V.958h-.75Zm1.5 0h.75V.958h-.75Zm1.5 0h.75V.958h-.75Zm1.5 0h.75V.958h-.75Zm1.5 0h.75V.958h-.75Zm1.5 0h.75V.958h-.75Zm1.5 0h.75V.958h-.75Zm1.5 0h.75V.958h-.75Zm1.5 0h.75V.958h-.75Zm1.5 0h.75V.958h-.75Zm1.5 0h.75V.958h-.75Zm1.5 0h.75V.958h-.75Zm1.5 0h.75V.958h-.75Zm1.5 0h.75V.958h-.75Zm1.5 0h.75V.958h-.75Zm1.5 0h.75V.958h-.75Zm1.5 0h.75V.958h-.75Zm1.5 0h.75V.958h-.75Zm1.5 0h.75V.958h-.75Zm1.496 0h.754V.958h-.754Zm1.504 0h.75V.958h-.75Zm1.5 0h.75V.958h-.75Zm1.5 0h.75V.958h-.75Zm1.5 0h.75V.958h-.75Zm1.5 0h.75V.958h-.75Zm1.5 0h.75V.958h-.75Zm1.5 0h.75V.958h-.75Zm1.5 0h.75V.958h-.75Zm1.5 0h.75V.958h-.75Zm1.5 0h.75V.958h-.75Zm1.5 0h.75V.958h-.75Zm1.5 0h.75V.958h-.75Zm1.5 0h.75V.958h-.75Zm1.5 0h.75V.958h-.75Zm1.5 0h.75V.958h-.75Zm1.5 0h.75V.958h-.75Zm1.5 0h.75V.958h-.75Zm1.5 0h.75V.958h-.75Zm1.5 0h.75V.958h-.75Zm1.5 0h.75V.958h-.75Zm1.5 0h.75V.958h-.75Zm1.5 0h.75V.958h-.75Zm1.5 0h.75V.958h-.75Zm1.5 0h.75V.958h-.75Zm1.5 0h.75V.958h-.75Zm1.5 0h.75V.958h-.75Zm1.5 0h.75V.958h-.75Zm1.5 0h.75V.958h-.75Zm1.5 0h.75V.958h-.75Zm1.5 0h.75V.958h-.75Zm1.5 0h.75V.958h-.75Zm1.5 0h.75V.958h-.75Zm1.5 0h.75V.958h-.75Zm1.5 0h.75V.958h-.75Zm1.5 0h.75V.958h-.75Zm1.5 0h.75V.958h-.75Zm1.5 0h.75V.958h-.75Zm1.5 0h.75V.958h-.75Zm1.5 0h.75V.958h-.75Zm1.5 0h.75V.958h-.75Zm1.5 0h.75V.958h-.75Zm1.5 0h.75V.958h-.75Zm1.5 0h.75V.958h-.75Zm1.5 0h.75V.958h-.75Zm1.5 0h.75V.958h-.75Zm1.5 0h.75V.958h-.75Zm1.5 0h.75V.958h-.75Zm1.5 0h.75V.958h-.75Zm1.5 0h.75V.958h-.75Zm1.5 0h.75V.958h-.75Zm1.5 0h.75V.958h-.75Zm1.5 0h.75V.958h-.75Zm1.5 0h.75V.958h-.75Zm1.5 0h.75V.958h-.75Zm1.5 0h.75V.958h-.75Zm1.5 0h.75V.958h-.75Zm1.5 0h.75V.958h-.75Zm1.5 0h.75V.958h-.75Zm1.5 0h.75V.958h-.75Zm1.5 0h.75V.958h-.75Zm1.5 0h.75V.958h-.75Zm1.5 0h.75V.958h-.75Zm1.5 0h.75V.958h-.75Zm1.5 0h.75V.958h-.75Zm1.5 0h.75V.958h-.75Zm1.5 0h.75V.958h-.75Zm1.5 0h.75V.958h-.75Zm1.5 0h.75V.958h-.75Zm1.5 0h.75V.958h-.75Zm1.5 0h.75V.958h-.75Zm1.5 0h.75V.958h-.75Zm1.5 0h.75V.958h-.75Zm1.5 0h.75V.958h-.75Zm1.5 0h.75V.958h-.75Zm1.5 0h.75V.958h-.75Zm1.5 0h.75V.958h-.75Zm1.5 0h.75V.958h-.75Zm1.5 0h.75V.958h-.75Zm1.5 0h.75V.958h-.75Zm1.5 0h.75V.958h-.75Zm1.5 0h.75V.958h-.75Zm1.5 0h.75V.958h-.75Zm1.5 0h.75V.958h-.75Zm1.5 0h.75V.958h-.75Zm1.5 0h.746V.958h-.746Zm1.496 0h.75V.958h-.75Zm1.5 0h.75V.958h-.75Zm1.5 0h.75V.958h-.75Zm1.5 0h.75V.958h-.75Zm1.5 0h.75V.958h-.75Zm1.5 0h.75V.958h-.75Zm1.5 0h.75V.958h-.75Zm1.5 0h.75V.958h-.75Zm1.5 0h.75V.958h-.75Zm1.5 0h.75V.958h-.75Zm1.5 0h.75V.958h-.75Zm1.5 0h.75V.958h-.75Zm1.5 0h.75V.958h-.75Zm2.222.774v.75h-1.5v-.75Zm0 1.496v.75h-1.5v-.75Zm0 1.497v.75h-1.5v-.75Zm0 1.496v.75h-1.5v-.75Zm0 1.496v.75h-1.5v-.75Zm0 1.496v.75h-1.5v-.75Zm0 1.496v.75h-1.5v-.75Zm0 1.496v.75h-1.5v-.75Zm0 1.5v.746h-1.5v-.746Zm0 1.496v.746h-1.5v-.746Zm0 1.496v.746h-1.5V15.2Zm0 1.496v.746h-1.5v-.746Zm0 1.496v.747h-1.5v-.747Zm0 1.497v.746h-1.5v-.747Zm0 1.496v.746h-1.5v-.746Zm0 1.496v.746h-1.5v-.746Zm0 1.496v.746h-1.5v-.746Zm0 1.496v.746h-1.5v-.746Zm0 1.496v.746h-1.5v-.746Zm0 1.496v.746h-1.5v-.746Zm0 1.496v.75h-1.5v-.75Zm0 1.496v.75h-1.5v-.75Zm0 1.496v.75h-1.5v-.75Zm0 1.496v.75h-1.5v-.75Zm0 1.497v.75h-1.5v-.75Zm0 1.496v.75h-1.5v-.75Zm0 1.496v.75h-1.5v-.75Zm0 1.496v.75h-1.5v-.75Zm0 1.496v.75h-1.5v-.75Zm0 1.496v.75h-1.5v-.75Zm0 1.496v.75h-1.5v-.75Zm0 1.496v.75h-1.5v-.75Zm0 1.496v.75h-1.5v-.75Zm0 1.496v.75h-1.5v-.75Zm0 1.5v.746h-1.5v-.746Zm0 1.496v.747h-1.5v-.747Zm0 1.497v.746h-1.5v-.746Zm0 1.496v.746h-1.5v-.746Zm0 1.496v.746h-1.5v-.746Zm0 1.496v.746h-1.5v-.746Zm0 1.496v.746h-1.5v-.746Zm0 1.496v.746h-1.5v-.746Zm0 1.496v.746h-1.5v-.746Zm0 1.496v.746h-1.5v-.746Zm0 1.496v.746h-1.5v-.746Zm0 1.496v.746h-1.5v-.746Zm0 1.496v.75h-1.5v-.75Zm0 1.497v.75h-1.5v-.75Zm0 1.496v.75h-1.5v-.75Zm0 1.496v.75h-1.5v-.75Zm0 1.496v.75h-1.5v-.75Zm0 1.496v.75h-1.5v-.75Zm0 1.496v.75h-1.5v-.75Zm0 1.496v.75h-1.5v-.75Zm0 1.496v.75h-1.5v-.75Zm0 1.496v.75h-1.5v-.75Zm0 1.496v.75h-1.5v-.75Zm0 1.497v.75h-1.5v-.75Zm0 1.496v.75h-1.5v-.75Zm0 1.496v.75h-1.5v-.75Zm0 1.5v.746h-1.5v-.746Zm0 1.496v.746h-1.5v-.746Zm0 1.496v.746h-1.5v-.746Zm0 1.496v.746h-1.5V94.5Zm0 1.496v.746h-1.5v-.746Zm0 1.496v.746h-1.5v-.746Zm0 1.496v.746h-1.5v-.746Zm0 1.496v.746h-1.5v-.746Zm0 1.496v.747h-1.5v-.747Zm-1.27 1.727h-.75v-1.496h.75Zm-1.5 0h-.75v-1.496h.75Zm-1.5 0h-.75v-1.496h.75Zm-1.5 0h-.75v-1.496h.75Zm-1.5 0h-.75v-1.496h.75Zm-1.5 0h-.75v-1.496h.75Zm-1.5 0h-.75v-1.496h.75Zm-1.5 0h-.75v-1.496h.75Zm-1.5 0h-.75v-1.496h.75Zm-1.5 0h-.75v-1.496h.75Zm-1.5 0h-.75v-1.496h.75Zm-1.5 0h-.75v-1.496h.75Zm-1.5 0h-.75v-1.496h.75Zm-1.5 0h-.75v-1.496h.75Zm-1.5 0h-.75v-1.496h.75Zm-1.5 0h-.75v-1.496h.75Zm-1.5 0h-.75v-1.496h.75Zm-1.5 0h-.75v-1.496h.75Zm-1.5 0h-.75v-1.496h.75Zm-1.5 0h-.75v-1.496h.75Zm-1.5 0h-.75v-1.496h.75Zm-1.5 0h-.75v-1.496h.75Zm-1.5 0h-.75v-1.496h.75Zm-1.5 0h-.75v-1.496h.75Zm-1.5 0h-.75v-1.496h.75Zm-1.5 0h-.75v-1.496h.75Zm-1.5 0h-.75v-1.496h.75Zm-1.5 0h-.75v-1.496h.75Zm-1.5 0h-.75v-1.496h.75Zm-1.5 0h-.75v-1.496h.75Zm-1.5 0h-.75v-1.496h.75Zm-1.5 0h-.75v-1.496h.75Zm-1.5 0h-.75v-1.496h.75Zm-1.5 0h-.75v-1.496h.75Zm-1.5 0h-.75v-1.496h.75Zm-1.5 0h-.75v-1.496h.75Zm-1.5 0h-.75v-1.496h.75Zm-1.5 0h-.75v-1.496h.75Zm-1.5 0h-.75v-1.496h.75Zm-1.5 0h-.75v-1.496h.75Zm-1.5 0h-.75v-1.496h.75Zm-1.5 0h-.75v-1.496h.75Zm-1.5 0h-.75v-1.496h.75Zm-1.5 0h-.75v-1.496h.75Zm-1.5 0h-.75v-1.496h.75Zm-1.5 0h-.75v-1.496h.75Zm-1.5 0h-.75v-1.496h.75Zm-1.5 0h-.75v-1.496h.75Zm-1.5 0h-.75v-1.496h.75Zm-1.5 0h-.75v-1.496h.75Zm-1.5 0h-.75v-1.496h.75Zm-1.5 0h-.75v-1.496h.75Zm-1.5 0h-.75v-1.496h.75Zm-1.5 0h-.75v-1.496h.75Zm-1.5 0h-.75v-1.496h.75Zm-1.5 0h-.75v-1.496h.75Zm-1.5 0h-.75v-1.496h.75Zm-1.5 0h-.75v-1.496h.75Zm-1.5 0h-.75v-1.496h.75Zm-1.5 0h-.75v-1.496h.75Zm-1.5 0h-.75v-1.496h.75Zm-1.5 0h-.75v-1.496h.75Zm-1.5 0h-.75v-1.496h.75Zm-1.5 0h-.75v-1.496h.75Zm-1.5 0h-.75v-1.496h.75Zm-1.5 0h-.75v-1.496h.75Zm-1.5 0h-.75v-1.496h.75Zm-1.5 0h-.75v-1.496h.75Zm-1.5 0h-.75v-1.496h.75Zm-1.5 0h-.75v-1.496h.75Zm-1.5 0h-.75v-1.496h.75Zm-1.5 0h-.75v-1.496h.75Zm-1.5 0h-.75v-1.496h.75Zm-1.5 0h-.75v-1.496h.75Zm-1.5 0h-.75v-1.496h.75Zm-1.5 0h-.75v-1.496h.75Zm-1.5 0h-.75v-1.496h.75Zm-1.5 0h-.75v-1.496h.75Zm-1.5 0h-.75v-1.496h.75Zm-1.5 0h-.75v-1.496h.75Zm-1.5 0h-.75v-1.496h.75Zm-1.5 0h-.75v-1.496h.75Zm-1.5 0h-.75v-1.496h.75Zm-1.5 0h-.75v-1.496h.75Zm-1.5 0h-.75v-1.496h.75Zm-1.5 0h-.75v-1.496h.75Zm-1.5 0h-.75v-1.496h.75Zm-1.5 0h-.75v-1.496h.75Zm-1.5 0h-.75v-1.496h.75Zm-1.5 0h-.75v-1.496h.75Zm-1.5 0h-.75v-1.496h.75Zm-1.5 0h-.75v-1.496h.75Zm-1.5 0h-.75v-1.496h.75Zm-1.5 0h-.75v-1.496h.75Zm-1.5 0h-.75v-1.496h.75Zm-1.5 0h-.75v-1.496h.75Zm-1.5 0h-.75v-1.496h.75Zm-1.5 0h-.75v-1.496h.75Zm-1.5 0h-.75v-1.496h.75Zm-1.5 0h-.75v-1.496h.75Zm-1.5 0h-.75v-1.496h.75Zm-1.5 0h-.75v-1.496h.75Zm-1.5 0h-.75v-1.496h.75Zm-1.5 0h-.75v-1.496h.75Zm-1.5 0h-.75v-1.496h.75Zm-1.5 0h-.75v-1.496h.75Zm-1.5 0h-.75v-1.496h.75Zm-1.5 0h-.75v-1.496h.75Zm-1.5 0h-.75v-1.496h.75Zm-1.5 0h-.75v-1.496h.75Zm-1.5 0h-.75v-1.496h.75Zm-1.5 0h-.75v-1.496h.75Zm-1.5 0h-.75v-1.496h.75Zm-1.5 0h-.75v-1.496h.75Zm-1.5 0h-.75v-1.496h.75Zm-1.5 0h-.75v-1.496h.75Zm-1.5 0h-.75v-1.496h.75Zm-1.5 0h-.75v-1.496h.75Zm-1.5 0h-.75v-1.496h.75Zm-1.5 0h-.75v-1.496h.75Zm-1.5 0h-.75v-1.496h.75Zm-1.5 0h-.75v-1.496h.75Zm-1.5 0h-.75v-1.496h.75Zm-1.5 0h-.75v-1.496h.75Zm-1.5 0h-.75v-1.496h.75Zm-1.5 0h-.75v-1.496h.75Zm-1.5 0h-.75v-1.496h.75Zm-1.5 0h-.75v-1.496h.75Zm-1.5 0h-.75v-1.496h.75Zm-1.5 0h-.75v-1.496h.75Zm-1.5 0h-.75v-1.496h.75Zm-1.5 0h-.75v-1.496h.75Zm-1.5 0h-.75v-1.496h.75Zm-1.5 0h-.75v-1.496h.75Zm-1.5 0h-.75v-1.496h.75Zm-1.5 0h-.75v-1.496h.75Zm-1.5 0h-.75v-1.496h.75Zm-1.5 0h-.75v-1.496h.75Zm-1.5 0h-.75v-1.496h.75Zm-1.5 0h-.75v-1.496h.75Zm-1.5 0h-.75v-1.496h.75Zm-1.5 0h-.75v-1.496h.75Zm-1.5 0h-.75v-1.496h.75Zm-1.5 0h-.75v-1.496h.75Zm-1.5 0h-.75v-1.496h.75Zm-1.5 0h-.75v-1.496h.75Zm-1.5 0h-.75v-1.496h.75Zm-1.5 0h-.75v-1.496h.75Zm-1.5 0h-.75v-1.496h.75Zm-1.5 0h-.75v-1.496h.75Zm-1.5 0h-.75v-1.496h.75Zm-1.5 0h-.75v-1.496h.75Zm-1.5 0h-.75v-1.496h.75Zm-1.5 0h-.75v-1.496h.75Zm-1.5 0h-.75v-1.496h.75Zm-1.5 0h-.75v-1.496h.75Zm-1.5 0h-.75v-1.496h.75Zm-1.5 0h-.75v-1.496h.75Zm-1.5 0h-.75v-1.496h.75Zm-1.5 0h-.75v-1.496h.75Zm-1.5 0h-.75v-1.496h.75Zm-1.5 0h-.75v-1.496h.75Zm-1.5 0h-.75v-1.496h.75Zm-1.5 0h-.75v-1.496h.75Zm-1.5 0h-.75v-1.496h.75Zm-1.5 0h-.75v-1.496h.75Zm-1.5 0h-.75v-1.496h.75Zm-1.5 0h-.75v-1.496h.75Zm-1.5 0h-.75v-1.496h.75Zm-1.5 0h-.75v-1.496h.75Zm-1.5 0h-.75v-1.496h.75Zm-1.5 0h-.75v-1.496h.75Zm-1.5 0h-.75v-1.496h.75Zm-1.5 0h-.75v-1.496h.75Zm-1.5 0h-.75v-1.496h.75Zm-1.5 0h-.75v-1.496h.75Zm-1.5 0h-.75v-1.496h.75Zm-1.5 0h-.75v-1.496h.75Zm-1.5 0h-.75v-1.496h.75Zm-1.5 0h-.75v-1.496h.75Zm-1.5 0h-.75v-1.496h.75Zm-1.5 0h-.75v-1.496h.75Zm-1.5 0h-.75v-1.496h.75Zm-1.5 0h-.75v-1.496h.75Zm-1.5 0h-.75v-1.496h.75Zm-1.5 0h-.75v-1.496h.75Zm-1.5 0h-.75v-1.496h.75Zm-1.5 0h-.75v-1.496h.75Zm-1.5 0h-.75v-1.496h.75Zm-1.5 0h-.75v-1.496h.75Zm-1.5 0h-.75v-1.496h.75Zm-1.5 0h-.75v-1.496h.75Zm-1.5 0h-.75v-1.496h.75Zm-1.5 0h-.75v-1.496h.75Zm-1.5 0h-.75v-1.496h.75Zm-1.5 0h-.75v-1.496h.75Zm-1.5 0h-.75v-1.496h.75Zm-1.5 0h-.75v-1.496h.75Zm-1.5 0h-.75v-1.496h.75Zm-1.5 0h-.75v-1.496h.75Zm-1.5 0h-.75v-1.496h.75Zm-1.5 0h-.75v-1.496h.75Zm-1.5 0h-.75v-1.496h.75Zm-1.5 0h-.75v-1.496h.75Zm-1.5 0h-.75v-1.496h.75Zm-1.5 0h-.75v-1.496h.75Zm-1.5 0h-.75v-1.496h.75Zm-1.5 0h-.75v-1.496h.75Zm-1.5 0h-.75v-1.496h.75Zm-1.5 0h-.75v-1.496h.75Zm-1.5 0h-.75v-1.496h.75Zm-1.5 0h-.75v-1.496h.75Zm-1.5 0h-.75v-1.496h.75Zm-1.5 0h-.75v-1.496h.75Zm-1.5 0h-.75v-1.496h.75Zm-1.5 0h-.75v-1.496h.75Zm-1.5 0h-.75v-1.496h.75Zm-1.5 0h-.75v-1.496h.75Zm-1.5 0h-.75v-1.496h.75Zm-1.5 0h-.75v-1.496h.75Zm-1.5 0h-.75v-1.496h.75Zm-1.5 0h-.75v-1.496h.75Zm-1.5 0h-.75v-1.496h.75Zm-1.5 0h-.75v-1.496h.75Zm-1.5 0h-.75v-1.496h.75Zm-1.698-1.293v-.75h1.5v.75Zm0-1.5v-.746h1.5v.746Zm0-1.496v-.746h1.5v.746Zm0-1.496v-.746h1.5v.746Zm0-1.496v-.746h1.5v.746Zm0-1.496v-.746h1.5v.746Zm0-1.496v-.746h1.5v.746Zm0-1.496v-.747h1.5v.746Zm0-1.497v-.746h1.5v.746Zm0-1.496V88.2h1.5v.746Zm0-1.496v-.746h1.5v.746Zm0-1.496v-.746h1.5v.746Zm0-1.496v-.746h1.5v.746Zm0-1.496v-.75h1.5v.75Zm0-1.496v-.75h1.5v.75Zm0-1.496v-.75h1.5v.75Zm0-1.496v-.75h1.5v.75Zm0-1.496v-.75h1.5v.75Zm0-1.497v-.75h1.5v.75Zm0-1.496v-.75h1.5v.75Zm0-1.496v-.75h1.5v.75Zm0-1.496v-.75h1.5v.75Zm0-1.496v-.75h1.5v.75Zm0-1.496v-.75h1.5V68Zm0-1.496v-.75h1.5v.75Zm0-1.496v-.75h1.5v.75Zm0-1.496v-.75h1.5v.75Zm0-1.5v-.746h1.5v.746Zm0-1.496v-.746h1.5v.746Zm0-1.496v-.747h1.5v.747Zm0-1.497v-.746h1.5v.746Zm0-1.496v-.746h1.5v.746Zm0-1.496v-.746h1.5v.746Zm0-1.496v-.746h1.5v.746Zm0-1.496v-.746h1.5v.746Zm0-1.496v-.746h1.5v.746Zm0-1.496V47.8h1.5v.746Zm0-1.496v-.746h1.5v.746Zm0-1.496v-.746h1.5v.746Zm0-1.496v-.75h1.5v.75Zm0-1.496v-.75h1.5v.75Zm0-1.497v-.75h1.5v.75Zm0-1.496v-.75h1.5v.75Zm0-1.496v-.75h1.5v.75Zm0-1.496v-.75h1.5v.75Zm0-1.496v-.75h1.5v.75Zm0-1.496v-.75h1.5v.75Zm0-1.496v-.75h1.5v.75Zm0-1.496v-.75h1.5v.75Zm0-1.496v-.75h1.5v.75Zm0-1.496v-.75h1.5v.75Zm0-1.497v-.75h1.5v.75Zm0-1.5v-.746h1.5v.746Zm0-1.496v-.746h1.5v.746Zm0-1.496v-.746h1.5v.746Zm0-1.496v-.746h1.5v.746Zm0-1.496v-.746h1.5v.746Zm0-1.496v-.746h1.5v.746Zm0-1.496v-.746h1.5v.746Zm0-1.496v-.746h1.5v.746Zm0-1.496v-.746h1.5v.746Zm0-1.496v-.746h1.5v.746Zm0-1.496v-.747h1.5v.747Zm0-1.497v-.746h1.5v.746Zm0-1.496v-.746h1.5v.746Zm0-1.496v-.75h1.5v.75Zm0-1.496v-.75h1.5v.75Zm0-1.496v-.75h1.5v.75Zm0-1.496V.207h1.5v.461Zm0 0"/>
  </g>
  <path d="M92.043 41.317c1.406 0 2.61.25 3.61.75 1.007.5 1.773 1.219 2.296 2.156.531.938.797 2.04.797 3.297 0 1.274-.266 2.371-.797 3.297-.523.93-1.289 1.649-2.297 2.156-1 .5-2.203.75-3.609.75h-4.89v7.985h-2.407v-20.39Zm-.063 10.36c2.832 0 4.25-1.383 4.25-4.157 0-2.78-1.418-4.172-4.25-4.172h-4.828v8.329ZM106.6 62.005c-1.512 0-2.695-.395-3.547-1.188-.855-.789-1.281-1.922-1.281-3.39 0-.907.187-1.672.562-2.297.383-.633.969-1.149 1.75-1.547.79-.395 1.828-.695 3.11-.906 1.113-.188 1.957-.395 2.53-.625.583-.239.974-.5 1.173-.782.207-.289.312-.656.312-1.093 0-.696-.242-1.235-.718-1.61-.48-.375-1.25-.562-2.313-.562-1 0-1.855.199-2.562.593-.711.387-1.36.961-1.954 1.72h-.28l-1.11-1.579c.644-.832 1.469-1.488 2.469-1.969 1.007-.488 2.156-.734 3.437-.734 1.813 0 3.145.398 4 1.187.863.793 1.297 1.891 1.297 3.297v8.157c0 .855.363 1.28 1.094 1.28.238 0 .468-.038.687-.124l.203.062.266 1.578c-.168.118-.39.2-.672.25a3.775 3.775 0 0 1-.844.094c-.843 0-1.484-.18-1.922-.547-.43-.375-.699-.925-.812-1.656l-.297-.031c-.437.812-1.031 1.422-1.781 1.828-.742.394-1.672.594-2.797.594Zm.5-1.813c.851 0 1.594-.195 2.219-.594.632-.394 1.117-.953 1.453-1.671.332-.72.5-1.547.5-2.485V53.49l-.266-.047a4.839 4.839 0 0 1-1.25.61c-.492.156-1.18.304-2.062.437-.899.117-1.61.297-2.141.547-.523.25-.898.574-1.125.969-.219.386-.328.86-.328 1.422 0 .906.266 1.593.797 2.062.531.469 1.265.703 2.203.703ZM124.089 68.24c-2.43 0-4.2-.407-5.313-1.22-1.117-.812-1.672-1.886-1.672-3.218 0-.868.258-1.555.782-2.063.52-.508 1.273-.879 2.265-1.11v-.28c-.468-.27-.824-.586-1.062-.954-.242-.363-.36-.797-.36-1.297 0-.593.188-1.078.563-1.453.383-.375.945-.656 1.687-.843v-.297c-1.68-.883-2.515-2.32-2.515-4.313 0-1 .226-1.89.687-2.672.457-.78 1.11-1.39 1.953-1.828.844-.437 1.829-.656 2.954-.656 1.289 0 2.367.281 3.234.844.332-.364.578-.75.734-1.157.164-.414.27-.882.313-1.406l.297-.187 1.875.453c-.094.781-.336 1.445-.719 1.984-.375.531-.906.977-1.594 1.328v.297c.5.399.864.856 1.094 1.375.238.524.36 1.133.36 1.828 0 .97-.235 1.84-.704 2.61-.46.773-1.117 1.383-1.969 1.828-.843.437-1.82.656-2.921.656-.125 0-.356-.008-.688-.031-.375-.008-.652-.016-.828-.016-.492 0-.883.125-1.172.375-.281.25-.422.57-.422.953 0 .493.156.852.469 1.078.312.22.828.344 1.547.375l3.64.125c1.563.063 2.723.434 3.485 1.11.758.668 1.14 1.617 1.14 2.86 0 .913-.25 1.741-.75 2.484-.492.738-1.273 1.328-2.343 1.765-1.063.446-2.414.672-4.047.672Zm-.031-13.704c1.093 0 1.937-.281 2.53-.844.595-.57.891-1.367.891-2.39 0-1.063-.296-1.88-.89-2.454-.586-.57-1.43-.859-2.531-.859-1.094 0-1.934.29-2.516.86-.574.562-.86 1.382-.86 2.453 0 1.03.286 1.828.86 2.39.582.563 1.422.844 2.516.844Zm.03 11.75c1.134 0 2.063-.125 2.782-.375.719-.25 1.234-.586 1.547-1 .32-.418.484-.883.484-1.39 0-.462-.09-.829-.265-1.11-.168-.273-.446-.48-.828-.625-.375-.133-.899-.223-1.563-.266l-3.437-.156h-.485c-1.93.024-2.89.766-2.89 2.234 0 1.79 1.55 2.688 4.656 2.688ZM146.58 54.536h-10.562c.063 1.875.508 3.25 1.344 4.125.832.867 1.973 1.297 3.422 1.297 1.094 0 1.972-.192 2.64-.578.676-.395 1.204-1.008 1.579-1.844h.296l1.485.875a5.541 5.541 0 0 1-2.156 2.64c-.98.637-2.262.954-3.844.954-1.492 0-2.774-.293-3.844-.875-1.062-.594-1.887-1.485-2.469-2.672-.574-1.188-.86-2.664-.86-4.438 0-1.75.302-3.222.907-4.422.613-1.195 1.445-2.085 2.5-2.671 1.063-.594 2.27-.891 3.625-.891 1.969 0 3.504.559 4.61 1.672 1.113 1.105 1.671 2.75 1.671 4.937 0 .856-.015 1.434-.046 1.735Zm-1.89-1.89c-.043-1.633-.406-2.821-1.094-3.563-.687-.75-1.672-1.125-2.953-1.125-1.355 0-2.418.375-3.187 1.125-.762.75-1.227 1.937-1.391 3.562ZM171.402 49.583v-8.266h2.39v20.39h-2.39V51.63h-10.594v10.078h-2.406v-20.39h2.406v8.265ZM191.538 54.536h-10.562c.062 1.875.507 3.25 1.343 4.125.832.867 1.973 1.297 3.422 1.297 1.094 0 1.973-.192 2.64-.578.677-.395 1.204-1.008 1.579-1.844h.297l1.484.875a5.541 5.541 0 0 1-2.156 2.64c-.98.637-2.262.954-3.844.954-1.492 0-2.773-.293-3.844-.875-1.062-.594-1.886-1.485-2.468-2.672-.574-1.188-.86-2.664-.86-4.438 0-1.75.301-3.222.907-4.422.613-1.195 1.445-2.085 2.5-2.671 1.062-.594 2.27-.891 3.625-.891 1.968 0 3.504.559 4.609 1.672 1.113 1.105 1.672 2.75 1.672 4.937 0 .856-.016 1.434-.047 1.735Zm-1.89-1.89c-.043-1.633-.407-2.821-1.094-3.563-.688-.75-1.672-1.125-2.953-1.125-1.356 0-2.418.375-3.188 1.125-.762.75-1.226 1.937-1.39 3.562ZM199.624 62.005c-1.511 0-2.695-.395-3.546-1.188-.856-.789-1.282-1.922-1.282-3.39 0-.907.188-1.672.563-2.297.383-.633.969-1.149 1.75-1.547.789-.395 1.828-.695 3.11-.906 1.113-.188 1.956-.395 2.53-.625.583-.239.973-.5 1.172-.782.207-.289.313-.656.313-1.093 0-.696-.242-1.235-.719-1.61-.48-.375-1.25-.562-2.312-.562-1 0-1.856.199-2.563.593-.71.387-1.36.961-1.953 1.72h-.281l-1.11-1.579c.645-.832 1.47-1.488 2.47-1.969 1.007-.488 2.155-.734 3.437-.734 1.812 0 3.144.398 4 1.187.863.793 1.296 1.891 1.296 3.297v8.157c0 .855.364 1.28 1.094 1.28.239 0 .469-.038.688-.124l.203.062.265 1.578c-.167.118-.39.2-.671.25a3.775 3.775 0 0 1-.844.094c-.844 0-1.485-.18-1.922-.547-.43-.375-.7-.925-.813-1.656l-.296-.031c-.438.812-1.032 1.422-1.782 1.828-.742.394-1.672.594-2.797.594Zm.5-1.813c.852 0 1.594-.195 2.22-.594.632-.394 1.116-.953 1.452-1.671.332-.72.5-1.547.5-2.485V53.49l-.265-.047a4.839 4.839 0 0 1-1.25.61c-.492.156-1.18.304-2.063.437-.898.117-1.61.297-2.14.547-.524.25-.899.574-1.125.969-.22.386-.329.86-.329 1.422 0 .906.266 1.593.797 2.062.532.469 1.266.703 2.203.703ZM217.176 62.005c-1.242 0-2.336-.297-3.281-.89-.938-.595-1.68-1.485-2.22-2.673-.53-1.187-.796-2.66-.796-4.422 0-1.757.274-3.234.828-4.422.563-1.195 1.332-2.085 2.313-2.671.976-.594 2.117-.891 3.422-.891 1.02 0 1.937.195 2.75.578.82.387 1.523 1.024 2.109 1.906l.297-.062v-8.313h2.265v21.563h-2.265v-2.25l-.297-.047c-.5.762-1.184 1.387-2.047 1.875-.855.477-1.883.719-3.078.719Zm.703-2.047c1.438 0 2.582-.488 3.438-1.469.851-.976 1.28-2.469 1.28-4.469 0-2.007-.429-3.504-1.28-4.484-.856-.977-2-1.469-3.438-1.469-1.48 0-2.621.48-3.422 1.438-.793.96-1.187 2.465-1.187 4.515 0 3.961 1.535 5.938 4.61 5.938ZM242.213 54.536H231.65c.063 1.875.508 3.25 1.344 4.125.832.867 1.973 1.297 3.422 1.297 1.094 0 1.973-.192 2.64-.578.676-.395 1.204-1.008 1.579-1.844h.297l1.484.875a5.541 5.541 0 0 1-2.156 2.64c-.98.637-2.262.954-3.844.954-1.492 0-2.773-.293-3.844-.875-1.062-.594-1.886-1.485-2.468-2.672-.575-1.188-.86-2.664-.86-4.438 0-1.75.3-3.222.906-4.422.614-1.195 1.446-2.085 2.5-2.671 1.063-.594 2.27-.891 3.625-.891 1.97 0 3.504.559 4.61 1.672 1.113 1.105 1.672 2.75 1.672 4.937 0 .856-.016 1.434-.047 1.735Zm-1.89-1.89c-.044-1.633-.407-2.821-1.094-3.563-.688-.75-1.672-1.125-2.954-1.125-1.355 0-2.418.375-3.187 1.125-.762.75-1.227 1.937-1.39 3.562ZM246.627 61.708v-15.39h2.172v2.421l.282.063c.718-1.739 2.066-2.61 4.046-2.61 1.051 0 1.836.188 2.36.563l-.578 1.922-.282.062a4.244 4.244 0 0 0-1.906-.437c-1.219 0-2.164.464-2.828 1.39-.656.918-.984 2.406-.984 4.469v7.547Zm0 0"/>
  <g clip-path="url(#d)">
    <path fill="#fff" d="M0 342.137h337.5v108.281H0Zm0 0"/>
  </g>
  <g clip-path="url(#e)">
    <path d="M.012 341.39h.75v1.497h-.75Zm1.5 0h.75v1.497h-.75Zm1.5 0h.75v1.497h-.75Zm1.5 0h.75v1.497h-.75Zm1.5 0h.75v1.497h-.75Zm1.5 0h.75v1.497h-.75Zm1.5 0h.75v1.497h-.75Zm1.5 0h.75v1.497h-.75Zm1.5 0h.75v1.497h-.75Zm1.5 0h.75v1.497h-.75Zm1.5 0h.75v1.497h-.75Zm1.5 0h.75v1.497h-.75Zm1.5 0h.75v1.497h-.75Zm1.5 0h.75v1.497h-.75Zm1.5 0h.75v1.497h-.75Zm1.5 0h.75v1.497h-.75Zm1.5 0h.75v1.497h-.75Zm1.5 0h.75v1.497h-.75Zm1.5 0h.75v1.497h-.75Zm1.5 0h.75v1.497h-.75Zm1.5 0h.75v1.497h-.75Zm1.5 0h.75v1.497h-.75Zm1.5 0h.75v1.497h-.75Zm1.5 0h.75v1.497h-.75Zm1.5 0h.75v1.497h-.75Zm1.5 0h.75v1.497h-.75Zm1.5 0h.75v1.497h-.75Zm1.5 0h.75v1.497h-.75Zm1.5 0h.75v1.497h-.75Zm1.5 0h.75v1.497h-.75Zm1.5 0h.75v1.497h-.75Zm1.5 0h.75v1.497h-.75Zm1.5 0h.75v1.497h-.75Zm1.5 0h.75v1.497h-.75Zm1.5 0h.75v1.497h-.75Zm1.5 0h.75v1.497h-.75Zm1.5 0h.75v1.497h-.75Zm1.5 0h.75v1.497h-.75Zm1.5 0h.75v1.497h-.75Zm1.5 0h.75v1.497h-.75Zm1.5 0h.75v1.497h-.75Zm1.5 0h.75v1.497h-.75Zm1.5 0h.75v1.497h-.75Zm1.5 0h.75v1.497h-.75Zm1.5 0h.75v1.497h-.75Zm1.5 0h.75v1.497h-.75Zm1.5 0h.75v1.497h-.75Zm1.5 0h.75v1.497h-.75Zm1.5 0h.75v1.497h-.75Zm1.5 0h.75v1.497h-.75Zm1.5 0h.75v1.497h-.75Zm1.5 0h.75v1.497h-.75Zm1.5 0h.75v1.497h-.75Zm1.5 0h.75v1.497h-.75Zm1.5 0h.75v1.497h-.75Zm1.5 0h.75v1.497h-.75Zm1.5 0h.75v1.497h-.75Zm1.5 0h.75v1.497h-.75Zm1.5 0h.75v1.497h-.75Zm1.5 0h.75v1.497h-.75Zm1.5 0h.75v1.497h-.75Zm1.5 0h.75v1.497h-.75Zm1.5 0h.75v1.497h-.75Zm1.5 0h.75v1.497h-.75Zm1.5 0h.75v1.497h-.75Zm1.5 0h.75v1.497h-.75Zm1.5 0h.75v1.497h-.75Zm1.5 0h.75v1.497h-.75Zm1.5 0h.75v1.497h-.75Zm1.5 0h.75v1.497h-.75Zm1.5 0h.75v1.497h-.75Zm1.5 0h.75v1.497h-.75Zm1.5 0h.75v1.497h-.75Zm1.5 0h.75v1.497h-.75Zm1.5 0h.75v1.497h-.75Zm1.5 0h.75v1.497h-.75Zm1.5 0h.75v1.497h-.75Zm1.5 0h.75v1.497h-.75Zm1.5 0h.75v1.497h-.75Zm1.5 0h.75v1.497h-.75Zm1.5 0h.75v1.497h-.75Zm1.5 0h.75v1.497h-.75Zm1.5 0h.75v1.497h-.75Zm1.5 0h.75v1.497h-.75Zm1.5 0h.75v1.497h-.75Zm1.5 0h.75v1.497h-.75Zm1.5 0h.75v1.497h-.75Zm1.5 0h.75v1.497h-.75Zm1.5 0h.75v1.497h-.75Zm1.5 0h.75v1.497h-.75Zm1.5 0h.75v1.497h-.75Zm1.5 0h.75v1.497h-.75Zm1.5 0h.75v1.497h-.75Zm1.5 0h.75v1.497h-.75Zm1.5 0h.75v1.497h-.75Zm1.5 0h.75v1.497h-.75Zm1.5 0h.75v1.497h-.75Zm1.5 0h.75v1.497h-.75Zm1.5 0h.75v1.497h-.75Zm1.5 0h.75v1.497h-.75Zm1.5 0h.75v1.497h-.75Zm1.5 0h.75v1.497h-.75Zm1.5 0h.75v1.497h-.75Zm1.5 0h.75v1.497h-.75Zm1.5 0h.75v1.497h-.75Zm1.5 0h.75v1.497h-.75Zm1.5 0h.75v1.497h-.75Zm1.5 0h.75v1.497h-.75Zm1.5 0h.75v1.497h-.75Zm1.5 0h.75v1.497h-.75Zm1.5 0h.75v1.497h-.75Zm1.5 0h.75v1.497h-.75Zm1.5 0h.75v1.497h-.75Zm1.5 0h.75v1.497h-.75Zm1.5 0h.75v1.497h-.75Zm1.5 0h.75v1.497h-.75Zm1.5 0h.75v1.497h-.75Zm1.5 0h.75v1.497h-.75Zm1.5 0h.75v1.497h-.75Zm1.5 0h.75v1.497h-.75Zm1.5 0h.75v1.497h-.75Zm1.5 0h.75v1.497h-.75Zm1.5 0h.75v1.497h-.75Zm1.5 0h.75v1.497h-.75Zm1.5 0h.75v1.497h-.75Zm1.5 0h.75v1.497h-.75Zm1.5 0h.75v1.497h-.75Zm1.5 0h.75v1.497h-.75Zm1.5 0h.75v1.497h-.75Zm1.5 0h.75v1.497h-.75Zm1.5 0h.75v1.497h-.75Zm1.5 0h.75v1.497h-.75Zm1.5 0h.75v1.497h-.75Zm1.5 0h.75v1.497h-.75Zm1.5 0h.75v1.497h-.75Zm1.5 0h.75v1.497h-.75Zm1.5 0h.75v1.497h-.75Zm1.5 0h.75v1.497h-.75Zm1.5 0h.75v1.497h-.75Zm1.5 0h.75v1.497h-.75Zm1.5 0h.75v1.497h-.75Zm1.5 0h.75v1.497h-.75Zm1.5 0h.75v1.497h-.75Zm1.5 0h.75v1.497h-.75Zm1.5 0h.75v1.497h-.75Zm1.5 0h.75v1.497h-.75Zm1.5 0h.75v1.497h-.75Zm1.5 0h.75v1.497h-.75Zm1.5 0h.75v1.497h-.75Zm1.5 0h.75v1.497h-.75Zm1.5 0h.75v1.497h-.75Zm1.5 0h.75v1.497h-.75Zm1.5 0h.75v1.497h-.75Zm1.5 0h.75v1.497h-.75Zm1.5 0h.75v1.497h-.75Zm1.5 0h.75v1.497h-.75Zm1.5 0h.75v1.497h-.75Zm1.5 0h.75v1.497h-.75Zm1.5 0h.75v1.497h-.75Zm1.5 0h.75v1.497h-.75Zm1.5 0h.75v1.497h-.75Zm1.5 0h.75v1.497h-.75Zm1.5 0h.75v1.497h-.75Zm1.5 0h.75v1.497h-.75Zm1.5 0h.75v1.497h-.75Zm1.5 0h.75v1.497h-.75Zm1.5 0h.75v1.497h-.75Zm1.5 0h.75v1.497h-.75Zm1.5 0h.75v1.497h-.75Zm1.5 0h.75v1.497h-.75Zm1.5 0h.75v1.497h-.75Zm1.5 0h.75v1.497h-.75Zm1.5 0h.75v1.497h-.75Zm1.5 0h.75v1.497h-.75Zm1.5 0h.75v1.497h-.75Zm1.5 0h.75v1.497h-.75Zm1.5 0h.75v1.497h-.75Zm1.5 0h.75v1.497h-.75Zm1.5 0h.75v1.497h-.75Zm1.5 0h.75v1.497h-.75Zm1.5 0h.75v1.497h-.75Zm1.5 0h.75v1.497h-.75Zm1.5 0h.75v1.497h-.75Zm1.5 0h.75v1.497h-.75Zm1.5 0h.75v1.497h-.75Zm1.5 0h.75v1.497h-.75Zm1.5 0h.75v1.497h-.75Zm1.5 0h.75v1.497h-.75Zm1.5 0h.75v1.497h-.75Zm1.5 0h.75v1.497h-.75Zm1.5 0h.75v1.497h-.75Zm1.5 0h.75v1.497h-.75Zm1.5 0h.75v1.497h-.75Zm1.5 0h.75v1.497h-.75Zm1.5 0h.75v1.497h-.75Zm1.5 0h.75v1.497h-.75Zm1.5 0h.75v1.497h-.75Zm1.5 0h.75v1.497h-.75Zm1.5 0h.75v1.497h-.75Zm1.5 0h.75v1.497h-.75Zm1.5 0h.75v1.497h-.75Zm1.5 0h.75v1.497h-.75Zm1.5 0h.75v1.497h-.75Zm1.5 0h.75v1.497h-.75Zm1.5 0h.75v1.497h-.75Zm1.5 0h.75v1.497h-.75Zm1.5 0h.75v1.497h-.75Zm1.5 0h.75v1.497h-.75Zm1.5 0h.75v1.497h-.75Zm1.5 0h.75v1.497h-.75Zm1.5 0h.75v1.497h-.75Zm1.5 0h.75v1.497h-.75Zm1.5 0h.75v1.497h-.75Zm1.5 0h.75v1.497h-.75Zm1.5 0h.75v1.497h-.75Zm1.5 0h.75v1.497h-.75Zm1.5 0h.75v1.497h-.75Zm1.5 0h.75v1.497h-.75Zm1.5 0h.75v1.497h-.75Zm1.5 0h.75v1.497h-.75Zm1.5 0h.75v1.497h-.75Zm1.5 0h.75v1.497h-.75Zm1.5 0h.75v1.497h-.75Zm1.5 0h.75v1.497h-.75Zm1.5 0h.75v1.497h-.75Zm2.226.77v.75h-1.5v-.75Zm0 1.496v.75h-1.5v-.75Zm0 1.5v.746h-1.5v-.746Zm0 1.496v.75h-1.5v-.75Zm0 1.496v.75h-1.5v-.75Zm0 1.5v.747h-1.5v-.747Zm0 1.497v.75h-1.5v-.75Zm0 1.496v.75h-1.5v-.75Zm0 1.5v.746h-1.5v-.746Zm0 1.496v.75h-1.5v-.75Zm0 1.496v.75h-1.5v-.75Zm0 1.5v.746h-1.5v-.746Zm0 1.496v.75h-1.5v-.75Zm0 1.496v.75h-1.5v-.75Zm0 1.5v.746h-1.5v-.746Zm0 1.496v.75h-1.5v-.75Zm0 1.496v.75h-1.5v-.75Zm0 1.5v.746h-1.5v-.746Zm0 1.496v.75h-1.5v-.75Zm0 1.496v.75h-1.5v-.75Zm0 1.5v.746h-1.5v-.746Zm0 1.496v.75h-1.5v-.75Zm0 1.497v.75h-1.5v-.75Zm0 1.5v.746h-1.5v-.746Zm0 1.496v.75h-1.5v-.75Zm0 1.496v.75h-1.5v-.75Zm0 1.5v.746h-1.5v-.746Zm0 1.496v.75h-1.5v-.75Zm0 1.496v.75h-1.5v-.75Zm0 1.5v.746h-1.5v-.746Zm0 1.496v.75h-1.5v-.75Zm0 1.496v.75h-1.5v-.75Zm0 1.5v.746h-1.5v-.746Zm0 1.496v.75h-1.5v-.75Zm0 1.496v.75h-1.5v-.75Zm0 1.5v.746h-1.5v-.746Zm0 1.496v.75h-1.5v-.75Zm0 1.497v.75h-1.5v-.75Zm0 1.5v.746h-1.5v-.747Zm0 1.496v.75h-1.5v-.75Zm0 1.5v.746h-1.5v-.746Zm0 1.496v.75h-1.5v-.75Zm0 1.496v.75h-1.5v-.75Zm0 1.5v.746h-1.5v-.746Zm0 1.496v.75h-1.5v-.75Zm0 1.496v.75h-1.5v-.75Zm0 1.5v.746h-1.5v-.746Zm0 1.496v.75h-1.5v-.75Zm0 1.496v.75h-1.5v-.75Zm0 1.5v.746h-1.5v-.746Zm0 1.496v.75h-1.5v-.75Zm0 1.496v.75h-1.5v-.75Zm0 1.5v.746h-1.5v-.746Zm0 1.496v.75h-1.5v-.75Zm0 1.497v.75h-1.5v-.75Zm0 1.5v.746h-1.5v-.746Zm0 1.496v.75h-1.5v-.75Zm0 1.496v.75h-1.5v-.75Zm0 1.5v.746h-1.5v-.746Zm0 1.496v.75h-1.5v-.75Zm0 1.496v.75h-1.5v-.75Zm0 1.5v.746h-1.5v-.746Zm0 1.496v.75h-1.5V435Zm0 1.496v.75h-1.5v-.75Zm0 1.5v.746h-1.5v-.746Zm0 1.496v.75h-1.5v-.75Zm0 1.496v.75h-1.5v-.75Zm0 1.5v.746h-1.5v-.746Zm0 1.496v.75h-1.5v-.75Zm0 1.496v.75h-1.5v-.75Zm0 1.5v.747h-1.5v-.747Zm0 1.497v.75h-1.5v-.75Zm0 1.496v.914h-1.336v-1.496h.586v.746h-.75v-.164Zm-2.086.914h-.75v-1.496h.75Zm-1.5 0h-.75v-1.496h.75Zm-1.5 0h-.75v-1.496h.75Zm-1.5 0h-.75v-1.496h.75Zm-1.5 0h-.75v-1.496h.75Zm-1.5 0h-.75v-1.496h.75Zm-1.5 0h-.75v-1.496h.75Zm-1.5 0h-.75v-1.496h.75Zm-1.5 0h-.75v-1.496h.75Zm-1.5 0h-.75v-1.496h.75Zm-1.5 0h-.75v-1.496h.75Zm-1.5 0h-.75v-1.496h.75Zm-1.5 0h-.75v-1.496h.75Zm-1.5 0h-.75v-1.496h.75Zm-1.5 0h-.75v-1.496h.75Zm-1.5 0h-.75v-1.496h.75Zm-1.5 0h-.75v-1.496h.75Zm-1.5 0h-.75v-1.496h.75Zm-1.5 0h-.75v-1.496h.75Zm-1.5 0h-.75v-1.496h.75Zm-1.5 0h-.75v-1.496h.75Zm-1.5 0h-.75v-1.496h.75Zm-1.5 0h-.75v-1.496h.75Zm-1.5 0h-.75v-1.496h.75Zm-1.5 0h-.75v-1.496h.75Zm-1.5 0h-.75v-1.496h.75Zm-1.5 0h-.75v-1.496h.75Zm-1.5 0h-.75v-1.496h.75Zm-1.5 0h-.75v-1.496h.75Zm-1.5 0h-.75v-1.496h.75Zm-1.5 0h-.75v-1.496h.75Zm-1.5 0h-.75v-1.496h.75Zm-1.5 0h-.75v-1.496h.75Zm-1.5 0h-.75v-1.496h.75Zm-1.5 0h-.75v-1.496h.75Zm-1.5 0h-.75v-1.496h.75Zm-1.5 0h-.75v-1.496h.75Zm-1.5 0h-.75v-1.496h.75Zm-1.5 0h-.75v-1.496h.75Zm-1.5 0h-.75v-1.496h.75Zm-1.5 0h-.75v-1.496h.75Zm-1.5 0h-.75v-1.496h.75Zm-1.5 0h-.75v-1.496h.75Zm-1.5 0h-.75v-1.496h.75Zm-1.5 0h-.75v-1.496h.75Zm-1.5 0h-.75v-1.496h.75Zm-1.5 0h-.75v-1.496h.75Zm-1.5 0h-.75v-1.496h.75Zm-1.5 0h-.75v-1.496h.75Zm-1.5 0h-.75v-1.496h.75Zm-1.5 0h-.75v-1.496h.75Zm-1.5 0h-.75v-1.496h.75Zm-1.5 0h-.75v-1.496h.75Zm-1.5 0h-.75v-1.496h.75Zm-1.5 0h-.75v-1.496h.75Zm-1.5 0h-.75v-1.496h.75Zm-1.5 0h-.75v-1.496h.75Zm-1.5 0h-.75v-1.496h.75Zm-1.5 0h-.75v-1.496h.75Zm-1.5 0h-.75v-1.496h.75Zm-1.5 0h-.75v-1.496h.75Zm-1.5 0h-.75v-1.496h.75Zm-1.5 0h-.75v-1.496h.75Zm-1.5 0h-.75v-1.496h.75Zm-1.5 0h-.75v-1.496h.75Zm-1.5 0h-.75v-1.496h.75Zm-1.5 0h-.75v-1.496h.75Zm-1.5 0h-.75v-1.496h.75Zm-1.5 0h-.75v-1.496h.75Zm-1.5 0h-.75v-1.496h.75Zm-1.5 0h-.75v-1.496h.75Zm-1.5 0h-.75v-1.496h.75Zm-1.5 0h-.75v-1.496h.75Zm-1.5 0h-.75v-1.496h.75Zm-1.5 0h-.75v-1.496h.75Zm-1.5 0h-.75v-1.496h.75Zm-1.5 0h-.75v-1.496h.75Zm-1.5 0h-.75v-1.496h.75Zm-1.5 0h-.75v-1.496h.75Zm-1.5 0h-.75v-1.496h.75Zm-1.5 0h-.75v-1.496h.75Zm-1.5 0h-.75v-1.496h.75Zm-1.5 0h-.75v-1.496h.75Zm-1.5 0h-.75v-1.496h.75Zm-1.5 0h-.75v-1.496h.75Zm-1.5 0h-.75v-1.496h.75Zm-1.5 0h-.75v-1.496h.75Zm-1.5 0h-.75v-1.496h.75Zm-1.5 0h-.75v-1.496h.75Zm-1.5 0h-.75v-1.496h.75Zm-1.5 0h-.75v-1.496h.75Zm-1.5 0h-.75v-1.496h.75Zm-1.5 0h-.75v-1.496h.75Zm-1.5 0h-.75v-1.496h.75Zm-1.5 0h-.75v-1.496h.75Zm-1.5 0h-.75v-1.496h.75Zm-1.5 0h-.75v-1.496h.75Zm-1.5 0h-.75v-1.496h.75Zm-1.5 0h-.75v-1.496h.75Zm-1.5 0h-.75v-1.496h.75Zm-1.5 0h-.75v-1.496h.75Zm-1.5 0h-.75v-1.496h.75Zm-1.5 0h-.75v-1.496h.75Zm-1.5 0h-.75v-1.496h.75Zm-1.5 0h-.75v-1.496h.75Zm-1.5 0h-.75v-1.496h.75Zm-1.5 0h-.75v-1.496h.75Zm-1.5 0h-.75v-1.496h.75Zm-1.5 0h-.75v-1.496h.75Zm-1.5 0h-.75v-1.496h.75Zm-1.5 0h-.75v-1.496h.75Zm-1.5 0h-.75v-1.496h.75Zm-1.5 0h-.75v-1.496h.75Zm-1.5 0h-.75v-1.496h.75Zm-1.5 0h-.75v-1.496h.75Zm-1.5 0h-.75v-1.496h.75Zm-1.5 0h-.75v-1.496h.75Zm-1.5 0h-.75v-1.496h.75Zm-1.5 0h-.75v-1.496h.75Zm-1.5 0h-.75v-1.496h.75Zm-1.5 0h-.75v-1.496h.75Zm-1.5 0h-.75v-1.496h.75Zm-1.5 0h-.75v-1.496h.75Zm-1.5 0h-.75v-1.496h.75Zm-1.5 0h-.75v-1.496h.75Zm-1.5 0h-.75v-1.496h.75Zm-1.5 0h-.75v-1.496h.75Zm-1.5 0h-.75v-1.496h.75Zm-1.5 0h-.75v-1.496h.75Zm-1.5 0h-.75v-1.496h.75Zm-1.5 0h-.75v-1.496h.75Zm-1.5 0h-.75v-1.496h.75Zm-1.5 0h-.75v-1.496h.75Zm-1.5 0h-.75v-1.496h.75Zm-1.5 0h-.75v-1.496h.75Zm-1.5 0h-.75v-1.496h.75Zm-1.5 0h-.75v-1.496h.75Zm-1.5 0h-.75v-1.496h.75Zm-1.5 0h-.75v-1.496h.75Zm-1.5 0h-.75v-1.496h.75Zm-1.5 0h-.75v-1.496h.75Zm-1.5 0h-.75v-1.496h.75Zm-1.5 0h-.75v-1.496h.75Zm-1.5 0h-.75v-1.496h.75Zm-1.5 0h-.75v-1.496h.75Zm-1.5 0h-.75v-1.496h.75Zm-1.5 0h-.75v-1.496h.75Zm-1.5 0h-.75v-1.496h.75Zm-1.5 0h-.75v-1.496h.75Zm-1.5 0h-.75v-1.496h.75Zm-1.5 0h-.75v-1.496h.75Zm-1.5 0h-.75v-1.496h.75Zm-1.5 0h-.75v-1.496h.75Zm-1.5 0h-.75v-1.496h.75Zm-1.5 0h-.75v-1.496h.75Zm-1.5 0h-.75v-1.496h.75Zm-1.5 0h-.75v-1.496h.75Zm-1.5 0h-.75v-1.496h.75Zm-1.5 0h-.75v-1.496h.75Zm-1.5 0h-.75v-1.496h.75Zm-1.5 0h-.75v-1.496h.75Zm-1.5 0h-.75v-1.496h.75Zm-1.5 0h-.75v-1.496h.75Zm-1.5 0h-.75v-1.496h.75Zm-1.5 0h-.75v-1.496h.75Zm-1.5 0h-.75v-1.496h.75Zm-1.5 0h-.75v-1.496h.75Zm-1.5 0h-.75v-1.496h.75Zm-1.5 0h-.75v-1.496h.75Zm-1.5 0h-.75v-1.496h.75Zm-1.5 0h-.75v-1.496h.75Zm-1.5 0h-.75v-1.496h.75Zm-1.5 0h-.75v-1.496h.75Zm-1.5 0h-.75v-1.496h.75Zm-1.5 0h-.75v-1.496h.75Zm-1.5 0h-.75v-1.496h.75Zm-1.5 0h-.75v-1.496h.75Zm-1.5 0h-.75v-1.496h.75Zm-1.5 0h-.75v-1.496h.75Zm-1.5 0h-.75v-1.496h.75Zm-1.5 0h-.75v-1.496h.75Zm-1.5 0h-.75v-1.496h.75Zm-1.5 0h-.75v-1.496h.75Zm-1.5 0h-.75v-1.496h.75Zm-1.5 0h-.75v-1.496h.75Zm-1.5 0h-.75v-1.496h.75Zm-1.5 0h-.75v-1.496h.75Zm-1.5 0h-.75v-1.496h.75Zm-1.5 0h-.75v-1.496h.75Zm-1.5 0h-.75v-1.496h.75Zm-1.5 0h-.75v-1.496h.75Zm-1.5 0h-.75v-1.496h.75Zm-1.5 0h-.75v-1.496h.75Zm-1.5 0h-.75v-1.496h.75Zm-1.5 0h-.75v-1.496h.75Zm-1.5 0h-.75v-1.496h.75Zm-1.5 0h-.75v-1.496h.75Zm-1.5 0h-.75v-1.496h.75Zm-1.5 0h-.75v-1.496h.75Zm-1.5 0h-.75v-1.496h.75Zm-1.5 0h-.75v-1.496h.75Zm-1.5 0h-.75v-1.496h.75Zm-1.5 0h-.75v-1.496h.75Zm-1.5 0h-.75v-1.496h.75Zm-1.5 0h-.75v-1.496h.75Zm-1.5 0h-.75v-1.496h.75Zm-1.5 0h-.75v-1.496h.75Zm-1.5 0h-.75v-1.496h.75Zm-1.5 0h-.75v-1.496h.75Zm-1.5 0h-.75v-1.496h.75Zm-1.5 0h-.75v-1.496h.75Zm-1.5 0h-.75v-1.496h.75Zm-1.5 0h-.75v-1.496h.75Zm-1.5 0h-.75v-1.496h.75Zm-1.5 0h-.75v-1.496h.75Zm-1.5 0h-.75v-1.496h.75Zm-1.5 0h-.75v-1.496h.75Zm-1.5 0h-.75v-1.496h.75Zm-1.5 0h-.75v-1.496h.75Zm-1.5 0h-.75v-1.496h.75Zm-1.5 0h-.75v-1.496h.75Zm-1.5 0h-.75v-1.496h.75Zm-1.5 0h-.75v-1.496h.75Zm-1.5 0h-.75v-1.496h.75Zm-1.5 0h-.89v-1.356h1.5v.606h-.75v-.746h.14Zm-.89-2.106v-.746h1.5v.746Zm0-1.496v-.75h1.5v.75Zm0-1.496v-.75h1.5v.75Zm0-1.5v-.746h1.5v.746Zm0-1.496v-.75h1.5v.75Zm0-1.496v-.75h1.5v.75Zm0-1.5v-.746h1.5v.746Zm0-1.496v-.75h1.5v.75Zm0-1.496v-.75h1.5v.75Zm0-1.5v-.746h1.5v.746Zm0-1.496v-.75h1.5v.75Zm0-1.497v-.75h1.5v.75Zm0-1.5v-.746h1.5v.747Zm0-1.496v-.75h1.5v.75Zm0-1.496v-.75h1.5v.75Zm0-1.5v-.746h1.5v.746Zm0-1.496v-.75h1.5v.75Zm0-1.496v-.75h1.5v.75Zm0-1.5v-.746h1.5v.746Zm0-1.496v-.75h1.5v.75Zm0-1.496v-.75h1.5v.75Zm0-1.5v-.746h1.5v.746Zm0-1.496v-.75h1.5v.75Zm0-1.496v-.75h1.5v.75Zm0-1.5v-.746h1.5v.746Zm0-1.496v-.75h1.5v.75Zm0-1.496v-.75h1.5v.75Zm0-1.5v-.747h1.5v.747Zm0-1.497v-.75h1.5v.75Zm0-1.496v-.75h1.5v.75Zm0-1.5v-.746h1.5v.746Zm0-1.496v-.75h1.5v.75Zm0-1.496v-.75h1.5v.75Zm0-1.5v-.746h1.5v.746Zm0-1.496v-.75h1.5v.75Zm0-1.496v-.75h1.5v.75Zm0-1.5v-.746h1.5v.746Zm0-1.496v-.75h1.5v.75Zm0-1.496v-.75h1.5v.75Zm0-1.5v-.746h1.5v.746Zm0-1.496v-.75h1.5v.75Zm0-1.496v-.75h1.5v.75Zm0-1.5v-.746h1.5v.746Zm0-1.496v-.75h1.5v.75Zm0-1.497v-.75h1.5v.75Zm0-1.5v-.746h1.5v.746Zm0-1.496v-.75h1.5v.75Zm0-1.496v-.75h1.5v.75Zm0-1.5v-.746h1.5v.746Zm0-1.496v-.75h1.5v.75Zm0-1.496v-.75h1.5v.75Zm0-1.5v-.746h1.5v.746Zm0-1.496v-.75h1.5v.75Zm0-1.496v-.75h1.5v.75Zm0-1.5v-.746h1.5v.746Zm0-1.496v-.75h1.5v.75Zm0-1.496v-.75h1.5v.75Zm0-1.5v-.746h1.5v.746Zm0-1.496v-.75h1.5v.75Zm0-1.497v-.75h1.5v.75Zm0-1.5v-.746h1.5v.747Zm0-1.496v-.75h1.5v.75Zm0-1.496v-.75h1.5v.75Zm0-1.5v-.746h1.5v.746Zm0-1.496v-.75h1.5v.75Zm0-1.496v-.75h1.5v.75Zm0-1.5v-.746h1.5v.746Zm0-1.496v-.75h1.5v.75Zm0-1.496v-.75h1.5v.75Zm0-1.5v-.746h1.5v.746Zm0-1.496v-.75h1.5v.75Zm0-1.496v-.332h1.5v.332Zm0 0"/>
  </g>
  <path d="M96.566 386.247c1.407 0 2.61.25 3.61.75 1.008.5 1.773 1.22 2.297 2.157.53.937.797 2.039.797 3.297 0 1.273-.266 2.37-.797 3.296-.524.93-1.29 1.649-2.297 2.157-1 .5-2.203.75-3.61.75h-4.89v7.984H89.27v-20.39Zm-.062 10.36c2.832 0 4.25-1.383 4.25-4.156 0-2.782-1.418-4.172-4.25-4.172h-4.828v8.328ZM111.123 406.935c-1.511 0-2.695-.395-3.547-1.188-.855-.789-1.28-1.921-1.28-3.39 0-.906.187-1.672.562-2.297.383-.633.968-1.148 1.75-1.547.789-.394 1.828-.695 3.11-.906 1.112-.188 1.956-.395 2.53-.625.582-.238.973-.5 1.172-.781.207-.29.313-.657.313-1.094 0-.695-.242-1.235-.719-1.61-.48-.375-1.25-.562-2.313-.562-1 0-1.855.2-2.562.594-.711.386-1.36.96-1.953 1.718h-.281l-1.11-1.578c.645-.832 1.469-1.488 2.469-1.968 1.008-.489 2.156-.735 3.437-.735 1.813 0 3.145.399 4 1.188.864.793 1.297 1.89 1.297 3.297v8.156c0 .855.364 1.281 1.094 1.281.238 0 .469-.039.688-.125l.203.063.265 1.578c-.168.117-.39.199-.672.25a3.775 3.775 0 0 1-.843.093c-.844 0-1.485-.18-1.922-.546-.43-.375-.7-.926-.813-1.657l-.297-.03c-.437.812-1.03 1.42-1.78 1.827-.743.395-1.673.594-2.798.594Zm.5-1.813c.852 0 1.594-.195 2.22-.593.632-.395 1.116-.953 1.452-1.672.332-.719.5-1.547.5-2.485v-1.953l-.265-.047a4.839 4.839 0 0 1-1.25.61c-.493.156-1.18.305-2.063.437-.898.118-1.61.297-2.14.547-.524.25-.899.574-1.126.969-.218.387-.328.86-.328 1.422 0 .906.266 1.594.797 2.062.531.47 1.266.703 2.203.703ZM128.612 413.17c-2.43 0-4.199-.407-5.312-1.22-1.117-.812-1.672-1.886-1.672-3.218 0-.867.258-1.555.781-2.063.52-.507 1.274-.879 2.266-1.11v-.28c-.469-.27-.824-.586-1.063-.953-.242-.364-.36-.797-.36-1.297 0-.594.188-1.078.563-1.453.383-.375.946-.657 1.688-.844v-.297c-1.68-.883-2.516-2.32-2.516-4.313 0-1 .227-1.89.688-2.671.457-.782 1.11-1.391 1.953-1.829.844-.437 1.828-.656 2.953-.656 1.29 0 2.367.281 3.234.844.332-.363.579-.75.735-1.156.164-.414.27-.883.312-1.407l.297-.187 1.875.453c-.094.781-.336 1.445-.719 1.984-.375.532-.906.977-1.593 1.329v.296c.5.399.863.856 1.093 1.375.239.524.36 1.133.36 1.829 0 .968-.235 1.84-.703 2.609-.461.773-1.118 1.383-1.97 1.828-.843.438-1.82.656-2.921.656-.125 0-.355-.007-.687-.03-.375-.009-.653-.017-.829-.017-.492 0-.882.125-1.171.375-.282.25-.422.57-.422.954 0 .492.156.851.468 1.078.313.218.829.343 1.547.375l3.64.125c1.563.062 2.724.433 3.485 1.11.758.667 1.14 1.616 1.14 2.858 0 .915-.25 1.743-.75 2.485-.491.738-1.273 1.328-2.343 1.765-1.062.446-2.414.672-4.047.672Zm-.031-13.704c1.094 0 1.938-.281 2.531-.844.594-.57.89-1.367.89-2.39 0-1.063-.296-1.88-.89-2.453-.586-.57-1.43-.86-2.531-.86-1.094 0-1.934.29-2.516.86-.574.562-.859 1.383-.859 2.453 0 1.031.285 1.828.86 2.39.581.563 1.421.844 2.515.844Zm.031 11.75c1.133 0 2.063-.125 2.782-.375.718-.25 1.234-.586 1.546-1 .32-.418.485-.883.485-1.39 0-.461-.09-.829-.266-1.11-.168-.273-.445-.48-.828-.625-.375-.133-.898-.222-1.562-.265l-3.438-.157h-.484c-1.93.024-2.891.766-2.891 2.235 0 1.789 1.55 2.687 4.656 2.687ZM151.104 399.466h-10.562c.062 1.875.507 3.25 1.343 4.125.832.867 1.973 1.297 3.422 1.297 1.094 0 1.973-.191 2.64-.578.677-.395 1.204-1.008 1.579-1.844h.297l1.484.875a5.541 5.541 0 0 1-2.156 2.64c-.98.638-2.262.954-3.844.954-1.492 0-2.773-.293-3.844-.875-1.062-.594-1.886-1.484-2.468-2.672-.575-1.187-.86-2.664-.86-4.437 0-1.75.301-3.223.907-4.422.613-1.196 1.445-2.086 2.5-2.672 1.062-.594 2.27-.89 3.625-.89 1.968 0 3.503.558 4.609 1.671 1.113 1.106 1.672 2.75 1.672 4.938 0 .855-.016 1.433-.047 1.734Zm-1.89-1.89c-.044-1.633-.407-2.82-1.094-3.563-.688-.75-1.672-1.125-2.953-1.125-1.356 0-2.418.375-3.188 1.125-.762.75-1.226 1.938-1.39 3.563ZM174.91 386.247v1.985h-9.579v7.422h8.61v1.984h-8.61v9h-2.406v-20.39ZM184.837 406.935c-1.45 0-2.711-.305-3.781-.922-1.075-.613-1.903-1.516-2.485-2.703-.586-1.195-.875-2.648-.875-4.36 0-1.695.29-3.144.875-4.343.582-1.195 1.41-2.102 2.485-2.719 1.07-.613 2.332-.922 3.78-.922 1.446 0 2.708.309 3.782.922 1.07.617 1.899 1.524 2.484 2.719.583 1.199.875 2.648.875 4.344 0 1.71-.292 3.164-.875 4.359-.585 1.187-1.414 2.09-2.484 2.703-1.074.617-2.336.922-3.781.922Zm0-2.047c1.531 0 2.703-.476 3.515-1.437.813-.97 1.22-2.47 1.22-4.5 0-2.032-.407-3.532-1.22-4.5-.812-.97-1.984-1.454-3.515-1.454-1.531 0-2.711.493-3.531 1.47-.813.968-1.22 2.464-1.22 4.484 0 2.03.407 3.53 1.22 4.5.82.96 2 1.437 3.53 1.437ZM202.49 406.935c-1.448 0-2.71-.305-3.78-.922-1.075-.613-1.903-1.516-2.485-2.703-.586-1.195-.875-2.648-.875-4.36 0-1.695.29-3.144.875-4.343.582-1.195 1.41-2.102 2.485-2.719 1.07-.613 2.332-.922 3.78-.922 1.446 0 2.708.309 3.782.922 1.07.617 1.898 1.524 2.484 2.719.582 1.199.875 2.648.875 4.344 0 1.71-.293 3.164-.875 4.359-.586 1.187-1.414 2.09-2.484 2.703-1.074.617-2.336.922-3.781.922Zm0-2.047c1.532 0 2.704-.476 3.516-1.437.813-.97 1.22-2.47 1.22-4.5 0-2.032-.407-3.532-1.22-4.5-.812-.97-1.984-1.454-3.515-1.454-1.531 0-2.711.493-3.531 1.47-.813.968-1.22 2.464-1.22 4.484 0 2.03.407 3.53 1.22 4.5.82.96 2 1.437 3.53 1.437ZM221.723 404.2l.719 1.626c-.368.367-.844.64-1.438.828a6.211 6.211 0 0 1-1.906.28c-2.938 0-4.406-1.487-4.406-4.468v-9.36h-2.672v-1.859h2.672v-3.25l2.265-.375v3.625h4.953v1.86h-4.953v9.14c0 1.762.77 2.641 2.313 2.641.832 0 1.55-.226 2.156-.687ZM237.686 399.466h-10.562c.062 1.875.508 3.25 1.344 4.125.832.867 1.972 1.297 3.421 1.297 1.094 0 1.973-.191 2.641-.578.676-.395 1.203-1.008 1.578-1.844h.297l1.484.875a5.541 5.541 0 0 1-2.156 2.64c-.98.638-2.262.954-3.844.954-1.492 0-2.773-.293-3.843-.875-1.063-.594-1.887-1.484-2.47-2.672-.573-1.187-.858-2.664-.858-4.437 0-1.75.3-3.223.906-4.422.613-1.196 1.445-2.086 2.5-2.672 1.062-.594 2.27-.89 3.625-.89 1.969 0 3.504.558 4.61 1.671 1.112 1.106 1.671 2.75 1.671 4.938 0 .855-.016 1.433-.047 1.734Zm-1.89-1.89c-.043-1.633-.407-2.82-1.094-3.563-.688-.75-1.672-1.125-2.953-1.125-1.356 0-2.418.375-3.188 1.125-.761.75-1.226 1.938-1.39 3.563ZM242.1 406.638v-15.39h2.173v2.421l.28.063c.72-1.738 2.067-2.61 4.048-2.61 1.05 0 1.836.188 2.36.563l-.579 1.922-.281.062a4.244 4.244 0 0 0-1.906-.437c-1.22 0-2.165.465-2.829 1.39-.656.918-.984 2.407-.984 4.47v7.546Zm0 0"/>
  <g clip-path="url(#f)">
    <path fill="#fff" d="M.004 342.133V103.07H102.66v239.063Zm0 0"/>
  </g>
  <g clip-path="url(#g)">
    <path d="M-.742 342.125v-.75H.754v.75Zm0-1.504v-.75H.754v.75Zm0-1.5v-.75H.754v.75Zm0-1.5v-.75H.754v.75Zm0-1.504v-.75H.754v.75Zm0-1.5v-.75H.754v.75Zm0-1.5v-.75H.754v.75Zm0-1.504v-.75H.754v.75Zm0-1.5v-.75H.754v.75Zm0-1.5v-.75H.754v.75Zm0-1.504v-.75H.754v.75Zm0-1.5v-.75H.754v.75Zm0-1.5v-.75H.754v.75Zm0-1.504v-.75H.754v.75Zm0-1.5v-.75H.754v.75Zm0-1.5v-.75H.754v.75Zm0-1.503v-.75H.754v.75Zm0-1.5v-.75H.754v.75Zm0-1.5v-.75H.754v.75Zm0-1.504v-.75H.754v.75Zm0-1.5v-.75H.754v.75Zm0-1.5v-.754H.754v.754Zm0-1.504v-.75H.754v.75Zm0-1.5v-.75H.754v.75Zm0-1.5v-.754H.754v.754Zm0-1.504v-.75H.754v.75Zm0-1.5v-.75H.754v.75Zm0-1.5v-.754H.754v.754Zm0-1.504v-.75H.754v.75Zm0-1.5v-.75H.754v.75Zm0-1.5v-.754H.754v.754Zm0-1.504v-.75H.754v.75Zm0-1.5v-.75H.754v.75Zm0-1.5v-.754H.754v.754Zm0-1.504v-.75H.754v.75Zm0-1.5v-.75H.754v.75Zm0-1.5v-.754H.754v.754Zm0-1.504v-.75H.754v.75Zm0-1.5v-.75H.754v.75Zm0-1.5v-.754H.754v.754Zm0-1.504v-.75H.754v.75Zm0-1.5v-.75H.754v.75Zm0-1.5v-.754H.754v.754Zm0-1.504v-.75H.754v.75Zm0-1.5v-.75H.754v.75Zm0-1.5v-.753H.754v.753Zm0-1.503v-.75H.754v.75Zm0-1.5v-.75H.754v.75Zm0-1.5v-.754H.754v.753Zm0-1.504v-.75H.754v.75Zm0-1.5v-.75H.754v.75Zm0-1.5v-.754H.754v.754Zm0-1.504v-.75H.754v.75Zm0-1.5v-.75H.754v.75Zm0-1.504v-.75H.754v.75Zm0-1.5v-.75H.754v.75Zm0-1.5v-.75H.754v.75Zm0-1.504v-.75H.754v.75Zm0-1.5v-.75H.754v.75Zm0-1.5v-.75H.754v.75Zm0-1.504v-.75H.754v.75Zm0-1.5v-.75H.754v.75Zm0-1.5v-.75H.754v.75Zm0-1.504v-.75H.754v.75Zm0-1.5v-.75H.754v.75Zm0-1.5v-.75H.754v.75Zm0-1.504v-.75H.754v.75Zm0-1.5v-.75H.754v.75Zm0-1.5v-.75H.754v.75Zm0-1.504v-.75H.754v.75Zm0-1.5v-.75H.754v.75Zm0-1.5v-.75H.754v.75Zm0-1.504v-.75H.754v.75Zm0-1.5v-.75H.754v.75Zm0-1.5v-.75H.754v.75Zm0-1.504v-.75H.754v.75Zm0-1.5v-.75H.754v.75Zm0-1.5v-.75H.754v.75Zm0-1.503v-.75H.754v.75Zm0-1.5v-.75H.754v.75Zm0-1.5v-.75H.754v.75Zm0-1.504v-.75H.754v.75Zm0-1.5v-.75H.754v.75Zm0-1.5v-.754H.754v.754Zm0-1.504v-.75H.754v.75Zm0-1.5v-.75H.754v.75Zm0-1.5v-.754H.754v.754Zm0-1.504v-.75H.754v.75Zm0-1.5v-.75H.754v.75Zm0-1.5v-.754H.754v.754Zm0-1.504v-.75H.754v.75Zm0-1.5v-.75H.754v.75Zm0-1.5v-.754H.754v.754Zm0-1.504v-.75H.754v.75Zm0-1.5v-.75H.754v.75Zm0-1.5v-.754H.754v.754Zm0-1.504v-.75H.754v.75Zm0-1.5v-.75H.754v.75Zm0-1.5v-.754H.754v.754Zm0-1.504v-.75H.754v.75Zm0-1.5v-.75H.754v.75Zm0-1.5v-.754H.754v.754Zm0-1.504v-.75H.754v.75Zm0-1.5v-.75H.754v.75Zm0-1.5v-.754H.754v.754Zm0-1.504v-.75H.754v.75Zm0-1.5v-.75H.754v.75Zm0-1.5v-.754H.754v.754Zm0-1.504v-.75H.754v.75Zm0-1.5v-.75H.754v.75Zm0-1.5v-.753H.754v.753Zm0-1.503v-.75H.754v.75Zm0-1.5v-.75H.754v.75Zm0-1.5v-.754H.754v.754Zm0-1.504v-.75H.754v.75Zm0-1.5v-.75H.754v.75Zm0-1.504v-.75H.754v.75Zm0-1.5v-.75H.754v.75Zm0-1.5v-.75H.754v.75Zm0-1.504v-.75H.754v.75Zm0-1.5v-.75H.754v.75Zm0-1.5v-.75H.754v.75Zm0-1.504v-.75H.754v.75Zm0-1.5v-.75H.754v.75Zm0-1.5v-.75H.754v.75Zm0-1.504v-.75H.754v.75Zm0-1.5v-.75H.754v.75Zm0-1.5v-.75H.754v.75Zm0-1.504v-.75H.754v.75Zm0-1.5v-.75H.754v.75Zm0-1.5v-.75H.754v.75Zm0-1.504v-.75H.754v.75Zm0-1.5v-.75H.754v.75Zm0-1.5v-.75H.754v.75Zm0-1.504v-.75H.754v.75Zm0-1.5v-.75H.754v.75Zm0-1.5v-.75H.754v.75Zm0-1.504v-.75H.754v.75Zm0-1.5v-.75H.754v.75Zm0-1.5v-.75H.754v.75Zm0-1.504v-.75H.754v.75Zm0-1.5v-.75H.754v.75Zm0-1.5v-.75H.754v.75Zm0-1.503v-.75H.754v.75Zm0-1.5v-.75H.754v.75Zm0-1.5v-.754H.754v.754Zm0-1.504v-.75H.754v.75Zm0-1.5v-.75H.754v.75Zm0-1.5v-.754H.754v.754Zm0-1.504v-.75H.754v.75Zm0-1.5v-.75H.754v.75Zm0-1.5v-.754H.754v.754Zm0-1.504v-.75H.754v.75Zm0-1.5v-.75H.754v.75Zm0-1.5v-.754H.754v.754Zm0-1.504v-.75H.754v.75Zm0-1.5v-.75H.754v.75Zm0-1.5v-.754H.754v.754Zm0-1.504v-.75H.754v.75Zm0-1.5v-1.27h.976v1.5h-.23v-.75h.75v.52Zm1.722-1.27h.75v1.5H.98Zm1.497 0h.75v1.5h-.75Zm1.496 0h.75v1.5h-.75Zm1.5 0h.746v1.5h-.746Zm1.496 0h.746v1.5h-.746Zm1.496 0h.746v1.5h-.746Zm1.496 0h.746v1.5h-.746Zm1.496 0h.746v1.5h-.746Zm1.496 0h.746v1.5h-.746Zm1.496 0h.746v1.5h-.746Zm1.496 0h.746v1.5h-.746Zm1.496 0h.747v1.5h-.747Zm1.497 0h.746v1.5h-.747Zm1.496 0h.746v1.5h-.746Zm1.496 0h.746v1.5h-.746Zm1.496 0h.75v1.5h-.75Zm1.496 0h.75v1.5h-.75Zm1.496 0h.75v1.5h-.75Zm1.496 0h.75v1.5h-.75Zm1.496 0h.75v1.5h-.75Zm1.496 0h.75v1.5h-.75Zm1.496 0h.75v1.5h-.75Zm1.496 0h.75v1.5h-.75Zm1.497 0h.75v1.5h-.75Zm1.496 0h.75v1.5h-.75Zm1.496 0h.75v1.5h-.75Zm1.496 0h.75v1.5h-.75Zm1.496 0h.75v1.5h-.75Zm1.496 0h.75v1.5h-.75Zm1.5 0h.746v1.5h-.746Zm1.496 0h.746v1.5h-.746Zm1.496 0h.746v1.5h-.746Zm1.496 0h.746v1.5h-.746Zm1.496 0h.746v1.5h-.746Zm1.496 0h.747v1.5h-.747Zm1.497 0h.746v1.5h-.746Zm1.496 0h.746v1.5h-.746Zm1.496 0h.746v1.5h-.746Zm1.496 0h.746v1.5h-.746Zm1.496 0h.746v1.5h-.746Zm1.496 0h.746v1.5h-.746Zm1.496 0h.75v1.5h-.75Zm1.496 0h.75v1.5h-.75Zm1.496 0h.75v1.5h-.75Zm1.496 0h.75v1.5h-.75Zm1.496 0h.75v1.5h-.75Zm1.497 0h.75v1.5h-.75Zm1.496 0h.75v1.5h-.75Zm1.496 0h.75v1.5h-.75Zm1.496 0h.75v1.5h-.75Zm1.496 0h.75v1.5h-.75Zm1.496 0h.75v1.5h-.75Zm1.496 0h.75v1.5h-.75Zm1.496 0h.75v1.5h-.75Zm1.5 0h.746v1.5h-.746Zm1.496 0h.746v1.5h-.746Zm1.496 0h.747v1.5h-.747Zm1.497 0h.746v1.5h-.746Zm1.496 0h.746v1.5h-.746Zm1.496 0h.746v1.5h-.746Zm1.496 0h.746v1.5h-.746Zm1.496 0H93v1.5h-.746Zm1.496 0h.746v1.5h-.746Zm1.496 0h.746v1.5h-.746Zm1.496 0h.746v1.5h-.746Zm1.496 0h.746v1.5h-.746Zm1.496 0h.746v1.5h-.746Zm1.496 0h.75v1.5h-.75Zm1.497 0h.777v1.473h-1.496v-.722h.746v.75h-.027Zm.777 2.223v.75h-1.496v-.75Zm0 1.5v.754h-1.496v-.754Zm0 1.504v.75h-1.496v-.75Zm0 1.5v.75h-1.496v-.75Zm0 1.5v.754h-1.496v-.754Zm0 1.504v.75h-1.496v-.75Zm0 1.5v.75h-1.496v-.75Zm0 1.5v.754h-1.496v-.754Zm0 1.504v.75h-1.496v-.75Zm0 1.5v.75h-1.496v-.75Zm0 1.5v.754h-1.496v-.754Zm0 1.504v.75h-1.496v-.75Zm0 1.5v.75h-1.496v-.75Zm0 1.5v.754h-1.496v-.754Zm0 1.504v.75h-1.496v-.75Zm0 1.5v.75h-1.496v-.75Zm0 1.5v.754h-1.496v-.754Zm0 1.504v.75h-1.496v-.75Zm0 1.5v.75h-1.496v-.75Zm0 1.504v.75h-1.496v-.75Zm0 1.5v.75h-1.496v-.75Zm0 1.5v.75h-1.496v-.75Zm0 1.503v.75h-1.496v-.75Zm0 1.5v.75h-1.496v-.75Zm0 1.5v.75h-1.496v-.75Zm0 1.504v.75h-1.496v-.75Zm0 1.5v.75h-1.496v-.75Zm0 1.5v.75h-1.496v-.75Zm0 1.504v.75h-1.496v-.75Zm0 1.5v.75h-1.496v-.75Zm0 1.5v.75h-1.496v-.75Zm0 1.504v.75h-1.496v-.75Zm0 1.5v.75h-1.496v-.75Zm0 1.5v.75h-1.496v-.75Zm0 1.504v.75h-1.496v-.75Zm0 1.5v.75h-1.496v-.75Zm0 1.5v.75h-1.496v-.75Zm0 1.504v.75h-1.496v-.75Zm0 1.5v.75h-1.496v-.75Zm0 1.5v.75h-1.496v-.75Zm0 1.504v.75h-1.496v-.75Zm0 1.5v.75h-1.496v-.75Zm0 1.5v.75h-1.496v-.75Zm0 1.504v.75h-1.496v-.75Zm0 1.5v.75h-1.496v-.75Zm0 1.5v.75h-1.496v-.75Zm0 1.504v.75h-1.496v-.75Zm0 1.5v.75h-1.496v-.75Zm0 1.5v.754h-1.496v-.754Zm0 1.504v.75h-1.496v-.75Zm0 1.5v.75h-1.496v-.75Zm0 1.5v.754h-1.496v-.754Zm0 1.504v.75h-1.496v-.75Zm0 1.5v.75h-1.496v-.75Zm0 1.5v.753h-1.496v-.754Zm0 1.503v.75h-1.496v-.75Zm0 1.5v.75h-1.496v-.75Zm0 1.5v.754h-1.496v-.754Zm0 1.504v.75h-1.496v-.75Zm0 1.5v.75h-1.496v-.75Zm0 1.5v.754h-1.496v-.754Zm0 1.504v.75h-1.496v-.75Zm0 1.5v.75h-1.496v-.75Zm0 1.5v.754h-1.496v-.754Zm0 1.504v.75h-1.496v-.75Zm0 1.5v.75h-1.496v-.75Zm0 1.5v.754h-1.496v-.754Zm0 1.504v.75h-1.496v-.75Zm0 1.5v.75h-1.496v-.75Zm0 1.5v.754h-1.496v-.754Zm0 1.504v.75h-1.496v-.75Zm0 1.5v.75h-1.496v-.75Zm0 1.5v.754h-1.496v-.754Zm0 1.504v.75h-1.496v-.75Zm0 1.5v.75h-1.496v-.75Zm0 1.5v.754h-1.496v-.754Zm0 1.504v.75h-1.496v-.75Zm0 1.5v.75h-1.496v-.75Zm0 1.5v.754h-1.496v-.754Zm0 1.504v.75h-1.496v-.75Zm0 1.5v.75h-1.496v-.75Zm0 1.504v.75h-1.496v-.75Zm0 1.5v.75h-1.496v-.75Zm0 1.5v.75h-1.496v-.75Zm0 1.503v.75h-1.496v-.75Zm0 1.5v.75h-1.496v-.75Zm0 1.5v.75h-1.496v-.75Zm0 1.504v.75h-1.496v-.75Zm0 1.5v.75h-1.496v-.75Zm0 1.5v.75h-1.496v-.75Zm0 1.504v.75h-1.496v-.75Zm0 1.5v.75h-1.496v-.75Zm0 1.5v.75h-1.496v-.75Zm0 1.504v.75h-1.496v-.75Zm0 1.5v.75h-1.496v-.75Zm0 1.5v.75h-1.496v-.75Zm0 1.504v.75h-1.496v-.75Zm0 1.5v.75h-1.496v-.75Zm0 1.5v.75h-1.496v-.75Zm0 1.504v.75h-1.496V253Zm0 1.5v.75h-1.496v-.75Zm0 1.5v.75h-1.496V256Zm0 1.504v.75h-1.496v-.75Zm0 1.5v.75h-1.496v-.75Zm0 1.5v.75h-1.496v-.75Zm0 1.504v.75h-1.496v-.75Zm0 1.5v.75h-1.496v-.75Zm0 1.5v.75h-1.496v-.75Zm0 1.504v.75h-1.496v-.75Zm0 1.5v.75h-1.496v-.75Zm0 1.5v.754h-1.496v-.754Zm0 1.504v.75h-1.496v-.75Zm0 1.5v.75h-1.496v-.75Zm0 1.5v.754h-1.496v-.754Zm0 1.504v.75h-1.496v-.75Zm0 1.5v.75h-1.496v-.75Zm0 1.5v.753h-1.496v-.753Zm0 1.503v.75h-1.496v-.75Zm0 1.5v.75h-1.496v-.75Zm0 1.5v.754h-1.496v-.754Zm0 1.504v.75h-1.496v-.75Zm0 1.5v.75h-1.496v-.75Zm0 1.5v.754h-1.496v-.754Zm0 1.504v.75h-1.496v-.75Zm0 1.5v.75h-1.496v-.75Zm0 1.5v.754h-1.496v-.754Zm0 1.504v.75h-1.496v-.75Zm0 1.5v.75h-1.496v-.75Zm0 1.5v.754h-1.496v-.754Zm0 1.504v.75h-1.496v-.75Zm0 1.5v.75h-1.496v-.75Zm0 1.5v.754h-1.496v-.754Zm0 1.504v.75h-1.496v-.75Zm0 1.5v.75h-1.496v-.75Zm0 1.5v.754h-1.496v-.754Zm0 1.504v.75h-1.496v-.75Zm0 1.5v.75h-1.496v-.75Zm0 1.5v.754h-1.496v-.754Zm0 1.504v.75h-1.496v-.75Zm0 1.5v.75h-1.496v-.75Zm0 1.5v.754h-1.496v-.754Zm0 1.504v.75h-1.496v-.75Zm0 1.5v.75h-1.496v-.75Zm0 1.504v.75h-1.496v-.75Zm0 1.5v.75h-1.496v-.75Zm0 1.5v.75h-1.496v-.75Zm0 1.503v.75h-1.496v-.75Zm0 1.5v.75h-1.496v-.75Zm0 1.5v.75h-1.496v-.75Zm0 1.504v.75h-1.496v-.75Zm0 1.5v.75h-1.496v-.75Zm0 1.5v.75h-1.496v-.75Zm0 1.504v.75h-1.496v-.75Zm0 1.5v.75h-1.496v-.75Zm0 1.5v.75h-1.496v-.75Zm0 1.504v.75h-1.496v-.75Zm0 1.5v.75h-1.496v-.75Zm0 1.5v.75h-1.496v-.75Zm0 1.504v1.297h-.953v-1.5h.203v.75h-.746v-.547Zm-1.7 1.297h-.75v-1.5h.75Zm-1.495 0h-.75v-1.5h.75Zm-1.496 0h-.75v-1.5h.75Zm-1.497 0h-.75v-1.5h.75Zm-1.496 0h-.75v-1.5h.75Zm-1.496 0h-.75v-1.5h.75Zm-1.496 0h-.75v-1.5h.75Zm-1.5 0h-.746v-1.5h.746Zm-1.496 0h-.746v-1.5h.746Zm-1.496 0h-.746v-1.5h.746Zm-1.496 0h-.746v-1.5h.746Zm-1.496 0h-.746v-1.5h.746Zm-1.496 0h-.746v-1.5h.746Zm-1.496 0h-.747v-1.5h.747Zm-1.497 0h-.746v-1.5h.746Zm-1.496 0h-.746v-1.5h.746Zm-1.496 0h-.746v-1.5h.746Zm-1.496 0h-.746v-1.5h.746Zm-1.496 0h-.746v-1.5h.746Zm-1.496 0h-.75v-1.5h.75Zm-1.496 0h-.75v-1.5h.75Zm-1.496 0h-.75v-1.5h.75Zm-1.496 0h-.75v-1.5h.75Zm-1.496 0h-.75v-1.5h.75Zm-1.496 0h-.75v-1.5h.75Zm-1.497 0h-.75v-1.5h.75Zm-1.496 0h-.75v-1.5h.75Zm-1.496 0h-.75v-1.5h.75Zm-1.496 0h-.75v-1.5h.75Zm-1.496 0h-.75v-1.5h.75Zm-1.496 0h-.75v-1.5h.75Zm-1.496 0h-.75v-1.5h.75Zm-1.5 0h-.746v-1.5h.746Zm-1.496 0h-.746v-1.5h.746Zm-1.496 0h-.746v-1.5h.746Zm-1.496 0h-.746v-1.5h.746Zm-1.496 0h-.747v-1.5h.746Zm-1.497 0h-.746v-1.5h.746Zm-1.496 0H44.2v-1.5h.746Zm-1.496 0h-.746v-1.5h.746Zm-1.496 0h-.746v-1.5h.746Zm-1.496 0h-.746v-1.5h.746Zm-1.496 0h-.746v-1.5h.746Zm-1.496 0h-.746v-1.5h.746Zm-1.496 0h-.746v-1.5h.746Zm-1.496 0h-.75v-1.5h.75Zm-1.496 0h-.75v-1.5h.75Zm-1.497 0h-.75v-1.5h.75Zm-1.496 0h-.75v-1.5h.75Zm-1.496 0h-.75v-1.5h.75Zm-1.496 0h-.75v-1.5h.75Zm-1.496 0h-.75v-1.5h.75Zm-1.496 0h-.75v-1.5H24Zm-1.496 0h-.75v-1.5h.75Zm-1.496 0h-.75v-1.5h.75Zm-1.496 0h-.75v-1.5h.75Zm-1.496 0h-.75v-1.5h.75Zm-1.496 0h-.75v-1.5h.75Zm-1.5 0h-.747v-1.5h.747Zm-1.497 0h-.746v-1.5h.746Zm-1.496 0h-.746v-1.5h.746Zm-1.496 0h-.746v-1.5h.746Zm-1.496 0H8.29v-1.5h.746Zm-1.496 0h-.746v-1.5h.746Zm-1.496 0h-.746v-1.5h.746Zm-1.496 0H3.8v-1.5h.746Zm-1.496 0h-.746v-1.5h.746Zm-1.496 0H.809v-1.5h.746Zm-1.496 0H.004v-1.5h.055Zm0 0"/>
  </g>
  <path d="M61.801 266.712c0 1.281-.172 2.434-.516 3.453-.351 1.012-.812 1.86-1.375 2.547-.57.68-1.195 1.184-1.875 1.516l-1.593-1.313v-.344c2.125-1.27 3.187-3.222 3.187-5.859 0-1.54-.316-2.68-.953-3.422-.644-.75-1.539-1.125-2.687-1.125-.665 0-1.227.125-1.688.375-.469.242-.863.649-1.187 1.219-.332.562-.625 1.336-.875 2.312l-.579 2.375c-.425 1.782-1.109 3.094-2.046 3.938-.938.836-2.118 1.25-3.547 1.25-1.008 0-1.91-.258-2.703-.781-.801-.52-1.426-1.282-1.875-2.282-.446-1.007-.672-2.207-.672-3.593 0-1.54.218-2.836.656-3.891.43-1.05 1.074-1.895 1.937-2.531l1.579 1.172v.343a5.404 5.404 0 0 0-1.579 2.094c-.332.793-.5 1.73-.5 2.813 0 1.406.278 2.476.829 3.203.554.718 1.308 1.078 2.265 1.078.93 0 1.664-.266 2.203-.797.543-.531.965-1.426 1.266-2.688l.578-2.437c.469-1.977 1.188-3.41 2.156-4.297.961-.883 2.184-1.328 3.672-1.328 1.156 0 2.18.262 3.063.781.886.512 1.586 1.293 2.093 2.344.508 1.043.766 2.336.766 3.875ZM43.145 254.317c0 .493-.149.887-.453 1.188-.301.305-.68.453-1.141.453-.469 0-.852-.148-1.156-.453-.301-.3-.453-.695-.453-1.188 0-.476.152-.867.453-1.171.304-.301.687-.454 1.156-.454.461 0 .84.153 1.14.454.305.304.454.695.454 1.171Zm18.36 1.157H46.113v-2.282h15.39ZM61.801 242.534c0 1.242-.297 2.335-.89 3.28-.594.938-1.485 1.68-2.672 2.22-1.188.53-2.66.796-4.422.796-1.758 0-3.235-.273-4.422-.828-1.196-.562-2.086-1.332-2.672-2.312-.594-.977-.89-2.117-.89-3.422 0-1.02.195-1.938.577-2.75.387-.82 1.024-1.524 1.907-2.11l-.063-.296h-8.312v-2.266h21.562v2.266h-2.25l-.047.297c.762.5 1.387 1.183 1.875 2.046.477.856.719 1.883.719 3.079Zm-2.047-.704c0-1.437-.488-2.582-1.469-3.437-.976-.852-2.468-1.281-4.468-1.281-2.008 0-3.504.43-4.485 1.28-.976.856-1.468 2-1.468 3.438 0 1.48.48 2.621 1.437 3.422.961.793 2.465 1.188 4.516 1.188 3.96 0 5.937-1.535 5.937-4.61ZM54.332 217.497v10.562c1.875-.062 3.25-.508 4.125-1.344.867-.832 1.297-1.972 1.297-3.422 0-1.093-.191-1.972-.578-2.64-.394-.676-1.008-1.203-1.844-1.578v-.297l.875-1.485a5.541 5.541 0 0 1 2.64 2.157c.638.98.954 2.261.954 3.843 0 1.493-.293 2.774-.875 3.844-.594 1.063-1.484 1.887-2.672 2.469-1.187.574-2.664.86-4.437.86-1.75 0-3.223-.301-4.422-.907-1.196-.613-2.086-1.445-2.672-2.5-.594-1.062-.89-2.27-.89-3.625 0-1.969.558-3.504 1.671-4.61 1.106-1.113 2.75-1.671 4.938-1.671.855 0 1.433.015 1.734.047Zm-1.89 1.89c-1.633.043-2.82.406-3.563 1.094-.75.687-1.125 1.672-1.125 2.953 0 1.356.375 2.418 1.125 3.188.75.761 1.938 1.226 3.563 1.39ZM61.801 205.535c0 1.149-.219 2.14-.656 2.985-.446.836-1.035 1.496-1.766 1.984l.063.297h2.062v2.281H39.942v-2.281h8.484l.047-.297c-1.758-1.164-2.64-2.863-2.64-5.094 0-1.27.292-2.379.874-3.328.586-.945 1.477-1.68 2.672-2.203 1.2-.531 2.68-.797 4.438-.797 1.75 0 3.226.281 4.422.844 1.187.555 2.078 1.312 2.671 2.281.594.961.891 2.07.891 3.328Zm-2.047.547c0-3.07-1.976-4.61-5.937-4.61-2.051 0-3.555.403-4.516 1.204-.957.805-1.437 1.937-1.437 3.406 0 1.438.492 2.586 1.468 3.438.98.855 2.477 1.28 4.485 1.28 2 0 3.492-.425 4.468-1.28.98-.852 1.47-2 1.47-3.438ZM61.801 191.06c0 1.51-.394 2.694-1.187 3.546-.79.855-1.922 1.281-3.391 1.281-.906 0-1.672-.187-2.297-.562-.633-.383-1.148-.969-1.547-1.75-.394-.79-.695-1.828-.906-3.11-.188-1.113-.395-1.957-.625-2.53-.238-.583-.5-.974-.781-1.173-.29-.207-.657-.312-1.094-.312-.695 0-1.234.242-1.61.718-.374.48-.562 1.25-.562 2.313 0 1 .2 1.855.594 2.562.387.711.96 1.36 1.719 1.954v.28l-1.579 1.11c-.832-.644-1.488-1.469-1.968-2.469-.489-1.007-.735-2.156-.735-3.437 0-1.813.399-3.145 1.188-4 .793-.863 1.89-1.297 3.297-1.297h8.156c.855 0 1.281-.363 1.281-1.094 0-.238-.039-.468-.125-.687l.063-.203 1.578-.266c.117.168.199.39.25.672.062.273.094.555.094.844 0 .843-.18 1.484-.547 1.922-.375.43-.926.699-1.657.812l-.03.297c.812.437 1.421 1.031 1.827 1.781.395.742.594 1.672.594 2.797Zm-1.812-.5c0-.852-.196-1.595-.594-2.22-.395-.632-.953-1.117-1.672-1.453-.719-.332-1.547-.5-2.484-.5h-1.954l-.046.266c.242.344.445.762.609 1.25.156.492.305 1.18.437 2.062.118.899.297 1.61.547 2.141.25.523.575.898.969 1.125.387.219.86.328 1.422.328.906 0 1.594-.266 2.062-.797.47-.531.704-1.265.704-2.203ZM61.504 178.82h-15.39v-2.172h2.421l.063-.281c-1.738-.719-2.61-2.066-2.61-4.047 0-1.05.188-1.836.563-2.36l1.922.579.062.281a4.244 4.244 0 0 0-.437 1.906c0 1.22.465 2.164 1.39 2.829.919.656 2.407.984 4.47.984h7.546Zm0 0"/>
  <g clip-path="url(#h)">
    <path fill="#fff" d="M103.016 163.098h234.843v119.53H103.016Zm0 0"/>
  </g>
  <g clip-path="url(#i)">
    <path d="M103.016 162.348h.75v1.504h-.75Zm1.504 0h.75v1.504h-.75Zm1.5 0h.75v1.504h-.75Zm1.5 0h.753v1.504h-.753Zm1.503 0h.75v1.504h-.75Zm1.5 0h.754v1.504h-.754Zm1.504 0h.75v1.504h-.75Zm1.5 0h.75v1.504h-.75Zm1.504 0h.75v1.504h-.75Zm1.5 0h.75v1.504h-.75Zm1.504 0h.75v1.504h-.75Zm1.5 0h.75v1.504h-.75Zm1.5 0h.754v1.504h-.754Zm1.504 0h.75v1.504h-.75Zm1.5 0h.754v1.504h-.754Zm1.504 0h.75v1.504h-.75Zm1.5 0h.75v1.504h-.75Zm1.504 0h.75v1.504h-.75Zm1.5 0h.75v1.504h-.75Zm1.504 0h.75v1.504h-.75Zm1.5 0h.75v1.504h-.75Zm1.5 0h.754v1.504h-.754Zm1.504 0h.75v1.504h-.75Zm1.5 0h.754v1.504h-.754Zm1.504 0h.75v1.504h-.75Zm1.5 0h.75v1.504h-.75Zm1.504 0h.75v1.504h-.75Zm1.5 0h.75v1.504h-.75Zm1.5 0h.753v1.504h-.754Zm1.503 0h.75v1.504h-.75Zm1.5 0h.754v1.504h-.754Zm1.504 0h.75v1.504h-.75Zm1.5 0h.75v1.504h-.75Zm1.504 0h.75v1.504h-.75Zm1.5 0h.75v1.504h-.75Zm1.504 0h.75v1.504h-.75Zm1.5 0h.75v1.504h-.75Zm1.5 0h.754v1.504h-.754Zm1.504 0h.75v1.504h-.75Zm1.5 0h.754v1.504h-.754Zm1.504 0h.75v1.504h-.75Zm1.5 0h.75v1.504h-.75Zm1.504 0h.75v1.504h-.75Zm1.5 0h.75v1.504h-.75Zm1.504 0h.75v1.504h-.75Zm1.5 0h.75v1.504h-.75Zm1.5 0h.754v1.504h-.754Zm1.504 0h.75v1.504h-.75Zm1.5 0h.754v1.504h-.754Zm1.504 0h.75v1.504h-.75Zm1.5 0h.75v1.504h-.75Zm1.503 0h.75v1.504h-.75Zm1.5 0h.75v1.504h-.75Zm1.504 0h.75v1.504h-.75Zm1.5 0h.75v1.504h-.75Zm1.5 0h.754v1.504h-.754Zm1.504 0h.75v1.504h-.75Zm1.5 0h.754v1.504h-.754Zm1.504 0h.75v1.504h-.75Zm1.5 0h.75v1.504h-.75Zm1.504 0h.75v1.504h-.75Zm1.5 0h.75v1.504h-.75Zm1.504 0h.75v1.504h-.75Zm1.5 0h.75v1.504h-.75Zm1.5 0h.754v1.504h-.754Zm1.504 0h.75v1.504h-.75Zm1.5 0h.75v1.504h-.75Zm1.504 0h.75v1.504h-.75Zm1.5 0h.75v1.504h-.75Zm1.504 0h.75v1.504h-.75Zm1.5 0h.75v1.504h-.75Zm1.5 0h.754v1.504h-.754Zm1.504 0h.75v1.504h-.75Zm1.5 0h.754v1.504h-.754Zm1.504 0h.75v1.504h-.75Zm1.5 0h.75v1.504h-.75Zm1.503 0h.75v1.504h-.75Zm1.5 0h.75v1.504h-.75Zm1.504 0h.75v1.504h-.75Zm1.5 0h.75v1.504h-.75Zm1.5 0h.754v1.504h-.754Zm1.504 0h.75v1.504h-.75Zm1.5 0h.754v1.504h-.754Zm1.504 0h.75v1.504h-.75Zm1.5 0h.75v1.504h-.75Zm1.504 0h.75v1.504h-.75Zm1.5 0h.75v1.504h-.75Zm1.504 0h.75v1.504h-.75Zm1.5 0h.75v1.504h-.75Zm1.5 0h.754v1.504h-.754Zm1.504 0h.75v1.504h-.75Zm1.5 0h.754v1.504h-.754Zm1.504 0h.75v1.504h-.75Zm1.5 0h.75v1.504h-.75Zm1.504 0h.75v1.504h-.75Zm1.5 0h.75v1.504h-.75Zm1.504 0h.75v1.504h-.75Zm1.5 0h.75v1.504h-.75Zm1.5 0h.754v1.504h-.754Zm1.504 0h.75v1.504h-.75Zm1.5 0h.75v1.504h-.75Zm1.503 0h.75v1.504h-.75Zm1.5 0h.75v1.504h-.75Zm1.504 0h.75v1.504h-.75Zm1.5 0h.75v1.504h-.75Zm1.5 0h.754v1.504h-.754Zm1.504 0h.75v1.504h-.75Zm1.5 0h.754v1.504h-.754Zm1.504 0h.75v1.504h-.75Zm1.5 0h.75v1.504h-.75Zm1.504 0h.75v1.504h-.75Zm1.5 0h.75v1.504h-.75Zm1.504 0h.75v1.504h-.75Zm1.5 0h.75v1.504h-.75Zm1.5 0h.754v1.504h-.754Zm1.504 0h.75v1.504h-.75Zm1.5 0h.754v1.504h-.754Zm1.504 0h.75v1.504h-.75Zm1.5 0h.75v1.504h-.75Zm1.504 0h.75v1.504h-.75Zm1.5 0h.75v1.504h-.75Zm1.504 0h.75v1.504h-.75Zm1.5 0h.75v1.504h-.75Zm1.5 0h.753v1.504h-.753Zm1.503 0h.75v1.504h-.75Zm1.5 0h.754v1.504h-.754Zm1.504 0h.75v1.504h-.75Zm1.5 0h.75v1.504h-.75Zm1.504 0h.75v1.504h-.75Zm1.5 0h.75v1.504h-.75Zm1.504 0h.75v1.504h-.75Zm1.5 0h.75v1.504h-.75Zm1.5 0h.754v1.504h-.754Zm1.504 0h.75v1.504h-.75Zm1.5 0H305v1.504h-.754Zm1.504 0h.75v1.504h-.75Zm1.5 0h.75v1.504h-.75Zm1.504 0h.75v1.504h-.75Zm1.5 0h.75v1.504h-.75Zm1.5 0h.754v1.504h-.754Zm1.504 0h.75v1.504h-.75Zm1.5 0h.754v1.504h-.754Zm1.504 0h.75v1.504h-.75Zm1.5 0h.75v1.504h-.75Zm1.504 0h.75v1.504h-.75Zm1.5 0h.75v1.504h-.75Zm1.504 0h.75v1.504h-.75Zm1.5 0h.75v1.504h-.75Zm1.5 0h.753v1.504h-.753Zm1.503 0h.75v1.504h-.75Zm1.5 0h.754v1.504h-.754Zm1.504 0h.75v1.504h-.75Zm1.5 0h.75v1.504h-.75Zm1.504 0h.75v1.504h-.75Zm1.5 0h.75v1.504h-.75Zm1.504 0h.75v1.504h-.75Zm1.5 0h1.23v1.023h-1.5v-.27h.75v.75h-.48Zm1.23 1.773v.75h-1.5v-.75Zm0 1.504v.75h-1.5v-.75Zm0 1.5v.754h-1.5v-.754Zm0 1.504v.75h-1.5v-.75Zm0 1.504v.75h-1.5v-.75Zm0 1.5v.754h-1.5v-.754Zm0 1.504v.75h-1.5v-.75Zm0 1.504v.75h-1.5v-.75Zm0 1.5v.754h-1.5v-.754Zm0 1.504v.75h-1.5v-.75Zm0 1.503v.75h-1.5v-.75Zm0 1.504v.75h-1.5v-.75Zm0 1.5v.754h-1.5v-.754Zm0 1.504v.75h-1.5v-.75Zm0 1.504v.75h-1.5v-.75Zm0 1.5v.754h-1.5v-.754Zm0 1.504v.75h-1.5v-.75Zm0 1.504v.75h-1.5v-.75Zm0 1.5v.754h-1.5v-.754Zm0 1.504v.75h-1.5v-.75Zm0 1.504v.75h-1.5v-.75Zm0 1.5v.754h-1.5v-.754Zm0 1.504v.75h-1.5v-.75Zm0 1.504v.75h-1.5v-.75Zm0 1.5v.754h-1.5v-.754Zm0 1.504v.75h-1.5v-.75Zm0 1.503v.75h-1.5v-.75Zm0 1.5v.754h-1.5v-.754Zm0 1.504v.75h-1.5v-.75Zm0 1.504v.75h-1.5v-.75Zm0 1.5v.754h-1.5v-.754Zm0 1.504v.75h-1.5v-.75Zm0 1.504v.75h-1.5v-.75Zm0 1.5v.754h-1.5v-.754Zm0 1.504v.75h-1.5v-.75Zm0 1.504v.75h-1.5v-.75Zm0 1.504v.75h-1.5v-.75Zm0 1.5v.754h-1.5v-.754Zm0 1.504v.75h-1.5v-.75Zm0 1.504v.75h-1.5v-.75Zm0 1.5v.753h-1.5v-.753Zm0 1.503v.75h-1.5v-.75Zm0 1.504v.75h-1.5v-.75Zm0 1.5v.754h-1.5v-.754Zm0 1.504v.75h-1.5v-.75Zm0 1.504v.75h-1.5v-.75Zm0 1.5v.754h-1.5v-.754Zm0 1.504v.75h-1.5v-.75Zm0 1.504v.75h-1.5v-.75Zm0 1.5v.754h-1.5v-.754Zm0 1.504v.75h-1.5v-.75Zm0 1.504v.75h-1.5v-.75Zm0 1.5v.754h-1.5v-.754Zm0 1.504v.75h-1.5v-.75Zm0 1.504v.75h-1.5v-.75Zm0 1.5v.754h-1.5v-.754Zm0 1.504v.75h-1.5v-.75Zm0 1.503v.75h-1.5v-.75Zm0 1.5v.754h-1.5v-.754Zm0 1.504v.754h-1.5v-.754Zm0 1.504v.75h-1.5v-.75Zm0 1.504v.75h-1.5v-.75Zm0 1.5v.754h-1.5v-.754Zm0 1.504v.75h-1.5v-.75Zm0 1.504v.75h-1.5v-.75Zm0 1.5v.754h-1.5v-.754Zm0 1.504v.75h-1.5v-.75Zm0 1.504v.75h-1.5v-.75Zm0 1.5v.754h-1.5v-.754Zm0 1.504v.75h-1.5v-.75Zm0 1.504v.75h-1.5v-.75Zm0 1.5v.753h-1.5v-.753Zm0 1.503v.75h-1.5v-.75Zm0 1.504v.75h-1.5v-.75Zm0 1.5v.754h-1.5v-.754Zm0 1.504v.75h-1.5v-.75Zm0 1.504v.75h-1.5v-.75Zm0 1.5v.754h-1.5v-.754Zm0 1.504v.75h-1.5v-.75Zm-1.23 1.77h-.754v-1.5h.754Zm-1.504 0h-.75v-1.5h.75Zm-1.5 0h-.754v-1.5h.754Zm-1.504 0h-.75v-1.5h.75Zm-1.5 0h-.75v-1.5h.75Zm-1.504 0h-.75v-1.5h.75Zm-1.5 0h-.75v-1.5h.75Zm-1.503 0h-.75v-1.5h.75Zm-1.5 0h-.75v-1.5h.75Zm-1.5 0h-.754v-1.5h.754Zm-1.504 0h-.75v-1.5h.75Zm-1.5 0h-.754v-1.5h.754Zm-1.504 0h-.75v-1.5h.75Zm-1.5 0h-.75v-1.5h.75Zm-1.504 0h-.75v-1.5h.75Zm-1.5 0h-.75v-1.5h.75Zm-1.504 0h-.75v-1.5h.75Zm-1.5 0h-.75v-1.5h.75Zm-1.5 0h-.754v-1.5h.754Zm-1.504 0H308v-1.5h.75Zm-1.5 0h-.75v-1.5h.75Zm-1.504 0h-.75v-1.5h.75Zm-1.5 0h-.75v-1.5h.75Zm-1.504 0h-.75v-1.5h.75Zm-1.5 0h-.75v-1.5h.75Zm-1.5 0h-.754v-1.5h.754Zm-1.504 0h-.75v-1.5h.75Zm-1.5 0h-.754v-1.5h.754Zm-1.504 0h-.75v-1.5h.75Zm-1.5 0h-.75v-1.5h.75Zm-1.504 0h-.75v-1.5h.75Zm-1.5 0h-.75v-1.5h.75Zm-1.503 0h-.75v-1.5h.75Zm-1.5 0h-.75v-1.5h.75Zm-1.5 0h-.754v-1.5h.754Zm-1.504 0h-.75v-1.5h.75Zm-1.5 0h-.754v-1.5h.754Zm-1.504 0h-.75v-1.5h.75Zm-1.5 0h-.75v-1.5h.75Zm-1.504 0h-.75v-1.5h.75Zm-1.5 0h-.75v-1.5h.75Zm-1.504 0h-.75v-1.5h.75Zm-1.5 0h-.75v-1.5h.75Zm-1.5 0h-.754v-1.5h.754Zm-1.504 0h-.75v-1.5h.75Zm-1.5 0h-.754v-1.5h.754Zm-1.504 0h-.75v-1.5h.75Zm-1.5 0h-.75v-1.5h.75Zm-1.504 0h-.75v-1.5h.75Zm-1.5 0h-.75v-1.5h.75Zm-1.504 0h-.75v-1.5h.75Zm-1.5 0h-.75v-1.5h.75Zm-1.5 0h-.754v-1.5h.754Zm-1.504 0h-.75v-1.5h.75Zm-1.5 0h-.75v-1.5h.75Zm-1.503 0h-.75v-1.5h.75Zm-1.5 0h-.75v-1.5h.75Zm-1.504 0h-.75v-1.5h.75Zm-1.5 0h-.75v-1.5h.75Zm-1.5 0h-.754v-1.5h.754Zm-1.504 0h-.75v-1.5h.75Zm-1.5 0h-.754v-1.5h.754Zm-1.504 0h-.75v-1.5h.75Zm-1.5 0h-.75v-1.5h.75Zm-1.504 0h-.75v-1.5h.75Zm-1.5 0h-.75v-1.5h.75Zm-1.504 0h-.75v-1.5h.75Zm-1.5 0h-.75v-1.5h.75Zm-1.5 0h-.754v-1.5h.754Zm-1.504 0h-.75v-1.5h.75Zm-1.5 0h-.754v-1.5h.754Zm-1.504 0h-.75v-1.5h.75Zm-1.5 0h-.75v-1.5h.75Zm-1.504 0h-.75v-1.5h.75Zm-1.5 0h-.75v-1.5h.75Zm-1.504 0h-.75v-1.5h.75Zm-1.5 0h-.75v-1.5h.75Zm-1.5 0h-.754v-1.5h.754Zm-1.504 0h-.75v-1.5h.75Zm-1.5 0h-.753v-1.5h.753Zm-1.503 0h-.75v-1.5h.75Zm-1.5 0h-.75v-1.5h.75Zm-1.504 0h-.75v-1.5h.75Zm-1.5 0h-.75v-1.5h.75Zm-1.504 0h-.75v-1.5h.75Zm-1.5 0h-.75v-1.5h.75Zm-1.5 0h-.754v-1.5h.754Zm-1.504 0h-.75v-1.5h.75Zm-1.5 0h-.754v-1.5h.754Zm-1.504 0h-.75v-1.5h.75Zm-1.5 0h-.75v-1.5h.75Zm-1.504 0h-.75v-1.5h.75Zm-1.5 0h-.75v-1.5h.75Zm-1.5 0h-.754v-1.5h.754Zm-1.504 0h-.75v-1.5h.75Zm-1.5 0h-.754v-1.5h.754Zm-1.504 0h-.75v-1.5h.75Zm-1.5 0h-.75v-1.5h.75Zm-1.504 0h-.75v-1.5h.75Zm-1.5 0h-.75v-1.5h.75Zm-1.504 0h-.75v-1.5h.75Zm-1.5 0h-.75v-1.5h.75Zm-1.5 0h-.754v-1.5h.754Zm-1.504 0h-.75v-1.5h.75Zm-1.5 0h-.753v-1.5h.753Zm-1.503 0h-.75v-1.5h.75Zm-1.5 0h-.75v-1.5h.75Zm-1.504 0h-.75v-1.5h.75Zm-1.5 0h-.75v-1.5h.75Zm-1.504 0h-.75v-1.5h.75Zm-1.5 0h-.75v-1.5h.75Zm-1.5 0h-.754v-1.5h.754Zm-1.504 0h-.75v-1.5h.75Zm-1.5 0h-.754v-1.5h.754Zm-1.504 0h-.75v-1.5h.75Zm-1.5 0h-.75v-1.5h.75Zm-1.504 0h-.75v-1.5h.75Zm-1.5 0h-.75v-1.5h.75Zm-1.504 0h-.75v-1.5h.75Zm-1.5 0h-.75v-1.5h.75Zm-1.5 0h-.754v-1.5h.754Zm-1.504 0h-.75v-1.5h.75Zm-1.5 0h-.754v-1.5h.754Zm-1.504 0h-.75v-1.5h.75Zm-1.5 0h-.75v-1.5h.75Zm-1.504 0h-.75v-1.5h.75Zm-1.5 0h-.75v-1.5h.75Zm-1.504 0h-.75v-1.5h.75Zm-1.5 0h-.75v-1.5h.75Zm-1.5 0h-.753v-1.5h.754Zm-1.503 0h-.75v-1.5h.75Zm-1.5 0h-.75v-1.5h.75Zm-1.504 0h-.75v-1.5h.75Zm-1.5 0h-.75v-1.5h.75Zm-1.504 0h-.75v-1.5h.75Zm-1.5 0h-.75v-1.5h.75Zm-1.5 0h-.754v-1.5h.754Zm-1.504 0h-.75v-1.5h.75Zm-1.5 0h-.754v-1.5h.754Zm-1.504 0h-.75v-1.5h.75Zm-1.5 0h-.75v-1.5h.75Zm-1.504 0h-.75v-1.5h.75Zm-1.5 0h-.75v-1.5h.75Zm-1.504 0h-.75v-1.5h.75Zm-1.5 0h-.75v-1.5h.75Zm-1.5 0h-.754v-1.5h.754Zm-1.504 0h-.75v-1.5h.75Zm-1.5 0h-.754v-1.5h.754Zm-1.504 0h-.75v-1.5h.75Zm-1.5 0h-.75v-1.5h.75Zm-1.504 0h-.75v-1.5h.75Zm-1.5 0h-.75v-1.5h.75Zm-1.503 0h-.75v-1.5h.75Zm-1.5 0h-.75v-1.5h.75Zm-1.5 0h-.754v-1.5h.754Zm-1.504 0h-.75v-1.5h.75Zm-2.25-.75v-.754h1.5v.754Zm0-1.504v-.75h1.5v.75Zm0-1.504v-.75h1.5v.75Zm0-1.5v-.754h1.5v.754Zm0-1.504v-.75h1.5v.75Zm0-1.504v-.75h1.5v.75Zm0-1.5v-.754h1.5v.754Zm0-1.504v-.75h1.5v.75Zm0-1.504v-.75h1.5v.75Zm0-1.5v-.754h1.5v.754Zm0-1.504v-.75h1.5v.75Zm0-1.504v-.75h1.5v.75Zm0-1.5v-.753h1.5v.753Zm0-1.503v-.75h1.5v.75Zm0-1.504v-.75h1.5v.75Zm0-1.504v-.75h1.5v.75Zm0-1.5v-.754h1.5v.754Zm0-1.504v-.75h1.5v.75Zm0-1.504v-.75h1.5v.75Zm0-1.5v-.754h1.5v.754Zm0-1.504v-.75h1.5v.75Zm0-1.504v-.75h1.5v.75Zm0-1.5v-.754h1.5v.754Zm0-1.504v-.75h1.5v.75Zm0-1.504v-.75h1.5v.75Zm0-1.5v-.754h1.5v.754Zm0-1.504v-.75h1.5v.75Zm0-1.504v-.75h1.5v.75Zm0-1.5v-.753h1.5v.753Zm0-1.503v-.75h1.5v.75Zm0-1.504v-.75h1.5v.75Zm0-1.5v-.754h1.5v.754Zm0-1.504v-.75h1.5v.75Zm0-1.504v-.75h1.5v.75Zm0-1.5v-.754h1.5v.754Zm0-1.504v-.75h1.5v.75Zm0-1.504v-.75h1.5v.75Zm0-1.5v-.754h1.5v.754Zm0-1.504v-.754h1.5v.754Zm0-1.504v-.75h1.5v.75Zm0-1.504v-.75h1.5v.75Zm0-1.5v-.754h1.5v.754Zm0-1.504v-.75h1.5v.75Zm0-1.504v-.75h1.5v.75Zm0-1.5v-.753h1.5v.753Zm0-1.503v-.75h1.5v.75Zm0-1.504v-.75h1.5v.75Zm0-1.5v-.754h1.5v.754Zm0-1.504v-.75h1.5v.75Zm0-1.504v-.75h1.5v.75Zm0-1.5v-.754h1.5v.754Zm0-1.504v-.75h1.5v.75Zm0-1.504v-.75h1.5v.75Zm0-1.5v-.754h1.5v.754Zm0-1.504v-.75h1.5v.75Zm0-1.504v-.75h1.5v.75Zm0-1.5v-.754h1.5v.754Zm0-1.504v-.75h1.5v.75Zm0-1.504v-.75h1.5v.75Zm0-1.5v-.754h1.5v.754Zm0-1.504v-.75h1.5v.75Zm0-1.503v-.75h1.5v.75Zm0-1.5v-.754h1.5v.754Zm0-1.504v-.754h1.5v.754Zm0-1.504v-.75h1.5v.75Zm0-1.504v-.75h1.5v.75Zm0-1.5v-.754h1.5v.754Zm0-1.504v-.75h1.5v.75Zm0-1.504v-.75h1.5v.75Zm0-1.5v-.754h1.5v.754Zm0-1.504v-.75h1.5v.75Zm0-1.504v-.75h1.5v.75Zm0-1.5v-.754h1.5v.754Zm0-1.504v-.75h1.5v.75Zm0-1.504v-.75h1.5v.75Zm0-1.5v-.753h1.5v.753Zm0-1.503v-.75h1.5v.75Zm0-1.504v-.75h1.5v.75Zm0-1.5v-.754h1.5v.754Zm0-1.504v-.535h1.5v.535Zm0 0"/>
  </g>
  <path d="M192.067 212.599h-2.219v-20.375h3.547l6.172 17.25h.297l6.172-17.25h3.422v20.375h-2.266v-16.625l-.344-.047-6.015 16.672h-2.391l-6.031-16.672-.344.047ZM218.894 212.896c-1.524 0-2.711-.395-3.563-1.188-.844-.789-1.266-1.922-1.266-3.39 0-.907.188-1.672.563-2.297.375-.625.957-1.133 1.75-1.531.789-.395 1.82-.704 3.094-.922 1.113-.188 1.96-.395 2.547-.625.582-.227.972-.485 1.171-.766.196-.289.297-.656.297-1.094 0-.695-.242-1.234-.718-1.609-.48-.375-1.25-.563-2.313-.563-.992 0-1.84.196-2.547.579-.71.386-1.36.964-1.953 1.734h-.281l-1.125-1.578a6.94 6.94 0 0 1 2.484-1.969c1-.488 2.14-.734 3.422-.734 1.813 0 3.145.398 4 1.187.863.793 1.297 1.89 1.297 3.297v8.156c0 .856.363 1.282 1.094 1.282.238 0 .468-.04.687-.125l.203.046.266 1.579c-.168.117-.39.199-.672.25a3.775 3.775 0 0 1-.844.093c-.843 0-1.484-.18-1.922-.547-.43-.375-.699-.925-.812-1.656l-.297-.031c-.437.812-1.027 1.422-1.766 1.828-.742.395-1.671.594-2.796.594Zm.5-1.813c.851 0 1.593-.195 2.218-.593.625-.395 1.102-.946 1.438-1.657.332-.718.5-1.547.5-2.484v-1.953l-.266-.063a4.839 4.839 0 0 1-1.25.61c-.492.168-1.18.312-2.062.437-.887.125-1.594.313-2.125.563-.524.25-.899.57-1.125.953-.22.387-.328.86-.328 1.422 0 .906.265 1.593.796 2.062.532.469 1.266.703 2.204.703ZM232.254 194.27c-.481 0-.872-.148-1.172-.452-.305-.301-.453-.688-.453-1.157 0-.457.148-.835.453-1.14.3-.3.691-.453 1.172-.453.488 0 .882.152 1.187.453.3.305.453.683.453 1.14 0 .47-.152.856-.453 1.157-.305.304-.7.453-1.187.453Zm-1.141 18.329v-15.36h2.281v15.36ZM238.731 212.599v-15.36h2.156v2.407l.297.062c.508-.894 1.16-1.578 1.953-2.047.801-.476 1.77-.718 2.907-.718 1.851 0 3.191.476 4.015 1.422.832.937 1.25 2.386 1.25 4.343v9.891h-2.265v-9.828c0-.938-.121-1.688-.36-2.25-.23-.563-.593-.969-1.093-1.219-.5-.258-1.153-.39-1.954-.39-1.386 0-2.507.46-3.359 1.374-.844.918-1.266 2.391-1.266 4.422v7.891ZM175.133 252.646c-1.78 0-3.37-.406-4.765-1.219-1.387-.82-2.477-2.02-3.266-3.594-.793-1.57-1.187-3.46-1.187-5.672 0-2.195.394-4.082 1.187-5.656.79-1.57 1.879-2.765 3.266-3.578 1.394-.82 2.984-1.234 4.765-1.234 1.907 0 3.489.36 4.75 1.078 1.27.719 2.18 1.805 2.735 3.25l-1.532 1.015h-.343c-.563-1.156-1.293-1.976-2.188-2.468-.887-.489-2.027-.735-3.422-.735-1.28 0-2.418.29-3.406.86-.992.574-1.781 1.48-2.375 2.718-.586 1.243-.875 2.825-.875 4.75 0 1.938.29 3.528.875 4.766.594 1.23 1.383 2.133 2.375 2.703.988.574 2.125.86 3.406.86 1.477 0 2.688-.332 3.625-1 .938-.664 1.633-1.743 2.094-3.235h.344l1.61.797c-.493 1.805-1.388 3.188-2.688 4.156-1.305.961-2.965 1.438-4.985 1.438ZM192.668 252.646c-1.45 0-2.711-.305-3.781-.922-1.075-.613-1.903-1.516-2.485-2.703-.574-1.195-.86-2.645-.86-4.344 0-1.695.286-3.144.86-4.344.582-1.195 1.41-2.101 2.485-2.718 1.07-.614 2.332-.922 3.78-.922 1.446 0 2.708.308 3.782.922 1.07.617 1.899 1.523 2.484 2.718.582 1.2.875 2.649.875 4.344 0 1.7-.293 3.149-.875 4.344-.585 1.187-1.414 2.09-2.484 2.703-1.074.617-2.336.922-3.781.922Zm0-2.031c1.531 0 2.703-.485 3.515-1.454.82-.968 1.235-2.46 1.235-4.484 0-2.039-.414-3.539-1.235-4.5-.812-.969-1.984-1.453-3.515-1.453-1.531 0-2.711.484-3.531 1.453-.813.969-1.22 2.469-1.22 4.5 0 2.024.407 3.516 1.22 4.484.82.97 2 1.454 3.53 1.454ZM204.16 252.349v-15.36h2.156v2.407l.296.062c.508-.894 1.16-1.578 1.954-2.047.8-.476 1.77-.718 2.906-.718 1.851 0 3.191.476 4.015 1.422.833.937 1.25 2.386 1.25 4.343v9.891h-2.265v-9.828c0-.938-.121-1.688-.36-2.25-.23-.563-.593-.969-1.093-1.219-.5-.258-1.153-.39-1.953-.39-1.387 0-2.508.46-3.36 1.374-.844.918-1.265 2.391-1.265 4.422v7.891ZM229.566 249.911l.719 1.625c-.356.368-.828.641-1.422.829a6.302 6.302 0 0 1-1.906.28c-2.938 0-4.407-1.487-4.407-4.468v-9.344h-2.672v-1.859h2.672v-3.25l2.266-.375v3.625h4.953v1.86h-4.953v9.124c0 1.774.766 2.657 2.297 2.657.832 0 1.55-.235 2.156-.704ZM245.515 245.193h-10.562c.062 1.867.507 3.234 1.343 4.11.832.874 1.973 1.312 3.422 1.312 1.094 0 1.973-.192 2.64-.579.677-.394 1.204-1.015 1.579-1.859h.297l1.484.89c-.45 1.118-1.164 1.993-2.14 2.626-.98.636-2.266.953-3.86.953-1.48 0-2.758-.293-3.828-.875-1.074-.594-1.898-1.485-2.469-2.672-.574-1.188-.86-2.66-.86-4.422 0-1.75.302-3.223.907-4.422.613-1.195 1.445-2.086 2.5-2.672 1.05-.593 2.254-.89 3.61-.89 1.968 0 3.503.558 4.609 1.672 1.101 1.105 1.66 2.746 1.672 4.921 0 .856-.016 1.434-.047 1.735Zm-1.89-1.907c-.044-1.625-.407-2.804-1.094-3.546-.688-.75-1.672-1.125-2.953-1.125-1.344 0-2.403.375-3.172 1.125-.762.742-1.227 1.921-1.391 3.546ZM249.925 252.349v-15.36h2.156v2.407l.297.062c.508-.894 1.16-1.578 1.953-2.047.801-.476 1.77-.718 2.906-.718 1.852 0 3.192.476 4.016 1.422.832.937 1.25 2.386 1.25 4.343v9.891h-2.266v-9.828c0-.938-.12-1.688-.359-2.25-.23-.563-.594-.969-1.094-1.219-.5-.258-1.152-.39-1.953-.39-1.386 0-2.508.46-3.36 1.374-.843.918-1.265 2.391-1.265 4.422v7.891ZM275.332 249.911l.718 1.625c-.355.368-.828.641-1.422.829a6.302 6.302 0 0 1-1.906.28c-2.937 0-4.406-1.487-4.406-4.468v-9.344h-2.672v-1.859h2.672v-3.25l2.266-.375v3.625h4.953v1.86h-4.953v9.124c0 1.774.765 2.657 2.296 2.657.833 0 1.551-.235 2.157-.704Zm0 0"/>
  <g clip-path="url(#j)">
    <path fill="#fff" d="M103.016 103.098h234.843v60.468H103.016Zm0 0"/>
    <path d="M103.016 102.348h.75v1.5h-.75Zm1.504 0h.75v1.5h-.75Zm1.5 0h.75v1.5h-.75Zm1.5 0h.753v1.5h-.753Zm1.503 0h.75v1.5h-.75Zm1.5 0h.754v1.5h-.754Zm1.504 0h.75v1.5h-.75Zm1.5 0h.75v1.5h-.75Zm1.504 0h.75v1.5h-.75Zm1.5 0h.75v1.5h-.75Zm1.504 0h.75v1.5h-.75Zm1.5 0h.75v1.5h-.75Zm1.5 0h.754v1.5h-.754Zm1.504 0h.75v1.5h-.75Zm1.5 0h.754v1.5h-.754Zm1.504 0h.75v1.5h-.75Zm1.5 0h.75v1.5h-.75Zm1.504 0h.75v1.5h-.75Zm1.5 0h.75v1.5h-.75Zm1.504 0h.75v1.5h-.75Zm1.5 0h.75v1.5h-.75Zm1.5 0h.754v1.5h-.754Zm1.504 0h.75v1.5h-.75Zm1.5 0h.754v1.5h-.754Zm1.504 0h.75v1.5h-.75Zm1.5 0h.75v1.5h-.75Zm1.504 0h.75v1.5h-.75Zm1.5 0h.75v1.5h-.75Zm1.5 0h.753v1.5h-.754Zm1.503 0h.75v1.5h-.75Zm1.5 0h.754v1.5h-.754Zm1.504 0h.75v1.5h-.75Zm1.5 0h.75v1.5h-.75Zm1.504 0h.75v1.5h-.75Zm1.5 0h.75v1.5h-.75Zm1.504 0h.75v1.5h-.75Zm1.5 0h.75v1.5h-.75Zm1.5 0h.754v1.5h-.754Zm1.504 0h.75v1.5h-.75Zm1.5 0h.754v1.5h-.754Zm1.504 0h.75v1.5h-.75Zm1.5 0h.75v1.5h-.75Zm1.504 0h.75v1.5h-.75Zm1.5 0h.75v1.5h-.75Zm1.504 0h.75v1.5h-.75Zm1.5 0h.75v1.5h-.75Zm1.5 0h.754v1.5h-.754Zm1.504 0h.75v1.5h-.75Zm1.5 0h.754v1.5h-.754Zm1.504 0h.75v1.5h-.75Zm1.5 0h.75v1.5h-.75Zm1.503 0h.75v1.5h-.75Zm1.5 0h.75v1.5h-.75Zm1.504 0h.75v1.5h-.75Zm1.5 0h.75v1.5h-.75Zm1.5 0h.754v1.5h-.754Zm1.504 0h.75v1.5h-.75Zm1.5 0h.754v1.5h-.754Zm1.504 0h.75v1.5h-.75Zm1.5 0h.75v1.5h-.75Zm1.504 0h.75v1.5h-.75Zm1.5 0h.75v1.5h-.75Zm1.504 0h.75v1.5h-.75Zm1.5 0h.75v1.5h-.75Zm1.5 0h.754v1.5h-.754Zm1.504 0h.75v1.5h-.75Zm1.5 0h.75v1.5h-.75Zm1.504 0h.75v1.5h-.75Zm1.5 0h.75v1.5h-.75Zm1.504 0h.75v1.5h-.75Zm1.5 0h.75v1.5h-.75Zm1.5 0h.754v1.5h-.754Zm1.504 0h.75v1.5h-.75Zm1.5 0h.754v1.5h-.754Zm1.504 0h.75v1.5h-.75Zm1.5 0h.75v1.5h-.75Zm1.503 0h.75v1.5h-.75Zm1.5 0h.75v1.5h-.75Zm1.504 0h.75v1.5h-.75Zm1.5 0h.75v1.5h-.75Zm1.5 0h.754v1.5h-.754Zm1.504 0h.75v1.5h-.75Zm1.5 0h.754v1.5h-.754Zm1.504 0h.75v1.5h-.75Zm1.5 0h.75v1.5h-.75Zm1.504 0h.75v1.5h-.75Zm1.5 0h.75v1.5h-.75Zm1.504 0h.75v1.5h-.75Zm1.5 0h.75v1.5h-.75Zm1.5 0h.754v1.5h-.754Zm1.504 0h.75v1.5h-.75Zm1.5 0h.754v1.5h-.754Zm1.504 0h.75v1.5h-.75Zm1.5 0h.75v1.5h-.75Zm1.504 0h.75v1.5h-.75Zm1.5 0h.75v1.5h-.75Zm1.504 0h.75v1.5h-.75Zm1.5 0h.75v1.5h-.75Zm1.5 0h.754v1.5h-.754Zm1.504 0h.75v1.5h-.75Zm1.5 0h.75v1.5h-.75Zm1.503 0h.75v1.5h-.75Zm1.5 0h.75v1.5h-.75Zm1.504 0h.75v1.5h-.75Zm1.5 0h.75v1.5h-.75Zm1.5 0h.754v1.5h-.754Zm1.504 0h.75v1.5h-.75Zm1.5 0h.754v1.5h-.754Zm1.504 0h.75v1.5h-.75Zm1.5 0h.75v1.5h-.75Zm1.504 0h.75v1.5h-.75Zm1.5 0h.75v1.5h-.75Zm1.504 0h.75v1.5h-.75Zm1.5 0h.75v1.5h-.75Zm1.5 0h.754v1.5h-.754Zm1.504 0h.75v1.5h-.75Zm1.5 0h.754v1.5h-.754Zm1.504 0h.75v1.5h-.75Zm1.5 0h.75v1.5h-.75Zm1.504 0h.75v1.5h-.75Zm1.5 0h.75v1.5h-.75Zm1.504 0h.75v1.5h-.75Zm1.5 0h.75v1.5h-.75Zm1.5 0h.753v1.5h-.753Zm1.503 0h.75v1.5h-.75Zm1.5 0h.754v1.5h-.754Zm1.504 0h.75v1.5h-.75Zm1.5 0h.75v1.5h-.75Zm1.504 0h.75v1.5h-.75Zm1.5 0h.75v1.5h-.75Zm1.504 0h.75v1.5h-.75Zm1.5 0h.75v1.5h-.75Zm1.5 0h.754v1.5h-.754Zm1.504 0h.75v1.5h-.75Zm1.5 0H305v1.5h-.754Zm1.504 0h.75v1.5h-.75Zm1.5 0h.75v1.5h-.75Zm1.504 0h.75v1.5h-.75Zm1.5 0h.75v1.5h-.75Zm1.5 0h.754v1.5h-.754Zm1.504 0h.75v1.5h-.75Zm1.5 0h.754v1.5h-.754Zm1.504 0h.75v1.5h-.75Zm1.5 0h.75v1.5h-.75Zm1.504 0h.75v1.5h-.75Zm1.5 0h.75v1.5h-.75Zm1.504 0h.75v1.5h-.75Zm1.5 0h.75v1.5h-.75Zm1.5 0h.753v1.5h-.753Zm1.503 0h.75v1.5h-.75Zm1.5 0h.754v1.5h-.754Zm1.504 0h.75v1.5h-.75Zm1.5 0h.75v1.5h-.75Zm1.504 0h.75v1.5h-.75Zm1.5 0h.75v1.5h-.75Zm1.504 0h.75v1.5h-.75Zm1.5 0h1.23v1.02h-1.5v-.27h.75v.75h-.48Zm1.23 1.77v.75h-1.5v-.75Zm0 1.5v.75h-1.5v-.75Zm0 1.5v.75h-1.5v-.75Zm0 1.5v.75h-1.5v-.75Zm0 1.5v.75h-1.5v-.75Zm0 1.5v.75h-1.5v-.75Zm0 1.5v.75h-1.5v-.75Zm0 1.5v.75h-1.5v-.75Zm0 1.5v.75h-1.5v-.75Zm0 1.5v.75h-1.5v-.75Zm0 1.5v.75h-1.5v-.75Zm0 1.5v.75h-1.5v-.75Zm0 1.5v.75h-1.5v-.75Zm0 1.5v.75h-1.5v-.75Zm0 1.5v.75h-1.5v-.75Zm0 1.5v.75h-1.5v-.75Zm0 1.5v.75h-1.5v-.75Zm0 1.5v.75h-1.5v-.75Zm0 1.5v.75h-1.5v-.75Zm0 1.5v.75h-1.5v-.75Zm0 1.5v.75h-1.5v-.75Zm0 1.5v.75h-1.5v-.75Zm0 1.5v.75h-1.5v-.75Zm0 1.5v.75h-1.5v-.75Zm0 1.5v.75h-1.5v-.75Zm0 1.5v.75h-1.5v-.75Zm0 1.5v.75h-1.5v-.75Zm0 1.5v.75h-1.5v-.75Zm0 1.5v.75h-1.5v-.75Zm0 1.5v.75h-1.5v-.75Zm0 1.5v.75h-1.5v-.75Zm0 1.5v.75h-1.5v-.75Zm0 1.5v.75h-1.5v-.75Zm0 1.5v.75h-1.5v-.75Zm0 1.5v.75h-1.5v-.75Zm0 1.5v.75h-1.5v-.75Zm0 1.5v.75h-1.5v-.75Zm0 1.5v.75h-1.5v-.75Zm0 1.5v.75h-1.5v-.75Zm0 1.5v1.23h-1.019v-1.5h.27v.75h-.75v-.48Zm-1.769 1.23h-.754v-1.5h.754Zm-1.504 0h-.75v-1.5h.75Zm-1.5 0h-.75v-1.5h.75Zm-1.504 0h-.75v-1.5h.75Zm-1.5 0h-.75v-1.5h.75Zm-1.504 0h-.75v-1.5h.75Zm-1.5 0h-.75v-1.5h.75Zm-1.5 0h-.754v-1.5h.754Zm-1.504 0h-.75v-1.5h.75Zm-1.5 0h-.753v-1.5h.753Zm-1.503 0h-.75v-1.5h.75Zm-1.5 0h-.75v-1.5h.75Zm-1.504 0h-.75v-1.5h.75Zm-1.5 0h-.75v-1.5h.75Zm-1.504 0h-.75v-1.5h.75Zm-1.5 0h-.75v-1.5h.75Zm-1.5 0h-.754v-1.5h.754Zm-1.504 0h-.75v-1.5h.75Zm-1.5 0h-.754v-1.5h.754Zm-1.504 0h-.75v-1.5h.75Zm-1.5 0h-.75v-1.5h.75Zm-1.504 0h-.75v-1.5h.75Zm-1.5 0h-.75v-1.5h.75Zm-1.504 0h-.75v-1.5h.75Zm-1.5 0h-.75v-1.5h.75Zm-1.5 0h-.754v-1.5h.754Zm-1.504 0h-.75v-1.5h.75Zm-1.5 0h-.754v-1.5h.754Zm-1.504 0h-.75v-1.5h.75Zm-1.5 0h-.75v-1.5h.75Zm-1.504 0h-.75v-1.5h.75Zm-1.5 0h-.75v-1.5h.75Zm-1.503 0h-.75v-1.5h.75Zm-1.5 0h-.75v-1.5h.75Zm-1.5 0h-.754v-1.5h.753Zm-1.504 0h-.75v-1.5h.75Zm-1.5 0h-.754v-1.5h.754Zm-1.504 0h-.75v-1.5h.75Zm-1.5 0h-.75v-1.5h.75Zm-1.504 0h-.75v-1.5h.75Zm-1.5 0h-.75v-1.5h.75Zm-1.5 0h-.754v-1.5h.754Zm-1.504 0h-.75v-1.5h.75Zm-1.5 0h-.754v-1.5h.754Zm-1.504 0h-.75v-1.5h.75Zm-1.5 0h-.75v-1.5h.75Zm-1.504 0h-.75v-1.5h.75Zm-1.5 0h-.75v-1.5h.75Zm-1.504 0h-.75v-1.5h.75Zm-1.5 0h-.75v-1.5h.75Zm-1.5 0h-.754v-1.5h.754Zm-1.504 0h-.75v-1.5h.75Zm-1.5 0h-.754v-1.5h.754Zm-1.504 0h-.75v-1.5h.75Zm-1.5 0h-.75v-1.5h.75Zm-1.504 0h-.75v-1.5h.75Zm-1.5 0h-.75v-1.5h.75Zm-1.503 0h-.75v-1.5h.75Zm-1.5 0h-.75v-1.5h.75Zm-1.5 0h-.754v-1.5h.754Zm-1.504 0h-.75v-1.5h.75Zm-1.5 0h-.754v-1.5h.754Zm-1.504 0h-.75v-1.5h.75Zm-1.5 0h-.75v-1.5h.75Zm-1.504 0h-.75v-1.5h.75Zm-1.5 0h-.75v-1.5h.75Zm-1.504 0h-.75v-1.5h.75Zm-1.5 0h-.75v-1.5h.75Zm-1.5 0h-.754v-1.5h.754Zm-1.504 0h-.75v-1.5h.75Zm-1.5 0h-.754v-1.5h.754Zm-1.504 0h-.75v-1.5h.75Zm-1.5 0h-.75v-1.5h.75Zm-1.504 0h-.75v-1.5h.75Zm-1.5 0h-.75v-1.5h.75Zm-1.5 0h-.754v-1.5h.754Zm-1.504 0h-.75v-1.5h.75Zm-1.5 0h-.754v-1.5h.754Zm-1.504 0h-.75v-1.5h.75Zm-1.5 0h-.75v-1.5h.75Zm-1.504 0h-.75v-1.5h.75Zm-1.5 0h-.75v-1.5h.75Zm-1.503 0h-.75v-1.5h.75Zm-1.5 0h-.75v-1.5h.75Zm-1.5 0h-.754v-1.5h.754Zm-1.504 0h-.75v-1.5h.75Zm-1.5 0h-.754v-1.5h.754Zm-1.504 0h-.75v-1.5h.75Zm-1.5 0h-.75v-1.5h.75Zm-1.504 0h-.75v-1.5h.75Zm-1.5 0h-.75v-1.5h.75Zm-1.504 0h-.75v-1.5h.75Zm-1.5 0h-.75v-1.5h.75Zm-1.5 0h-.754v-1.5h.754Zm-1.504 0h-.75v-1.5h.75Zm-1.5 0h-.754v-1.5h.754Zm-1.504 0h-.75v-1.5h.75Zm-1.5 0h-.75v-1.5h.75Zm-1.504 0h-.75v-1.5h.75Zm-1.5 0h-.75v-1.5h.75Zm-1.504 0h-.75v-1.5h.75Zm-1.5 0h-.75v-1.5h.75Zm-1.5 0h-.754v-1.5h.754Zm-1.504 0h-.75v-1.5h.75Zm-1.5 0h-.754v-1.5h.754Zm-1.504 0h-.75v-1.5h.75Zm-1.5 0h-.75v-1.5h.75Zm-1.503 0h-.75v-1.5h.75Zm-1.5 0h-.75v-1.5h.75Zm-1.5 0h-.754v-1.5h.754Zm-1.504 0h-.75v-1.5h.75Zm-1.5 0h-.754v-1.5h.754Zm-1.504 0h-.75v-1.5h.75Zm-1.5 0h-.75v-1.5h.75Zm-1.504 0h-.75v-1.5h.75Zm-1.5 0h-.75v-1.5h.75Zm-1.504 0h-.75v-1.5h.75Zm-1.5 0h-.75v-1.5h.75Zm-1.5 0h-.754v-1.5h.754Zm-1.504 0h-.75v-1.5h.75Zm-1.5 0h-.754v-1.5h.754Zm-1.504 0h-.75v-1.5h.75Zm-1.5 0h-.75v-1.5h.75Zm-1.504 0h-.75v-1.5h.75Zm-1.5 0h-.75v-1.5h.75Zm-1.504 0h-.75v-1.5h.75Zm-1.5 0h-.75v-1.5h.75Zm-1.5 0h-.754v-1.5h.754Zm-1.504 0h-.75v-1.5h.75Zm-1.5 0h-.753v-1.5h.753Zm-1.503 0h-.75v-1.5h.75Zm-1.5 0h-.75v-1.5h.75Zm-1.504 0h-.75v-1.5h.75Zm-1.5 0h-.75v-1.5h.75Zm-1.504 0h-.75v-1.5h.75Zm-1.5 0h-.75v-1.5h.75Zm-1.5 0h-.754v-1.5h.754Zm-1.504 0h-.75v-1.5h.75Zm-1.5 0h-.754v-1.5h.754Zm-1.504 0h-.75v-1.5h.75Zm-1.5 0h-.75v-1.5h.75Zm-1.504 0h-.75v-1.5h.75Zm-1.5 0h-.75v-1.5h.75Zm-1.504 0h-.75v-1.5h.75Zm-1.5 0h-.75v-1.5h.75Zm-1.5 0h-.754v-1.5h.754Zm-1.504 0h-.75v-1.5h.75Zm-1.5 0h-.75v-1.5h.75Zm-1.504 0h-.75v-1.5h.75Zm-1.5 0h-.75v-1.5h.75Zm-1.504 0h-.75v-1.5h.75Zm-1.5 0h-.75v-1.5h.75Zm-1.5 0h-.754v-1.5h.754Zm-1.504 0h-.75v-1.5h.75Zm-1.5 0h-.753v-1.5h.753Zm-1.503 0h-.75v-1.5h.75Zm-1.711-1.29v-.75h1.5v.75Zm0-1.5v-.75h1.5v.75Zm0-1.5v-.75h1.5v.75Zm0-1.5v-.75h1.5v.75Zm0-1.5v-.75h1.5v.75Zm0-1.5v-.75h1.5v.75Zm0-1.5v-.75h1.5v.75Zm0-1.5v-.75h1.5v.75Zm0-1.5v-.75h1.5v.75Zm0-1.5v-.75h1.5v.75Zm0-1.5v-.75h1.5v.75Zm0-1.5v-.75h1.5v.75Zm0-1.5v-.75h1.5v.75Zm0-1.5v-.75h1.5v.75Zm0-1.5v-.75h1.5v.75Zm0-1.5v-.75h1.5v.75Zm0-1.5v-.75h1.5v.75Zm0-1.5v-.75h1.5v.75Zm0-1.5v-.75h1.5v.75Zm0-1.5v-.75h1.5v.75Zm0-1.5v-.75h1.5v.75Zm0-1.5v-.75h1.5v.75Zm0-1.5v-.75h1.5v.75Zm0-1.5v-.75h1.5v.75Zm0-1.5v-.75h1.5v.75Zm0-1.5v-.75h1.5v.75Zm0-1.5v-.75h1.5v.75Zm0-1.5v-.75h1.5v.75Zm0-1.5v-.75h1.5v.75Zm0-1.5v-.75h1.5v.75Zm0-1.5v-.75h1.5v.75Zm0-1.5v-.75h1.5v.75Zm0-1.5v-.75h1.5v.75Zm0-1.5v-.75h1.5v.75Zm0-1.5v-.75h1.5v.75Zm0-1.5v-.75h1.5v.75Zm0-1.5v-.75h1.5v.75Zm0-1.5v-.75h1.5v.75Zm0-1.5v-.75h1.5v.75Zm0-1.5v-.75h1.5v.75Zm0 0"/>
  </g>
  <path d="M138.372 143.599h-2.22v-20.375h3.548l6.172 17.25h.297l6.171-17.25h3.422v20.375h-2.265v-16.625l-.344-.047-6.016 16.672h-2.39l-6.032-16.672-.343.047ZM165.198 143.896c-1.523 0-2.71-.395-3.562-1.188-.844-.789-1.266-1.922-1.266-3.39 0-.907.188-1.672.563-2.297.375-.625.957-1.133 1.75-1.531.789-.395 1.82-.704 3.093-.922 1.114-.188 1.961-.395 2.547-.625.582-.227.973-.485 1.172-.766.195-.289.297-.656.297-1.094 0-.695-.242-1.234-.719-1.609-.48-.375-1.25-.563-2.312-.563-.992 0-1.84.196-2.547.579-.711.386-1.36.964-1.953 1.734h-.282l-1.125-1.578a6.94 6.94 0 0 1 2.485-1.969c1-.488 2.14-.734 3.422-.734 1.812 0 3.144.398 4 1.187.863.793 1.297 1.89 1.297 3.297v8.156c0 .856.363 1.282 1.093 1.282.239 0 .47-.04.688-.125l.203.046.266 1.579c-.168.117-.391.199-.672.25a3.775 3.775 0 0 1-.844.093c-.844 0-1.484-.18-1.922-.547-.43-.375-.7-.925-.812-1.656l-.297-.031c-.438.812-1.028 1.422-1.766 1.828-.742.395-1.672.594-2.797.594Zm.5-1.813c.852 0 1.594-.195 2.219-.593.625-.395 1.102-.946 1.437-1.657.333-.718.5-1.547.5-2.484v-1.953l-.265-.063a4.839 4.839 0 0 1-1.25.61c-.492.168-1.18.312-2.063.437-.886.125-1.593.313-2.125.563-.523.25-.898.57-1.125.953-.218.387-.328.86-.328 1.422 0 .906.266 1.593.797 2.062.531.469 1.266.703 2.203.703ZM178.558 125.27c-.48 0-.87-.148-1.172-.452-.304-.301-.453-.688-.453-1.157 0-.457.149-.835.453-1.14.301-.3.692-.453 1.172-.453.488 0 .883.152 1.188.453.3.305.453.683.453 1.14 0 .47-.153.856-.453 1.157-.305.304-.7.453-1.188.453Zm-1.14 18.329v-15.36h2.28v15.36ZM185.036 143.599v-15.36h2.156v2.407l.297.062c.508-.894 1.16-1.578 1.953-2.047.8-.476 1.77-.718 2.906-.718 1.852 0 3.192.476 4.016 1.422.832.937 1.25 2.386 1.25 4.343v9.891h-2.266v-9.828c0-.938-.12-1.688-.359-2.25-.23-.563-.594-.969-1.094-1.219-.5-.258-1.152-.39-1.953-.39-1.387 0-2.508.46-3.36 1.374-.843.918-1.265 2.391-1.265 4.422v7.891ZM223.106 131.49v-8.266h2.375v20.375h-2.375v-10.078h-10.594v10.078h-2.39v-20.375h2.39v8.266ZM243.216 136.443h-10.563c.063 1.867.508 3.234 1.344 4.11.832.874 1.973 1.312 3.422 1.312 1.094 0 1.973-.192 2.64-.579.676-.394 1.204-1.015 1.579-1.859h.297l1.484.89c-.45 1.118-1.164 1.993-2.14 2.626-.981.636-2.266.953-3.86.953-1.48 0-2.758-.293-3.828-.875-1.074-.594-1.898-1.485-2.469-2.672-.574-1.188-.86-2.66-.86-4.422 0-1.75.302-3.223.907-4.422.613-1.195 1.445-2.086 2.5-2.672 1.05-.593 2.254-.89 3.61-.89 1.968 0 3.503.558 4.609 1.672 1.101 1.105 1.66 2.746 1.672 4.921 0 .856-.016 1.434-.047 1.735Zm-1.89-1.907c-.044-1.625-.407-2.804-1.094-3.546-.688-.75-1.672-1.125-2.954-1.125-1.343 0-2.402.375-3.171 1.125-.762.742-1.227 1.921-1.391 3.546ZM251.298 143.896c-1.524 0-2.711-.395-3.563-1.188-.843-.789-1.265-1.922-1.265-3.39 0-.907.187-1.672.562-2.297.375-.625.957-1.133 1.75-1.531.79-.395 1.82-.704 3.094-.922 1.113-.188 1.96-.395 2.547-.625.582-.227.972-.485 1.172-.766.195-.289.297-.656.297-1.094 0-.695-.243-1.234-.72-1.609-.48-.375-1.25-.563-2.312-.563-.992 0-1.84.196-2.547.579-.71.386-1.359.964-1.953 1.734h-.281l-1.125-1.578a6.94 6.94 0 0 1 2.484-1.969c1-.488 2.141-.734 3.422-.734 1.813 0 3.145.398 4 1.187.864.793 1.297 1.89 1.297 3.297v8.156c0 .856.363 1.282 1.094 1.282.238 0 .469-.04.687-.125l.204.046.265 1.579c-.168.117-.39.199-.672.25a3.775 3.775 0 0 1-.843.093c-.844 0-1.485-.18-1.922-.547-.43-.375-.7-.925-.813-1.656l-.297-.031c-.437.812-1.027 1.422-1.765 1.828-.743.395-1.672.594-2.797.594Zm.5-1.813c.851 0 1.594-.195 2.219-.593.625-.395 1.101-.946 1.437-1.657.332-.718.5-1.547.5-2.484v-1.953l-.266-.063a4.839 4.839 0 0 1-1.25.61c-.492.168-1.18.312-2.062.437-.887.125-1.594.313-2.125.563-.524.25-.899.57-1.125.953-.219.387-.328.86-.328 1.422 0 .906.265 1.593.797 2.062.53.469 1.265.703 2.203.703ZM268.814 143.896c-1.242 0-2.336-.297-3.281-.89-.938-.595-1.672-1.485-2.203-2.673-.532-1.187-.797-2.656-.797-4.406 0-1.758.273-3.234.828-4.422.562-1.195 1.332-2.086 2.312-2.672.977-.593 2.114-.89 3.407-.89 1.02 0 1.937.195 2.75.578.82.387 1.523 1.023 2.109 1.906l.297-.062v-8.297h2.266v21.531h-2.266v-2.25l-.297-.047c-.5.762-1.184 1.387-2.047 1.875-.855.477-1.883.719-3.078.719Zm.703-2.031c1.438 0 2.582-.489 3.438-1.47.851-.987 1.28-2.476 1.28-4.468 0-2.008-.429-3.504-1.28-4.484-.856-.977-2-1.469-3.438-1.469-1.469 0-2.605.48-3.406 1.437-.805.961-1.203 2.465-1.203 4.516 0 3.961 1.535 5.938 4.61 5.938ZM293.828 136.443h-10.562c.062 1.867.508 3.234 1.344 4.11.832.874 1.972 1.312 3.421 1.312 1.094 0 1.973-.192 2.641-.579.676-.394 1.203-1.015 1.578-1.859h.297l1.484.89c-.449 1.118-1.164 1.993-2.14 2.626-.98.636-2.266.953-3.86.953-1.48 0-2.757-.293-3.828-.875-1.074-.594-1.898-1.485-2.468-2.672-.575-1.188-.86-2.66-.86-4.422 0-1.75.301-3.223.906-4.422.614-1.195 1.446-2.086 2.5-2.672 1.051-.593 2.254-.89 3.61-.89 1.969 0 3.504.558 4.61 1.672 1.1 1.105 1.66 2.746 1.671 4.921 0 .856-.016 1.434-.047 1.735Zm-1.89-1.907c-.043-1.625-.407-2.804-1.094-3.546-.688-.75-1.672-1.125-2.953-1.125-1.344 0-2.403.375-3.172 1.125-.762.742-1.227 1.921-1.39 3.546ZM298.238 143.599v-15.36h2.157v2.407l.296.062c.72-1.738 2.067-2.609 4.047-2.609 1.04 0 1.82.187 2.344.562l-.578 1.922-.281.063a4.143 4.143 0 0 0-1.891-.438c-1.23 0-2.172.465-2.828 1.391-.656.918-.984 2.406-.984 4.469v7.531Zm0 0"/>
  <g clip-path="url(#k)">
    <path fill="#fff" d="M103.016 282.137h234.843v60.468H103.016Zm0 0"/>
    <path d="M103.016 281.387h.75v1.5h-.75Zm1.504 0h.75v1.5h-.75Zm1.5 0h.75v1.5h-.75Zm1.5 0h.753v1.5h-.753Zm1.503 0h.75v1.5h-.75Zm1.5 0h.754v1.5h-.754Zm1.504 0h.75v1.5h-.75Zm1.5 0h.75v1.5h-.75Zm1.504 0h.75v1.5h-.75Zm1.5 0h.75v1.5h-.75Zm1.504 0h.75v1.5h-.75Zm1.5 0h.75v1.5h-.75Zm1.5 0h.754v1.5h-.754Zm1.504 0h.75v1.5h-.75Zm1.5 0h.754v1.5h-.754Zm1.504 0h.75v1.5h-.75Zm1.5 0h.75v1.5h-.75Zm1.504 0h.75v1.5h-.75Zm1.5 0h.75v1.5h-.75Zm1.504 0h.75v1.5h-.75Zm1.5 0h.75v1.5h-.75Zm1.5 0h.754v1.5h-.754Zm1.504 0h.75v1.5h-.75Zm1.5 0h.754v1.5h-.754Zm1.504 0h.75v1.5h-.75Zm1.5 0h.75v1.5h-.75Zm1.504 0h.75v1.5h-.75Zm1.5 0h.75v1.5h-.75Zm1.5 0h.753v1.5h-.754Zm1.503 0h.75v1.5h-.75Zm1.5 0h.754v1.5h-.754Zm1.504 0h.75v1.5h-.75Zm1.5 0h.75v1.5h-.75Zm1.504 0h.75v1.5h-.75Zm1.5 0h.75v1.5h-.75Zm1.504 0h.75v1.5h-.75Zm1.5 0h.75v1.5h-.75Zm1.5 0h.754v1.5h-.754Zm1.504 0h.75v1.5h-.75Zm1.5 0h.754v1.5h-.754Zm1.504 0h.75v1.5h-.75Zm1.5 0h.75v1.5h-.75Zm1.504 0h.75v1.5h-.75Zm1.5 0h.75v1.5h-.75Zm1.504 0h.75v1.5h-.75Zm1.5 0h.75v1.5h-.75Zm1.5 0h.754v1.5h-.754Zm1.504 0h.75v1.5h-.75Zm1.5 0h.754v1.5h-.754Zm1.504 0h.75v1.5h-.75Zm1.5 0h.75v1.5h-.75Zm1.503 0h.75v1.5h-.75Zm1.5 0h.75v1.5h-.75Zm1.504 0h.75v1.5h-.75Zm1.5 0h.75v1.5h-.75Zm1.5 0h.754v1.5h-.754Zm1.504 0h.75v1.5h-.75Zm1.5 0h.754v1.5h-.754Zm1.504 0h.75v1.5h-.75Zm1.5 0h.75v1.5h-.75Zm1.504 0h.75v1.5h-.75Zm1.5 0h.75v1.5h-.75Zm1.504 0h.75v1.5h-.75Zm1.5 0h.75v1.5h-.75Zm1.5 0h.754v1.5h-.754Zm1.504 0h.75v1.5h-.75Zm1.5 0h.75v1.5h-.75Zm1.504 0h.75v1.5h-.75Zm1.5 0h.75v1.5h-.75Zm1.504 0h.75v1.5h-.75Zm1.5 0h.75v1.5h-.75Zm1.5 0h.754v1.5h-.754Zm1.504 0h.75v1.5h-.75Zm1.5 0h.754v1.5h-.754Zm1.504 0h.75v1.5h-.75Zm1.5 0h.75v1.5h-.75Zm1.503 0h.75v1.5h-.75Zm1.5 0h.75v1.5h-.75Zm1.504 0h.75v1.5h-.75Zm1.5 0h.75v1.5h-.75Zm1.5 0h.754v1.5h-.754Zm1.504 0h.75v1.5h-.75Zm1.5 0h.754v1.5h-.754Zm1.504 0h.75v1.5h-.75Zm1.5 0h.75v1.5h-.75Zm1.504 0h.75v1.5h-.75Zm1.5 0h.75v1.5h-.75Zm1.504 0h.75v1.5h-.75Zm1.5 0h.75v1.5h-.75Zm1.5 0h.754v1.5h-.754Zm1.504 0h.75v1.5h-.75Zm1.5 0h.754v1.5h-.754Zm1.504 0h.75v1.5h-.75Zm1.5 0h.75v1.5h-.75Zm1.504 0h.75v1.5h-.75Zm1.5 0h.75v1.5h-.75Zm1.504 0h.75v1.5h-.75Zm1.5 0h.75v1.5h-.75Zm1.5 0h.754v1.5h-.754Zm1.504 0h.75v1.5h-.75Zm1.5 0h.75v1.5h-.75Zm1.503 0h.75v1.5h-.75Zm1.5 0h.75v1.5h-.75Zm1.504 0h.75v1.5h-.75Zm1.5 0h.75v1.5h-.75Zm1.5 0h.754v1.5h-.754Zm1.504 0h.75v1.5h-.75Zm1.5 0h.754v1.5h-.754Zm1.504 0h.75v1.5h-.75Zm1.5 0h.75v1.5h-.75Zm1.504 0h.75v1.5h-.75Zm1.5 0h.75v1.5h-.75Zm1.504 0h.75v1.5h-.75Zm1.5 0h.75v1.5h-.75Zm1.5 0h.754v1.5h-.754Zm1.504 0h.75v1.5h-.75Zm1.5 0h.754v1.5h-.754Zm1.504 0h.75v1.5h-.75Zm1.5 0h.75v1.5h-.75Zm1.504 0h.75v1.5h-.75Zm1.5 0h.75v1.5h-.75Zm1.504 0h.75v1.5h-.75Zm1.5 0h.75v1.5h-.75Zm1.5 0h.753v1.5h-.753Zm1.503 0h.75v1.5h-.75Zm1.5 0h.754v1.5h-.754Zm1.504 0h.75v1.5h-.75Zm1.5 0h.75v1.5h-.75Zm1.504 0h.75v1.5h-.75Zm1.5 0h.75v1.5h-.75Zm1.504 0h.75v1.5h-.75Zm1.5 0h.75v1.5h-.75Zm1.5 0h.754v1.5h-.754Zm1.504 0h.75v1.5h-.75Zm1.5 0H305v1.5h-.754Zm1.504 0h.75v1.5h-.75Zm1.5 0h.75v1.5h-.75Zm1.504 0h.75v1.5h-.75Zm1.5 0h.75v1.5h-.75Zm1.5 0h.754v1.5h-.754Zm1.504 0h.75v1.5h-.75Zm1.5 0h.754v1.5h-.754Zm1.504 0h.75v1.5h-.75Zm1.5 0h.75v1.5h-.75Zm1.504 0h.75v1.5h-.75Zm1.5 0h.75v1.5h-.75Zm1.504 0h.75v1.5h-.75Zm1.5 0h.75v1.5h-.75Zm1.5 0h.753v1.5h-.753Zm1.503 0h.75v1.5h-.75Zm1.5 0h.754v1.5h-.754Zm1.504 0h.75v1.5h-.75Zm1.5 0h.75v1.5h-.75Zm1.504 0h.75v1.5h-.75Zm1.5 0h.75v1.5h-.75Zm1.504 0h.75v1.5h-.75Zm1.5 0h1.23v1.02h-1.5v-.27h.75v.75h-.48Zm1.23 1.77v.75h-1.5v-.75Zm0 1.5v.75h-1.5v-.75Zm0 1.5v.75h-1.5v-.75Zm0 1.5v.75h-1.5v-.75Zm0 1.5v.75h-1.5v-.75Zm0 1.5v.75h-1.5v-.75Zm0 1.5v.75h-1.5v-.75Zm0 1.5v.75h-1.5v-.75Zm0 1.5v.75h-1.5v-.75Zm0 1.5v.75h-1.5v-.75Zm0 1.5v.75h-1.5v-.75Zm0 1.5v.75h-1.5v-.75Zm0 1.5v.75h-1.5v-.75Zm0 1.5v.75h-1.5v-.75Zm0 1.5v.75h-1.5v-.75Zm0 1.5v.75h-1.5v-.75Zm0 1.5v.75h-1.5v-.75Zm0 1.5v.75h-1.5v-.75Zm0 1.5v.75h-1.5v-.75Zm0 1.5v.75h-1.5v-.75Zm0 1.5v.75h-1.5v-.75Zm0 1.5v.75h-1.5v-.75Zm0 1.5v.75h-1.5v-.75Zm0 1.5v.75h-1.5v-.75Zm0 1.5v.75h-1.5v-.75Zm0 1.5v.75h-1.5v-.75Zm0 1.5v.75h-1.5v-.75Zm0 1.5v.75h-1.5v-.75Zm0 1.5v.75h-1.5v-.75Zm0 1.5v.75h-1.5v-.75Zm0 1.5v.75h-1.5v-.75Zm0 1.5v.75h-1.5v-.75Zm0 1.5v.75h-1.5v-.75Zm0 1.5v.75h-1.5v-.75Zm0 1.5v.75h-1.5v-.75Zm0 1.5v.75h-1.5v-.75Zm0 1.5v.75h-1.5v-.75Zm0 1.5v.75h-1.5v-.75Zm0 1.5v.75h-1.5v-.75Zm0 1.5v1.23h-1.019v-1.5h.27v.75h-.75v-.48Zm-1.769 1.23h-.754v-1.5h.754Zm-1.504 0h-.75v-1.5h.75Zm-1.5 0h-.75v-1.5h.75Zm-1.504 0h-.75v-1.5h.75Zm-1.5 0h-.75v-1.5h.75Zm-1.504 0h-.75v-1.5h.75Zm-1.5 0h-.75v-1.5h.75Zm-1.5 0h-.754v-1.5h.754Zm-1.504 0h-.75v-1.5h.75Zm-1.5 0h-.753v-1.5h.753Zm-1.503 0h-.75v-1.5h.75Zm-1.5 0h-.75v-1.5h.75Zm-1.504 0h-.75v-1.5h.75Zm-1.5 0h-.75v-1.5h.75Zm-1.504 0h-.75v-1.5h.75Zm-1.5 0h-.75v-1.5h.75Zm-1.5 0h-.754v-1.5h.754Zm-1.504 0h-.75v-1.5h.75Zm-1.5 0h-.754v-1.5h.754Zm-1.504 0h-.75v-1.5h.75Zm-1.5 0h-.75v-1.5h.75Zm-1.504 0h-.75v-1.5h.75Zm-1.5 0h-.75v-1.5h.75Zm-1.504 0h-.75v-1.5h.75Zm-1.5 0h-.75v-1.5h.75Zm-1.5 0h-.754v-1.5h.754Zm-1.504 0h-.75v-1.5h.75Zm-1.5 0h-.754v-1.5h.754Zm-1.504 0h-.75v-1.5h.75Zm-1.5 0h-.75v-1.5h.75Zm-1.504 0h-.75v-1.5h.75Zm-1.5 0h-.75v-1.5h.75Zm-1.503 0h-.75v-1.5h.75Zm-1.5 0h-.75v-1.5h.75Zm-1.5 0h-.754v-1.5h.753Zm-1.504 0h-.75v-1.5h.75Zm-1.5 0h-.754v-1.5h.754Zm-1.504 0h-.75v-1.5h.75Zm-1.5 0h-.75v-1.5h.75Zm-1.504 0h-.75v-1.5h.75Zm-1.5 0h-.75v-1.5h.75Zm-1.5 0h-.754v-1.5h.754Zm-1.504 0h-.75v-1.5h.75Zm-1.5 0h-.754v-1.5h.754Zm-1.504 0h-.75v-1.5h.75Zm-1.5 0h-.75v-1.5h.75Zm-1.504 0h-.75v-1.5h.75Zm-1.5 0h-.75v-1.5h.75Zm-1.504 0h-.75v-1.5h.75Zm-1.5 0h-.75v-1.5h.75Zm-1.5 0h-.754v-1.5h.754Zm-1.504 0h-.75v-1.5h.75Zm-1.5 0h-.754v-1.5h.754Zm-1.504 0h-.75v-1.5h.75Zm-1.5 0h-.75v-1.5h.75Zm-1.504 0h-.75v-1.5h.75Zm-1.5 0h-.75v-1.5h.75Zm-1.503 0h-.75v-1.5h.75Zm-1.5 0h-.75v-1.5h.75Zm-1.5 0h-.754v-1.5h.754Zm-1.504 0h-.75v-1.5h.75Zm-1.5 0h-.754v-1.5h.754Zm-1.504 0h-.75v-1.5h.75Zm-1.5 0h-.75v-1.5h.75Zm-1.504 0h-.75v-1.5h.75Zm-1.5 0h-.75v-1.5h.75Zm-1.504 0h-.75v-1.5h.75Zm-1.5 0h-.75v-1.5h.75Zm-1.5 0h-.754v-1.5h.754Zm-1.504 0h-.75v-1.5h.75Zm-1.5 0h-.754v-1.5h.754Zm-1.504 0h-.75v-1.5h.75Zm-1.5 0h-.75v-1.5h.75Zm-1.504 0h-.75v-1.5h.75Zm-1.5 0h-.75v-1.5h.75Zm-1.5 0h-.754v-1.5h.754Zm-1.504 0h-.75v-1.5h.75Zm-1.5 0h-.754v-1.5h.754Zm-1.504 0h-.75v-1.5h.75Zm-1.5 0h-.75v-1.5h.75Zm-1.504 0h-.75v-1.5h.75Zm-1.5 0h-.75v-1.5h.75Zm-1.503 0h-.75v-1.5h.75Zm-1.5 0h-.75v-1.5h.75Zm-1.5 0h-.754v-1.5h.754Zm-1.504 0h-.75v-1.5h.75Zm-1.5 0h-.754v-1.5h.754Zm-1.504 0h-.75v-1.5h.75Zm-1.5 0h-.75v-1.5h.75Zm-1.504 0h-.75v-1.5h.75Zm-1.5 0h-.75v-1.5h.75Zm-1.504 0h-.75v-1.5h.75Zm-1.5 0h-.75v-1.5h.75Zm-1.5 0h-.754v-1.5h.754Zm-1.504 0h-.75v-1.5h.75Zm-1.5 0h-.754v-1.5h.754Zm-1.504 0h-.75v-1.5h.75Zm-1.5 0h-.75v-1.5h.75Zm-1.504 0h-.75v-1.5h.75Zm-1.5 0h-.75v-1.5h.75Zm-1.504 0h-.75v-1.5h.75Zm-1.5 0h-.75v-1.5h.75Zm-1.5 0h-.754v-1.5h.754Zm-1.504 0h-.75v-1.5h.75Zm-1.5 0h-.754v-1.5h.754Zm-1.504 0h-.75v-1.5h.75Zm-1.5 0h-.75v-1.5h.75Zm-1.503 0h-.75v-1.5h.75Zm-1.5 0h-.75v-1.5h.75Zm-1.5 0h-.754v-1.5h.754Zm-1.504 0h-.75v-1.5h.75Zm-1.5 0h-.754v-1.5h.754Zm-1.504 0h-.75v-1.5h.75Zm-1.5 0h-.75v-1.5h.75Zm-1.504 0h-.75v-1.5h.75Zm-1.5 0h-.75v-1.5h.75Zm-1.504 0h-.75v-1.5h.75Zm-1.5 0h-.75v-1.5h.75Zm-1.5 0h-.754v-1.5h.754Zm-1.504 0h-.75v-1.5h.75Zm-1.5 0h-.754v-1.5h.754Zm-1.504 0h-.75v-1.5h.75Zm-1.5 0h-.75v-1.5h.75Zm-1.504 0h-.75v-1.5h.75Zm-1.5 0h-.75v-1.5h.75Zm-1.504 0h-.75v-1.5h.75Zm-1.5 0h-.75v-1.5h.75Zm-1.5 0h-.754v-1.5h.754Zm-1.504 0h-.75v-1.5h.75Zm-1.5 0h-.753v-1.5h.753Zm-1.503 0h-.75v-1.5h.75Zm-1.5 0h-.75v-1.5h.75Zm-1.504 0h-.75v-1.5h.75Zm-1.5 0h-.75v-1.5h.75Zm-1.504 0h-.75v-1.5h.75Zm-1.5 0h-.75v-1.5h.75Zm-1.5 0h-.754v-1.5h.754Zm-1.504 0h-.75v-1.5h.75Zm-1.5 0h-.754v-1.5h.754Zm-1.504 0h-.75v-1.5h.75Zm-1.5 0h-.75v-1.5h.75Zm-1.504 0h-.75v-1.5h.75Zm-1.5 0h-.75v-1.5h.75Zm-1.504 0h-.75v-1.5h.75Zm-1.5 0h-.75v-1.5h.75Zm-1.5 0h-.754v-1.5h.754Zm-1.504 0h-.75v-1.5h.75Zm-1.5 0h-.75v-1.5h.75Zm-1.504 0h-.75v-1.5h.75Zm-1.5 0h-.75v-1.5h.75Zm-1.504 0h-.75v-1.5h.75Zm-1.5 0h-.75v-1.5h.75Zm-1.5 0h-.754v-1.5h.754Zm-1.504 0h-.75v-1.5h.75Zm-1.5 0h-.753v-1.5h.753Zm-1.503 0h-.75v-1.5h.75Zm-1.711-1.29v-.75h1.5v.75Zm0-1.5v-.75h1.5v.75Zm0-1.5v-.75h1.5v.75Zm0-1.5v-.75h1.5v.75Zm0-1.5v-.75h1.5v.75Zm0-1.5v-.75h1.5v.75Zm0-1.5v-.75h1.5v.75Zm0-1.5v-.75h1.5v.75Zm0-1.5v-.75h1.5v.75Zm0-1.5v-.75h1.5v.75Zm0-1.5v-.75h1.5v.75Zm0-1.5v-.75h1.5v.75Zm0-1.5v-.75h1.5v.75Zm0-1.5v-.75h1.5v.75Zm0-1.5v-.75h1.5v.75Zm0-1.5v-.75h1.5v.75Zm0-1.5v-.75h1.5v.75Zm0-1.5v-.75h1.5v.75Zm0-1.5v-.75h1.5v.75Zm0-1.5v-.75h1.5v.75Zm0-1.5v-.75h1.5v.75Zm0-1.5v-.75h1.5v.75Zm0-1.5v-.75h1.5v.75Zm0-1.5v-.75h1.5v.75Zm0-1.5v-.75h1.5v.75Zm0-1.5v-.75h1.5v.75Zm0-1.5v-.75h1.5v.75Zm0-1.5v-.75h1.5v.75Zm0-1.5v-.75h1.5v.75Zm0-1.5v-.75h1.5v.75Zm0-1.5v-.75h1.5v.75Zm0-1.5v-.75h1.5v.75Zm0-1.5v-.75h1.5v.75Zm0-1.5v-.75h1.5v.75Zm0-1.5v-.75h1.5v.75Zm0-1.5v-.75h1.5v.75Zm0-1.5v-.75h1.5v.75Zm0-1.5v-.75h1.5v.75Zm0-1.5v-.75h1.5v.75Zm0-1.5v-.75h1.5v.75Zm0 0"/>
  </g>
  <path d="M142.895 322.638h-2.219v-20.375h3.547l6.172 17.25h.297l6.172-17.25h3.422v20.375h-2.266v-16.625l-.344-.047-6.015 16.672h-2.39l-6.032-16.672-.344.047ZM169.722 322.935c-1.524 0-2.711-.395-3.563-1.188-.844-.789-1.265-1.921-1.265-3.39 0-.906.187-1.672.562-2.297.375-.625.957-1.133 1.75-1.531.79-.395 1.82-.703 3.094-.922 1.113-.188 1.96-.395 2.547-.625.582-.227.972-.485 1.172-.766.195-.289.296-.656.296-1.094 0-.695-.242-1.234-.718-1.609-.48-.375-1.25-.562-2.313-.562-.992 0-1.84.195-2.547.578-.71.386-1.36.965-1.953 1.734h-.281l-1.125-1.578a6.94 6.94 0 0 1 2.484-1.969c1-.488 2.14-.734 3.422-.734 1.813 0 3.145.398 4 1.187.863.793 1.297 1.89 1.297 3.297v8.156c0 .856.363 1.282 1.094 1.282.238 0 .469-.04.687-.125l.203.047.266 1.578c-.168.117-.39.199-.672.25a3.775 3.775 0 0 1-.844.093c-.843 0-1.484-.18-1.921-.546-.43-.375-.7-.926-.813-1.657l-.297-.03c-.437.812-1.027 1.42-1.765 1.827-.743.395-1.672.594-2.797.594Zm.5-1.813c.851 0 1.593-.195 2.218-.593.625-.395 1.102-.946 1.438-1.657.332-.718.5-1.546.5-2.484v-1.953l-.266-.063a4.839 4.839 0 0 1-1.25.61c-.492.168-1.18.312-2.062.437-.887.125-1.594.313-2.125.563-.524.25-.899.57-1.125.953-.219.387-.328.86-.328 1.422 0 .906.265 1.594.797 2.062.53.47 1.265.703 2.203.703ZM183.082 304.31c-.48 0-.871-.148-1.172-.453-.305-.301-.453-.688-.453-1.156 0-.457.148-.836.453-1.141.3-.3.691-.453 1.172-.453.488 0 .882.152 1.187.453.3.305.453.684.453 1.14 0 .47-.152.856-.453 1.157-.305.305-.7.453-1.187.453Zm-1.141 18.328v-15.36h2.281v15.36ZM189.56 322.638v-15.36h2.156v2.407l.296.062c.508-.894 1.16-1.578 1.954-2.046.8-.477 1.77-.72 2.906-.72 1.851 0 3.191.477 4.015 1.423.832.937 1.25 2.386 1.25 4.343v9.891h-2.265v-9.828c0-.938-.121-1.688-.36-2.25-.23-.563-.593-.969-1.093-1.219-.5-.258-1.153-.39-1.953-.39-1.387 0-2.508.46-3.36 1.375-.844.918-1.265 2.39-1.265 4.421v7.891ZM226.614 302.263v1.984h-9.578v7.407h8.609v2h-8.61v8.984h-2.39v-20.375ZM236.521 322.935c-1.449 0-2.71-.305-3.78-.922-1.075-.613-1.903-1.516-2.485-2.703-.575-1.195-.86-2.645-.86-4.344 0-1.695.286-3.144.86-4.344.582-1.195 1.41-2.101 2.484-2.718 1.07-.614 2.332-.922 3.781-.922 1.446 0 2.707.308 3.782.922 1.07.617 1.898 1.523 2.484 2.718.582 1.2.875 2.649.875 4.344 0 1.7-.293 3.149-.875 4.344-.586 1.187-1.414 2.09-2.484 2.703-1.075.617-2.336.922-3.782.922Zm0-2.031c1.532 0 2.703-.485 3.516-1.453.82-.97 1.234-2.461 1.234-4.485 0-2.039-.414-3.539-1.234-4.5-.813-.969-1.984-1.453-3.516-1.453-1.53 0-2.71.484-3.53 1.453-.813.969-1.22 2.469-1.22 4.5 0 2.024.407 3.516 1.22 4.485.82.968 2 1.453 3.53 1.453ZM254.154 322.935c-1.45 0-2.711-.305-3.782-.922-1.074-.613-1.902-1.516-2.484-2.703-.574-1.195-.86-2.645-.86-4.344 0-1.695.286-3.144.86-4.344.582-1.195 1.41-2.101 2.484-2.718 1.07-.614 2.332-.922 3.782-.922 1.445 0 2.707.308 3.78.922 1.071.617 1.9 1.523 2.485 2.718.582 1.2.875 2.649.875 4.344 0 1.7-.293 3.149-.875 4.344-.586 1.187-1.414 2.09-2.484 2.703-1.074.617-2.336.922-3.781.922Zm0-2.031c1.53 0 2.703-.485 3.515-1.453.82-.97 1.235-2.461 1.235-4.485 0-2.039-.415-3.539-1.235-4.5-.812-.969-1.984-1.453-3.515-1.453-1.532 0-2.711.484-3.532 1.453-.812.969-1.218 2.469-1.218 4.5 0 2.024.406 3.516 1.218 4.485.82.968 2 1.453 3.532 1.453ZM273.364 320.2l.719 1.626c-.356.367-.829.64-1.422.828a6.302 6.302 0 0 1-1.907.28c-2.937 0-4.406-1.487-4.406-4.468v-9.344h-2.672v-1.859h2.672v-3.25l2.266-.375v3.625h4.953v1.86h-4.953v9.124c0 1.774.765 2.657 2.297 2.657.832 0 1.55-.235 2.156-.703ZM289.313 315.482H278.75c.063 1.867.508 3.234 1.344 4.11.832.874 1.973 1.312 3.422 1.312 1.094 0 1.973-.192 2.64-.578.676-.395 1.204-1.016 1.579-1.86h.297l1.484.89c-.45 1.118-1.164 1.993-2.14 2.626-.981.637-2.266.953-3.86.953-1.48 0-2.758-.293-3.828-.875-1.074-.594-1.899-1.484-2.469-2.672-.574-1.187-.86-2.66-.86-4.422 0-1.75.302-3.222.907-4.422.613-1.195 1.445-2.086 2.5-2.672 1.05-.593 2.254-.89 3.61-.89 1.968 0 3.503.558 4.609 1.672 1.101 1.105 1.66 2.746 1.672 4.922 0 .855-.016 1.433-.047 1.734Zm-1.89-1.906c-.044-1.625-.407-2.805-1.095-3.547-.687-.75-1.671-1.125-2.953-1.125-1.343 0-2.402.375-3.172 1.125-.761.742-1.226 1.922-1.39 3.547ZM293.723 322.638v-15.36h2.156v2.407l.297.062c.719-1.738 2.066-2.609 4.047-2.609 1.039 0 1.82.188 2.344.563l-.579 1.921-.28.063a4.143 4.143 0 0 0-1.891-.438c-1.23 0-2.172.465-2.829 1.391-.656.918-.984 2.406-.984 4.469v7.531Zm0 0"/>
</svg>
